<svg width="2880" height="1537" viewBox="0 0 2880 1537" fill="none" xmlns="http://www.w3.org/2000/svg">
<path d="M1993.84 681.859C2025.18 736.356 2059.69 791.364 2078.31 854.657C2080.23 862.672 2081.79 870.873 2081.1 879.59C2080.89 887.995 2074.95 898.199 2065.58 899.743C2047.55 902.667 2032.04 894.92 2016.99 888.465C1987.11 874.422 1959.22 856.246 1931.87 837.678L1935.06 833.878C2046.18 945.366 2172.61 1043.47 2300.98 1123.05C2330.02 1140.76 2328.08 1139.52 2336.28 1144.39C2358.83 1157.52 2372.73 1164.87 2389.53 1173.8C2463.22 1212.63 2535.95 1243.67 2614.39 1263.9L2612.6 1267.9C2605.41 1263.08 2597.76 1257.85 2590.56 1252.88C2514 1198.9 2550.58 1223.81 2524.3 1204.65C2473.5 1166.44 2516.39 1199.37 2496.34 1184.49C2438.41 1140.27 2380.81 1094.17 2329.69 1041.71C2342.14 1054.53 2355.09 1066.84 2368.45 1078.97C2344.8 1057.56 2313.16 1024.85 2351.05 1062.29C2342.64 1054.15 2334.76 1046.24 2326.53 1037.48C2324.44 1035.78 2300.44 1009.73 2290.8 995.004C2288.01 990.98 2286.05 988.132 2285.4 987.238C2284.05 985.358 2286.94 989.701 2290.64 995.112C2294.9 1001.41 2300.78 1008.84 2300.71 1008.75C2300.41 1008.4 2296.21 1003.32 2290.57 995.158C2269.57 966.389 2226.78 895.195 2234.71 884.336C2235.56 877.56 2238.85 874.694 2240.29 873.469C2241.8 872.294 2242.14 872.239 2242.29 872.173C2242.46 872.127 2242.47 872.106 2243.8 871.451C2245 870.917 2247.58 869.615 2253.09 869.01C2271.48 868.38 2274.62 870.678 2279.02 871.147C2283.85 872.273 2289.74 873.095 2312.99 881.563C2331.35 887.94 2333.15 888.775 2355.79 898.339C2358.85 899.654 2356.53 898.49 2357.88 899.067C2392.16 914.042 2365.63 902.635 2365.86 902.754C2366.82 903.273 2371.25 905.272 2377.39 908.075C2389.68 913.686 2408.07 922.081 2413.27 924.49C2509.48 968.732 2580.02 1002.9 2688.25 1031.55C2711.49 1038.41 2784.11 1051.28 2807.49 1052.68C2830.4 1054.82 2818.13 1053.9 2830.16 1054.91C2849.46 1055.58 2867.94 1057.01 2911.37 1055.92C2927.62 1054.8 2925.43 1055.55 2956.36 1052.79C2982.13 1050.54 3026.45 1043.33 3054.34 1037.48C3022.26 1043.93 3025.73 1043.64 2989.46 1049.08C2977.54 1053.43 2850.52 1058.04 2859.83 1056.53C2864.76 1057.16 2907.06 1056.74 2908.58 1056.45C2918.09 1056.26 2894.5 1057.6 2873.7 1057.2C2878.9 1057.22 2885.11 1057.19 2890.73 1057.08C2843.85 1056.59 2876.07 1058.06 2840.47 1055.86C2836.08 1055.51 2837.77 1055.53 2830.57 1054.95C2829.09 1054.89 2837.9 1055.58 2830.3 1055.1C2822.48 1054.63 2807.74 1053.06 2805.57 1052.99C2802.19 1053.03 2834.51 1055.7 2836.88 1055.68C2836.91 1055.68 2836.94 1055.68 2836.96 1055.68C2858.44 1057.08 2813.56 1054.38 2811.46 1053.9C2797.69 1052.67 2806.97 1053.88 2786.28 1051.53C2774.4 1050.26 2744.49 1045.33 2733.52 1043.05C2722.59 1040.9 2739.57 1044.39 2732.21 1042.96C2724.84 1041.53 2715.78 1039.52 2707.19 1037.56C2703.52 1036.73 2703.68 1036.9 2701.91 1036.48C2682.94 1031.91 2695.39 1034.75 2678.29 1030.32C2667.13 1027.55 2630.21 1016.61 2655.64 1024.33C2643.35 1020.74 2631.51 1017.02 2619.47 1013.02C2627.02 1015.59 2634.94 1018.17 2642.36 1020.51C2619.58 1013.33 2609.31 1009.9 2595.23 1004.9C2581.11 999.817 2568.67 994.801 2553.33 988.831C2520.53 976.132 2601.55 1008.05 2612.02 1010.89C2616 1012.29 2600.62 1007.2 2598.3 1006.34C2587.85 1002.65 2575.68 997.91 2567.7 994.825C2539.24 983.772 2521.94 976.664 2495.26 965.062C2457.85 948.738 2417.18 929.671 2376.03 911.069C2346.41 897.811 2316.73 885.114 2286.82 876.997C2272.29 873.498 2255.83 869.203 2244 875.58C2238.53 878.931 2237.84 886.318 2239.03 892.997C2240.21 899.766 2242.66 906.188 2245.37 912.433C2260.1 943.702 2272.69 960.845 2281.08 974.036C2286.22 981.766 2290.34 987.764 2293.88 992.891C2304.13 1007.27 2309.68 1013.88 2325.67 1031.34C2357.84 1066.25 2408.82 1109.95 2439.71 1134.85C2461.06 1152.18 2480.88 1167.17 2486.59 1171.54C2526.21 1201.87 2571.14 1234.51 2615.16 1264.09L2613.26 1268.35C2562.11 1255.37 2514.48 1237.31 2476.84 1221.06C2441.21 1205.55 2424.94 1196.84 2417.73 1193.36C2386.96 1177.84 2395.12 1182.19 2370.51 1168.96C2357.28 1161.71 2354.93 1160.12 2353.17 1159.13C2337.71 1150.33 2334.57 1148.73 2322.6 1141.69C2253.95 1101.03 2190.68 1057.13 2128.09 1009.04C2123.57 1005.56 2124.09 1005.82 2121.11 1003.52C2108.45 993.687 2114.21 998.415 2101.18 988.131C2074.05 966.609 2046.65 943.794 2019.07 919.542C2016.32 917.113 2015.34 916.092 2009.01 910.457C2002.68 904.802 1998.13 900.906 1988.32 891.912C1969.1 874.24 1950.36 856.23 1931.75 837.106L1934.48 833.862C1941.68 838.803 1948.36 843.284 1955.46 847.915C1960.77 851.365 1966.67 854.966 1974.45 859.749C1998.36 874.277 2035.2 895.845 2058.91 895.927C2068.44 896.411 2075.97 889.593 2076.45 880.112C2077.41 871.026 2075.32 861.111 2072.95 852.236C2067.81 833.749 2060.35 816.517 2052.43 799.441C2036.4 765.346 2018.34 733.116 1999.48 700.619C1990.66 685.482 1982.77 672.045 1977.99 664.101C1977.98 664.095 1977.98 664.09 1977.98 664.084C1967.12 646.532 1975.39 659.774 1963.95 642.282C1892.42 537.155 1788.24 453.262 1669.73 405.177L1668.52 404.737L1668.35 403.466C1662.72 360.476 1645.56 319.474 1622.1 282.9C1586.04 225.387 1524.11 168.969 1470.92 130.943C1448.79 115.097 1444.68 112.322 1428.5 101.805C1399.41 83.4861 1393.89 80.4876 1362.1 63.029C1336.66 49.2742 1306.9 34.4516 1279.22 22.5937C1260.91 14.7692 1248.97 10.1994 1233.68 4.72724L1234.32 0.336659C1242.5 -0.156282 1252.36 -0.172688 1264.09 0.712662C1293.07 2.66661 1332.04 11.5362 1361.95 20.408C1590.03 93.8285 1795.05 214.926 1996.27 342.036L1994.16 346.359C1950.52 332.563 1904.26 314.609 1859.45 324.412C1832.53 331.022 1839.08 365.63 1850.18 387.28C1861.29 410.753 1876.77 432.807 1893.11 454.025C1926.2 496.507 1963.61 535.524 2001.28 571.691C2008.4 578.429 1997.23 568.419 2020.31 589.779C2032.79 601.145 2050.34 616.978 2080.47 641.796C2106.46 663.069 2133.5 683.753 2161.83 702.369C2177.25 712.257 2193.85 721.381 2212 721.501C2230.33 722.041 2243.69 705.98 2249.18 688.68C2260.39 653.658 2258.5 615.155 2255.78 577.912C2249.17 503.247 2233.19 428.923 2213.51 356.87L2217.14 356.255C2225.32 410.261 2249.19 461.465 2271.07 510.894C2314.84 605.851 2367.08 697.664 2421.83 787.146C2555.42 1008.17 2837.09 1064.95 3046.15 1038.23C3060.81 1036.02 3053.14 1037.89 3044.15 1039.4C3035.81 1040.5 3027.95 1041.32 3019.4 1042.06C3008.46 1043.66 3010.28 1044.18 2969.47 1045.75C2944.24 1046.25 2964.29 1046.18 2950.96 1046.43C2933.55 1047.85 2851.71 1041.99 2867.55 1042.5C2862.52 1042.08 2857.83 1041.65 2852.87 1041.15C2794.01 1034.24 2737.5 1021.27 2683.15 1000.95C2673.76 997.389 2673.28 997.365 2663.71 993.454C2638.05 982.737 2618.2 972.904 2593.43 958.53C2580.02 950.523 2578.08 949.677 2561.16 938.242C2544.53 926.481 2544.87 926.812 2523.1 909.422C2536.42 921.798 2475.54 868.384 2458.71 844.742C2455.87 841.672 2434.66 814.581 2425.2 799.198C2423.24 796.133 2421.09 792.715 2418.83 788.982C2409.71 773.97 2398.4 755.044 2386.88 735.639C2380.12 724.239 2375.94 717.489 2368.8 705.115C2363.92 696.66 2357.92 685.77 2351.83 674.885C2345.52 663.712 2332.24 639.772 2329.92 635.42C2321.22 619.287 2330.88 636.988 2324.99 626.005C2296.75 573.288 2265.89 510.633 2243.87 455.806C2241.21 449.183 2244.73 458.408 2244.39 457.547C2226.31 411.633 2236.14 436.065 2231.6 423.552C2229.46 416.565 2216.92 384.543 2213.97 356.462L2216.57 356.02C2222.22 376.141 2226.46 393.106 2226.65 393.339C2227.07 396.244 2232.23 416.573 2233.43 421.932C2238.13 442.612 2236.97 438.594 2241.23 458.739C2242.76 466.12 2240.03 451.701 2241.64 459.638C2245.57 479.321 2248.62 497.106 2252.56 523.511C2253.48 529.877 2253.96 532.006 2255.42 543.298C2257.28 554.668 2260.89 602.741 2259.43 580.508C2261.06 609.697 2262.09 615.556 2260.06 649.579C2259.2 658.103 2258.37 669.379 2253.14 687.031C2251.13 692.924 2251.67 692.969 2247.44 701.488C2238.62 721.765 2212.38 731.168 2187.39 719.689C2182.57 717.8 2178.27 715.767 2173.34 713.119C2169.11 710.831 2164.67 708.178 2160.02 705.137C2125.78 682.697 2091.53 655.958 2059.63 628.784C2048.82 619.492 2051.5 621.605 2035.98 607.884C2033.66 605.876 2014.92 589.21 2004.49 579.272C1998.04 573.43 1966.23 541.948 1960.01 535.223C1949.64 524.464 1947.7 522.638 1942.1 516.58C1926.23 499.077 1939.13 513.006 1919.88 491.908C1913.99 484.87 1903.06 471.827 1900.1 467.643C1893.62 460.091 1886.02 450.165 1875.11 434.956C1864.01 419.494 1855.74 406.326 1854.24 402.206C1848.86 394.708 1834.88 359.816 1836.68 352.552C1836.54 343.208 1838.11 340.834 1838.46 339.424C1839.17 338.003 1838.94 336.541 1843.41 330.764C1844.22 329.835 1844.16 329.825 1845.34 328.638C1846.47 327.613 1849.25 324.619 1856.53 321.797C1867.24 311.61 1943.35 325.686 1946.76 328.163C1998.16 342.886 1918.92 319.879 1908.17 320.265C1906.1 319.923 1904.09 319.616 1901.97 319.327C1879.91 317.296 1892.31 318.451 1902.46 319.674C1905.07 320.009 1908.33 320.463 1912.03 321.067C1915.18 321.58 1918.59 322.187 1922.12 322.882C1929.04 324.228 1936.93 326.099 1940.47 327.035C1944.2 328.062 1942.72 327.843 1929.19 324.737C1943.56 328.104 1923.9 323.754 1929.55 325.131C1935.53 325.853 1985.16 340.375 1994.93 344.12L1994.98 344.02C1994.3 343.59 1993.91 343.355 1993.88 343.353C1994.24 343.586 1994.59 343.82 1994.96 344.055L1994.94 344.08C1983.12 340.002 1970.72 336.041 1959.67 332.838C1954.23 331.17 1956.51 331.569 1963.8 333.505C1970.18 335.186 1981.18 338.354 1995.28 343.108L1994.4 344.916C1984.79 338.753 1973.44 331.468 1962.66 324.487C1936.28 307.554 1980.45 334.699 1917.15 295.76C1927.14 301.904 1934.85 306.719 1943.87 312.368C1944.6 313.103 1930.65 304.091 1923.17 299.588C1919.63 297.44 1941.35 311.059 1922.36 299.4C1906.25 289.096 1893.59 281.735 1865.98 265.307C1873.48 269.692 1881.47 274.404 1889.02 278.881C1842.75 250.814 1950.47 315.358 1860.36 261.215C1871.14 267.585 1882.21 274.204 1892.95 280.676C1887.8 277.415 1896.35 282.144 1891.71 279.255C1879.48 271.622 1860.97 260.733 1845.65 251.739C1839.02 247.849 1843.18 250.171 1842.63 249.844C1833.51 244.505 1835.46 245.809 1827.35 241.116C1817.3 235.254 1787.95 218.366 1783.17 215.726C1770.75 208.784 1791.24 220.654 1790.02 219.998C1782.1 215.664 1765.98 206.519 1766.77 207.173C1805.82 228.375 1916.05 293.61 1815.89 235.395C1843.35 251.667 1835.24 247.243 1795.35 224.498C1762.35 205.871 1783.63 217.699 1766.56 207.924C1764.4 206.604 1719.82 182.05 1717.41 180.996C1719.35 181.7 1704.91 173.65 1714.83 178.633C1716.26 179.336 1734.65 189.328 1728.35 185.635C1725.2 183.779 1716.12 178.58 1717.68 179.247C1713.86 177.311 1709.85 175.298 1705.95 173.344C1678.29 158.662 1674.39 156.584 1659.27 148.542C1659.93 148.977 1673.83 156.516 1652.53 145.45C1651.43 144.887 1650.55 144.271 1639.7 138.707C1617.72 127.49 1613.12 125.228 1630.22 133.33C1584.35 110.818 1574.72 105.648 1526.89 84.173C1536.19 88.9103 1553.12 96.0633 1596.36 116.838C1598.18 117.848 1599.01 118.376 1600.89 119.419C1543.44 91.5681 1571.94 105.235 1538.97 90.2699C1531 86.5509 1487.67 67.7411 1502.03 74.3025C1505.41 75.7734 1532.22 87.5997 1529.12 86.3853C1528.46 86.0354 1495.91 71.8804 1492.91 70.6729C1456.64 55.5703 1522.32 80.605 1421 41.7516C1418.16 40.7306 1417.11 40.4909 1411.6 38.561C1401.3 34.988 1401.21 34.7939 1391.81 31.6901C1382.55 28.6601 1369.3 24.6632 1355.37 20.5136C1329.4 12.8081 1390.85 29.7277 1417.31 40.1526C1427.59 42.5236 1286.26 -6.70059 1234.38 1.39869L1234.04 3.72653C1241.6 6.45142 1247.34 8.66552 1248.82 9.22714C1282.57 22.6345 1256.71 11.7992 1234.09 3.58802L1234.39 1.54575C1246.39 0.862394 1258.13 1.65244 1259.59 1.77774C1261.41 2.08815 1260.9 2.10511 1283.58 4.50963C1290.36 5.18604 1262.13 1.58755 1278.95 3.50594C1296.14 5.76487 1289.23 5.12196 1290.5 5.28344C1294.41 5.83274 1312.76 9.24638 1314.77 9.79322C1349.99 18.6411 1346.76 17.5653 1299.87 6.99097C1279.23 3.50499 1326.65 12.6232 1300.81 7.91709C1269.65 2.26597 1246.81 2.04354 1242.62 2.12683C1239.39 2.15533 1236.7 2.25396 1234.43 2.37223L1234.37 2.80932C1264.45 14.283 1223.67 -2.28291 1273.88 18.1267C1303.48 30.8909 1229.28 -0.735252 1297.02 28.5644C1353.02 54.8706 1322.73 40.6131 1327.03 42.1211C1327.98 42.4976 1358.5 57.4432 1317.03 37.0915C1315.81 36.6141 1313.52 35.6658 1310.86 34.5095C1300.71 29.5977 1283.55 21.4648 1278.12 19.1684C1251.15 7.77312 1252.18 8.6979 1236.11 2.37783C1242.32 4.84054 1239.51 3.81986 1234.64 2.05295L1234.48 3.17504C1238.66 2.93057 1244.6 2.87374 1248.09 2.90408C1275.72 4.49475 1239.96 -0.618402 1301.73 8.69699C1293.7 7.06298 1286.51 5.77476 1278.55 4.62922C1286.12 5.56262 1293.52 6.72265 1300.92 8.06844C1312.09 10.167 1351.12 19.5235 1315.56 11.6288C1357.94 21.2694 1374.85 27.6379 1383.88 30.0355C1385.61 30.5394 1391.81 32.5192 1399.22 35.0367C1397.84 34.4901 1396.13 33.6729 1397.3 34.0392C1407.69 37.2551 1423.33 43.3748 1417.88 41.5823C1422.98 43.4237 1427.06 44.9442 1428.41 45.4482C1437.26 48.7556 1419.83 42.4607 1427.01 45.1669C1429.25 45.9354 1454.63 55.625 1454.95 55.8786C1457.85 57.6981 1416.97 40.1807 1499.06 74.3806C1501.14 74.7813 1463.09 59.0672 1472.99 62.7824C1483.65 66.6624 1504.94 76.317 1509.67 77.8778C1511.36 78.6992 1512.09 79.0926 1513.54 79.8251C1546.62 94.1976 1546.65 94.9045 1556.69 99.5937C1576.07 108.41 1664.05 151.755 1585.12 112.782C1596.68 118.284 1608.59 124.085 1620.03 129.737C1622.28 131.775 1615.65 127.643 1670.45 155.985C1682.51 162.288 1686.25 164.616 1698.21 170.532C1696.48 169.976 1731.98 188.794 1735.23 190.687C1756.27 202.371 1677.48 160.252 1667.47 154.665C1653.96 147.969 1654.16 147.684 1639.14 140.111C1617.36 129.23 1614.33 127.753 1588.47 114.958C1562.88 102.57 1688.08 164.46 1612.1 127.162C1568.28 110.047 1404.12 10.7173 1234.56 4.68204L1235.16 0.633026C1353.45 43.6631 1452.38 110.125 1490.94 140.214C1596.12 221.891 1657.95 303.229 1672.89 402.865L1671.29 400.879C1723.2 420.697 1773.18 449.947 1826.63 490.773C1843.9 499.206 1941.81 599.356 1920.71 579.235C1918.28 575.841 1876.55 532.444 1911.82 570.117C1904.9 562.203 1925.36 584.636 1926.87 586.674C1960.16 627.544 1947.7 608.985 1981.83 661.785C1985.36 667.645 1989.29 674.186 1993.84 681.859ZM2035.33 892.049C2049.06 896.883 2061.57 898.736 2069.12 894.571C2076.63 890.248 2077.1 882.674 2077.52 878.69C2077.8 869.84 2077.07 868.979 2077.3 870.882C2078.07 874.663 2075.63 889.595 2076.78 877.9C2076.51 885.149 2073.59 892.339 2066.97 894.672C2060.42 897.096 2052.96 896.047 2045.51 894.28C2049.52 895.283 2052.89 895.941 2057.07 896.162C2057.08 896.162 2057.1 896.163 2057.12 896.164C2049.87 896.091 2042.59 894.32 2035.33 892.049ZM2675.36 1030.3C2670.81 1029.15 2666.33 1027.99 2661.45 1026.67C2646.25 1022.29 2631.18 1017.53 2616.24 1012.44C2618.04 1012.99 2619.78 1013.52 2621.59 1014.06C2639.39 1019.99 2657.18 1025.39 2675.36 1030.3ZM1433.08 45.838C1453.95 54.0139 1452.13 52.7808 1479.73 64.2445C1476.52 62.5987 1472.78 60.7558 1469.33 59.0434C1448.39 50.6952 1443.43 48.8453 1420.39 40.3321C1423.06 41.3965 1425.9 42.5387 1428.42 43.5717C1432.22 44.9536 1436.28 46.4542 1440 47.8491C1445.78 50.2491 1409.14 36.6914 1433 45.8114C1433.03 45.8203 1433.05 45.8291 1433.08 45.838ZM1642.33 139.562C1653.09 144.948 1695.29 167.13 1701.07 170.157C1720.85 179.878 1601.4 118.008 1689.53 163.458C1689.16 163.195 1689.59 163.355 1689.61 163.304C1673.63 154.857 1657.6 146.54 1641.37 138.302C1642.13 138.948 1641.45 138.857 1642.33 139.562ZM1894.37 555.711C1882.54 541.33 1814.63 485.274 1836.55 503.832C1843.21 508.975 1873.09 534.482 1883.56 545.152C1890.42 551.939 1882.7 544.422 1896.12 557.913C1895.6 557.246 1895.31 556.801 1894.33 555.674C1894.34 555.686 1894.36 555.698 1894.37 555.711ZM1918.83 580.26C1906.18 565.93 1892.68 552.008 1878.7 538.785C1888.83 548.49 1908.01 568.406 1908.78 569.897C1905.18 566.034 1901.63 562.306 1897.93 558.518C1895.17 555.563 1892.47 552.724 1889.69 549.859C1877.72 538.474 1885.11 545.204 1862.42 524.477C1875.67 537.54 1879.08 538.98 1915.08 577.341C1908.14 570.249 1914.22 577.349 1933.21 599.422C1936.79 603.551 1922.31 585.933 1922.1 585.814C1920.01 583.008 1928.3 592.494 1926.03 589.5C1925.07 588.139 1915.91 577.622 1914.6 576.025C1914.03 575.24 1922.92 585.048 1918.83 580.26ZM1942.17 610.374C1938.43 605.813 1950.65 621.829 1960.58 636.283C1975.9 658.838 1952.35 622.821 1942.17 610.374ZM2675.46 1030.32C2675.43 1030.31 2675.4 1030.31 2675.36 1030.3C2675.38 1030.3 2675.4 1030.3 2675.41 1030.31C2675.43 1030.31 2675.45 1030.32 2675.46 1030.32ZM1586.76 111.943C1599.55 117.922 1618.44 127.278 1617.1 126.413C1623.26 129.501 1629.48 132.651 1635.63 135.791C1635.6 135.711 1635.51 135.601 1635.47 135.521C1616.95 126.151 1598.38 116.995 1579.66 108.041C1581.94 109.299 1584.08 110.488 1586.76 111.943ZM1786.86 217.128C1809.46 229.96 1790.65 218.992 1795.67 221.696C1800.66 224.368 1820.88 236.09 1818.55 234.556C1805.26 226.888 1791.37 218.975 1777.76 211.328C1781.26 213.516 1783.66 215.097 1786.91 217.153C1786.89 217.145 1786.88 217.136 1786.86 217.128ZM2217.69 1073.29C2203.26 1063.19 2209.1 1067.23 2180.58 1047.09C2180.6 1047.1 2180.62 1047.12 2180.64 1047.13C2207.48 1066.77 2242.74 1091.11 2273.8 1110.68C2255.01 1098.4 2240.65 1089.17 2217.69 1073.29ZM1374.74 25.1679C1367.62 23.0344 1400.74 33.7302 1407.93 36.2722C1419.77 40.1287 1385.64 28.0987 1374.74 25.1679ZM2397.16 1102.16C2376.54 1084.75 2414.29 1119.19 2456.45 1152.02C2460.05 1154.9 2433.24 1133.24 2441.27 1139.55C2442.07 1140.21 2456.84 1152.03 2460.58 1154.86C2464.3 1157.7 2460.54 1154.54 2466.61 1159.22C2477.27 1167.48 2501.31 1186.07 2509.53 1191.98C2510.6 1192.78 2495.64 1181.25 2494.72 1180.52C2479.36 1168.71 2464.47 1157.38 2462.14 1155.53C2450.02 1145.99 2452 1147.25 2448.98 1144.78C2443.29 1140.13 2433.18 1132.04 2432.49 1131.46C2414.47 1116.53 2455.88 1150.33 2461.71 1154.6C2477.18 1166.38 2462.94 1155.35 2500.09 1183.53C2503.64 1186.22 2546 1218.01 2492.77 1177.68C2598.09 1255.81 2439.92 1138.32 2424.47 1123.4C2416.85 1117.16 2428.2 1126.82 2423.55 1123.08C2412.85 1114.58 2395.19 1099.46 2396.58 1101.02C2399.51 1104.44 2423.11 1123.95 2439.47 1137.22C2437.67 1135.93 2436.93 1135.5 2433.67 1133.02C2438.59 1136.98 2398.49 1103.53 2397.16 1102.16C2397.16 1102.16 2397.16 1102.16 2397.16 1102.16ZM2555.96 1249.68C2528.13 1239.9 2530.02 1240.93 2504.91 1230.88C2482.69 1222.34 2526.33 1239.81 2531.53 1241.45C2555.08 1249.98 2554.32 1250.17 2578.83 1257.7C2570.52 1254.93 2563.66 1252.49 2555.96 1249.68ZM2456.16 1149.67C2471.74 1161.74 2444.08 1139.86 2443.04 1138.89C2430.96 1129.07 2513.96 1194.26 2456.16 1149.67ZM1808.07 480.446C1800.03 474.627 1805.01 478.421 1797.78 473.381C1790.62 468.196 1765.36 451.654 1765.86 452.257C1766.67 452.626 1812.64 483.187 1766.08 452.976C1767.64 454.028 1767.08 453.735 1767.81 454.27C1780.72 462.397 1793.48 471.025 1805.86 479.976C1799.17 474.903 1792.25 469.842 1785.66 465.196C1792.86 469.852 1796.69 472.812 1797.06 473.06C1797.06 473.06 1797.06 473.059 1797.06 473.059C1810.16 482.188 1826.14 493.892 1808.07 480.446ZM2022.77 921.058C2025.32 922.688 2007.21 907.459 2000.06 901.023C1992.82 894.587 1983.13 885.385 1986.67 888.929C1998.26 899.905 2022.4 920.864 2022.77 921.058C2022.77 921.058 2022.77 921.058 2022.77 921.058ZM2408.66 1187.16C2386.65 1175.97 2390 1177.96 2363.55 1163.35C2364.52 1164.02 2365.49 1164.69 2366.46 1165.35C2387.55 1176.82 2386.2 1175.8 2410.88 1188.55C2414.94 1190.6 2406.08 1186.54 2424.54 1195.58C2419.23 1192.82 2413.88 1189.97 2408.66 1187.16ZM2301.66 1127.65C2325.93 1142.35 2345.73 1153.07 2300.76 1126.48C2294.13 1122.48 2283.48 1116.46 2301.66 1127.65ZM1984.18 671.2C1982.31 668.076 1980.72 665.438 1979.4 663.247C1970.78 649.213 1973.77 654.091 1979.32 663.296C1984.26 671.573 1990.95 682.944 1993.72 687.767C1987.52 677.281 1982.85 669.533 1979.15 663.401C1963.78 638.803 1969.24 647.358 1979.09 663.435C1989.02 679.9 2003.05 704.074 2005.38 708.608C2012.35 720.383 2025.16 742.62 2011.23 717.754C2005.34 707.375 2007.39 711.275 2007.03 710.638C1996.05 691.598 1997.64 693.81 1984.18 671.2ZM2605.02 1264.45C2603.26 1263.98 2605.97 1264.89 2600.38 1263.4C2594.76 1261.93 2582.16 1258.12 2580.92 1257.82C2579.58 1257.6 2604.97 1265.03 2612.77 1266.81C2613.06 1266.88 2613.33 1266.94 2613.6 1267.01L2614.39 1265.24C2609.95 1262.34 2608.91 1261.85 2614.22 1265.49L2613.67 1266.72C2611.62 1266.17 2608.77 1265.44 2605.02 1264.45ZM2432.28 1198.38C2410.56 1187.95 2445.76 1205.73 2450.58 1207.79C2492.56 1226.82 2430.84 1198.27 2432.28 1198.38ZM2040.13 768.266C2012.32 716.999 2032.63 754.518 2048.45 787.34C2050.52 791.436 2052.86 796.193 2054.85 800.341C2044.83 780.957 2029.13 746.088 2064.45 823.484C2045.95 780.435 2061.86 816.56 2061.83 816.583C2065.34 820.93 2034.82 758.652 2040.15 768.312C2040.14 768.297 2040.13 768.281 2040.13 768.266ZM2557.36 1225.79C2536.64 1211.24 2484.01 1171.75 2508.4 1190.46C2524.61 1202.44 2540.91 1214.2 2557.36 1225.79ZM1412.21 88.5416C1394.6 77.6022 1378.12 68.0728 1355.59 56.1234C1375.63 67.159 1362.34 60.025 1355.55 56.4934C1345.1 51.0563 1370.17 64.3856 1370.24 64.5421C1369.58 64.5564 1353.92 55.586 1389.84 75.9057C1380.87 70.8214 1372.16 66.0516 1363.07 61.2363C1390.67 76.334 1396.91 80.4351 1413.84 90.9403C1397.55 80.5218 1419.35 93.7659 1438.78 106.312C1448.53 112.552 1421.24 93.9823 1412.14 88.501C1412.16 88.5145 1412.18 88.5281 1412.21 88.5416ZM2011.35 715.406C2008.31 710.255 2005.52 705.648 2002.49 700.629C1999.26 695.093 1996.15 689.81 1992.89 684.312C1992.55 683.597 1992.29 682.991 1991.88 682.162C1987.65 674.991 1989.22 677.86 1987.95 675.746C1987.95 675.745 1987.95 675.745 1987.96 675.745C1985.15 671.076 1982.55 666.793 1980.13 662.807C1966.93 641.355 1958.94 629.807 1944.91 610.974C1944.73 611.116 1944.54 611.257 1944.36 611.398C1948.16 616.307 1951.97 621.41 1955.6 626.434C1957.63 629.052 1959.65 631.707 1961.65 634.377C1965.68 640.337 1969.6 646.379 1973.4 652.49C1975.5 655.748 1977.86 659.49 1979.95 662.914C1980.99 664.597 1981.96 666.19 1982.83 667.598C1989.54 679.414 1985.75 673.165 1979.67 663.088C1972.97 651.835 1962.69 636.545 1962.38 636.403C1962.19 636.291 1970.79 648.75 1979.47 663.206C1988.93 678.873 1999.08 696.123 2001.62 700.379C2002.3 701.537 1995.58 688.952 2007.47 709.999C2009.24 713.234 2009.19 714.941 2022.56 737.228C2024.45 740.407 2018.83 728.784 2011.35 715.406ZM1866.54 525.932C1894.6 550.168 1789.64 462.281 1835.16 499.937C1821.76 489.753 1824.22 491.594 1837.35 502.437C1838.51 503.387 1829.26 496.103 1830.03 496.754C1842.47 506.651 1856.92 519.092 1856.85 519.418C1860.11 522.247 1863.09 524.871 1866.3 527.752C1853.16 515.654 1874.5 534.371 1882.48 541.98C1886.15 545.373 1877.89 537.391 1880.99 540.247C1882.14 541.234 1893.6 552.62 1894.06 553.03C1895.15 553.889 1888.36 546.376 1875.96 534.537C1875.96 534.537 1875.96 534.536 1875.96 534.536C1872.82 531.613 1869.75 528.816 1866.54 525.932ZM2083.58 970.371C2088.21 974.558 2107.75 990.699 2069.99 960.089C2071.78 961.664 2073.64 963.288 2075.46 964.871C2081.84 970.099 2087.98 975.072 2094.47 980.262C2114.58 995.147 2150.05 1023.67 2127.4 1005.36C2125 1003.42 2109.43 991.419 2124.84 1003.1C2124.82 1003.09 2124.8 1003.07 2124.78 1003.06C2103.52 986.6 2100.8 984.558 2083.58 970.371ZM1949.37 851.452C1904.65 808.784 2010.67 910.958 1993.38 893.431C1991.61 892.189 1945.58 848.639 1949.37 851.452ZM2343.49 1150.09C2319.54 1136.24 2317.83 1135.48 2320.13 1137.08C2322.44 1138.66 2339.08 1148.22 2341.22 1149.45C2348.17 1153.54 2333.32 1145.05 2342.34 1150.37C2345.24 1152.29 2387.43 1175.69 2389.49 1176.53C2400.41 1182.15 2384.68 1173.5 2387.81 1175.1C2397.98 1180.35 2411.74 1187.54 2414.8 1188.85C2421.36 1191.74 2395.33 1179.02 2391.04 1176.68C2377.98 1169.79 2379.23 1170.18 2369.55 1164.86C2359.89 1159.51 2353.56 1156.04 2345.11 1151.19C2342.3 1149.58 2344.71 1150.78 2343.49 1150.09ZM2264.89 1103.13C2289.3 1118.59 2230.5 1079.98 2223.7 1075.01C2203.29 1061.32 2253.02 1095.95 2264.89 1103.13ZM1930.19 593.484C1947.3 613.739 1908.06 566.038 1894.99 554.116C1897.45 556.313 1924.62 586.312 1930.19 593.484ZM2047.42 782.668C2036.27 760.821 2050.79 789.871 2058.93 808.457C2063.98 819.219 2059.55 808.818 2053.97 796.91C2048.24 784.881 2055.7 799.526 2047.42 782.668ZM2609.25 1263.62C2609.79 1263.99 2611.37 1265.05 2613.54 1266.5L2613.97 1265.54C2595.47 1261.43 2538.71 1243.3 2579.28 1256.24C2581.1 1256.81 2597.83 1261.86 2613.88 1265.89L2613.74 1266.2C2601.34 1257.91 2589.63 1249.81 2587.75 1248.54C2580.32 1243.5 2598.02 1256.06 2609.25 1263.62ZM2074.56 893.147C2079.14 887.848 2079.5 880.619 2079.59 877.526C2079.53 874.009 2079.66 874.021 2079.08 879.911C2079.07 879.928 2079.07 879.945 2079.07 879.962C2079.79 863.444 2076.29 855.371 2075.29 849.998C2074 844.883 2073.51 842.887 2072.34 839.398C2063.91 816.323 2071.5 838.261 2065.86 824.027C2078.07 857.674 2075.76 848.028 2078.94 874.914C2078.9 878.102 2079.15 886.09 2074.3 892.127C2069.46 898.155 2061.28 898.325 2059.75 898.484C2055.87 898.66 2069.73 899.507 2074.56 893.147ZM2511.83 1194.31C2534.69 1211.48 2556.16 1226.41 2524.21 1202.95C2508.67 1191.42 2497.97 1183.82 2511.83 1194.31ZM1678.17 159.915C1674.37 157.785 1670.45 155.601 1666.34 153.337C1675.72 158.156 1685.07 163.02 1694.38 167.916C1687.01 164.059 1679.62 160.221 1672.15 156.381C1689.67 165.567 1697.53 170 1678.22 159.939C1678.2 159.931 1678.19 159.923 1678.17 159.915ZM1916.15 487.043C1921.65 493.699 1933.76 506.601 1932.3 504.915C1921.1 492.266 1908.28 477.562 1916.15 487.043ZM1905.1 563.442C1882.19 539.767 1897.8 556.223 1911.4 571.105C1903.1 561.936 1917.81 577.146 1905.1 563.442ZM1908.17 320.265C1911.42 320.799 1914.15 321.309 1917.22 321.919C1912.54 321.031 1909.17 320.502 1907.75 320.267C1906.31 320.035 1906.61 320.055 1908.17 320.265ZM2606.23 1262.96C2601.33 1261.85 2565.84 1251.21 2561.08 1249.48C2551.17 1246.33 2578.53 1255.83 2594.99 1260.22C2596.81 1260.76 2611.02 1264.29 2606.15 1262.94C2606.18 1262.95 2606.2 1262.95 2606.23 1262.96ZM1717.34 180.973C1717.29 180.941 1717.32 180.951 1717.41 180.996C1717.38 180.983 1717.39 180.993 1717.34 180.973ZM2226.6 393.056C2226.64 393.254 2226.66 393.36 2226.65 393.339C2226.64 393.262 2226.61 393.107 2226.6 393.056ZM2365.73 1161.83C2355.18 1155.41 2330.37 1141.47 2349.73 1152.89C2350.81 1153.54 2363.1 1160.39 2365.73 1161.83ZM576.029 210.436C833.186 307.153 1117.85 491.502 1178.01 792.83L1176.36 790.972C1242.44 814.171 1306.64 847.506 1356.08 897.866C1408.81 945.654 1420.54 1033.46 1374.3 1088.97C1348.02 1129.86 1295.57 1149.98 1249.17 1138.83C1202.74 1129.41 1161.8 1104.65 1124.66 1077.73C1074.88 1039.64 1079.53 1040.72 1066.23 1029.29C1030.99 996.676 1011.26 975.426 988.284 949.112C978.854 938.188 969.574 926.938 960.85 915.783L964.69 913.076C1048.46 1041.18 1147.78 1150.79 1268.18 1243.41C1408.88 1340.49 1342.95 1293.76 1394.2 1323.58C1500 1371.33 1409.82 1331.09 1452.02 1348.44C1486.76 1361.63 1522.96 1371.41 1559.93 1376.23L1558.69 1380.04C1509.27 1350.43 1454.79 1311.2 1445.66 1249.52C1444.58 1231.03 1444.81 1209.18 1460.29 1195.28C1476.82 1182.07 1498.59 1187.65 1515.95 1193.68C1500.63 1188.4 1483.02 1183.74 1466.88 1191.15C1450.44 1199.13 1446.06 1218.63 1445.57 1234.81C1445.99 1220.43 1449.81 1202.12 1463.21 1193.39C1476.5 1184.9 1490.87 1187.66 1498.57 1189.01C1506.36 1190.67 1509.46 1191.85 1504.53 1190.48C1502 1189.87 1497.54 1188.66 1490.61 1187.99C1483.73 1187.52 1473.04 1186.85 1462.4 1194.28C1482.37 1181.51 1504.7 1189.82 1524.79 1197.85C1532.52 1196.79 1618.73 1254.21 1625.06 1261.28C1632.91 1266.83 1586.4 1231.99 1586.21 1232.5C1588.16 1233.2 1642.41 1272.33 1690.74 1316.13C1734.34 1354.77 1783.79 1385.88 1790.94 1390.64C1828.7 1414.51 1795.13 1394.04 1828.14 1414.09C1885.94 1447.13 1846.76 1425.69 1926.33 1467.58C1958.4 1482.88 1961.64 1484.75 2002.62 1502.67C2008.11 1505.03 2003.91 1503.06 2006.33 1504.09C2069.62 1530.2 2020.88 1510.4 2021.34 1510.61C2026.57 1513.5 2095.19 1539.84 2110.13 1544.52C2293.7 1605.5 2437.67 1632.76 2642.17 1622.2C2686.65 1621.44 2819.85 1598.75 2860.7 1584.99C2901.24 1573.29 2879.55 1579.8 2900.79 1573.28C2934.08 1561.57 2966.61 1551.59 3038.63 1517.41C3064.64 1503.86 3062.48 1506.27 3111.22 1478.17C3152.83 1454.3 3219.14 1407.33 3259.64 1373.33C3212.57 1411.21 3218.57 1407.36 3162.99 1445.81C3147.64 1464.12 2938.04 1566.02 2952.19 1555.37C2961.19 1552.95 3031.84 1521.89 3034.23 1520.02C3049.94 1512.5 3011.27 1532.23 2975.93 1546.41C2984.67 1542.79 2995.19 1538.26 3004.56 1534.04C2925.66 1566.84 2980.23 1545.94 2918.88 1567.6C2911.22 1570.09 2914.27 1569 2901.52 1573.05C2898.92 1573.95 2914.55 1568.97 2901.12 1573.36C2887.42 1577.92 2861.33 1585.23 2857.5 1586.4C2851.72 1588.58 2908.66 1571.52 2912.7 1569.71C2912.75 1569.7 2912.79 1569.68 2912.83 1569.66C2950.13 1557.24 2872.09 1583.38 2868.1 1583.77C2843.65 1590.69 2860.64 1586.52 2823.4 1595.94C2802.36 1601.47 2747.57 1611.84 2727.42 1614.41C2707.17 1617.31 2738.67 1612.94 2725.07 1614.92C2711.43 1616.91 2694.45 1618.92 2678.5 1620.54C2671.67 1621.23 2672.03 1621.32 2668.73 1621.63C2632.99 1624.62 2656.38 1622.63 2624.05 1624.62C2603.17 1626.23 2532.56 1626.66 2581.16 1626.4C2557.84 1626.79 2535 1626.49 2511.78 1625.54C2526.38 1626.19 2541.68 1626.58 2555.93 1626.71C2512.05 1626.2 2492.49 1625.02 2465.01 1623.01C2437.77 1620.84 2413.14 1617.9 2383.4 1613.84C2319.58 1605.36 2477.51 1626.64 2497.66 1625.25C2505.37 1625.71 2475.74 1624.23 2471.17 1623.8C2450.92 1622.36 2427.19 1619.78 2411.59 1617.87C2356.27 1610.96 2322.15 1605.02 2270.29 1593.57C2092.44 1554.83 1883.06 1464.51 1742.99 1362.85C1720.66 1346.75 1701.96 1331.59 1688.05 1319.17C1668.86 1302.07 1654.71 1290.06 1641.82 1279.51C1589.21 1238.15 1582.96 1232.22 1531.72 1204.91C1514.26 1196.98 1493.12 1187.64 1472.58 1193.28C1451.2 1199.78 1448.13 1227.64 1449.87 1249.2C1457.29 1305 1507.94 1341.1 1539.09 1363.23C1546.26 1368.03 1553.56 1372.5 1560.69 1376.37L1559.39 1380.38C1519.82 1375.3 1487.88 1365.28 1477.55 1362.01C1300.42 1306.24 1136.01 1144.47 1042.16 1027.87C997.625 972.516 979.631 943.801 971.298 931.588C967.222 925.446 963.638 919.889 960.857 915.5L964.421 912.988C989.846 944.462 984.904 938.588 1015.09 971.955C1033.89 992.066 1037.6 995.6 1040.18 998.284C1063.23 1021.09 1068.26 1025.2 1087.32 1041.85C1129.69 1077.87 1175.33 1110.77 1227.13 1128.14C1278.02 1147.51 1340.59 1133.78 1370.43 1086.23C1389.63 1059.39 1402.49 1027.31 1399.69 994.17C1398.68 983.931 1398.72 984.849 1397.42 978.304C1389.38 950.881 1394.11 963.052 1380.13 936.619C1346.66 883.099 1289.67 846.301 1229.77 817.683C1223.7 814.889 1221.1 813.416 1207.17 807.568C1196.6 803.213 1187.96 799.924 1174.84 795.483L1173.61 795.068L1173.35 793.801C1172.36 789.127 1171.22 783.953 1169.83 778.047C1155.53 717.517 1132.54 659.69 1098.48 603.101C1092.84 593.748 1085.49 582.378 1076.17 568.904C1047.59 526.089 995.893 469.778 962.649 440.694C854.084 343.519 733.35 279.386 606.779 227.533C576.916 215.407 550.119 205.45 534.319 199.83C498.621 187.355 525.573 196.718 489.243 184.554C268.804 113.174 37.1715 74.2484 -196.045 67.5568L-195.995 63.325C-112.651 63.515 -32.2476 64.6684 51.0165 67.1023C175.57 70.5865 326.202 78.6218 446.652 89.6789C495.986 94.2077 505.742 95.476 540.582 99.1979C603.36 106.255 614.956 107.362 680.45 116.475C733.674 124.053 793.387 134.209 847.31 144.961C902.111 156.124 926.658 161.116 988.206 177.296C1039.08 190.808 1108.16 212.795 1160.88 236.451C1209.96 259.621 1264.68 283.879 1294.16 332.929L1290.48 335.653C1219.99 275.622 1129.23 239.518 1037.1 231.59C1004.86 228.151 958.383 235.099 957.329 272.97C956.382 307.289 976.204 338.911 995.818 367.008C1037.08 423.382 1090.22 470.045 1147.11 510.676C1189.76 541.378 1245.57 563.465 1295.9 542.853C1345.46 522.603 1377.3 473.009 1393.13 422.811L1393.96 420.073L1396.53 421.316C1507.96 475.543 1605.54 554.836 1692.99 643.152C1752.39 703.782 1810.75 771.56 1860.53 846.792L1856.91 849.583C1784.34 772.157 1701.39 701.009 1611.47 649.593C1595.6 641.333 1620.62 652.576 1568.74 627.946C1553.37 621.306 1534.19 613.515 1508.33 607.877C1486.5 603.429 1460.08 598.487 1427.85 600.258C1403.58 601.805 1378.02 608.565 1361.22 626.66C1344.27 644.605 1339.69 670.905 1341 695.583C1344.2 745.644 1364.11 793.749 1385.85 839.533C1400.79 869.289 1415 899.802 1438.65 922.841C1444.48 927.986 1452.47 932.549 1458.75 928.653C1464.97 924.773 1468.09 916.489 1470.32 908.78C1474.59 892.938 1475.6 876.123 1475.61 859.54L1479.61 859.08C1519.53 1060.37 1669.5 1271.57 1886.76 1279.03L1888.03 1279.01L1888.49 1280.19C1914.91 1332.48 1966.53 1367.5 2016.09 1396.77C2057.7 1420.5 2101.93 1439.29 2147.48 1454.77C2163.86 1460.2 2180.48 1465.11 2196.83 1464.98C2205.2 1464.8 2213.75 1462.53 2217.32 1455.63C2220.88 1448.7 2219.54 1439.94 2217.45 1432.06C2207.4 1399.73 2186.86 1371.34 2167.21 1343.8C2126.62 1288.81 2081.02 1237.49 2033.9 1188.32L2036.93 1185.19C2368.9 1508.02 2909.13 1630.49 3247.35 1382.16C3268.98 1365.57 3258.06 1375.04 3244.67 1385.21C3232.35 1394.1 3220.35 1401.96 3206.61 1410.24C3189.29 1420.72 3193.85 1421.4 3125.46 1452.85C3082.99 1470.58 3116.99 1456.88 3094.26 1466.02C3065.7 1481.44 2919.06 1513.98 2946.99 1506.64C2937.66 1508.37 2929.48 1509.76 2920.48 1511.14C2812.94 1526.62 2705.96 1521.07 2602.24 1498.39C2584.45 1494.41 2583.26 1494.29 2565.06 1489.64C2515.63 1476.57 2477.78 1463.66 2428.95 1443.64C2403.17 1432.73 2398.5 1431.05 2365.45 1415.16C2331.81 1398.31 2333.09 1399.14 2288.18 1373.98C2316.43 1391.7 2189.53 1315.09 2149.01 1281.75C2142.4 1277.11 2093.03 1239 2068.21 1217.3C2058.68 1209.14 2047.26 1199.17 2034.61 1187.76L2036.39 1185.92C2055.26 1205.59 2076.88 1229.05 2098.01 1253.12C2113.95 1271.35 2123.63 1282.41 2140.06 1302.73C2151.57 1317.04 2164.97 1334.55 2178.37 1353.64C2192.39 1372.2 2217.57 1416.3 2219.1 1425.77C2223.99 1441.84 2222.39 1441.63 2222.39 1439.26C2222.22 1438.15 2221.93 1436.66 2221.97 1436.95C2221.95 1437.28 2222.62 1439.27 2222.79 1445.09C2223.11 1452.2 2219.99 1460.95 2212.85 1464.56C2206.15 1468.25 2197.9 1468.52 2190.74 1468.09C2175.64 1466.96 2161.39 1462.81 2146.45 1457.81C2065.07 1430.12 1981.81 1389.26 1923.91 1332.9C1914.49 1323.48 1927.4 1336.62 1926.21 1335.36C1893.91 1303.5 1891.05 1291.76 1889.52 1290.17C1888.54 1288.04 1891.1 1293.63 1885.91 1282.29C1885.79 1282 1885.66 1281.68 1885.53 1281.35L1886.81 1282.21C1873.38 1283.13 1823.63 1278.5 1780.9 1261.68C1737.71 1245.93 1702.33 1221.81 1701.66 1221.6C1697.25 1218.83 1665.99 1196.09 1658.67 1189.22C1629.58 1163.24 1635.3 1168.36 1609.83 1140.5C1600.82 1130.12 1618.19 1150.46 1608.52 1139.32C1584.77 1111.39 1565.26 1083.94 1542.15 1041.07C1536.69 1030.63 1534.62 1027.28 1525.76 1008.27C1515.57 989.702 1487.43 906.247 1500.25 944.705C1487.57 906.33 1483.78 891.221 1476.35 859.82L1478.95 859.523C1478.95 870.06 1478.7 882.432 1476.19 897.771C1474.71 905.504 1473.23 914.712 1467.14 924.68C1464.18 929.469 1457.99 934.806 1450.36 933.031C1443.2 931.479 1437.04 926.204 1431.24 920.16C1423.71 911.7 1423.43 911.915 1413.89 897.836C1402.33 880.058 1392.59 861.293 1382.81 841.004C1374.72 824.121 1366.7 806.214 1358.85 785.313C1343.66 742.368 1327.49 693.16 1344.88 646.068C1364.82 596.624 1426.76 592.691 1472.28 598.451C1492.19 601.075 1492.95 601.543 1508.98 604.857C1513.85 605.928 1520.35 607.471 1529.03 610.06C1534.61 611.013 1577.9 627.083 1600.91 640.111C1615.68 646.381 1684.61 691.27 1697.34 701.982C1719.27 718.413 1723.13 721.458 1734.81 730.872C1768.14 758.698 1741.5 736.253 1781.09 770.337C1793.81 781.9 1815.94 802.837 1822.65 809.945C1832.44 819.245 1844.23 831.143 1859.19 847.499L1857.93 848.473C1854.26 842.791 1850.01 836.446 1845.24 829.595C1825.65 801.483 1807.54 779.578 1802.99 772.682C1793.27 759.734 1749.01 707.629 1740.96 699.247C1718.1 674.072 1730.56 687.44 1712.95 668.621C1709.82 665.391 1713.14 668.774 1692.91 647.98C1680.76 632.992 1576.97 539.815 1569.23 536.012C1494.13 477.746 1610.54 567.33 1624.71 582.473C1627.4 584.921 1630.05 587.35 1632.89 589.973C1663.75 618.504 1646.42 601.999 1632.38 589.123C1618.35 576.166 1591.24 553.15 1578.92 543.195C1572.79 538.237 1576.91 540.875 1595.23 556.213C1575.65 539.764 1602.55 562.038 1594.84 555.487C1587.31 547.108 1495.09 478.665 1493.65 479.683C1511.55 491.468 1533.31 506.96 1550.52 520.117C1572.62 537.98 1505.06 484.099 1436.02 445.712C1394.55 423.177 1444.26 448.762 1395.22 424.032L1396.02 423.68C1392.62 434.788 1387.14 450.803 1375.49 471.609C1384.78 455.137 1391.19 439.93 1396.16 423.723L1395.16 424.163C1396.73 424.924 1398.31 425.694 1399.89 426.475C1400.38 426.795 1398.46 425.868 1395.11 424.259L1396.26 423.753C1393.79 432.613 1386.8 450.19 1381.64 460.283C1378.63 467.27 1398.31 424.53 1381.24 461.678C1363.85 491.151 1351.44 520.37 1297.47 545.995C1312.74 539.834 1326.62 530.469 1338.62 519.306C1259.7 579.213 1443.52 442.504 1285.14 549.479C1307.64 543.255 1327.69 530.065 1344.01 513.394C1335.89 521.285 1348.48 508.262 1341.25 515.342C1322.91 534.378 1286.47 554.362 1253.49 553.051C1239.42 552.664 1248.14 552.774 1246.97 552.771C1227.74 551.014 1231.86 551.579 1215.42 547.533C1199.37 543.974 1164.01 526.164 1145.91 512.374C1139.99 508.169 1135.6 504.941 1133.65 503.512C1112.83 488.115 1147.31 514.003 1145.45 512.465C1131.66 503.117 1105.19 482.228 1106.48 483.355C1116.81 491.614 1130.32 501.968 1145.61 512.789C1184.31 542.883 1242.7 558.261 1266.79 552.846C1278.59 551.324 1281.92 550.378 1271.33 552.38C1261.11 553.732 1234.24 557.875 1193.05 540.367C1219.96 551.648 1231.15 551.901 1223.56 550.893C1216.48 549.347 1190.77 543.902 1155.26 520.699C1151.47 518.23 1148.05 515.881 1144.97 513.699C1103.16 483.072 1132.92 505.046 1106.26 484.156C1101.71 482.294 1032.95 419.201 1030.76 414.602C1033.5 417.296 1013.27 394.4 1027.16 409.422C1028.96 411.803 1055.75 439.06 1046.56 429.393C1041.98 424.761 1028.95 410.492 1031.24 412.676C1025.77 406.917 1020.36 401.012 1015.03 394.877C979.065 350.363 976.039 342.087 963.45 313.674C964.175 315.07 973.805 342.117 958.775 300.972C958.712 298.768 955.875 297.249 955.328 274.913C956.161 251.83 970.188 243.088 972.538 241.267C976.155 239.674 968.349 241.202 960.256 256.158C968.709 239.172 985.753 233.776 999.179 231.304C1013.02 228.968 1025.11 229.299 1037.21 230.229C1071.74 233.578 1102.07 237.811 1155.76 256.79C1139.28 251.206 1111.11 237.309 1037.23 230.05C1030.96 229.568 1025.58 229.327 1018.77 229.428C1014.89 229.398 1013.37 229.348 1009.37 229.541C1019.86 228.728 1028.96 229.129 1037.25 229.794C1115.79 240.246 1074.39 233.464 1132.53 248.292C1148.76 251.034 1227.13 287.504 1201.11 275.079C1195.32 271.29 1145.47 251.48 1151.13 253.936C1152.63 253.357 1212.56 279.217 1217.14 282.965C1245.46 298.756 1238.03 295.32 1237.33 294.829C1235.98 295.311 1244.38 294.946 1291.71 334.325L1292.53 333.72C1286.36 321.077 1274.82 308.226 1259.11 295.388C1255.05 292.133 1253.23 290.743 1244.61 284.593C1227.84 273.145 1228 273.254 1212.13 264.074C1196.57 255.275 1174.18 244.286 1149.2 233.47C1103.73 214.647 1212.92 256.106 1253.64 290.731C1262.8 295.842 1191.08 244.036 1102.35 214.19C1014.96 182.091 918.149 161.085 907.102 158.518C809.088 137.237 972.425 172.905 979.992 176.521C983.076 177.488 982.373 177.608 1022.4 188.637C1034.24 191.872 984.799 177.566 1014.38 185.905C1044.48 194.614 1032.56 191.425 1034.72 192.049C1042.14 194.223 1073.85 204.34 1077.84 205.839C1139.84 228.789 1134.67 226.047 1051.39 197.325C1015.13 186.114 1098.62 213.087 1053.02 198.619C997.87 181.428 957.284 171.573 949.987 169.653C865.546 149.692 962.988 171.993 859.245 149.423C800.485 137.57 946.593 166.473 813.628 140.245C702.242 120.582 762.078 131.509 754.107 130.369C751.808 130.09 690.702 120.128 774.377 133.95C776.727 134.256 781.15 134.89 786.344 135.715C806.64 139.306 840.606 146.312 851.197 148.506C904.071 159.449 901.621 158.951 932.114 166.319C910.537 160.904 945.669 169.319 959.505 172.83C1008.22 185.714 945.219 166.851 1054.6 199.751C1040.97 195.252 1027.2 190.951 1013.61 186.896C1026.53 190.591 1040.59 194.815 1053.2 198.813C1073.32 205.096 1142.02 230.031 1079.32 208.063C1154.74 234.23 1183.29 250.317 1198.8 257.814C1202.04 259.478 1212.02 264.675 1224.49 272.273C1222.28 270.832 1219.4 268.861 1221.35 269.992C1238.65 279.467 1262.86 299.148 1254.4 292.783C1261.76 298.486 1268.06 304.325 1269.76 305.986C1282.31 318.177 1257.56 294.792 1267.77 304.421C1269.62 306.056 1285.31 320.757 1291.47 334.236L1292.52 333.461C1286.08 327.493 1280.42 323.102 1280.25 322.912C1278.07 320.772 1292.58 332.905 1291.85 332.491C1290.73 332.915 1278.44 313.986 1206.06 276.129C1203.02 273.538 1268.17 312.092 1251.23 302.545C1233.79 291.079 1196.01 271.275 1187.19 268.308C1184.08 266.835 1182.65 266.139 1179.99 264.898C1118.68 240.661 1116.88 243.199 1097.51 237.822C1085.98 235.111 1061.62 230.403 1037.35 228.545C1009.26 225.397 982.518 232.728 977.08 236.902C971.469 242.266 982.291 224.755 1037.32 228.838C1038.45 228.931 1039.59 229.03 1040.75 229.135C1039.61 229.036 1038.47 228.941 1037.32 228.851C1014.93 227.305 990.468 227.609 971.697 240.676C969.447 242.226 970.51 239.834 962.88 248.475C955.394 256.14 944.297 286.152 972.541 336.407C984.912 358.247 989.432 364.891 1004.69 384.071C1001.44 382.434 1051.04 437.08 1056.84 441.063C1072.95 456.108 1050.19 436.677 1024.51 408.374C998.423 380.599 973.382 341.059 969.577 331.221C958.136 306.232 955.898 306.132 953.814 275.101C954.673 252.099 966.955 241.384 979.044 235.411C991.878 229.494 1006.74 226.466 1033.35 228.05C1034.94 228.14 1036.29 228.23 1037.37 228.307C1042 228.651 1041.42 228.567 1037.37 228.203C1026.22 226.746 973.932 224.766 959.786 252.351C953.092 264.203 953.951 273.399 953.901 270.061C954.161 268.451 954.271 263.875 957.565 256.192C960.751 248.654 969.027 238.118 984.698 232.543C996.884 227.943 1015.17 225.784 1037.42 227.607C1100.67 232.438 1203.4 256.616 1293.34 332.576L1290.38 334.763C1041.15 110.373 540.24 112.047 406.657 90.7592C159.82 71.3871 -11.346 68.8184 -196.005 67.8978L-195.948 62.985C-96.9039 65.3153 5.73599 74.3185 124.869 93.0484C158.882 94.8889 408.16 152.245 356.099 141.251C348.932 139.027 241.64 113.896 333.464 136.085C314.908 131.256 368.622 144.567 373.128 145.92C475.729 175.071 417.763 153.94 576.029 210.436ZM995.821 471.039C832.648 325.543 952.763 432.104 918.11 402.86C940.089 420.266 961.176 438.537 981.473 458.038C976.188 452.907 970.844 447.857 965.45 442.89C965.427 442.868 965.404 442.847 965.38 442.826C975.725 451.941 985.975 461.434 995.821 471.039ZM2618.91 1625.61C2610.42 1626.09 2601.93 1626.49 2592.63 1626.8C2563.63 1627.5 2534.74 1627.14 2505.82 1625.77C2509.27 1625.87 2512.6 1625.96 2516.06 1626.04C2550.42 1627.35 2584.5 1627.25 2618.91 1625.61ZM1276.62 311.099C1284.91 320.027 1289.8 327.566 1292.75 333.613L1291.55 334.506C1279.45 323.908 1272.14 317.169 1240.11 296.997C1245.63 300.695 1251.72 304.926 1257.35 309.099C1272.79 319.619 1282.26 327.183 1290.96 335.135L1293.53 333.238C1286.84 320.204 1277.45 308.981 1258.39 293.349C1262.05 296.401 1266.71 300.535 1270.14 303.918C1275.69 309.117 1281.04 314.781 1285.63 320.901C1288.93 325.625 1280.15 313.412 1271.9 305.904C1264.25 299.01 1259.74 294.266 1276.52 310.994C1276.56 311.029 1276.59 311.064 1276.62 311.099ZM955.772 279.899C951.154 304.062 999.565 378.614 1008.71 386.421C1021.8 401.724 987.785 362.74 972.667 332.433C964.77 317.515 961.16 305.621 962.135 308.521C963.447 311.08 968.072 329.77 994.332 366.697C993.9 365.992 994.425 366.629 994.472 366.596C975.888 339.876 957.592 310.203 956.401 277.295C956.191 279.065 955.937 277.955 955.772 279.899ZM292.768 129.229C260.005 120.206 100.986 92.3498 152.768 101.783C168.36 104.268 238.898 117.201 265.675 123.333C283.023 127.174 263.698 122.998 297.705 130.657C296.222 130.221 295.314 129.907 292.675 129.208C292.706 129.215 292.737 129.222 292.768 129.229ZM354.748 143.058C320.871 134.375 286.373 126.368 251.702 119.092C277.018 124.512 326.112 135.989 329.012 137.143C319.597 134.858 310.301 132.663 300.913 130.505C293.748 128.764 286.702 127.086 279.671 125.443C249.912 119.173 267.982 122.8 212.724 111.688C246.057 119.09 252.426 119.263 346.235 141.786C328.536 137.743 344.967 142.175 396.742 155.747C406.431 158.266 366.143 147.17 365.653 147.118C359.493 145.244 381.97 151.052 375.352 149.069C372.378 148.133 347.709 141.718 344.061 140.694C342.372 140.174 365.877 146.016 354.748 143.058ZM421.753 162.634C411.298 159.764 446.835 170.254 477.419 180.095C525.107 195.585 450.147 170.468 421.753 162.634ZM2619.1 1625.6C2619.04 1625.61 2618.97 1625.61 2618.91 1625.61C2618.94 1625.61 2618.97 1625.61 2619 1625.61C2619.04 1625.6 2619.07 1625.6 2619.1 1625.6ZM1038.58 230.418C1038.12 230.382 1037.67 230.347 1037.2 230.312C1024.08 229.248 1008.45 229.48 996.722 232.007C985.015 234.335 977.631 238.85 978.889 238.221C967.831 243.623 959.404 254.071 957.117 266.188C957.197 266.087 957.3 265.875 957.38 265.775C964.629 231.566 1006.73 228.111 1037.17 230.748C1042.55 231.186 1047.82 231.717 1053.18 232.361C1048.46 231.648 1044.16 231.042 1038.58 230.418ZM1139.77 507.236C1142.18 508.983 1144.34 510.524 1146.26 511.88C1175.26 531.357 1146.81 512.122 1154.99 517.423C1163.25 523.992 1201.34 542.558 1196.99 539.789C1179.49 532.624 1162.53 522.71 1146.59 511.406C1138.96 505.992 1131.7 500.667 1124.33 495.071C1130.25 499.802 1134.25 503 1139.84 507.291C1139.82 507.273 1139.79 507.254 1139.77 507.236ZM1288.26 1137.38C1304.19 1135.69 1308.69 1133.86 1316.84 1131.07C1324.51 1127.63 1337.79 1124.33 1359.68 1101.1C1359.65 1101.13 1359.61 1101.17 1359.58 1101.2C1319.53 1154.42 1227.06 1139.67 1172.22 1104.13C1207.73 1123.31 1237.6 1139.39 1288.26 1137.38ZM1183.02 247.704C1170.8 241.488 1227.65 270.616 1238.8 279.442C1258.13 291.712 1202.56 255.365 1183.02 247.704ZM1466.62 1298.12C1443.06 1256.9 1476.48 1335.94 1559.26 1378.99L1559.77 1377.42C1553.85 1376.66 1547.89 1375.77 1541.93 1374.75C1538.18 1374.08 1548.68 1376.08 1559.76 1377.55L1559.32 1378.88C1547.32 1372.31 1535.33 1364.01 1543.99 1369.62C1544.75 1370.08 1551.45 1374.4 1559.41 1378.71L1559.73 1377.73C1549.32 1376.42 1537.38 1374.28 1532.88 1373.42C1524.48 1371.79 1533.24 1373.83 1519.5 1370.9C1495.19 1366.39 1442.54 1347.71 1425.83 1339.88C1423.5 1339.12 1455.46 1352.34 1457.57 1352.83C1490.83 1365.39 1524.51 1372.28 1529.86 1373.26C1556.39 1378.27 1553.76 1377.47 1559.64 1378.45L1559.76 1378.07C1559.53 1377.95 1559.29 1377.81 1559.02 1377.66C1547.1 1371.28 1527.68 1357.8 1526.39 1356.7C1502.75 1338.13 1532.83 1363.47 1559.85 1377.91L1559.61 1378.63C1546.66 1376.98 1535.26 1374.79 1531.4 1374.05C1496.83 1365.68 1527.61 1377.58 1446.8 1349.67C1439.12 1347 1349.61 1308.96 1462.81 1355.86C1290.47 1276.92 1452.04 1368.81 1559.48 1379.67L1560.35 1376.99C1535.22 1363.17 1517.22 1348.36 1510.78 1343.09C1497.02 1331.49 1517.69 1349.25 1509.28 1342.29C1489.08 1327.25 1463.3 1293.18 1465.83 1296.08C1468.49 1304.22 1506.76 1346.02 1539.97 1366.2C1536.53 1364.08 1535.13 1363.34 1528.94 1359.11C1533.77 1362.32 1516.26 1350.57 1499.39 1335.04C1482.18 1319.82 1467.44 1299.69 1466.62 1298.12C1466.62 1298.12 1466.62 1298.12 1466.62 1298.12ZM1146.57 1141.05C1108.8 1102.51 1111.21 1105.42 1078.46 1068.34C1049.65 1035.79 1106.12 1100.55 1113.43 1107.44C1145 1140.57 1143.99 1140.19 1178.09 1172.28C1166.43 1161.13 1157.2 1151.92 1146.57 1141.05ZM1544.7 1376.9C1520.41 1372.58 1542.21 1377.07 1559.53 1379.3L1560.17 1377.32C1553.1 1373.48 1547.06 1369.63 1546.36 1369.19C1539.75 1364.76 1547.5 1370.1 1560.29 1377.1L1559.5 1379.55C1521.65 1374.97 1450.45 1356.13 1544.7 1376.9ZM86.296 90.1148C68.2374 87.5397 79.8798 89.359 63.6501 87.192C47.4604 84.8849 -7.43999 78.3671 -6.09462 78.7487C-4.6183 78.8076 96.0988 91.1287 -5.10893 79.3496C-1.69514 79.7856 -2.8527 79.7107 -1.2042 79.9508C26.9962 83.0392 54.5979 86.5268 82.4192 90.4884C67.5544 88.1751 51.4256 85.8234 36.9937 83.8436C52.5191 85.6279 61.3754 87.045 62.2001 87.1503C62.2001 87.1502 62.2001 87.1499 62.2002 87.1497C91.2463 91.0228 126.954 96.1921 86.296 90.1148ZM1236.53 819.458C1241.82 821.235 1202.24 803.48 1185.51 798.01C1182.15 796.8 1178.61 795.559 1175.2 794.406L1174.59 794.2L1174.46 793.57C1171.38 778.616 1167.84 764.842 1169.48 772.002C1170.94 778.042 1172.67 785.515 1174.35 793.593L1174.49 794.286L1175.17 794.513C1203.2 803.696 1236.2 819.254 1236.53 819.457C1236.53 819.458 1236.53 819.458 1236.53 819.458ZM963.668 914.441C992.137 949.368 987.446 944.25 1024.97 984.72C1023.56 983.083 1022.17 981.446 1020.78 979.813C991.917 948.543 992.485 950.017 963.435 913.76L961.915 914.831C962.591 915.904 963.294 917.018 964.029 918.176C968.556 925.091 958.36 910.508 979.414 941.825C973.399 932.754 967.503 923.522 962.107 914.709L963.256 913.899C963.394 914.08 963.531 914.26 963.668 914.441ZM1122.36 1071.59C1081.53 1039.68 1049.31 1013.96 1124.08 1073.53C1135.53 1081.83 1154.02 1094.37 1122.36 1071.59ZM550.78 204.019C467.505 174.536 562.249 207.682 583.45 216.624C389.923 147.161 605.916 222.854 623.846 233.375C647.06 242.836 690.116 261.928 642.357 240.674C622.367 232.062 629.596 235.356 628.4 234.83C591.297 219.47 595.982 220.924 550.78 204.019ZM1215.51 1204.7C1212.97 1202.53 1216.82 1206.07 1208.76 1199.15C1200.67 1192.26 1182.92 1176.02 1181.14 1174.45C1179.2 1173.02 1215.08 1205.37 1226.66 1214.53C1238.16 1223.86 1238.55 1224.1 1215.51 1204.7ZM988.635 953.631C963.502 917.564 1004.02 977.152 1010.17 984.526C1061.58 1051.72 986.094 952.235 988.635 953.631ZM739.06 285.275C643.303 238.42 713.946 271.735 772.094 304.37C779.818 308.607 787.678 313.028 795.172 317.347C760.044 298.346 699.958 262.215 834.088 341.674C761.373 296.831 822.535 334.046 822.95 334.386C832.019 337.571 721.49 275.79 739.144 285.318C739.116 285.304 739.088 285.289 739.06 285.275ZM1330.69 1290.35C1368.6 1317.84 1480.5 1363.74 1428.68 1341.69C1394.65 1327.29 1362.07 1309.88 1330.69 1290.35ZM578.298 106.076C615.737 110.68 650.643 115.125 696.616 121.885C654.96 115.585 681.828 119.414 696.428 121.504C717.934 124.576 665.922 116.949 666.094 117.039C666.778 116.969 700.449 121.297 624.772 111.221C643.79 113.583 662.089 115.986 680.161 118.491C623.667 110.528 609.945 108.858 573.553 104.323C609.214 109.056 561.73 102.91 520.305 98.8624C499.578 96.8029 558.197 103.51 578.441 106.092C578.394 106.087 578.345 106.081 578.298 106.076ZM639.585 238.091C629.491 233.847 620.187 230.083 610.32 226.166C599.585 221.802 588.842 217.561 578.05 213.423C576.743 212.84 575.658 212.339 574.126 211.677C559.891 206.253 565.399 208.468 561.158 206.885C561.158 206.885 561.158 206.884 561.158 206.884C500.154 184.649 474.73 176.793 426.059 162.009C425.994 162.231 425.929 162.454 425.863 162.677C436.86 165.876 447.91 169.188 458.822 172.556C464.657 174.239 470.513 175.956 476.339 177.693C488.92 181.798 501.34 185.985 513.826 190.336C523.865 193.723 535.888 197.919 544.522 201.004C593.954 219.508 481.192 178.676 479.802 179.382C479.354 178.552 593.21 218.823 608.977 226.301C611.282 227.268 587.347 216.812 628.1 233.946C634.417 236.79 636.395 238.131 680.122 257.212C686.33 259.999 665.133 249.214 639.585 238.091ZM220.332 111.488C287.025 124.002 40.5864 79.8559 146.783 98.578C116.431 93.9127 121.996 94.7527 152.564 100.139C155.245 100.603 134.084 97.1548 135.89 97.4792C164.526 102.251 198.996 108.647 199.151 108.974C206.871 110.419 214.156 111.817 221.921 113.342C189.717 106.78 240.972 116.533 260.629 120.677C269.632 122.509 248.995 118.058 256.567 119.588C259.364 120.105 288.227 126.538 289.342 126.743C291.858 127.134 273.832 122.594 243.195 116.073C243.195 116.073 243.195 116.073 243.195 116.073C235.493 114.49 228.163 113.023 220.332 111.488ZM1354.6 899.2C1358.59 903.455 1367.86 914.573 1368.87 916.187C1369.54 918.205 1365.07 907.611 1331.43 878.433C1334.72 881.302 1338.12 884.384 1341.29 887.401C1352.33 897.554 1362.32 908.165 1371.47 920.317C1407.6 954.827 1402.19 1043.36 1401.66 988.838C1401.78 982.867 1392.21 948.429 1400.94 982.576C1400.93 982.529 1400.92 982.482 1400.91 982.435C1388.43 934.918 1380.83 930.276 1354.6 899.2ZM1140.41 680.015C1116.4 628.755 1134.34 663.634 1151.01 708.176C1168.05 752.944 1178.44 808.173 1174.01 786.031C1175.72 781.058 1138.84 671.444 1140.41 680.015ZM1054.9 1016.93C1092.08 1051.56 1095.82 1052.4 1091.8 1049.21C1087.84 1045.96 1061.52 1022.67 1058.34 1019.39C1047.65 1009.2 1070.51 1030.64 1056.6 1017.42C1051.26 1013.76 990.554 949.48 988.618 945.772C973.974 928.759 995.039 953.968 990.864 949.119C981.145 938.096 969.47 923.766 962.331 914.624L963.1 914.082C965.708 918.193 967.839 921.438 968.891 922.956C972.163 927.65 968.437 922.002 963.305 913.952L962.14 914.773C970.251 925.164 983.16 940.373 986.453 944.161C1004.2 964.611 1002.53 962.901 1016.29 977.842C1030.19 992.669 1039.51 1001.92 1052.42 1014.35C1056.71 1018.45 1053.04 1015.16 1054.9 1016.93ZM1190.15 1115.43C1166.66 1103.12 1182.86 1113.2 1208.23 1124.14C1233.54 1135.82 1269.84 1140.77 1277.51 1139.83C1300.19 1138.23 1283.44 1141.34 1258.32 1138.03C1232.97 1134.92 1201.44 1121.21 1190.15 1115.43ZM385.664 151.207C432.452 163.721 323.603 133.776 291.867 127.419C297.707 128.572 369.56 146.55 385.664 151.207ZM765.131 299.219C725.691 278.151 778.015 306.087 809.637 325.537C828.431 336.678 810.957 325.744 789.962 313.562C768.922 301.538 795.529 316.127 765.131 299.219ZM1236.29 1220.47C1227.39 1216.06 1114.49 1109.99 1179.12 1171.16C1183.3 1176.73 1266.4 1246.39 1273.9 1250.14C1287.28 1259.86 1255.32 1236.3 1236.29 1220.47ZM942.192 418.55C923.844 403.449 905.563 389.504 922.346 403.099C922.37 403.119 922.395 403.138 922.42 403.158C875.244 366.51 872.707 365.597 862.235 358.07C824.638 333.051 859.969 357.039 836.284 341.768C891.148 378.005 875.214 367.69 915.121 397.827C924.039 404.415 958.551 433.312 963.248 437.764C968.188 442.027 951.491 426.469 942.192 418.55ZM1420.57 1337.04C1373.06 1315.27 1331.57 1291.2 1395.4 1325.65C1427.12 1341.33 1449.92 1349.51 1420.57 1337.04ZM980.664 350.144C976.486 343.2 972.484 335.932 968.866 328.339C977.45 345.568 988.224 361.74 999.923 377.095C990.618 364.916 981.996 352.326 974.451 338.97C992.902 370.031 1003.23 383.182 980.716 350.227C980.698 350.2 980.681 350.172 980.664 350.144ZM1789.26 778.213C1777.43 767.099 1752.94 746.612 1755.96 749.28C1779.15 769.135 1805.65 793.572 1789.26 778.213ZM316.497 132.348C257.891 118.709 298.002 128.309 334.012 137.228C312.016 131.716 349.833 140.478 316.497 132.348ZM1624.71 582.473C1620.69 578.812 1616.68 575.201 1612.14 571.183C1626.38 583.728 1628.79 586.108 1624.71 582.473ZM1217.73 1204.29C1210.42 1198.66 1160.37 1152.69 1154.12 1145.97C1140.44 1132.69 1177.86 1170.27 1201.51 1190.64C1204.04 1192.97 1224.64 1210.28 1217.62 1204.2C1217.66 1204.23 1217.69 1204.26 1217.73 1204.29ZM1030.65 414.509C1030.58 414.428 1030.62 414.466 1030.76 414.602C1030.71 414.555 1030.72 414.573 1030.65 414.509ZM1702.09 1221.91C1701.78 1221.7 1701.62 1221.58 1701.66 1221.6C1701.77 1221.68 1702.01 1221.85 1702.09 1221.91ZM1021.76 984.811C1036.79 1001.89 1075.12 1037.45 1045.43 1008.73C1043.72 1007.16 1025.51 988.883 1021.76 984.811ZM590.71 684.041C474.239 624.099 343.253 563.189 217.214 525.42C201.593 520.862 202.785 521.119 198.455 519.887C186.324 516.534 179.373 515.014 170.4 512.87C147.394 507.428 124.984 503.2 102.416 500.789L103.129 496.291C122.132 500.358 141.149 504.045 160.688 507.49C204.541 514.927 183.645 511.885 198.918 514.424C228.705 519.008 203.425 514.668 215.182 516.188C249.416 520.982 284.043 524.762 318.637 526.524C310.172 526.18 301.792 525.712 293.228 525.121C308.245 526.302 329.872 527.457 304.593 526.216C310.091 526.617 315.428 526.971 321.097 527.275C322.608 527.211 349.385 527.888 351.817 527.603C354.302 527.491 339.127 527.388 339.317 527.339C340.396 527.945 401.842 526.306 406.09 524.47C417.674 522.832 407.531 524.722 417.36 523.051C433.961 519.374 423.158 522.195 445.158 515.65C453.365 511.755 454.538 511.894 463.54 505.015C464.711 504.007 463.703 504.673 464.208 504.225C470.4 498.282 470.339 496.975 469.876 498.052C469.281 499.067 467.241 501.546 467.254 501.505C467.828 501.086 471.385 497.292 473.419 492.455C475.618 487.582 475.969 482.037 475.958 479.996C475.791 463.997 467.915 450.66 459.86 438.549C442.642 413.52 425.659 390.756 401.775 363.815C394.326 355.053 369.737 330.165 361.361 322.882C353.272 315.526 357.726 319.279 353.523 315.45C346.194 309.797 339.715 303.996 323.162 291.616C316.717 287.543 317.748 287.647 305.276 279.889C294.898 273.474 275.666 263.728 262.669 260.864C277.364 264.85 275.983 264.47 291.607 271.969C297.692 273.202 346.655 308.568 342.818 306.202C341.266 304.529 325.193 292.436 324.494 292.055C320.913 289.265 330.265 295.552 337.951 301.784C335.941 300.245 333.676 298.541 331.465 296.917C348.904 310.845 337.468 300.548 349.982 311.981C351.508 313.418 350.867 312.996 353.381 315.317C353.938 315.742 350.868 312.934 353.586 315.268C356.359 317.637 361.504 322.561 362.357 323.12C363.724 323.967 352.226 313.814 351.3 313.085C351.289 313.078 351.279 313.071 351.268 313.064C343.574 306.285 359.779 320.203 360.501 320.976C365.427 325.268 362.297 322.168 369.574 328.831C373.817 332.686 383.926 342.828 387.62 346.704C391.342 350.553 385.665 344.459 388.176 347.038C390.685 349.616 393.579 352.819 396.487 355.933C397.717 357.25 397.734 357.073 398.319 357.705C404.55 364.504 400.323 360.216 405.912 366.48C409.551 370.502 421.514 384.3 413.472 374.673C417.368 379.203 421.234 383.829 425.005 388.452C422.64 385.469 420.203 382.465 417.822 379.545C425.04 388.307 428.441 392.256 432.805 397.773C437.257 403.437 440.821 408.556 445.649 414.841C455.819 428.034 430.988 394.933 427.616 391.096C426.383 389.518 431.351 395.397 432.066 396.313C435.341 400.425 439.023 405.476 441.452 408.688C449.752 419.683 454.889 426.532 462.187 436.939C462.642 437.591 463.095 438.252 463.547 438.921C470.103 448.761 476.623 460.191 478.696 473.362C481.268 486.543 474.9 501.539 463.788 509.309C441.43 525.127 414.446 527.653 392.347 530.011C375.72 531.406 365.747 531.231 358.131 531.352C340.778 531.425 338.595 531.508 323.305 530.959C300.65 530.119 268.864 527.1 250.082 524.859C237.087 523.364 225.303 521.987 221.938 521.539C183.322 516.467 138.121 508.55 102.159 500.844L102.901 496.16C110.579 496.96 118.425 498.027 125.129 499.073C143.487 501.997 151.809 504.16 155.657 504.923C171.635 508.377 167.368 507.251 180.354 510.41C187.233 512.135 188.512 512.675 189.434 512.917C197.626 515.123 199.362 515.371 205.647 517.108C242.133 527.303 276.806 539.309 311.836 552.474C314.373 553.43 314.112 553.442 315.76 554.059C322.841 556.724 319.607 555.314 327.019 558.154C342.348 564.049 358.02 570.368 374.141 577.091C375.74 577.759 376.398 578.173 380.038 579.698C383.682 581.227 386.495 582.273 392.214 584.714C407.143 591.094 421.757 597.654 437.427 604.704C440.019 605.87 443.293 607.172 447.183 608.94C459.37 614.465 477.31 622.963 487.628 627.864C521.829 644.069 553.158 659.511 584.852 675.798C592.236 679.595 598.818 683.183 602.679 685.201C611.359 689.748 604.886 686.199 613.63 690.79C657.759 714.036 701.645 738.251 744.565 763.738L742.221 767.277C716.698 748.498 691.503 728.791 667.659 707.819C643.38 686.396 614.839 658.925 597.934 631.908C591.186 620.58 590.424 618.29 587.324 609.324C584.898 601.2 584.643 596.059 585.423 590.689C586.329 585.58 588.399 579.533 595.952 573.981C608.374 565.374 625.296 564.769 639.584 564.983C653.988 565.508 660.953 566.121 677.15 568.816C677.602 568.895 678.062 568.977 678.529 569.061C692.005 571.387 709.441 577.109 722.84 582.407C847.918 636.268 954.881 718.499 1061.51 802.878C1068.86 808.856 1076.68 815.294 1084.14 821.554L1080.83 824.774C1056.3 793.572 1028.32 762.261 1000.67 733.872C997.408 730.542 1002.62 735.434 992.026 724.865C986.317 719.214 978.298 711.507 964.789 698.725C884.746 623.008 790.739 551.558 696.8 490.369C555.99 398.72 400.407 319.168 265.937 262.741C259.537 260.099 263.212 260.917 267.174 262.305C270.763 263.852 274.146 265.356 278.076 267.092C283.411 268.503 281.962 268.018 300.257 275.774C311.039 280.396 302.513 276.435 308.357 278.835C316.303 281.998 351.777 297.473 344.728 294.863C346.92 295.763 348.959 296.601 351.123 297.498C376.775 309.11 401.62 320.864 426.204 332.929C430.492 335.036 430.757 335 435.222 337.212C446.871 342.988 456.383 347.952 468.347 354.14C474.86 357.519 475.838 357.828 484.453 362.377C493.132 366.98 492.632 366.966 504.403 372.995C497.016 368.657 530.53 387.01 542.53 393.782C544.295 394.754 558.42 402.386 565.96 406.744C573.607 411.145 584.648 417.704 596.339 424.477C601.838 427.664 605.125 429.372 610.942 432.828C615.023 435.254 619.833 438.355 625.011 441.498C630.243 444.665 641.304 451.268 643.362 452.542C650.704 457.066 642.542 452.172 647.557 455.282C671.774 470.291 699.499 488.225 722.869 503.818C725.734 505.727 721.863 502.948 722.245 503.199C741.751 516.111 731.284 509.31 736.445 512.965C741.548 516.452 778.269 542.074 778.637 542.142C779.567 543.203 787.798 548.811 789.898 550.328C798.071 556.22 796.31 555.286 804.234 561.005C807.133 563.104 801.64 558.812 804.732 561.1C812.373 566.761 819.055 572.126 829.125 579.825C831.555 581.688 832.431 582.178 836.74 585.495C841.075 588.789 858.931 603.01 850.822 596.281C861.556 605.024 863.831 606.652 876.339 616.79C879.503 619.367 883.426 622.847 890.156 628.339C892.43 630.199 892.503 629.977 895.897 632.813C903.657 639.308 910.741 645.609 920.432 654.05C938.517 669.809 957.5 686.87 975.501 704.26C980.385 708.993 979.03 707.959 986.079 714.867C987.115 715.871 995.706 724.109 1000.5 729.01C1003.44 731.934 1018.06 747.275 1021.01 750.49C1025.87 755.691 1026.88 756.485 1029.49 759.369C1037 767.73 1030.72 761.272 1040.08 771C1042.9 774.481 1048.17 780.409 1049.61 782.509C1052.88 785.774 1056.57 790.468 1062.38 797.199C1068.25 803.995 1073.35 809.293 1074.2 811.382C1075.7 813.149 1079.83 818.162 1083.46 822.697L1081.99 824.126C1078.51 821.26 1075.14 818.508 1074.08 817.638C1067.3 812.079 1071.08 814.96 1065.87 810.719C1064.97 809.995 1065.72 810.758 1060.01 806.102C1056.13 802.841 1027.8 780.339 1026.16 779.114C1006.71 763.725 1036.86 787.278 1041.04 790.51C1041.75 791.117 1042.43 791.703 1043.2 792.358C1051.79 799.282 1047.08 795.166 1043.18 791.978C1039.5 788.959 1031.95 783.163 1028.89 780.661C1027.33 779.379 1028.5 779.864 1033.34 783.718C1028.18 779.53 1035.38 785.055 1033.37 783.351C1031.27 781.502 1007.72 763.208 1007.44 763.275C1011.87 766.68 1017.35 770.901 1021.76 774.338C1027.36 779.111 1009.13 766.24 993.04 753.56C981.39 744.416 1001.13 758.829 972.801 738.049C977.168 741.297 980.741 743.997 984.698 746.977C984.952 747.465 978.772 742.513 975.422 740.127C973.822 738.983 983.461 746.36 974.967 740.118C967.821 734.399 962.051 730.557 949.721 721.642C953.182 724.066 956.624 726.491 960.099 728.954C939.41 713.581 987.827 748.723 947.428 719.182C952.325 722.695 957.142 726.196 962.06 729.773C959.764 727.938 963.776 730.413 961.7 728.798C956.215 724.53 947.954 718.699 941.1 713.781C938.122 711.645 940.03 712.885 939.779 712.705C935.693 709.779 936.513 710.542 932.901 707.992C928.348 704.76 915.289 695.467 913.122 694.006C907.563 690.215 916.614 696.822 916.071 696.478C912.465 694.137 905.31 689.081 905.583 689.494C923.153 701.189 972.432 736.813 927.467 705.113C939.695 714.139 935.883 711.85 918.029 699.4C903.194 689.144 912.855 695.639 905.226 690.168C904.256 689.431 884.3 675.846 883.173 675.296C884.143 675.586 877.73 671.022 882.296 673.688C882.972 674.075 891.201 679.599 888.462 677.475C887.098 676.413 883.105 673.436 883.858 673.751C882.098 672.711 880.252 671.634 878.464 670.588C866.055 662.464 864.279 661.223 857.581 656.69C857.839 656.956 863.989 661.296 854.421 655.069C853.93 654.752 853.567 654.361 848.701 651.224C838.892 644.933 836.752 643.595 844.621 648.036C823.864 635.469 819.598 632.382 797.9 620.204C802.018 623.097 809.697 627.136 829.289 638.836C830.07 639.441 830.406 639.776 831.213 640.401C805.343 624.597 818.154 632.287 803.205 623.901C799.55 621.799 779.933 611.017 786.351 614.889C787.847 615.754 800.014 622.511 798.571 621.858C798.254 621.665 783.514 613.61 782.125 612.879C765.668 603.969 795.833 618.564 749.479 595.869C748.194 595.274 747.747 595.214 745.152 594.045C740.333 591.892 740.342 591.724 736.104 589.912C731.786 588.079 725.786 585.79 719.259 583.083C707.331 578.152 735.848 588.683 747.896 594.852C751.546 596.243 708.217 575.066 678.324 570.194C666.241 567.982 657.116 567.067 655.516 566.913C629.265 564.786 672.899 568.59 674.816 569.8C675.409 569.939 675.367 570.23 678.208 570.836C679.71 571.165 682.064 571.581 686.035 572.327C689.252 572.875 675.965 569.838 683.916 571.448C692.028 573.233 688.698 572.722 689.304 572.865C691.126 573.319 699.667 575.667 700.638 576.04C716.862 581.936 715.202 581.61 693.647 574.136C684.014 571.731 705.971 578.223 693.952 574.99C688.032 573.426 682.315 572.147 678.114 571.353C671.791 570.154 667.869 569.488 666.815 569.322C644.247 566.436 670.416 569.415 642.764 567.107C627.251 566.589 665.955 567.292 630.632 566.758C615.931 567.486 612.721 569.202 612.786 569.099C612.812 569.167 616.184 568.608 615.18 569.005C614.746 569.204 599.18 572.585 620.444 568.303C621.026 568.128 622.146 567.858 623.541 567.631C628.943 567.094 637.847 567.578 640.655 567.728C654.477 568.456 653.937 568.423 661.962 569.636C656.095 568.574 665.863 569.972 669.177 570.458C678.004 571.707 673.113 570.813 678.046 571.728C680.181 572.16 685.153 573.067 694.268 575.701C690.567 574.513 687.273 573.529 683.547 572.56C687.116 573.331 690.536 574.185 693.977 575.131C699.255 576.809 717.033 582.758 700.677 577.758C720.309 584.157 727.843 587.759 732.228 589.217C733.086 589.525 735.904 590.702 739.227 592.171C738.627 591.824 737.916 591.263 738.45 591.468C743.251 593.297 750.394 597.109 747.84 596.097C750.118 597.165 751.938 598.042 752.58 598.352C756.654 600.323 748.59 596.644 751.874 598.261C752.961 598.757 764.482 604.378 764.628 604.551C765.811 605.708 747.329 595.537 784.628 615.369C785.654 615.471 768.391 606.467 772.987 608.473C777.854 610.528 787.488 616.326 789.731 617.02C790.472 617.518 790.785 617.767 791.414 618.217C806.538 626.385 806.338 626.866 810.868 629.568C819.596 634.657 859.309 659.015 823.782 636.955C829.104 640.101 834.357 643.282 839.582 646.476C840.365 647.871 837.464 645.476 862.105 661.344C867.503 664.855 869.125 666.292 874.602 669.429C873.684 669.245 889.722 679.614 891.154 680.663C900.491 687.235 865 664.057 860.7 660.68C854.566 657.054 854.727 656.75 847.952 652.533C838.176 646.496 836.727 645.655 825.146 638.368C813.535 631.567 869.998 666.207 835.596 645.445C816.97 635.56 751.256 589.865 677.743 573.403C647.105 568.517 609.221 563.101 592.712 583.633C586.02 594.334 590.582 607.324 594.584 616.379C598.819 625.62 603.95 633.089 607.371 637.93C655.336 698.839 697.006 726.875 744.942 763.574L742.216 767.688C728.341 759.443 713.51 750.849 697.05 741.534C689.418 736.996 631.438 705.379 643.698 711.641C645.287 712.409 670.714 726.087 649.187 714.006C653.453 716.531 640.879 709.86 639.788 709.304C615.15 696.662 629.246 704.134 590.71 684.041ZM476.678 623.749C527.992 648.156 490.39 630.032 501.315 634.541C494.756 631.397 488.128 628.249 481.567 625.161C483.281 626.01 484.971 626.849 486.681 627.7C486.689 627.704 486.696 627.707 486.703 627.711C483.377 626.39 480.02 625.062 476.678 623.749ZM407.348 366.996C408.863 368.6 410.367 370.206 412.015 372C416.87 377.685 421.682 383.508 426.361 389.352C425.752 388.684 425.163 388.044 424.555 387.383C419 380.54 413.248 373.708 407.348 366.996ZM755.078 598.149C764.672 603.077 763.831 602.164 776.361 608.87C774.979 607.811 773.433 606.68 771.908 605.566C762.255 600.686 760.021 599.681 749.515 594.639C750.692 595.294 751.902 595.971 753.06 596.628C754.823 597.444 756.709 598.327 758.434 599.149C761.01 600.66 744.142 592.647 755.044 598.133C755.055 598.138 755.067 598.143 755.078 598.149ZM850.025 651.556C854.884 654.606 873.835 667.026 876.447 668.643C885.515 673.942 831.651 639.525 871.443 664.742C871.294 664.575 871.506 664.646 871.538 664.598C864.326 659.869 857.154 655.247 849.816 650.612C850.086 651.053 849.703 651.08 850.025 651.556ZM659.95 716.728C667.532 720.817 704.381 741.232 692.542 734.3C688.961 732.183 672.602 723.507 666.273 720.03C662.288 717.832 666.896 720.117 658.915 715.839C659.224 716.111 659.394 716.319 659.972 716.74C659.964 716.736 659.957 716.732 659.95 716.728ZM644.883 709.91C652.755 714.118 661.082 718.605 668.979 722.912C663.314 719.513 651.703 713.362 651.124 712.677C653.371 713.868 655.577 715.04 657.79 716.219C659.441 717.202 661.056 718.168 662.659 719.129C669.523 722.695 665.499 720.359 678.283 727.498C670.757 722.771 669.563 721.726 647.236 710.187C651.436 712.158 648.139 709.338 635.521 703.287C633.166 702.156 642.74 707.382 642.817 707.45C644.173 708.444 638.813 705.726 640.283 706.767C640.953 707.238 646.739 710.357 647.523 710.94C647.893 711.215 642.318 708.422 644.883 709.91ZM629.462 700.3C631.976 701.482 623.785 696.729 616.288 692.854C604.604 686.821 622.861 696.78 629.462 700.3ZM407.316 366.96C407.327 366.972 407.337 366.984 407.348 366.996C407.343 366.99 407.337 366.984 407.331 366.978C407.326 366.972 407.321 366.966 407.316 366.96ZM824.992 635.972C830.898 639.36 839.3 644.554 838.795 644.023C841.573 645.779 844.385 647.57 847.124 649.329C847.128 649.264 847.106 649.183 847.11 649.118C838.758 643.848 830.439 638.715 821.931 633.609C822.915 634.373 823.82 635.092 824.992 635.972ZM914.983 694.572C925.158 701.667 916.767 695.519 919.074 696.97C921.388 698.42 930.349 704.839 929.388 703.949C923.451 699.755 917.187 695.378 911.12 691.189C912.612 692.454 913.617 693.39 915.003 694.586C914.996 694.581 914.99 694.577 914.983 694.572ZM262.254 535.669C270.161 538.421 266.813 537.426 282.624 542.734C282.612 542.73 282.601 542.725 282.589 542.721C267.678 537.256 248.558 530.682 231.757 525.683C242.012 529.077 249.596 531.325 262.254 535.669ZM728.436 585.589C725.101 584.344 740.327 590.882 743.687 592.339C749.157 594.55 733.697 587.395 728.436 585.589ZM275.681 525.335C288.478 525.966 264.36 523.498 239.194 520.614C237.014 520.387 253.247 522.449 248.422 521.978C247.935 521.938 239.013 520.869 236.799 520.654C234.583 520.446 236.882 520.891 233.256 520.501C226.894 519.832 212.594 517.665 207.841 517.114C207.21 517.048 216.06 518.513 216.623 518.591C225.726 519.981 234.558 520.811 235.973 520.984C243.244 521.871 242.12 521.937 243.955 522.209C247.413 522.718 253.527 523.31 253.954 523.361C264.981 524.773 239.756 521.914 236.345 521.505C227.149 520.534 235.608 521.908 213.624 519.024C211.529 518.749 186.613 515.166 218.01 519.872C156.2 511.448 248.972 524.771 259.186 525.075C263.862 525.518 256.812 524.568 259.654 524.777C266.142 525.27 277.134 526.26 276.192 525.871C274.085 525.07 259.639 524.08 249.693 522.816C250.751 522.801 251.164 522.716 253.11 522.801C250.106 522.691 274.732 525.349 275.681 525.337C275.681 525.336 275.681 525.336 275.681 525.335ZM119.639 502.742C109.83 500.626 107.459 500.275 102.499 499.248L102.731 497.783C104.759 497.987 107.237 498.271 110.871 498.788C119.167 499.611 109.384 498.213 102.758 497.52L102.444 499.507C104.824 500.021 106.869 500.452 107.544 500.598C119.218 503.106 118.749 503.402 130.783 505.633C126.676 504.608 123.387 503.726 119.639 502.742ZM239.791 522.357C230.467 521.417 247.111 523.446 247.782 523.538C255.08 524.905 205.268 518.578 239.791 522.357ZM707.185 743.985C711.311 746.356 708.795 744.699 712.426 746.714C715.878 748.612 728.57 756.159 728.171 755.801C728.054 755.577 705.22 742.008 728.189 755.242C727.464 754.742 727.744 754.848 727.407 754.583C721.219 750.976 714.712 747.224 708.502 743.678C711.92 745.849 715.112 747.913 718.486 750.072C714.734 748.084 713.044 746.893 712.819 746.763C712.819 746.764 712.819 746.764 712.819 746.764C706.328 743.058 697.772 738.598 707.185 743.985ZM371.984 577.598C370.499 577.493 381.041 581.303 385.303 583.049C389.566 584.783 395.322 587.435 393.214 586.312C386.406 583.237 372.174 577.609 371.984 577.599C371.984 577.599 371.984 577.598 371.984 577.598ZM160.421 507.456C171.744 509.883 170.204 509.364 183.99 512.938C183.482 512.691 182.976 512.442 182.469 512.198C171.478 509.484 171.956 509.91 159.284 506.956C157.189 506.488 161.801 507.173 152.117 505.23C154.867 505.941 157.805 506.729 160.421 507.456ZM216.842 521.59C203.81 517.842 193.301 515.839 217.329 522.283C220.917 523.274 226.576 524.453 216.842 521.59ZM598.013 684.631C618.325 695.264 595.306 683.059 590.051 680.204C637.433 704.766 584.68 677.383 580.192 674.64C574.281 671.759 563.283 666.517 575.33 672.745C580.38 675.365 578.591 674.293 578.897 674.449C588.192 679.26 586.808 678.8 598.013 684.631ZM143.497 507.321C142.643 507.17 143.945 507.576 141.232 507.103C138.492 506.628 132.54 505.378 131.836 505.34C131.295 505.346 143.368 507.717 147.261 508.341C151.101 508.963 151.251 508.686 143.497 507.321ZM148.116 505.305C159.384 507.468 141.119 503.159 138.738 502.796C116.956 498.997 148.919 505.11 148.116 505.305ZM550.141 661.332C575.048 673.534 557.099 663.857 541.839 655.925C539.766 654.967 537.634 653.982 535.579 653.036C545.057 657.316 561.553 665.009 525.089 647.396C544.934 657.253 528.189 649.13 528.087 649.107C525.578 648.627 555.154 662.937 550.119 661.322C550.126 661.325 550.134 661.329 550.141 661.332ZM180.185 513.861C192.025 515.867 223.02 520.133 208.619 517.768C199.167 516.557 189.656 515.248 180.185 513.861ZM587.839 599.042C587.006 589.479 590.574 579.778 601.295 574.224C592.222 579.795 597.867 575.767 601.078 573.944C603.464 572.693 601.73 573.434 599.431 574.79C597.056 576.157 594.646 578.355 594.615 578.402C594.6 578.214 596.258 576.701 596.022 576.863C596.13 577.165 592.438 577.996 588.59 587.062C590.108 582.483 593.237 578.506 597.139 575.637C585.548 585.338 586.609 591.339 586.793 600.438C586.784 590.865 586.125 603.815 590.834 613.797C592.934 618.845 587.573 604.018 587.835 599.005C587.837 599.017 587.838 599.03 587.839 599.042ZM575.581 674.304C578.166 675.529 580.54 676.615 583.026 677.783C585.692 679.143 588.349 680.504 590.987 681.858C591.278 682.094 591.513 682.305 591.859 682.566C595.382 684.416 594.056 683.61 595.11 684.146C595.11 684.146 595.11 684.147 595.109 684.147C610.141 691.805 616.245 695.053 627.716 701.418C627.826 701.213 627.935 701.008 628.044 700.803C625.445 699.443 622.8 698.063 620.165 696.692C618.711 696.064 617.247 695.431 615.783 694.8C612.73 693.112 609.796 691.492 606.812 689.851C604.374 688.624 601.428 687.139 599.29 686.076C587.448 679.175 614.749 693.905 615.156 693.85C615.383 693.738 587.613 679.252 583.59 677.362C583.001 677.081 588.81 680.605 578.722 675.145C577.171 674.31 576.949 673.002 565.661 668.223C564.064 667.55 569.143 670.844 575.581 674.304ZM675.808 728.023C660.825 718.865 716.956 751.131 692.936 737.004C699.994 740.631 698.742 739.925 691.872 735.744C691.272 735.377 696.15 738.027 695.74 737.785C689.302 733.976 681.181 729.544 681.334 729.318C679.57 728.352 677.898 727.438 676.108 726.463C683.39 730.799 671.533 724.411 666.76 722.044C664.652 720.997 669.398 723.642 667.601 722.751C666.943 722.423 660.374 718.748 660.04 718.671C659.412 718.562 663.319 721.003 670.458 725.113C670.458 725.114 670.458 725.114 670.458 725.114C672.27 726.099 674.021 727.049 675.808 728.023ZM336.978 565.063C334.335 563.636 323.203 559.116 344.721 567.423C343.686 566.932 342.618 566.43 341.583 565.941C337.961 564.513 334.456 563.143 330.787 561.72C319.29 558.377 299.55 549.716 312.202 555.278C313.582 555.884 322.235 559.069 313.646 556.056C313.657 556.061 313.669 556.065 313.68 556.07C325.576 560.51 327.183 561.005 336.978 565.063ZM415.659 597.602C442.86 608.651 378.645 581.043 389.244 585.945C390.233 586.334 417.914 598.14 415.659 597.602ZM194.597 517.472C207.293 520.917 208.166 520.808 206.953 520.291C205.696 519.767 197.025 517.537 195.808 517.196C192.088 516.116 200.036 518.198 195.206 516.788C193.552 516.228 171.516 510.53 170.378 510.365C164.666 509.135 172.906 511.414 171.269 511.074C165.902 509.931 158.885 508.204 157.275 508.053C153.928 507.719 167.281 510.22 169.579 510.788C176.409 512.38 175.905 512.498 180.877 513.773C185.896 515.076 189.234 515.864 193.735 517.077C195.234 517.482 193.947 517.297 194.597 517.472ZM236.579 528.786C223.364 524.959 255.119 535.336 258.925 536.653C270.114 540.159 242.924 530.52 236.579 528.786ZM637.586 706.025C626.403 700.284 651.998 714.228 659.492 718.26C658.169 717.412 641.453 707.993 637.586 706.025ZM543.323 657.929C553.644 662.997 540.268 655.727 531.544 651.448C526.307 649.254 531.128 651.542 536.791 654.359C542.43 657.169 535.233 653.974 543.323 657.929ZM150.414 507.355C147.849 506.997 108.385 499.592 131.072 504.137C132.795 504.54 160.408 509.552 162.564 509.811C166.84 510.442 156.629 508.504 150.414 507.355ZM493.295 634.13C498.95 636.495 504.353 639.097 499.445 636.36C499.437 636.356 499.43 636.352 499.423 636.349C513.355 642.915 513.729 643.918 516.724 645.349C527.227 650.41 517.526 645.116 524.16 648.173C508.831 640.87 513.272 642.656 501.684 637.053C499.082 635.794 488.488 630.976 486.884 630.363C485.292 629.75 490.514 632.64 493.295 634.13ZM206.384 516.413C192.991 514.345 180.63 512.872 199.238 515.805C208.304 517.197 214.556 517.652 206.384 516.413ZM865.604 663.504C863.935 662.274 862.213 661.015 860.413 659.712C864.625 662.379 868.863 665.091 873.06 667.802C869.738 665.675 866.377 663.536 863.013 661.415C870.875 666.547 874.356 669.104 865.625 663.517C865.618 663.513 865.611 663.508 865.604 663.504ZM1041.78 773.446C1039.04 770.194 1033.24 764.371 1033.92 765.159C1039.05 771.105 1045.55 777.935 1041.78 773.446ZM653.365 715.843C667.068 723.381 658.009 717.727 649.467 713.046C654.638 715.985 645.485 711.529 653.365 715.843ZM1041.04 790.51C1039.99 789.609 1038.92 788.697 1037.73 787.683C1041.54 790.796 1042.15 791.343 1041.04 790.51ZM144.181 505.669C141.845 505.215 124.511 501.847 122.207 501.421C117.322 500.57 130.838 503.62 138.723 504.982C139.587 505.138 146.512 506.149 144.145 505.662C144.157 505.665 144.169 505.667 144.181 505.669ZM883.133 675.289C883.113 675.269 883.129 675.272 883.173 675.296C883.155 675.29 883.156 675.297 883.133 675.289ZM778.543 542.04C778.615 542.104 778.651 542.141 778.637 542.142C778.612 542.113 778.557 542.062 778.543 542.04ZM182.87 515.117C188.335 517.07 201.607 520.324 191.28 517.272C190.697 517.097 184.228 515.453 182.87 515.117Z" fill="#43637C"/>
</svg>
