<svg width="2880" height="1537" viewBox="0 0 2880 1537" fill="none" xmlns="http://www.w3.org/2000/svg">
<path d="M1744.67 191.934C1828.17 237.84 1913.12 288.017 1996.3 341.984L1994.14 346.418C1949.55 332.518 1902.38 313.533 1857.01 325.461C1833.39 333.467 1839.4 363.895 1848.89 384.014C1858.5 405.391 1871.79 425.089 1885.69 443.897C1942.82 519.007 2011.27 583.882 2081.12 641.897C2107.62 663.407 2105.68 661.679 2113.34 667.674C2133.49 683.058 2146.86 692.199 2161.97 702.157C2162.26 702.351 2162.56 702.544 2162.86 702.737C2181.85 714.755 2204.3 726.449 2224.71 718.807C2244.81 710.173 2251.26 685.581 2254.71 664.44C2260.76 620.761 2256.24 575.973 2250.23 531.2C2235.38 438.945 2242.57 482.532 2236.67 450.596C2223.27 388.567 2234.31 441.405 2228.65 417.104C2223.96 396.977 2218.87 376.923 2213.33 356.92L2217.32 356.243C2224.88 407.352 2247.05 455.888 2267.81 503.604C2260.41 487.373 2253.32 471.057 2246.58 454.408C2258.38 483.976 2277.03 525.269 2255.5 476.758C2260.01 487.475 2264.49 497.749 2269.39 508.619C2270.84 511.762 2295.05 562.289 2297.72 566.828C2300.12 571.397 2286.13 543.138 2286.23 543.174C2286.56 545.558 2346.3 660.39 2351.6 668.281C2363.72 689.977 2352.74 671.11 2363.14 689.441C2381.17 720.779 2369.6 699.748 2393.72 742.414C2403.81 758.866 2404.65 760.583 2417.42 781.646C2419.13 784.45 2417.93 782.193 2418.69 783.425C2419.6 784.906 2420.44 786.271 2421.21 787.526C2437.36 812.974 2423.09 791.013 2423.2 791.144C2424.47 794.433 2447.23 827.404 2452.7 833.708C2518.94 916.125 2586.17 962.556 2690.3 1002.38C2712.67 1011.73 2784.06 1030.36 2807.26 1033.54C2830.05 1037.48 2817.81 1035.59 2829.68 1037.53C2848.99 1039.75 2867.24 1042.59 2910.64 1045.12C2926.81 1045.35 2924.71 1045.92 2955.68 1045.75C2981.56 1045.66 3026.6 1042.12 3054.37 1037.48C3022.44 1042.22 3025.46 1042.09 2989.03 1044.75C2976.96 1048.22 2849.54 1042.13 2859.2 1041.5C2864.07 1042.52 2906.14 1045.55 2907.82 1045.4C2917.29 1046.01 2893.77 1045.38 2872.9 1043.29C2878.08 1043.73 2884.42 1044.21 2889.95 1044.56C2843.29 1040.27 2875.18 1044.32 2839.95 1039.31C2835.59 1038.61 2837.28 1038.75 2830.09 1037.6C2828.6 1037.43 2837.39 1038.82 2829.81 1037.73C2822.17 1036.67 2807.44 1033.93 2805.32 1033.69C2801.96 1033.47 2833.9 1038.65 2836.38 1038.83C2836.4 1038.84 2836.43 1038.84 2836.45 1038.84C2857.78 1041.93 2813.27 1035.71 2811.14 1035.06C2797.43 1032.75 2806.78 1034.72 2786.2 1030.73C2774.57 1028.57 2745.01 1021.22 2734.32 1018C2723.64 1014.93 2740.21 1019.85 2733.02 1017.8C2725.83 1015.75 2716.9 1012.92 2708.58 1010.2C2705 1009.03 2705.14 1009.21 2703.41 1008.63C2684.91 1002.22 2697.12 1006.31 2680.5 1000.14C2669.67 996.324 2634.29 980.944 2658.63 991.672C2646.84 986.672 2635.56 981.459 2624.21 975.756C2631.3 979.384 2638.83 983.012 2645.91 986.271C2624.19 976.224 2614.59 971.228 2601.48 963.972C2588.4 956.605 2577.1 949.378 2563.32 940.224C2533.91 920.906 2606.64 969.054 2617.15 972.558C2620.88 974.558 2606.41 967.154 2604.27 965.903C2594.58 960.588 2583.37 953.655 2576.2 949.074C2550.48 932.495 2535.32 921.33 2513.23 902.295C2478.47 872.051 2444.72 833.157 2418.08 789.436C2387.11 738.909 2357.83 688.44 2333.59 643.96C2316.9 613.325 2307.44 594.349 2300.4 580.528C2283.82 547.594 2281.84 543.906 2268.23 514.704C2248.22 471.477 2222.73 409.099 2215.01 369.589C2214.14 365.068 2213.46 360.825 2213.16 356.515L2217.36 355.802C2223.32 377.136 2227.83 394.958 2229.29 400.912C2250.88 496.904 2280.03 620.249 2248.89 700.804C2240.14 719.342 2223.34 726.191 2212.64 725.855C2201.58 725.893 2195.05 723.267 2191.31 722.153C2168.95 713.543 2167.2 710.609 2159.39 706.087C2156.15 703.986 2151.98 701.263 2144.45 696.055C2132.09 687.425 2130 685.557 2128.33 684.355C2113.95 673.736 2111.06 671.745 2100.08 663.233C2037.39 613.852 1980.92 561.254 1927.91 502.532C1924.05 498.215 1924.48 498.532 1922.02 495.749C1911.62 483.844 1916.23 489.497 1905.45 476.712C1883.49 450.021 1861.24 421.43 1845.44 388.023C1844.03 384.836 1843.12 382.809 1840.36 375.144C1837.84 367.057 1835.03 360.763 1835.64 347.136C1836 327.173 1857.94 317.264 1874.71 317.036C1891.51 315.924 1910.3 318.828 1927.2 322.408C1933.49 323.751 1940.48 325.237 1949.02 327.519C1963.49 331.398 1978.36 336.023 1995.66 342.003L1993.76 345.896C1979.76 336.732 1965.64 327.694 1955.28 321.159C1888.1 278.865 1824.6 241.62 1759.12 205.21C1743.64 196.616 1730.12 189.088 1722 184.696C1703.83 174.897 1717.51 182.39 1699.03 172.527C1552.66 98.9792 1401.95 11.8563 1234.56 4.70547L1235.16 0.610941C1240.13 2.39912 1245.58 4.43772 1250.63 6.38989C1314.21 30.7824 1388.03 69.4222 1442.8 106.075C1465.5 121.317 1469.38 124.506 1484.94 136.01C1512.34 157.028 1517.46 160.717 1544.49 185.214C1565.86 204.976 1588.6 229.579 1606.86 253.786C1624.79 278.188 1633 289.765 1648.33 321.121C1658.88 343.149 1669.22 374.508 1672.71 402.888L1671.23 401.043C1675.84 402.717 1680.42 404.527 1684.85 406.365C1806.39 460.261 1912.62 548.651 1981.82 661.791C2016.63 720.782 2053.06 779.289 2075.58 844.942C2079.44 860.635 2088.22 881.209 2073.02 896.321C2055.01 906.339 2037.05 896.326 2021.46 890.411C1989.5 876.021 1960.82 857.168 1931.93 837.584L1934.98 833.958C1944.87 844.112 1955.68 854.767 1965.96 864.619C2038.93 934.411 2126.37 1005.3 2211.9 1065.08C2219.96 1070.66 2207.37 1062.39 2233.42 1080.1C2247.41 1089.47 2267.11 1102.55 2300.32 1123.03C2396.22 1181.71 2501.21 1234.89 2614.33 1264.14L2612.74 1267.7C2510.58 1197.47 2409.36 1123.27 2324.18 1035.85C2312.18 1023.03 2300.55 1009.63 2290.57 995.162C2277.39 975.912 2264.42 956.687 2252.79 936.325C2247.05 926.122 2241.6 915.781 2237.67 904.539C2235.78 898.958 2234.15 892.994 2234.25 886.763C2234.12 880.614 2237.54 873.45 2243.72 870.801C2292.56 862.806 2335.27 890.247 2377.85 907.062C2594.8 1016.77 2836.11 1089.03 3045.97 1038.67C3060.88 1035.68 3052.9 1037.97 3044.04 1039.94C3035.74 1041.49 3028.32 1042.74 3019.51 1044.13C3008.68 1046.53 3010.7 1046.76 2970.07 1051.65C2944.94 1054.24 2965.01 1052.5 2951.69 1053.86C2934.35 1056.77 2852.54 1057.65 2868.24 1056.85C2863.15 1056.84 2858.47 1056.79 2853.57 1056.68C2794.31 1054.54 2737.08 1045.49 2681 1030.85C2671.36 1028.3 2670.81 1028.31 2660.87 1025.51C2634.16 1017.83 2613.24 1010.76 2586.37 1000.91C2571.83 995.487 2569.7 994.901 2550.78 987.361C2531.95 979.703 2532.42 979.708 2506.79 968.991C2523.21 976.61 2449.48 943.843 2423.52 931.634C2420.05 930.045 2393.47 918.036 2376.37 910.321C2374.81 909.615 2373.34 908.953 2371.98 908.34C2355.67 901.032 2329.87 889.501 2303.56 880.933C2290.89 876.956 2283.15 874.756 2269.29 872.531C2260.19 871.536 2245.4 868.911 2239.19 879.551C2232.88 890.819 2246.57 917.126 2248.54 921.147C2256.87 937.154 2247.48 919.581 2253.31 930.514C2264.73 951.253 2278.74 972.232 2293.18 993.369C2315.35 1025 2344.14 1052.46 2370.28 1076.53C2375.65 1081.41 2368.33 1074.53 2369.06 1075.18C2405.84 1107.99 2386.14 1090.46 2396.05 1099.39C2405.26 1108.43 2478.85 1167.42 2479.83 1167.29C2481.92 1169.35 2498.75 1181.89 2503.08 1185.11C2520.07 1197.82 2516.54 1195.54 2533.16 1207.66C2539.24 1212.07 2527.56 1203.28 2534.07 1208.05C2550.21 1219.87 2564.66 1230.67 2586.51 1245.93C2591.79 1249.6 2593.5 1250.64 2603.05 1257.16C2605.34 1258.73 2609.89 1261.83 2614.56 1264.98L2613.52 1267.31C2596.84 1263.1 2575.06 1256.44 2590.95 1261.35C2563.09 1252.84 2557.39 1251.2 2525.53 1239.55C2517.49 1236.53 2507.21 1232.41 2490.3 1225.46C2484.58 1223.09 2484.63 1223.36 2476.11 1219.69C2456.58 1211.21 2438.42 1202.61 2414.29 1190.54C2369.11 1167.92 2322.33 1141.29 2277.91 1113.02C2265.83 1105.29 2268.96 1107.11 2251.54 1095.7C2248.95 1094.03 2228 1080.29 2216.21 1072.07C2209.04 1067.27 2172.51 1041.06 2165.4 1035.65C2153.3 1026.7 2151.09 1025.27 2144.61 1020.35C2125.72 1005.84 2141.07 1017.24 2118.24 1000.12C2110.95 994.168 2097.94 983.88 2093.93 980.277C2086.25 974.509 2076.53 966.288 2062.09 954.4C2047.56 942.435 2035.44 932.767 2032.49 929.354C2025.65 923.678 1997.7 899.002 1993.04 894.634C1979.26 882.034 1986.91 888.833 1976.43 879.117C1974.61 877.395 1976.46 879.382 1964.93 868.399C1961.22 864.851 1946.65 850.91 1932.5 836.371L1933.88 834.73C1952.15 847.294 1970.02 858.452 1972.02 859.667C2016.27 886.47 1947.56 845.218 1938.86 838.451C1937.22 837.297 1935.58 836.138 1933.79 834.872L1932.63 836.251C1932.64 836.264 1932.65 836.276 1932.66 836.289C1948.37 852.298 1939.79 843.263 1932.83 836.055L1933.63 835.105C1933.76 835.198 1933.89 835.29 1934.03 835.383C1942.97 841.619 1959.02 852.02 1966.29 856.644C1969.74 858.842 1967.63 858.018 1956.5 850.798C1968.35 858.548 1952.03 848.17 1956.69 851.289C1961.11 855.167 2015.89 886.721 2016.55 885.536C2006.11 880.664 1993.24 873.614 1983 867.541C1970.21 858.315 2009.53 886.608 2051.19 896.449C2058.76 897.639 2061.14 897.036 2062 897.088C2062.74 897.064 2061.53 897.26 2061.66 897.276C2061.79 897.147 2063.45 897.712 2068.87 895.368C2074.5 893.457 2080.76 882.646 2077.13 864.414C2078.73 875.261 2079.37 886.328 2071.83 893.223C2071.31 893.426 2074.5 891.33 2076.29 886.513C2078.09 882.107 2078.25 875.268 2077.86 871.344C2078.01 867.263 2077.65 892.31 2077.54 870.596C2075.63 851.754 2070.34 837.464 2057.71 808.379C2061.35 816.42 2064.83 824.559 2068.01 832.999C2048.52 782.571 2094.49 899.372 2055.42 801.744C2060.8 813.449 2065.59 824.648 2069.93 836.869C2068.02 831.118 2071.62 840.134 2069.88 834.994C2065.23 821.221 2056.41 801.635 2048.58 785.742C2045.17 778.822 2047.38 783.065 2047.09 782.487C2042.28 772.826 2043.3 775.185 2039.01 766.881C2033.74 756.478 2017.43 726.606 2014.73 722.03C2007.67 709.662 2019.1 730.418 2018.35 729.183C2013.9 721.459 2004.74 705.304 2005.07 706.272C2028.67 743.883 2084.37 859.423 2032.34 755.896C2046.8 784.412 2042.61 776.012 2020.61 735.864C2002.02 702.819 2014.09 723.92 2004.51 706.808C2003.48 704.881 1986.35 675.569 1978.95 663.518C1977.29 660.787 1976.15 658.976 1975.88 658.577C1977.22 660.132 1968.63 646.022 1974.8 655.235C1975.2 655.826 1977.53 659.551 1979.68 663.078C1982.47 667.643 1984.99 671.741 1982.99 668.147C1982.32 666.943 1981.16 664.892 1980.03 662.869C1978.17 659.54 1976.34 656.349 1976.98 657.192C1974.62 653.584 1972.13 649.901 1969.64 646.287C1952.22 620.261 1949.24 616.934 1938.92 603.264C1939.33 603.947 1948.91 616.515 1934.02 597.7C1933.24 596.773 1932.71 595.76 1924.88 586.441C1908.78 567.736 1905.13 564.104 1918.13 577.871C1883.4 540.384 1875.59 532.478 1835.11 499.131C1842.75 506.178 1857.95 516.91 1892.18 550.561C1893.56 552.109 1894.17 552.88 1895.59 554.489C1849.97 509.841 1872.62 531.777 1845.22 508.161C1838.66 502.222 1800.91 473.81 1813.34 483.542C1816.37 485.678 1839.43 503.747 1836.7 501.837C1836.27 501.25 1807.96 479.64 1805.33 477.988C1772.81 455.779 1832.89 492.557 1740.3 435.763C1737.66 434.283 1736.76 433.925 1731.58 431.12C1721.9 425.958 1721.8 425.737 1713.03 421.356C1704.28 417.04 1691.77 411.321 1678.17 405.732C1653.04 395.449 1712.81 418.473 1736.95 433.596C1741.4 436.173 1711 417.222 1670.84 402.123L1671.57 403.039C1665.82 346.67 1629.25 287.114 1625.24 281.7C1594.67 236.02 1645.4 312.198 1645.21 317.743C1645.88 319.605 1645.42 318.703 1654.6 339.956C1657.36 346.24 1646.55 319.694 1653.21 335.452C1659.56 351.324 1656.78 345.127 1657.25 346.276C1658.82 350.244 1664.29 367.573 1664.72 369.907C1671.9 405.449 1672.45 401.888 1660.29 355.445C1653.58 335.64 1667.82 381.444 1659.92 356.715C1649.97 326.752 1638.5 306.55 1636.75 303.053C1612.46 262.203 1641.69 308.518 1609.25 260.37C1589.92 234.509 1638.75 298.741 1593.85 240.127C1553.17 193.585 1574.76 219.033 1571.68 215.791C1570.88 215.091 1547.62 190.548 1579.14 224.14C1580.08 225.04 1581.81 226.783 1583.8 228.916C1591.3 237.438 1602.63 252.482 1606.13 257.331C1623.27 281.066 1622.32 280.08 1631.02 294.919C1625.02 284.173 1635.18 301.487 1638.62 308.176C1650.69 333.362 1637.77 299.075 1659.67 357.888C1657.32 350.047 1654.91 343.051 1652.04 335.652C1654.91 342.627 1657.52 349.698 1659.84 356.879C1663.52 367.544 1671.84 406.671 1663.45 371.457C1666.72 384.014 1668.53 394.507 1669.7 403.287L1669.76 403.742L1670.19 403.897C1689.7 411.161 1699.23 415.955 1705.41 418.62C1707.07 419.357 1713.06 422.223 1719.8 425.701C1718.54 424.966 1717 423.928 1718.08 424.45C1727.93 429.142 1742.34 437.746 1737.27 435.094C1742 437.739 1745.66 439.871 1746.96 440.625C1755.19 445.439 1738.98 436.213 1745.61 440.105C1747.92 441.296 1770.8 455.214 1771.2 455.682C1773.36 458.162 1737.6 432.328 1810.44 482.946C1812.54 483.743 1778.59 460.247 1787.5 466.001C1797.22 471.959 1815.71 486.1 1819.94 488.808C1821.39 490.011 1822.02 490.572 1823.26 491.637C1851.7 513.645 1851.35 514.767 1859.67 521.974C1876.49 535.243 1943.86 606.412 1882.82 543.064C1892.1 551.99 1901.29 561.391 1909.96 570.803C1911 573.791 1907.77 566.32 1945.93 614.711C1954.07 625.605 1956.36 629.359 1964.17 640.142C1963.33 639.307 1972.34 652.652 1978.88 663.565C1982.59 669.703 1985.68 674.833 1986.35 675.989C1991.23 684.439 1986.54 676.764 1978.6 663.731C1967.56 645.085 1947.74 617.729 1943.8 612.257C1934.35 600.52 1934.69 600.343 1923.81 587.519C1907.8 569.271 1905.54 566.738 1885.3 546.197C1866.09 525.359 1960.67 627.782 1903.45 565.578C1878.21 538.714 1791.31 452.71 1669.77 405.056L1668.64 404.646L1668.48 403.449C1643.55 236.124 1471.38 130.813 1422.22 98.135C1352.69 54.7583 1291.7 26.1895 1233.63 4.86218L1234.31 0.193257C1331.31 0.144807 1412.46 34.4374 1516.58 78.1639C1533.99 84.6033 1659.43 145.878 1633.12 133.629C1629.42 131.72 1575.46 105.398 1621.52 128.426C1612.24 123.588 1639.37 136.983 1641.64 138.151C1693.6 164.429 1664.03 148.317 1744.67 191.934ZM1976.47 333.518C1875.58 269.918 1949.6 316.769 1928.3 304.141C1941.17 312.107 1954.05 320.178 1967.25 328.579C1963.89 326.39 1960.46 324.17 1957.02 321.959C1957.01 321.95 1957 321.941 1956.98 321.932C1963.61 325.846 1970.19 329.766 1976.47 333.518ZM2677.58 999.803C2673.16 998.175 2668.87 996.549 2664.15 994.681C2649.5 988.579 2635.17 981.951 2621.08 974.719C2622.79 975.53 2624.44 976.303 2626.15 977.096C2642.94 985.483 2660.05 993.015 2677.58 999.803ZM1751.54 441.845C1770.66 453.647 1769.15 451.979 1793.8 468.833C1790.93 466.496 1787.73 463.981 1784.73 461.632C1765.71 449.226 1761.39 446.606 1739.94 434.265C1742.43 435.766 1744.93 437.303 1747.28 438.775C1750.83 440.806 1754.64 443.032 1758.01 445.046C1763.35 448.406 1729.41 428.688 1751.48 441.806C1751.5 441.819 1751.52 441.832 1751.54 441.845ZM1926.97 588.243C1935.16 597.127 1963.56 635.524 1966.86 641.153C1980.96 658.28 1899.77 550.671 1959.74 629.853C1959.53 629.447 1959.84 629.787 1959.89 629.754C1949.48 614.919 1938.4 600.632 1926.56 586.708C1927.02 587.599 1926.43 587.251 1926.97 588.243ZM1600.15 120.978C1583.75 112.443 1503.41 76.2411 1529.49 88.3571C1537.12 91.7637 1573.02 107.935 1586.49 114.526C1595.18 118.733 1585.33 114.175 1602.55 122.466C1601.83 122.014 1601.41 121.693 1600.11 120.956C1600.12 120.963 1600.14 120.971 1600.15 120.978ZM1631.77 135.283C1614.67 126.738 1597.23 118.235 1579.85 109.995C1592.44 116.208 1617.34 128.288 1618.61 129.317C1613.9 127.005 1609.21 124.723 1604.46 122.426C1600.86 120.587 1597.33 118.785 1593.79 116.995C1578.89 110.04 1587.8 114.293 1560.05 101.208C1576.59 109.583 1579.79 111.002 1627.19 133.966C1618.15 129.787 1626.21 134.652 1652.48 147.354C1657.39 149.727 1637.13 139.306 1636.89 139.186C1633.86 137.395 1645.22 142.978 1641.96 141.083C1640.51 140.227 1628.06 133.957 1626.26 132.914C1625.43 132.418 1637.35 138.19 1631.77 135.283ZM1665.18 153.644C1659.86 151.051 1677.7 160.622 1693.21 168.774C1717.46 181.54 1679.49 160.952 1665.18 153.644ZM2677.67 999.84C2677.64 999.828 2677.61 999.815 2677.58 999.803C2677.59 999.809 2677.61 999.815 2677.62 999.821C2677.64 999.827 2677.66 999.834 2677.67 999.84ZM1884.64 542.788C1895.01 552.548 1909.33 567.879 1908.39 566.64C1913.09 571.748 1917.7 576.932 1922.22 582.191C1922.22 582.104 1922.18 581.968 1922.18 581.882C1908.56 566.172 1894.19 551.193 1879.12 536.866C1880.92 538.782 1882.55 540.556 1884.64 542.788ZM2017.16 725.128C2029.87 747.938 2019.42 728.661 2022.33 733.62C2025.28 738.575 2036.22 759.1 2035.05 756.595C2027.76 742.866 2020.11 729.07 2012.35 715.452C2014.24 719.157 2015.48 721.753 2017.19 725.173C2017.18 725.158 2017.17 725.143 2017.16 725.128ZM2005.78 580.711C1992.97 568.432 1998.21 573.524 1973.17 549.032C1973.19 549.05 1973.21 549.068 1973.23 549.087C1996.57 572.811 2027.86 602.154 2055.9 625.899C2038.94 611.025 2026.07 599.845 2005.78 580.711ZM1696.92 412.57C1690.16 409.495 1721.55 424.476 1728.28 428.267C1739.35 433.875 1707.67 416.826 1696.92 412.57ZM2232.04 420.672C2241.85 443.81 2223.37 404.511 2216.13 356.32L2214.48 356.6C2215.43 359.976 2216.39 363.445 2217.37 366.983C2217.95 369.121 2216.25 362.635 2214.61 356.564L2216 356.329C2216.44 363.277 2217.91 370.155 2216.89 364.96C2216.84 364.604 2216.12 360.739 2215.82 356.341L2214.79 356.517C2216.35 362.096 2218.27 369.184 2219 371.785C2220.24 376.23 2219.15 371.47 2221.15 378.836C2224.74 391.841 2231.64 421.57 2233.89 431.314C2234.22 432.585 2230.23 414.181 2229.93 412.995C2225.62 394.133 2220.57 376.022 2219.82 373.233C2215.81 358.23 2216.6 360.528 2215.63 356.793C2215.59 356.637 2215.55 356.478 2215.5 356.317L2215.08 356.389C2215.37 363.661 2218.35 376.03 2218.52 376.736C2222.54 392.347 2216.37 372.977 2214.91 356.4L2215.66 356.272C2217.64 363.346 2219.46 370.099 2220.05 372.246C2225.05 390.936 2221.15 373.366 2232.15 418.793C2233.17 423.016 2244.83 474.91 2230.23 409.582C2252.77 510.908 2232.67 411.406 2216.67 355.991L2213.86 356.469C2215.3 371.874 2219.13 383.589 2220.25 388.069C2222.92 397.375 2219.16 383.202 2220.82 388.825C2224.54 401.899 2232.36 424.009 2231.96 421.905C2231.02 417.41 2220.4 388.664 2216.7 367.871C2217.29 370.201 2217.5 370.675 2218.56 374.845C2216.18 368.807 2230.73 419.042 2232.04 420.673C2232.04 420.673 2232.04 420.672 2232.04 420.672ZM2260.45 617.45C2259.95 646.951 2260.82 644.915 2256.45 671.744C2252.11 695.083 2261.14 648.759 2260.21 643.249C2261.33 618.225 2261.54 618.722 2260.25 593.131C2260.54 602.089 2260.57 609.012 2260.45 617.45ZM2218.52 364.908C2222.31 378.511 2218.81 365.14 2216.31 356.092L2214.24 356.444C2214.5 360.442 2215.08 363.796 2215.13 364.294C2215.77 368.367 2214.63 363.93 2213.99 356.46L2216.55 356.025C2222.13 375.545 2232.45 416.706 2218.52 364.908ZM1496.17 72.4704C1486.94 68.5435 1492.72 71.1877 1484.58 67.8372C1476.51 64.4399 1448.45 53.0886 1449.09 53.5303C1449.77 53.806 1501.01 74.7136 1449.45 54.1987C1451.2 54.9521 1450.59 54.7701 1451.41 55.1546C1465.45 60.6453 1479.9 66.5619 1493.89 72.4998C1486.18 69.0238 1478.55 65.6301 1471 62.3596C1479.13 65.5059 1483.36 67.4969 1483.8 67.6791C1483.8 67.679 1483.8 67.6787 1483.8 67.6786C1498.5 73.782 1516.93 81.4301 1496.17 72.4704ZM1848.18 390.807C1849.84 393.432 1839.29 372.267 1837.84 362.169C1835.15 352.321 1838.33 338.758 1837.16 343.82C1832.83 360.673 1848.24 391.24 1848.18 390.807C1848.18 390.807 1848.18 390.807 1848.18 390.807ZM2181.61 716.708C2169.38 710.924 2166.03 708.481 2160.21 704.845C2155.64 701.866 2149.9 698.115 2138.15 689.726C2139.03 690.488 2139.9 691.247 2140.77 691.997C2150.58 698.872 2155.3 701.876 2160.12 704.97C2165.83 708.48 2170.73 711.978 2183.83 717.963C2187.94 719.399 2178.65 717.223 2198.42 723.128C2192.81 721.683 2186.49 719.127 2181.61 716.708ZM2081.16 646.541C2103.37 664.42 2121.49 677.534 2080.43 645.265C2074.43 640.427 2064.71 633.017 2081.16 646.541ZM1730.92 187.658C1688.46 164.688 1736.71 190.848 1747.53 197.054C1648.84 143.693 1758.77 202.83 1768.22 209.023C1780.27 215.582 1802.82 227.993 1777.97 213.877C1767.55 207.991 1771.33 210.278 1770.69 209.917C1751.64 199.269 1753.97 200.263 1730.92 187.658ZM2257.38 566.272C2257.57 568.089 2257.46 565.238 2258.04 570.999C2258.64 576.654 2259.5 589.949 2259.64 591.157C2259.93 592.488 2257.96 566.19 2256.85 558.132C2255.86 550.177 2255.61 549.849 2257.38 566.272ZM2206.69 723.647C2200.95 723.054 2198.68 722.339 2199.09 722.557C2199.47 722.711 2202.37 723.498 2205.96 723.97C2213.68 725.431 2224.86 722.814 2227.23 721.317C2237.85 715.981 2239.92 711.225 2240.11 711.395C2240.14 711.207 2237.46 714.587 2232.82 717.774C2223.49 725.331 2205.88 723.917 2206.69 723.647ZM1829.05 241.687C1778.53 212.991 1815.12 234.421 1846.43 253.143C1850.56 255.492 1854.96 258.012 1859.07 260.367C1839.95 249.61 1806.86 230.374 1880.37 273.551C1840.38 249.618 1873.9 269.446 1874.17 269.592C1879.05 271.539 1819.35 236.846 1829.09 241.713C1829.08 241.705 1829.06 241.696 1829.05 241.687ZM2246.45 488.58C2242.37 463.538 2227.53 399.444 2234.02 429.417C2238.57 449.069 2242.74 468.763 2246.45 488.58ZM1499.9 150.808C1515.96 163.811 1530.55 176.078 1549.01 193.637C1532.45 177.737 1543.52 187.999 1549.16 193.294C1557.72 201.321 1537.09 181.736 1536.95 181.785C1537.4 182.048 1551.24 193.804 1520.13 166.653C1527.96 173.189 1535.57 179.82 1543.1 186.706C1519.88 165.453 1514.02 160.862 1498.55 148.231C1513.4 160.727 1493.83 144.277 1474.94 130.878C1465.54 124.141 1491.84 144.063 1499.96 150.857C1499.94 150.84 1499.92 150.824 1499.9 150.808ZM1776.88 211.805C1771.57 208.924 1766.82 206.402 1761.7 203.669C1756.19 200.62 1750.6 197.538 1745.08 194.518C1744.44 194.078 1743.91 193.696 1743.14 193.196C1735.88 189.191 1738.66 190.837 1736.49 189.662C1736.49 189.662 1736.49 189.662 1736.49 189.661C1705.27 172.826 1692.47 166.064 1667.93 153.032C1667.82 153.239 1667.72 153.445 1667.61 153.651C1673.16 156.504 1678.76 159.403 1684.3 162.284C1687.29 163.715 1690.29 165.156 1693.28 166.595C1699.64 170.036 1705.93 173.467 1712.25 176.937C1717.36 179.626 1723.49 182.886 1727.93 185.246C1752.96 199.557 1695.59 167.985 1694.86 168.053C1694.55 167.937 1752.44 199.211 1760.82 203.906C1762.02 204.554 1749.84 197.213 1770.74 209.143C1773.93 210.992 1774.79 212.596 1797.71 224.63C1800.95 226.345 1790.17 219.432 1776.88 211.805ZM1564.39 101.403C1597.9 117.319 1473.4 60.2515 1527.14 84.9395C1511.57 78.3768 1514.42 79.6082 1529.9 86.8019C1531.26 87.4307 1520.46 82.7117 1521.37 83.1352C1535.93 89.7203 1553.19 97.5996 1553.24 97.9312C1557.18 99.7341 1560.81 101.408 1564.69 103.21C1548.67 95.4524 1574.38 107.225 1584.46 111.856C1589.02 113.932 1578.63 108.924 1582.48 110.669C1583.94 111.319 1598.32 118.325 1598.96 118.551C1600.25 118.961 1591.41 114.302 1575.94 106.794C1575.94 106.794 1575.94 106.793 1575.94 106.793C1572.05 104.964 1568.27 103.203 1564.39 101.403ZM1892.05 455.565C1895.72 460.672 1910.93 480.958 1881.27 442.385C1882.64 444.377 1884.08 446.439 1885.51 448.456C1890.44 454.985 1895.22 461.087 1900.63 467.751C1916.92 486.508 1947.01 521.039 1927.88 498.754C1925.76 496.29 1912.99 481.82 1925.75 496.03C1925.74 496.01 1925.72 495.99 1925.7 495.971C1908.09 475.912 1905.93 473.466 1892.05 455.565ZM1879.38 319.245C1895.03 319.008 1897.1 319.768 1892.74 319.196C1887.57 318.836 1875.97 317.8 1863.17 320.674C1849.87 322.884 1838.8 334.545 1838.17 344.179C1836.92 353.707 1838.28 357.997 1837.78 351.973C1837.56 351.986 1837.11 331.618 1852.62 324.741C1866.79 317.725 1882.01 319.351 1879.38 319.245ZM2119.78 674.206C2097.55 657.366 2096.26 656.505 2098.26 658.356C2100.25 660.172 2115.68 671.873 2117.62 673.307C2123.97 678.182 2110.36 668.001 2118.61 674.351C2120.66 676.165 2152.55 699.233 2160.63 704.193C2161.73 704.911 2162.43 705.356 2162.64 705.491C2171.45 710.869 2162.74 705.227 2160.87 703.827C2160.53 703.573 2160.47 703.512 2160.9 703.787C2160.93 703.804 2160.96 703.823 2160.99 703.843C2170.97 710.469 2184.55 717.109 2187.73 717.955C2194.19 720.551 2168.15 709.154 2164.22 705.787C2163.03 705.042 2161.95 704.344 2160.96 703.695C2152.08 697.805 2152.28 697.701 2143.87 691.831C2135.1 685.637 2128.92 681.233 2121.23 675.487C2118.67 673.567 2120.89 675.038 2119.78 674.206ZM2048.11 617.144C2070.16 635.995 2017.32 589.258 2011.47 583.316C1993.31 566.708 2037.37 608.445 2048.11 617.144ZM1647.34 143.118C1671.02 154.926 1616.2 126.752 1600.21 119.265C1603.15 120.73 1639.23 138.989 1647.34 143.118ZM1843 249.817C1822 237.658 1849.53 254.249 1867.01 264.659C1877.28 270.377 1867.84 264.808 1856.36 258.016C1844.89 251.246 1859.31 259.325 1843 249.817ZM2254.64 552.253C2256.41 557.386 2260.99 641.766 2258.73 593.221C2259.14 589.549 2252.7 530.643 2251.51 526.243C2250.08 517.341 2253.13 538.762 2254.64 552.253ZM1943.15 309.733C1932.02 303.135 1921.35 296.565 1931.19 303.054C1931.21 303.063 1931.22 303.072 1931.24 303.081C1903.3 285.965 1902.59 284.83 1896.43 281.088C1875.54 268.55 1895.1 280.922 1881.83 273.14C1912.53 291.456 1903.55 286.433 1926.86 300.777C1931.98 303.919 1953.03 316.819 1955.96 318.543C1959 320.308 1948.83 313.449 1943.15 309.733ZM2234.13 434.606C2240.13 462.531 2245.49 488.091 2237.74 449.254C2233.79 430.406 2230.35 417.54 2234.13 434.606ZM1951.18 621.604C1948.69 618.009 1946.1 614.349 1943.35 610.582C1949.79 618.881 1956.02 627.376 1962.02 636.061C1957.25 629.193 1952.38 622.495 1947.29 615.797C1959.05 631.696 1963.91 639.27 1951.21 621.646C1951.2 621.632 1951.19 621.618 1951.18 621.604ZM2113.57 996.011C2120.5 1001.62 2134.5 1011.9 2132.78 1010.53C2119.79 1000.33 2104 988.267 2113.57 996.011ZM1612.9 124.582C1583.31 110.059 1603.47 120.501 1621.48 129.498C1610.5 123.92 1629.59 132.874 1612.9 124.582ZM1938.86 838.451C1941.33 840.184 1943.78 841.894 1946.46 843.74C1937.93 837.961 1936.29 836.744 1938.86 838.451ZM2255.57 565.666C2256.28 570.591 2258.74 607.698 2258.57 612.633C2258.92 623.056 2258.74 594.103 2256.96 577.108C2256.83 575.296 2255.12 560.68 2255.57 565.744C2255.57 565.718 2255.57 565.692 2255.57 565.666ZM1975.82 658.519C1975.8 658.467 1975.82 658.491 1975.88 658.577C1975.85 658.548 1975.85 658.56 1975.82 658.519ZM2479.62 1167.09C2479.77 1167.22 2479.85 1167.29 2479.83 1167.29C2479.77 1167.23 2479.65 1167.13 2479.62 1167.09ZM2140.47 688.443C2130.73 680.964 2107.91 664.131 2125.56 677.68C2126.62 678.513 2138.11 686.812 2140.47 688.443ZM1071.09 449.669C1094.91 471.393 1120.42 491.744 1147.12 510.668C1189.25 540.941 1244.54 563.335 1295.08 543.156C1344.85 523.294 1377.14 473.467 1393.09 422.8L1393.93 420.021L1396.55 421.282C1585.61 515.855 1741.03 673.259 1860.7 846.678L1856.76 849.724C1756.96 746.763 1644.54 645.178 1508.23 608.31C1481.18 602.562 1453.86 598.851 1426.84 600.659C1396.04 603.071 1383.28 610.845 1375.86 615.044C1368.55 619.711 1366.01 621.745 1360.24 627.92C1331.56 665.618 1340.85 699.736 1346.48 732.405C1354.98 770.043 1369.63 805.186 1386.06 839.431C1401.19 869.581 1415.58 900.38 1439.22 923.027C1445.02 928.089 1453.06 932.317 1458.99 928.233C1464.95 924.227 1468.01 916.037 1470.19 908.363C1474.37 892.657 1475.37 875.973 1475.37 859.541L1479.84 859.027C1493.05 917.111 1511.86 973.781 1539.03 1027.67C1578.88 1103.32 1597.25 1118.45 1601.52 1125.62C1607.01 1132.34 1602.9 1128.65 1622.84 1150.74C1706.54 1230.85 1634.77 1163.18 1669.08 1193.24C1730.25 1242.72 1807.11 1278.23 1886.76 1278.88L1888.13 1278.86L1888.63 1280.13C1912.32 1327.96 1958.51 1361.14 2003.48 1389.29C1975.73 1372.49 1949.11 1353.33 1925.67 1330.36C1967.06 1371.22 2039.41 1413.61 1958.61 1359.31C1975.66 1372.45 1992.32 1383.52 2011.47 1394.78C2015.79 1399.34 2109.15 1443.1 2118.64 1444.66C2127.46 1448.2 2073.62 1426.52 2074.23 1426.23C2075.51 1426.69 2106.59 1440.99 2147.47 1454.81C2164.76 1460.4 2183.47 1466.66 2202.54 1464.6C2211.86 1463.66 2219.37 1456.97 2219.56 1447.87C2220.18 1439.09 2217.25 1429.85 2214.36 1422.18C2201.21 1390.23 2184.66 1368.81 2181.89 1364.07C2155.96 1327.16 2179.32 1359.08 2156.35 1328.17C2115.14 1276.25 2143.14 1310.42 2084.96 1242.02C2062.79 1217.72 2059.26 1213.68 2034.52 1187.72L2036.34 1185.83C2038.66 1187.92 2041.15 1190.15 2043.84 1192.54C2048.35 1196.55 2044.95 1193.32 2046.94 1195.08C2098.79 1239.95 2058.81 1205.71 2059.07 1205.97C2063.23 1210.44 2120.14 1257.42 2132.34 1266.29C2286.8 1382.55 2415.24 1454.93 2615.25 1500C2658.22 1511.61 2793.07 1522.73 2836.06 1518.12C2878.29 1515.83 2855.46 1517.32 2877.72 1515.64C2912.73 1511.35 2946.71 1508.98 3023.99 1488.67C3052.05 1479.92 3049.05 1482.45 3102.14 1462.26C3146.61 1445.51 3219.47 1406.48 3259.65 1373.32C3212.19 1408.64 3217.17 1405.84 3157.95 1437.5C3148.29 1442.69 3090.06 1470.12 3033.32 1486.07C2976.95 1502.85 2922.95 1510.11 2931.77 1509.06C2941.05 1508.75 3016.21 1492.1 3019.13 1490.44C3035.97 1485.9 2994.5 1498.34 2956.86 1505.11C2966.21 1503.31 2977.35 1500.96 2987.44 1498.61C2903.08 1515.19 2961.47 1505.62 2896.61 1514C2888.63 1514.79 2891.75 1514.4 2878.48 1515.58C2875.76 1515.89 2892 1514.43 2878.02 1515.79C2863.47 1517.28 2836.82 1518.5 2832.58 1518.76C2826.64 1519.64 2885.73 1515.73 2890.12 1514.74C2890.17 1514.73 2890.22 1514.73 2890.26 1514.72C2929.3 1510.64 2847.55 1519.28 2843.6 1518.6C2817.97 1519.78 2835.54 1519.67 2797.27 1520.16C2775.4 1520.67 2720.06 1517.38 2699.53 1514.65C2679.47 1512.36 2710.65 1516.07 2697.17 1514.56C2683.78 1513.07 2666.38 1510.59 2650.78 1508.01C2644.03 1506.9 2644.35 1507.07 2641.07 1506.5C2605.8 1499.92 2628.77 1504.21 2597.27 1497.47C2576.31 1493.38 2508.83 1474.15 2555.54 1487.45C2532.88 1481.3 2511.33 1474.65 2489.17 1467C2503.2 1471.91 2517.34 1476.49 2531.08 1480.65C2489.49 1467.91 2470.77 1460.92 2445.19 1450.99C2419.63 1440.85 2397.04 1430.7 2370.03 1417.86C2311.83 1390.48 2455.96 1458.55 2475.64 1462.61C2482.81 1465.27 2455.19 1455.36 2450.88 1453.57C2431.57 1446.12 2410.18 1436.79 2395.7 1430.21C2345.04 1406.97 2314.45 1390.79 2268.73 1363.66C2190.85 1317.09 2108.83 1255.84 2034 1188.45L2037.05 1185.28C2105.73 1258.13 2173.22 1332.41 2213.32 1409.43C2219.57 1423.01 2224.88 1436.48 2223.47 1449.73C2222.73 1456.48 2218.68 1462.69 2212.96 1465.55C2207.6 1468.36 2201.91 1469.01 2196.44 1469.13C2175.68 1468.76 2160.06 1463 2146.2 1458.56C2144.21 1457.88 2142.28 1457.22 2140.41 1456.57C2077.3 1433.44 2069.46 1430.05 2017.64 1402.44C1971.81 1375.9 1912.66 1337.87 1884.72 1281.67L1886.82 1283.08C1848.23 1283.32 1812.88 1273.89 1786.21 1264.5C1738.28 1247.76 1699.76 1221.55 1689.2 1214.01C1576.22 1137.08 1502.74 989.638 1475.32 860.055L1480.01 859.517C1479.43 883.49 1479.73 908.22 1465.86 928.314C1462.1 933.231 1454.52 935.909 1448.65 933.861C1442.76 932.126 1438.14 928.416 1434.14 924.754C1426.12 917.189 1419.92 908.56 1414.34 900.28C1399.19 877.167 1389.57 857.164 1381.89 841.447C1369.99 816.629 1364.06 801.403 1360.78 793.107C1339.99 733.532 1343.59 749.632 1336.68 698.597C1335.43 670.824 1338.74 665.297 1339.07 661.792C1347.94 629.96 1354.83 623.597 1376.14 609.427C1418.3 587.614 1466.01 595.044 1509.24 603.612C1607 627.715 1687.51 689.723 1763.51 753.543C1771.44 760.399 1770.71 759.919 1775.77 764.373C1797.52 783.837 1787.64 774.542 1809.95 795.437C1827.07 811.714 1844.03 828.662 1860.32 846.47L1856.65 849.304C1834.7 815.637 1809.59 782.553 1782.98 750.052C1778.72 744.879 1777.01 742.539 1767.14 730.871C1757.32 719.35 1749.65 710.604 1733.65 692.892C1691.64 646.654 1647.78 603.161 1597.34 560.413C1588.98 553.348 1578.45 544.824 1565.57 534.644C1525.51 502.265 1461.92 459.945 1422.69 439.721C1413.38 434.741 1403.96 429.944 1394.55 425.409L1397.48 424.121C1380.73 477.084 1347.38 527.699 1295.69 547.852C1243.04 568.133 1187.01 544.949 1144.43 514.451C1127.25 502.276 1110.54 489.493 1094.36 476.058C1069.38 455.38 1048.9 435.203 1037.28 423.067C1011.46 395.155 1030.36 416.821 1005.54 387.348C981.891 357.067 958.168 323.738 952.942 284.018C950.051 264.533 960.017 241.789 979.228 234.087C997.462 225.801 1018.11 225.621 1037.47 227.052C1130.66 235.163 1221.85 271.344 1293.52 332.386L1290.15 334.876C1198.62 224.289 1041.87 196.978 905.138 161.458C783.978 133.89 633.507 112.778 514.188 100.651C463.604 95.5096 456.05 94.7344 419.849 91.5878C357.851 86.494 345.714 85.8464 279.399 81.674C226.504 78.449 165.773 75.2624 110.415 73.2518C55.3303 71.3045 29.1091 70.7661 -33.621 69.5045C-80.2511 68.5968 -141.629 67.8187 -196.005 67.7213L-195.951 63.1614C-189.236 63.305 -182.555 63.4846 -175.985 63.6929C322.68 98.3738 936.888 205.481 1156.32 715.287C1165.12 740.45 1172.22 765.896 1177.84 792.865L1176.31 791.132C1240.23 813.565 1304.37 846.231 1354.48 896.515C1407.92 944.004 1420.87 1032.97 1374.04 1088.79C1357.53 1112.43 1333.81 1131.35 1305.95 1137.95C1297.03 1139.97 1299.36 1139.25 1296.77 1139.68C1294.21 1139.55 1286.43 1143.07 1257.43 1139.62C1226.51 1135.2 1183.86 1120.43 1125.7 1078.08C1064.03 1032.57 1009.38 976.666 961.041 915.633L964.485 913.206C1105.27 1119.76 1300.58 1331.91 1559.9 1376.42L1558.78 1379.88C1509.13 1350.18 1454.83 1310.83 1445.79 1249.51C1444.48 1228.99 1445.37 1202.13 1466.98 1191.06C1488.34 1181.98 1510.73 1191.23 1529.66 1199.35C1589.71 1228.37 1640.7 1272.43 1690.81 1316.06C2145.77 1680.92 2857.82 1730.01 3247.29 1382.76C3269 1365.1 3257.66 1375.28 3244.77 1385.9C3232.62 1395.5 3221.33 1404.05 3208.52 1413.4C3192.62 1425.46 3195.89 1425.18 3132.96 1465.34C3093.3 1489.36 3125.14 1470.55 3104.01 1483.12C3077.82 1501.96 2940.55 1562.4 2966.69 1549.85C2958 1553.4 2949.98 1556.56 2941.5 1559.78C2839.71 1597.39 2735.07 1618.04 2629.09 1624.16C2610.81 1625.14 2610.02 1625.33 2591 1625.88C2540.2 1626.98 2499.69 1625.46 2447.43 1620.78C2419.22 1617.99 2414.95 1617.84 2378.22 1612.67C2341.11 1606.9 2342.32 1607.21 2292.14 1597.32C2324.38 1605.21 2180.08 1572.41 2130.72 1553.81C2123.61 1551.73 2064.27 1531.28 2033.5 1518.41C2002.5 1505.91 1956.17 1485.58 1910.02 1462.13C1888.98 1451.42 1875.13 1444.29 1852.74 1431.69C1836.42 1422.46 1817.79 1411.27 1798.07 1398.8C1778.22 1386.65 1736.81 1357.75 1729.85 1352.12C1703.13 1331.62 1732.36 1354.05 1714.53 1340.14C1706.3 1333.63 1696.54 1325.52 1688.65 1318.49C1650.45 1284.75 1609.35 1250.24 1564.82 1222.14C1542.11 1208.24 1518.97 1195.22 1493.54 1191.12C1481.35 1189.24 1467.44 1191.24 1459.45 1200.58C1451.38 1209.73 1449.13 1222.59 1448.62 1234.38C1448.39 1247.53 1448.87 1229.33 1448.97 1231.13C1448.51 1237.93 1448.74 1243.89 1449.14 1249.26C1453.86 1280.85 1461.69 1285.15 1461.15 1286.36C1461.69 1287.29 1459.34 1283.82 1465.11 1293.36C1470.68 1305.82 1514.52 1353.33 1560.3 1377.08L1559.49 1379.57C1522.13 1374.81 1492.3 1365.48 1491.73 1365.55C1486.58 1364.09 1450.06 1352 1440.87 1347.92C1405.01 1332.85 1412.05 1335.69 1378.45 1318.62C1366.23 1312.13 1389.92 1324.96 1376.79 1317.98C1344.46 1300.49 1316.32 1282.9 1276.82 1254.08C1267.34 1247.04 1264.12 1244.94 1247.61 1231.96C1230.53 1219.61 1165.1 1160.57 1195.2 1187.95C1155.9 1151.75 1147.93 1144.42 1105.36 1099.24C1094.66 1087.61 1081.16 1072.59 1059.51 1047C1052.37 1038.48 1052.14 1038.62 1041.53 1025.55C1017.06 995.061 994.895 965.763 967.727 924.361C965.651 921.169 963.642 918.036 961.701 914.966L963.634 913.604C1018.88 982.941 1085.97 1051.57 1164.64 1099.96C1187.36 1112.75 1181.08 1111.03 1216.11 1125.64C1220.92 1128.18 1265.51 1142 1291.72 1137.19C1297.93 1136.51 1314.98 1133.85 1331.5 1124.27C1348.2 1115.02 1362.8 1099.28 1371.4 1086.92C1375.77 1080.76 1378.7 1075.97 1380.31 1073.27C1393.67 1049.49 1394.11 1044.16 1398 1029.96C1402.27 1008.91 1400.89 1006.6 1401.27 1003.41C1400.84 1000.29 1402.98 995.566 1396.4 970.531C1392.69 953.763 1376.79 927.518 1370.73 919.925C1359.79 906.082 1344.53 888.621 1317.12 867.848C1289.62 847.141 1264.32 834.476 1257.33 829.914C1245.18 822.715 1195.05 800.241 1175.21 794.376L1174.62 794.176L1174.49 793.563C1173.91 790.78 1173.44 788.625 1173.14 787.268C1165.3 754.019 1169.82 771.663 1163.02 747.062C1161.64 742.805 1163.36 747.208 1154.17 719.616C1151.99 700.042 1087.13 576.231 1079.27 571.287C1023.91 494.096 1110.34 612.865 1116.88 632.985C1118.55 636.21 1120.17 639.417 1121.89 642.893C1140.08 680.622 1130.18 658.944 1121.72 641.914C1113.34 624.734 1095.19 594.19 1086.36 581.025C1081.98 574.468 1085.28 578.146 1097.82 598.45C1084.42 576.714 1102.93 606.27 1097.69 597.639C1094.09 586.636 1023.89 495.68 1021.75 496.723C1036.14 512.581 1053.12 533.239 1065.93 550.699C1082.19 574.012 1032.51 503.175 974.138 449.716C931.336 411.828 1004.61 471.265 898.972 386.484C915.674 399.053 929.261 409.983 943.773 422.316C945.199 423.745 921.797 403.815 909.151 394.361C903.184 389.688 939.866 418.687 907.858 393.699C880.057 372.24 858.212 356.487 808.186 325.931C822.241 334.342 835.953 342.933 849.626 351.928C766.509 297.898 960.197 422.712 797.558 318.833C817.711 330.698 837.044 342.842 856.533 355.951C847.188 349.524 862.463 359.335 854.078 353.609C832.173 338.574 798.55 318.028 770.252 302.411C757.824 295.542 765.58 299.712 764.538 299.133C747.429 289.819 751.148 291.994 736.078 284.127C717.201 273.928 661.193 247.559 651.812 243.776C628.019 233.412 667.513 251.029 665.191 250.122C650.009 243.305 618.988 230.117 620.513 231.003C697.491 258.601 901.164 375.436 714.776 274.201C766.504 301.378 752.112 292.512 676.15 256.529C612.629 228.119 653.747 246.225 620.53 231.831C616.418 229.427 529.424 196.195 524.677 195.287C528.31 196.21 499.729 186.098 519.064 192.431C521.926 193.271 557.895 206.231 545.426 201.482C539.209 199.067 521.231 192.471 524.192 193.353C516.732 190.864 508.911 188.317 501.309 185.889C446.838 167.98 438.953 165.99 408.897 157.038C410.249 157.527 437.99 165.738 395.747 153.689C393.564 153.097 391.793 152.38 370.157 146.549C326.485 135.04 317.406 133.018 351.009 141.013C260.166 118.874 240.4 114.321 145.907 97.8261C164.641 101.672 198.205 106.266 283.935 125.106C287.612 126.051 289.324 126.554 293.119 127.54C179.041 102.564 235.203 114.701 170.327 102.65C154.22 99.4515 68.9199 86.4681 97.3511 91.1035C104.186 92.0418 157.066 100.617 150.986 99.8098C149.905 99.4549 85.2554 89.3903 79.715 88.7898C7.93667 79.5305 136.482 92.7629 -61.3576 72.294C-66.7786 71.8443 -68.4949 71.8266 -79.4283 70.994C-99.7362 69.5065 -99.7283 69.3602 -117.598 68.2791C-135.988 67.205 -160.59 66.1762 -187.618 65.2795C-191.366 65.1546 -194.109 65.0669 -195.99 65.0005L-196.001 65.8819C-191.169 65.9565 -191.691 66.013 -196.001 66.0534L-195.987 64.829C-180.131 64.6576 -106.702 67.8206 -68.4884 71.4463C-59.4771 72.1391 -121.168 65.9808 -195.976 64.3145L-196.002 66.568C-92.4246 66.6262 35.994 69.8559 49.6723 70.3638C149.52 73.2695 -17.6803 68.229 -25.66 68.293C-29.2654 68.1816 -27.1683 67.4333 -69.7033 67.2032C-82.2663 67.1308 -29.7534 68.1802 -61.0686 67.7314C-92.5545 67.3181 -80.1243 67.3138 -82.3928 67.2604C-90.6631 67.0789 -123.06 66.7949 -127.438 66.7391C-193.826 65.8522 -186.986 65.0366 -100.185 66.9018C-62.1144 67.1324 -149.064 65.7581 -102.139 66.1359C-43.4371 66.644 -2.52759 68.0061 5.02411 68.1896C92.7335 70.7317 -7.63299 67.274 98.0108 70.7855C157.908 73.0591 8.6787 67.7902 144.882 72.8683C257.675 77.931 196.944 75.1035 205.058 75.0484C206.997 75.0629 269.373 78.0861 184.31 73.8886C181.871 73.8716 177.268 73.7857 172.073 73.6409C151.873 72.6349 117.286 70.7843 106.074 70.3767C52.2684 68.4187 55.4348 68.8622 23.4207 67.6763C46.2859 68.6108 8.94145 67.4079 -4.88797 67.1846C-55.7147 66.4457 11.8649 67.5414 -104.003 65.5131C-89.3432 65.8364 -75.0692 66.1859 -60.5705 66.5751C-74.3693 66.3542 -88.7923 66.1576 -102.371 66.0032C-122.373 65.3769 -196.004 64.9475 -129.552 65.0897C-156.377 64.8198 -178.234 64.7191 -195.998 64.6878L-196.016 66.1943C-162.625 66.936 -144.008 67.9111 -132.597 68.3153C-129.388 68.4346 -116.748 69.1034 -103.136 70.0142C-105.765 69.7642 -109.098 69.3215 -106.914 69.4351C-87.3566 70.4043 -56.1803 73.461 -66.7646 72.7445C-57.1034 73.549 -49.3181 74.2636 -46.5703 74.5172C-29.1254 76.1371 -63.3013 73.1794 -49.1996 74.502C-44.4475 74.8178 4.44402 79.7814 5.42434 80.0634C11.145 81.6025 -68.9229 70.1964 92.3215 91.6188C96.4206 91.6276 21.2844 81.731 40.6231 83.9373C61.4657 86.0622 103.297 92.643 112.685 93.6777C116.114 94.2881 117.628 94.5922 120.587 95.1493C185.424 105.446 186.258 106.633 205.989 110.339C244.557 116.683 419.433 158.371 262.299 121.599C285.589 126.584 308.708 131.902 331.688 137.537C336.622 139.99 323.263 134.18 431.975 165.272C455.833 172.429 463.429 175.128 486.785 182.3C483.629 181.351 553.254 205.096 559.572 207.9C601.023 222.784 446.701 168.6 426.199 163.78C399.557 156.334 399.895 156.045 370.002 148.067C326.93 136.962 320.817 135.415 269.338 123.649C218.909 111.322 467.144 172.071 316.63 135.124C250.342 119.215 40.095 72.6415 -196.042 67.4243L-195.996 63.4574C104.055 62.1081 436.835 85.5073 553.679 100.369C873.982 148.365 1093.89 151.956 1294.29 332.867L1290.38 335.758C1258.54 307.329 1219.06 284.469 1175.35 265.911C1160.72 259.255 1096.82 235.46 1037.1 231.63C1005.29 228.36 974.316 235.797 964.629 251.323C959.534 258.42 958.484 264.673 957.969 266.726C957.618 268.917 957.429 267.251 959.379 260.965C950.067 239.501 1059.47 215.499 971.712 242.959C979.729 237.936 971.122 241.723 964.227 250.96C956.932 260.25 956.469 275.424 956.661 277.614C963.867 329.339 978.012 337.073 986.277 353.233C997.101 368.295 1009.9 392.508 1071.09 449.669ZM1462.19 461.163C1433.16 443.592 1411.01 432.31 1394.97 424.549L1396.57 423.846C1359.77 514.45 1402.5 413.694 1387.96 449.524C1391.58 441.211 1394.73 432.735 1397.34 424.08L1394.62 425.28C1411.74 433.543 1428.59 442.496 1445.12 452.007C1438.75 448.3 1432.42 444.722 1425.95 441.183C1425.93 441.167 1425.9 441.152 1425.87 441.137C1438.12 447.498 1450.27 454.211 1462.19 461.163ZM2592.04 1497.04C2583.72 1495.2 2575.15 1493.18 2566.35 1490.98C2538.44 1483.7 2510.91 1475.23 2483.32 1465.47C2486.64 1466.59 2489.85 1467.64 2493.16 1468.72C2525.59 1479.8 2558.3 1489.23 2592.04 1497.04ZM-38.1101 74.0336C2.62298 78.323 -0.554176 77.383 53.0607 84.3138C46.4591 83.1519 39.1616 81.9349 32.2862 80.7982C-9.05516 75.9377 -18.3182 75.0229 -63.1372 71.0106C-57.9948 71.5377 -52.6929 72.0964 -47.5982 72.6535C-40.1279 73.308 -32.0987 74.0493 -24.726 74.7677C-13.306 76.0366 -85.1859 69.4729 -38.2537 74.0206C-38.2056 74.025 -38.158 74.0292 -38.1101 74.0336ZM375.111 147.428C396.553 152.68 480.141 177.988 491.385 182.049C530.379 192.706 294.115 122.448 468.301 174.059C467.526 173.753 468.335 173.949 468.353 173.894C436.788 163.905 405.025 154.687 372.75 146.087C374.422 146.769 373.21 146.681 375.111 147.428ZM1009.19 227.826C1015.13 227.323 1024.97 226.998 1037.39 228.008C1094.55 229.441 1190.62 266.969 1149.71 251.689C1135.5 245.208 1065.29 228.415 1037.4 227.868C1037.32 227.862 1037.23 227.855 1037.15 227.848C1018.91 227.257 1039.46 225.9 1003.91 228.09C1005.47 227.991 1006.43 227.968 1009.29 227.817C1009.25 227.82 1009.22 227.823 1009.19 227.826ZM957.697 259.474C969.56 228.78 1008.21 226.951 1037.3 229.102C1042.09 229.482 1046.79 229.935 1051.54 230.475C1047.34 229.954 1042.55 229.441 1037.31 228.998C1009.99 224.86 975.233 235.785 973.817 238.917C982.105 233.624 991.276 230.94 1001.01 229.378C1008.27 228.337 1015.43 228.021 1023 228.153C1029.46 228.182 1033.89 228.472 1037.33 228.708C1048.8 229.959 1047.66 228.129 1090.82 236.326C1071.57 232.193 1061.26 230.217 1037.38 228.069C1028.24 227.387 1017.97 226.809 1004.35 228.426C991.455 230.351 972.665 233.544 960.747 251.349C963.231 247.402 964.934 245.697 964.912 245.502C964.942 245.362 963.226 246.747 960.629 250.431C955.105 257.36 948.93 276.964 957.55 302.907C959.162 307.666 956.484 300.323 954.811 290.891C952.952 281.632 953.786 270.774 953.93 270.639C954.479 267.343 953.876 271.616 953.909 275.782C953.914 280.147 954.41 283.977 954.28 280.605C954.253 279.118 953.902 271.8 955.652 264.64C957.218 257.426 961.301 251.101 962.546 249.646C963.092 248.928 959.732 253.58 958.192 257.719C956.616 261.827 955.872 264.983 957.697 259.474ZM967.401 327.182C962.507 317.415 977.891 351.517 998.194 376.975C1029.81 416.178 978.702 355.091 967.401 327.182ZM2592.22 1497.08C2592.16 1497.06 2592.1 1497.05 2592.04 1497.04C2592.07 1497.04 2592.1 1497.05 2592.13 1497.06C2592.16 1497.06 2592.19 1497.07 2592.22 1497.08ZM264.617 120.601C290.171 125.92 327.398 134.922 324.74 134.111C337.11 137.158 349.337 140.275 361.585 143.504C361.484 143.419 361.267 143.303 361.166 143.218C324.476 133.633 287.593 124.956 250.243 117.065C254.874 118.196 259.158 119.264 264.617 120.601ZM658.608 246.134C702.155 265.928 665.769 249.079 675.372 253.319C685.021 257.416 723.253 276.213 718.813 273.913C693.553 261.275 667.008 248.981 640.804 237.696C647.614 240.845 652.326 243.127 658.695 246.173C658.666 246.16 658.637 246.147 658.608 246.134ZM1597.88 638.337C1626.22 654.081 1615.46 646.417 1669.08 681.475C1669.04 681.448 1669 681.421 1668.97 681.394C1625.84 651.892 1568.42 617.333 1509.08 604.391C1499.46 602.338 1490.1 600.654 1480.97 599.362C1490.7 600.817 1499.88 602.55 1509.05 604.53C1537.34 610.872 1563.42 620.564 1597.88 638.337ZM-151.061 65.5203C-164.84 64.937 -101.056 68.3162 -87.1822 69.4614C-64.3655 70.8704 -130.484 65.9108 -151.061 65.5203ZM1883.07 1280.86C1884.44 1280.85 1885.67 1280.83 1886.79 1280.8L1886.83 1280.8L1886.84 1280.84C1892.85 1293.39 1892.14 1291.64 1887.28 1280.66L1887.14 1280.33L1886.78 1280.33C1864.07 1281.32 1802.82 1272.96 1747.09 1244.83C1739.21 1242.04 1797.25 1266.41 1779.97 1259.36C1778.04 1259.04 1746.2 1245.29 1738.84 1241.04C1731.24 1237.09 1738.96 1241.49 1726.72 1234.82C1704.59 1223.68 1660.13 1189.8 1647.04 1176.75C1645.07 1175.33 1671.09 1198.1 1672.96 1199.14C1700.77 1221.51 1731.1 1237.54 1735.97 1240.03C1761.14 1252.84 1757.39 1250.61 1763.91 1253.68C1776.1 1259.28 1798.78 1266.83 1800.34 1267.17C1841.26 1280.24 1747.74 1250.32 1737.24 1241.22C1706.65 1223.19 1732.05 1244.13 1663.75 1192.78C1657.23 1187.88 1585.04 1122.74 1677.05 1203.68C1629.63 1166.43 1616.63 1147.26 1616.59 1148.28C1617.12 1148.77 1632.64 1166.86 1657.47 1188.21C1705.37 1233.96 1800.33 1271.91 1820.05 1273.84C1837.73 1277.95 1811.01 1271.42 1821.77 1273.9C1845.92 1280.58 1889.17 1282.22 1885.18 1281.34C1877.06 1282.03 1820.63 1276.48 1784.65 1261.83C1788.47 1263.05 1789.97 1263.48 1797.18 1265.69C1791.72 1263.91 1811.37 1271.01 1833.97 1275.49C1856.43 1280.33 1881.18 1281.02 1883.07 1280.86C1883.07 1280.86 1883.07 1280.86 1883.07 1280.86ZM1481.78 879.801C1479.86 872.083 1478.31 865.46 1477.01 859.672L1478.28 859.526C1478.25 876.299 1477.38 885.544 1475.89 895.82C1475.08 900.935 1474.1 906.304 1472.02 912.819C1469.64 918.833 1467.45 928.786 1456.48 932.491C1450.8 933.702 1447.27 931.631 1445.67 931.041C1444.02 930.276 1443.83 930.16 1444.78 930.699C1446.14 931.383 1454.62 936.249 1462.33 929.829C1475.96 916.743 1476.49 890.797 1477.43 886.239C1478.58 874.997 1478.73 866.539 1478.76 859.524L1476.53 859.779C1481.41 881.016 1482.81 888.912 1493.08 922.588C1488.62 907.43 1485.18 894.165 1481.78 879.801ZM1749.19 1247.69C1716.67 1231.92 1774.85 1260.37 1777.73 1260.25C1791.12 1265.52 1751.98 1251.37 1727.69 1237.1C1703.66 1222.45 1689.78 1216.54 1749.19 1247.69ZM1211.34 279.497C1227.56 288.075 1217.41 282.358 1231.55 290.235C1246.27 297.346 1290.83 330.557 1289.1 330.39C1289.2 327.936 1206.47 268.755 1288.66 329.346C1286.1 327.045 1286.97 327.738 1285.73 326.608C1264.13 308.618 1239.99 293.527 1215.13 280.429C1228.73 287.768 1242.21 295.918 1254.48 304.239C1241.22 295.723 1233.57 291.273 1232.87 290.825C1232.87 290.825 1232.87 290.825 1232.87 290.825C1207.47 276.02 1174.23 261.571 1211.34 279.497ZM1788.32 754.538C1792.27 758.498 1764.34 725.427 1752.45 712.235C1740.78 698.919 1724.37 680.849 1730.43 687.754C1749.96 708.817 1788.11 754.037 1788.32 754.538C1788.32 754.538 1788.32 754.538 1788.32 754.538ZM1355.26 773.922C1342.3 730.552 1340.25 737.818 1337.99 682.384C1337.8 684.48 1337.65 686.62 1337.55 688.803C1340.65 732.912 1341.21 729.931 1356.58 778.428C1359.55 786.178 1352.54 769.837 1366.63 804.828C1362.46 794.481 1358.62 784.066 1355.26 773.922ZM1421.1 597.573C1394.71 599.612 1373.63 611.896 1370.13 615.18C1366.71 619.88 1375.41 603.38 1423.65 597.86C1437.78 596.824 1460.41 595.707 1421.1 597.573ZM1050.37 433.949C989.43 369.857 1057.66 443.779 1075.78 458.069C931.836 311.224 1088.99 477.778 1109.05 486.565C1128.77 502.235 1167.38 529.195 1125.14 498.341C1107.8 485.06 1114.14 489.99 1113.07 489.199C1081.88 463.898 1085.34 467.217 1050.37 433.949ZM1509.99 969.196C1508.8 966.096 1510.48 971.046 1506.73 961.135C1502.81 951.001 1495.46 928.469 1494.67 926.045C1493.63 924.005 1509.04 969.626 1515.2 983.146C1521.07 996.769 1521.17 997.24 1509.99 969.196ZM1373.34 818.215C1359.72 786.579 1373.39 820.736 1383.15 840.84C1385.87 846.576 1388.02 850.921 1388.93 852.713C1416.35 903.91 1396.64 868.401 1383.5 840.668C1377.45 827.972 1373.03 817.638 1373.34 818.215ZM1218.56 548.021C1168.02 531.79 1163.83 523.049 1175.97 531.481C1188.37 538.523 1222.09 554.84 1256.08 553.84C1264.92 553.604 1273.96 552.337 1282.38 550.135C1262.91 556.091 1234.96 553.122 1231.97 552.358C1230.45 552.003 1235.03 553.54 1249.85 554.183C1264.18 554.36 1291.62 553.956 1324.03 531.046C1306.38 543.381 1294.86 546.597 1289.91 548.345C1284.82 549.906 1285.72 549.591 1289.21 548.501C1296.33 546.632 1312.51 538.458 1312.63 538.092C1316.67 535.208 1291 551.705 1262.61 552.998C1234.4 555.197 1208.93 545.323 1218.65 548.044C1218.62 548.037 1218.59 548.029 1218.56 548.021ZM1576.22 1096.36C1599.45 1137.62 1691.08 1217 1649.15 1179.4C1621.58 1154.59 1597.42 1126.72 1576.22 1096.36ZM382.376 85.9393C343.922 82.7883 310.466 80.4493 262.726 77.6508C305.389 80.4704 277.422 78.799 262.949 78.0141C241.416 76.8434 293.95 79.9377 294.046 80.0093C292.887 80.2297 260.345 78.0115 335.071 83.0153C316.788 81.8235 298.434 80.7088 279.523 79.6405C337.292 83.2615 350.473 84.4931 387.111 87.5034C352.008 84.3444 397.68 87.9741 440.547 91.5558C461.804 93.3048 401.171 87.3949 382.233 85.9283C382.281 85.9319 382.328 85.9356 382.376 85.9393ZM1123.05 495.158C1114.33 488.623 1106.31 482.416 1098.15 475.82C1089.16 468.421 1080.45 460.92 1071.87 453.164C1070.87 452.156 1070.04 451.302 1068.88 450.137C1057.66 439.724 1062 443.84 1058.7 440.751C1058.7 440.751 1058.7 440.751 1058.7 440.75C1012.65 395.449 995.07 374.319 970.774 329.914C970.567 330.019 970.36 330.124 970.153 330.23C975.363 340.438 981.384 350.304 987.784 359.737C991.361 364.801 994.866 369.487 998.715 374.415C1006.47 384.869 1014.94 395.217 1023.57 405.026C1030.72 413.023 1039.5 422.172 1045.95 428.579C1082.67 466.733 999.043 380.355 1000.54 377.734C997.567 379.312 1081.29 466.607 1096.84 475.556C1098.8 477.035 1078.79 460.365 1113.02 488.271C1117.74 491.876 1119.1 494.558 1145.44 513.036C1149.45 515.817 1153.97 518.799 1159.04 521.879C1162.62 523.984 1156.59 520.18 1145.92 512.362C1139.41 507.576 1131.56 501.71 1123.05 495.158ZM1083.25 236.506C1049.82 230.737 1095.29 236.415 1133.98 248.975C1172.63 261.451 1205.02 276.406 1155.03 255.888C1183.89 266.748 1178.7 264.348 1149.63 253.345C1147.1 252.332 1167.23 259.683 1165.53 259.111C1138.55 248.044 1104.51 239.678 1104.28 239.458C1096.66 237.643 1089.41 236.104 1081.66 234.67C1113.73 241.44 1062.67 230.692 1042.52 229.848C1033.38 229.087 1054.32 231.143 1046.66 230.47C1045.73 230.385 1041.98 229.997 1037.26 229.617C1027.28 228.664 1013.92 229.026 1013.18 229.219C1011.39 229.568 1020.28 228.663 1037.22 230.143C1043.81 230.731 1051.56 231.565 1060.26 232.79C1060.26 232.79 1060.26 232.791 1060.26 232.791C1068.05 233.839 1075.57 235.055 1083.25 236.506ZM1840.37 829.445C1832.56 821.215 1801.73 788.669 1858.71 847.941L1858.48 848.117C1857.64 846.82 1856.75 845.463 1855.8 844.039C1856.69 845.427 1857.56 846.807 1858.41 848.167L1858.78 847.879C1857 845.867 1855.14 843.782 1853.24 841.677C1842.96 830.691 1832.79 820.365 1821.88 809.677C1788.92 777.959 1725.51 723.573 1765.77 758.794C1770.19 762.646 1796.79 786.276 1770.38 763.106C1770.41 763.138 1770.45 763.169 1770.48 763.201C1807.13 795.82 1811.52 800.042 1840.37 829.445ZM1664.02 617.493C1582.58 538.965 1773.82 728.81 1741.13 697.755C1739.22 693.984 1658.05 610.986 1664.02 617.493ZM1349.9 640.513C1362.33 618.444 1376.43 613.172 1381.75 609.922C1387.49 607.075 1387.15 607.219 1384.76 608.139C1382.5 609.022 1373.17 613.364 1365.68 619.898C1357.98 626.286 1352.59 634.684 1351.44 636.636C1343.93 649.225 1360.02 622.533 1349.93 638.757C1347.93 641.18 1338.01 663.507 1338.68 687.1C1338.5 710.728 1344.27 733.339 1344.6 735.14C1350.06 757.201 1342.62 724.885 1344.23 731.231C1348.53 751.643 1357.92 778.637 1360.29 784.193C1364.93 796.411 1346.91 746.533 1345.78 737.555C1340.09 711.148 1340.92 713.467 1339.56 693.343C1339.16 673.233 1340.94 659.718 1348.17 643.612C1350.8 638.319 1348.74 642.776 1349.9 640.513ZM1501.58 604.455C1479.87 600.659 1489.25 602.182 1508.66 606.306C1535.91 611.423 1579.45 630.964 1587.26 635.2C1624.55 654.009 1543.34 610.365 1508.75 605.912C1505.91 605.306 1503.49 604.822 1501.58 604.455ZM956.134 290.941C958.647 302.941 959.762 304.517 958.519 300.505C957.546 296.558 954.411 285.985 955.234 272.993C955.558 260.045 963.847 244.775 976.645 238.287C989.223 231.313 1002.45 229.976 1010.65 229.28C1007.71 229.822 986.403 229.325 969.343 243.055C951.479 257.207 954.509 283.538 956.134 290.941ZM1247.54 552.59C1203.03 545.987 1263.03 561.921 1298.03 544.596C1317.47 534.619 1299.84 546.132 1275.97 550.899C1264.08 552.936 1265.45 552.238 1265.69 552.24C1265.86 551.923 1264.83 552.987 1247.54 552.59ZM1520.95 992.881C1513.76 985.298 1469.44 836.866 1494.53 922.136C1494.68 929.433 1535.27 1029.95 1541.24 1036.27C1549.06 1050.81 1530.41 1015.81 1520.95 992.881ZM1397.45 423.219C1396.95 422.985 1396.45 422.751 1395.95 422.518L1394.78 421.955L1394.41 423.196C1388.05 445.162 1377.96 464.47 1387.07 445.375C1387.08 445.346 1387.1 445.317 1387.11 445.288C1361.87 499.344 1354.41 497.97 1347.02 508.134C1314.71 538.992 1346.46 510.986 1324.92 529.033C1350.75 508.798 1356.37 497.75 1362.43 490.288C1367.94 482.289 1372.97 476.216 1383.78 453.692C1386.14 448.695 1391.54 436.074 1395.22 423.44L1395.31 423.151L1395.58 423.282C1407.88 429.121 1419.61 435.227 1422.56 436.731C1428.41 439.688 1408.36 428.566 1397.45 423.219ZM1642.97 1172.29C1605.59 1136.02 1576.08 1097.85 1623.23 1153.09C1647.53 1178.73 1666.78 1193.72 1642.97 1172.29ZM447.195 169.757C439.624 167.321 431.746 164.839 423.547 162.316C442.126 167.707 460.529 173.314 478.919 179.206C464.381 174.565 449.82 170.095 435.071 165.741C469.717 176.231 485.377 181.562 447.286 169.785C447.256 169.776 447.225 169.767 447.195 169.757ZM1393.17 959.751C1400.12 974.588 1402.27 1006.53 1401.72 1002.47C1402.54 971.505 1383.87 939.113 1393.17 959.751ZM986.332 234.792C1000.37 230.159 1009.45 230.278 1013.25 229.864C1017.14 229.636 1016.46 229.583 1012.86 229.687C1005.55 230.057 985.176 230.988 970.487 242.682C974.982 239.223 976.621 238.683 976.709 238.632C976.809 238.641 975.452 239.495 974.475 240.212C973.446 240.96 972.716 241.553 974.018 240.724C975.223 240.042 978.621 237.551 986.332 234.792ZM1116.88 632.985C1114.4 628.183 1111.84 623.377 1108.91 618.084C1118.12 634.732 1119.4 637.809 1116.88 632.985ZM1512.13 969.884C1508.07 961.554 1487.42 897.081 1485.69 887.794C1480.8 869.435 1493.5 920.965 1504.45 950.096C1505.55 953.565 1515.34 978.366 1512.08 969.752C1512.1 969.796 1512.12 969.84 1512.13 969.884ZM524.537 195.255C524.439 195.214 524.494 195.228 524.677 195.287C524.61 195.269 524.626 195.28 524.537 195.255ZM1492.23 1365.72C1491.88 1365.61 1491.69 1365.54 1491.73 1365.55C1491.87 1365.59 1492.14 1365.68 1492.23 1365.72ZM1340.31 684.55C1337.94 660.969 1363.5 615.792 1345.63 652.051C1344.08 653.905 1339.67 679.014 1340.31 684.55ZM896.576 680.176C959.25 722.651 1023.38 770.757 1084.25 821.419L1080.69 824.883C1044.74 779.308 1004.85 737.115 964.367 698.782C952.641 687.728 953.508 688.39 950.202 685.293C941.108 676.852 935.415 672.022 928.678 666.023C895.839 636.863 863.983 610.854 829.805 584.624C794.419 557.791 811.47 570.088 799.158 560.775C774.926 542.798 795.269 558.452 785.588 551.613C757.599 531.339 728.907 511.556 699.964 492.5C707.058 497.073 714.207 501.737 721.292 506.418C708.802 498.015 690.713 486.039 711.966 499.839C707.322 496.698 702.992 493.777 698.216 490.597C696.797 489.922 674.321 475.441 672.154 474.28C670.017 473.085 682.717 481.16 682.633 481.135C681.751 480.574 629.652 447.666 625.811 445.529C615.736 439.368 624.749 444.453 616.153 439.297C601.356 430.491 611.016 436.93 591.296 424.342C583.149 419.889 582.515 419.35 572.438 413.515C571.113 412.75 572.064 413.478 571.479 413.146C555.928 404.368 567.98 410.936 567.911 410.878C566.619 409.811 549.974 400.494 546.535 398.556C502.838 373.778 470.195 356.192 422.63 332.43C412.612 327.376 380.801 312.173 370.727 307.492C360.901 302.865 366.391 305.208 361.125 302.668C352.334 299.139 344.723 295.653 325.759 286.944C318.76 284.248 319.575 284.268 306.034 278.534C294.982 273.843 274.568 265.861 262.559 260.831C276.453 266.352 275.675 265.849 291.477 272.267C296.99 274.243 352.523 298.725 348.268 296.602C346.377 295.518 327.755 287.375 327.137 287.092C323.114 285.111 333.379 289.351 342.536 293.575C340.361 292.638 337.452 291.377 335.007 290.329C355.337 299.728 341.568 292.492 356.711 300.288C358.595 301.263 357.799 301.01 360.945 302.578C361.618 302.84 357.761 300.941 361.131 302.474C364.623 304.062 370.688 307.115 371.748 307.422C373.252 307.836 359.466 301.537 358.286 300.993C358.274 300.989 358.262 300.985 358.25 300.981C348.909 296.538 368.57 305.567 369.339 305.925C375.347 308.56 371.308 306.526 380.377 310.654C385.739 313.093 398.384 319.197 403.277 321.554C408.076 323.855 400.679 320.133 403.911 321.673C407.119 323.2 411.227 325.305 414.86 327.056C416.448 327.821 416.426 327.663 417.196 328.036C425.474 332.063 419.919 329.625 427.466 333.352C432.469 335.813 448.742 343.739 437.657 338.064C442.993 340.718 448.241 343.357 453.641 346.094C450.259 344.32 446.777 342.52 443.517 340.818C453.516 345.954 458.335 348.182 464.638 351.417C470.88 354.626 476.384 357.804 483.416 361.357C498.355 368.896 461.757 349.801 457.102 347.446C455.309 346.502 462.327 349.866 463.377 350.405C467.986 352.753 473.398 355.743 476.993 357.618C489.982 364.399 497.71 368.286 509.972 374.859C551.561 397.096 602.042 426.12 640.031 449.504C654.169 458.177 662.549 463.739 668.809 467.687C683.508 477 685.491 478.054 698.182 486.293C717.188 498.622 743.517 516.657 758.918 527.505C769.628 535.006 779.386 541.754 782.139 543.725C820.67 571.117 866.1 606.457 896.072 631.701C910.207 643.542 916.62 649.461 919.519 651.953C931.87 662.7 928.691 659.672 938.568 668.501C943.876 673.28 944.762 674.341 945.466 674.985C951.683 680.72 953.072 681.692 957.91 686.161C985.723 711.939 1011.36 737.829 1036.63 765.662C1038.45 767.673 1038.21 767.564 1039.39 768.864C1044.47 774.483 1042.26 771.757 1047.53 777.686C1058.44 790.012 1069.35 802.971 1080.22 816.588C1081.29 817.936 1081.68 818.622 1084.12 821.708C1084.2 821.805 1084.27 821.901 1084.35 821.997L1081.26 824.992C1078.48 822.672 1076.06 820.806 1071.39 816.946C1058.91 806.63 1046.52 796.472 1033.09 785.878C1030.77 784.057 1028.03 782.105 1024.66 779.466C1014.12 771.213 998.48 759.063 989.352 752.199C959.136 729.437 930.836 709.175 901.452 689.097C894.547 684.381 888.478 680.132 884.868 677.719C876.697 672.277 882.79 676.479 874.502 671.012C812.989 631.813 749.631 589.916 677.734 573.451C669.959 572.045 662.347 570.923 654.87 570.163C638.988 568.709 620.607 567.734 604.772 574.151C587.227 580.087 587.035 600.946 593.62 614.242C598.819 625.779 600.217 627.652 605.22 635.32C614.639 648.569 616.69 650.511 628.142 663.359C637.491 673.605 648.328 684.618 658.93 694.342C669.554 704.025 674.672 708.197 687.166 718.666C697.782 727.536 712.185 739.141 724.019 748.138C731 753.459 737.653 758.426 744.848 763.701L742.297 767.551C633.599 703.808 522.155 646.675 405.645 595.533C361.69 576.358 312.199 556.55 265.373 540.376C260.974 538.869 267.877 540.917 253.604 536.211C246.007 533.746 235.213 530.388 217.568 525.179C180.424 514.322 141.818 504.836 102.441 500.555L103.079 496.522C175.163 511.738 249.823 523.373 322.422 526.749C359.165 528.07 396.716 528.256 432.365 518.946C449.437 514.147 468.442 505.772 473.527 488.764C478.243 471.937 468.482 453.924 458.555 439.453C404.973 364.026 342.601 292.266 266.31 262.295C259.548 260.553 263.322 260.742 267.504 261.738C271.241 262.946 274.769 264.399 278.453 266.08C283.455 267.603 282.893 266.8 299.827 276.315C310.113 282.473 302.037 277.277 307.544 280.543C314.982 284.293 346.106 307.712 339.815 303.615C341.714 305.03 343.489 306.373 345.38 307.834C367.078 325.751 386.518 345.075 404.917 365.629C408.045 369.141 408.302 369.206 411.559 372.948C420.149 382.877 426.766 391.162 435.081 401.857C439.6 407.717 440.346 408.383 446.125 416.188C451.795 423.95 451.552 423.949 459.334 434.578C457.859 432.312 458.991 433.838 461.492 437.42C467.508 445.367 477.21 464.264 477.788 474.112C477.902 475.108 478.674 479.707 477.886 485.263C477.211 490.799 474.42 496.798 471.629 500.338C466.389 507.722 454.632 515.102 441.892 519.47C435.798 521.601 432.263 522.778 425.581 524.322C421.038 525.351 415.094 526.265 409.254 527.092C403.085 528.053 390.315 529.392 387.776 529.534C379.288 530.13 388.666 529.369 382.831 529.744C354.236 531.511 321.204 530.225 293.138 528.161C289.672 527.907 294.455 528.424 293.993 528.393C270.624 526.701 283.108 527.487 276.806 526.815C270.693 526.347 226.117 521.237 225.778 521.292C224.457 520.795 214.542 519.702 211.97 519.34C201.983 517.949 204.023 517.96 194.309 516.581C190.756 516.07 197.636 517.317 193.823 516.728C184.448 515.273 175.971 513.607 163.524 511.435C160.491 510.902 159.47 510.869 154.137 509.916C148.797 509.003 126.427 504.585 136.668 506.823C123.07 503.978 120.343 503.587 104.591 500.289C103.89 500.14 103.158 499.977 102.381 499.8L102.79 497.221C106.443 497.661 111.142 498.324 118.341 499.281C121.334 499.688 121.211 499.446 125.547 500.116C135.554 501.695 144.793 503.598 157.503 506.321C180.93 511.361 205.638 517.857 229.547 525.242C236.028 527.258 234.42 526.965 243.813 529.958C245.173 530.382 256.532 533.876 263.065 536.118C266.866 537.367 287.091 544.576 291.022 546.05C297.679 548.475 298.95 548.729 302.601 550.117C313.155 554.167 304.547 551.263 317.347 555.647C321.413 557.435 328.866 560.288 331.094 561.466C335.479 562.839 340.913 565.289 349.268 568.525C357.598 571.752 364.579 573.968 366.339 575.398C370.255 576.901 386.675 583.63 389.439 584.812C397.583 588.25 393.173 586.564 399.306 589.168C400.384 589.63 399.306 589.022 406.212 592.025C410.774 593.937 443.862 608.669 445.804 609.634C468.193 620.046 433.515 604.156 428.567 602.167C427.721 601.752 426.884 601.341 425.979 600.901C416.03 596.433 421.597 599.198 426.089 601.262C430.584 603.324 439.057 606.99 442.76 608.769C444.609 609.658 443.31 609.431 437.689 606.855C443.682 609.667 435.396 606.054 437.743 607.217C440.345 608.459 467.37 620.875 467.591 620.814C462.532 618.457 456.277 615.584 451.159 613.24C444.597 609.902 465.404 618.133 483.73 627.277C497.002 633.924 474.834 623.613 506.63 638.525C501.786 636.178 497.676 634.179 493.239 632.053C492.871 631.61 499.96 635.28 503.681 636.986C505.475 637.804 494.6 632.402 504.129 636.909C512.118 641.134 518.657 643.901 532.267 650.592C528.421 648.766 524.639 646.98 520.803 645.177C543.772 656.687 490.104 630.526 534.952 652.646C529.487 649.959 524.195 647.361 518.731 644.719C521.313 646.117 516.932 644.394 519.258 645.614C525.34 648.803 534.552 653.192 542.07 656.951C545.352 658.592 543.27 657.668 543.546 657.806C548.031 660.052 547.106 659.428 551.032 661.381C556.083 663.884 570.29 671.236 572.592 672.401C578.653 675.445 568.739 670.066 569.355 670.359C573.189 672.146 581.053 676.304 580.701 675.92C561.919 666.306 507.482 639.182 556.861 663.43C543.377 656.35 547.544 657.927 567.032 667.743C583.078 675.876 572.68 670.765 580.97 675.206C582.045 675.759 603.473 686.951 604.618 687.43C603.632 687.243 610.441 691.1 605.652 688.933C604.965 688.62 596.157 684.011 599.122 685.829C600.61 686.74 604.879 689.269 604.098 689.037C605.949 689.882 607.881 690.758 609.746 691.61C622.97 698.531 624.746 699.628 631.761 703.596C631.467 703.344 624.989 699.48 635.06 704.988C635.572 705.271 635.984 705.63 641.054 708.43C651.24 714.067 653.271 715.226 645.317 711.34C666.794 722.753 671.07 725.571 692.866 737.649C688.75 734.797 681.151 730.603 661.126 719.726C660.319 719.155 659.968 718.835 659.131 718.246C685.543 733.054 672.424 725.81 687.529 733.955C691.315 735.983 710.687 747.051 704.35 743.083C702.702 742.048 690.821 735.352 692.207 736.001C692.489 736.12 707.212 744.39 708.52 745.188C724.402 754.798 695.511 738.226 740.069 764.107C741.122 764.727 741.631 764.903 743.307 765.854L743.678 765.293C743.449 765.131 743.197 764.951 742.92 764.75C738.613 761.621 738.661 761.453 734.891 758.691C731.104 755.91 726.018 752.355 720.42 747.802C710.951 740.066 732.321 756.33 743.931 764.949L743.088 766.221C742.546 765.89 742.023 765.571 741.527 765.266C740.968 764.999 741.561 765.406 743.025 766.328L744.005 764.849C732.663 756.896 673.662 709.666 670.079 705.553C650.484 688.387 683.069 717.168 684.71 718.395C685.408 719.039 684.456 719.235 693.37 725.97C695.997 727.958 685.487 719.067 691.864 724.227C698.277 729.386 695.551 727.413 696.025 727.823C697.489 729.092 704.217 734.396 705.108 735.131C718.323 746.093 716.813 745.906 699.437 730.751C691.651 724.765 709.027 739.214 699.371 731.651C687.639 722.445 679.606 715.121 678.134 713.847C661.088 698.795 680.452 716.526 659.896 697.963C648.707 687.572 676.968 713.263 651.263 689.558C630.237 669.195 641.464 680.218 639.672 679.06C639.245 678.748 627.769 667.36 643.388 682.967C643.884 683.318 644.785 684.022 645.829 684.91C649.547 688.645 655.922 695.264 657.92 697.1C668.286 706.634 667.861 705.82 673.884 711.475C669.64 707.362 676.765 713.814 679.616 716.128C689.825 724.336 676.472 713.303 699.377 732.427C696.438 729.865 693.969 727.664 691.027 725.046C693.917 727.418 696.549 729.551 699.337 731.791C703.215 735.387 718.44 747.291 704.533 736.757C720.653 749.637 727.664 754.678 731.306 757.116C732.02 757.59 734.502 759.428 737.471 761.626C736.954 761.15 736.375 760.436 736.857 760.76C738.975 762.185 741.584 764.163 743.429 765.633L743.522 765.492C741.604 764.24 740.503 763.415 741.712 764.035C739.572 762.757 737.832 761.721 737.219 761.354C733.32 759.027 741.048 763.415 737.916 761.508C736.898 760.877 725.757 754.395 725.639 754.268C724.418 753.159 742.65 763.902 706.084 742.64C705.105 742.465 721.972 752.057 717.472 749.901C712.635 747.563 703.37 741.67 700.91 740.839C700.167 740.326 699.879 740.087 699.263 739.633C684.45 731.515 684.189 730.947 679.802 728.395C670.926 723.19 630.133 701.025 666.619 721.338C661.336 718.474 655.841 715.492 650.38 712.565C649.432 711.25 652.803 713.296 626.908 699.334C621.252 696.3 619.535 695.031 613.695 692.381C614.597 692.423 597.707 683.834 596.066 682.947C586.045 677.382 623.961 696.711 628.354 699.876C634.683 702.962 634.672 703.338 641.714 707.074C651.78 712.432 653.448 713.254 665.233 719.995C677.304 726.129 618.915 694.667 654.462 713.402C667.257 720.192 703.139 739.519 744.457 763.919L742.346 767.107C674.267 718.526 592.492 644.274 586.119 605.985C582.808 594.523 585.9 580.633 595.527 574.234C604.644 567.688 615.228 565.994 624.702 565.08C643.893 563.602 661.681 566.048 678.542 568.989C717.651 576.881 751.75 593.567 793.623 616.303C801.587 620.098 858.326 654.637 846.263 647.841C844.577 646.799 820.164 632.042 840.851 645.103C836.715 642.317 849.013 649.803 850.024 650.437C873.598 664.971 860.324 655.989 896.576 680.176ZM999.22 758.489C953.899 724.285 987.072 749.558 977.28 742.979C983.042 747.268 988.988 751.733 994.702 756.062C993.217 754.889 991.744 753.728 990.244 752.549C990.237 752.544 990.23 752.539 990.224 752.535C993.205 754.497 996.201 756.479 999.22 758.489ZM429.008 333.296C431.042 334.219 433.059 335.138 435.276 336.161C441.975 339.549 448.51 342.889 455.247 346.366C454.419 346.004 453.619 345.657 452.794 345.297C444.822 341.223 437.168 337.357 429.008 333.296ZM734.706 761.34C725.38 755.614 726.452 756.687 714.085 749.347C715.355 750.418 716.985 751.69 718.429 752.862C727.787 758.231 729.947 759.355 739.91 765.326C738.815 764.567 737.681 763.785 736.589 763.03C734.909 762.063 733.093 761.022 731.418 760.061C729 758.324 745.121 767.777 734.739 761.358C734.728 761.352 734.717 761.346 734.706 761.34ZM639.711 708.189C634.6 705.371 614.849 694.717 611.919 693.335C602.584 688.817 658.958 718.492 617.326 696.775C617.49 696.927 617.272 696.877 617.245 696.928C624.862 700.976 632.306 704.966 639.984 709.116C639.685 708.694 640.064 708.641 639.711 708.189ZM830.325 641.88C822.916 637.082 786.515 616.581 798.238 623.56C801.69 625.545 818.037 634.581 824.093 638.285C828.03 640.668 823.557 638.197 831.311 642.812C831.017 642.527 830.859 642.312 830.304 641.867C830.311 641.871 830.318 641.876 830.325 641.88ZM844.969 649.494C837.217 644.696 829.409 639.977 821.481 635.301C827.144 638.923 838.355 645.618 838.854 646.328C836.708 645.031 834.588 643.76 832.448 642.483C830.853 641.426 829.306 640.403 827.721 639.361C820.867 635.461 824.926 637.936 812.388 630.508C819.719 635.424 821.086 636.348 842.63 649.066C838.461 646.811 841.784 649.842 853.833 656.729C856.09 658.018 846.968 652.153 846.877 652.084C845.592 651.002 850.751 654.071 849.357 652.935C848.728 652.417 843.151 648.928 842.382 648.293C842.04 647.998 847.443 651.145 844.969 649.494ZM859.623 660.163C857.186 658.77 865.076 664.208 872.095 668.731C883.003 675.77 866.058 664.234 859.623 660.163ZM428.963 333.274C428.978 333.281 428.993 333.289 429.008 333.296C429 333.293 428.992 333.289 428.985 333.286C428.978 333.282 428.97 333.278 428.963 333.274ZM665.456 722.37C659.623 719.296 650.768 714.463 651.325 714.983C648.363 713.332 645.623 711.808 642.749 710.215C642.749 710.28 642.776 710.359 642.776 710.424C651.228 715.023 660.119 719.909 668.593 724.621C667.564 723.879 666.622 723.185 665.456 722.37ZM570.673 672.091C559.716 666.503 568.796 671.404 566.332 670.293C563.879 669.183 554.051 664.117 555.127 664.862C561.692 668.169 568.34 671.546 574.973 674.942C573.324 673.881 572.162 673.066 570.652 672.079C570.659 672.083 570.666 672.087 570.673 672.091ZM999.974 728.243C1005.83 734.284 1003.34 731.94 1014.98 743.712C1014.98 743.703 1014.97 743.694 1014.96 743.685C1004.22 732.19 989.922 717.605 977.274 705.652C984.812 713.226 990.68 718.738 999.974 728.243ZM728.621 752.731C725.718 750.746 738.664 760.653 741.826 762.771C746.779 766.139 732.885 755.698 728.621 752.731ZM736.709 514.803C725.849 508.03 745.663 521.982 766.488 536.41C768.297 537.648 754.983 528.121 759.007 530.829C759.415 531.098 766.764 536.273 768.619 537.509C770.476 538.741 768.657 537.261 771.673 539.32C776.966 542.92 788.551 551.517 792.509 554.227C793.032 554.578 785.898 549.148 785.444 548.817C778.061 543.332 770.674 538.435 769.503 537.609C763.511 533.386 764.536 533.857 763.048 532.748C760.245 530.661 755.152 527.226 754.801 526.975C745.796 520.482 766.585 535.016 769.422 536.974C777.082 542.17 770.251 536.996 788.29 549.834C790.003 551.053 810.374 565.875 784.823 547.039C835.529 583.331 759.698 528.306 751.04 522.979C747.165 520.361 752.873 524.556 750.489 523.018C745.07 519.514 735.863 513.278 736.523 514.087C737.949 515.801 750.162 523.667 758.288 529.486C757.35 528.996 756.946 528.873 755.276 527.871C757.849 529.415 737.531 515.279 736.709 514.802C736.709 514.802 736.709 514.803 736.709 514.803ZM864.087 607.729C874.888 616.635 874.363 615.712 884.134 624.008C893.08 630.92 875.857 616.77 873.827 615.144C864.651 607.623 865.099 607.49 855.508 600.046C858.642 602.808 861.162 605.102 864.087 607.729ZM766.787 534.592C774.56 539.835 760.852 530.167 760.312 529.76C754.515 525.124 795.437 554.223 766.787 534.592ZM783.496 614.05C779.291 611.78 781.869 613.372 778.146 611.458C774.52 609.556 761.669 602.849 761.985 603.172C762.213 603.357 785.616 615.672 762.006 603.732C762.769 604.186 762.48 604.098 762.835 604.343C769.297 607.574 775.795 610.957 782.185 614.388C778.741 612.322 775.284 610.272 771.974 608.352C775.656 610.088 777.551 611.317 777.748 611.42C777.749 611.42 777.749 611.42 777.749 611.42C784.461 614.945 792.913 619.199 783.496 614.05ZM1078.09 816.003C1077.23 815.453 1080.41 819.174 1083.4 822.74L1082.03 824.072C1080.38 822.773 1078.71 821.474 1077.58 820.552C1073.93 817.597 1069.23 813.507 1070.91 815.153C1073.62 817.471 1078.36 821.353 1081.9 824.233L1083.57 822.61C1080.61 818.954 1078.16 816.046 1078.09 816.003C1078.09 816.003 1078.09 816.003 1078.09 816.003ZM922.452 656.463C931.347 664.119 930.051 662.783 940.621 672.456C940.286 671.999 939.952 671.541 939.615 671.085C931.135 663.488 931.522 664.262 921.683 655.463C920.063 654.026 923.745 656.862 916.303 650.521C918.362 652.491 920.433 654.5 922.452 656.463ZM965.789 695.214C955.972 686.022 947.533 679.432 965.901 696.047C968.617 698.528 973.165 702.181 965.789 695.214ZM889.424 678.783C870.376 666.054 891.968 680.588 896.801 684.078C852.411 654.541 901.888 687.303 905.923 690.827C911.371 694.395 921.559 701.093 910.474 693.317C905.842 690.084 907.458 691.372 907.18 691.178C898.614 685.272 899.788 685.777 889.424 678.783ZM844.975 592.688C845.662 593.214 844.693 592.255 846.882 593.921C849.074 595.587 853.905 599.525 854.449 599.832C854.999 600.129 845.21 592.352 842.127 590.07C839.052 587.784 838.765 587.943 844.975 592.688ZM912.787 648.635C921.531 656.024 907.747 643.352 905.834 641.761C889.122 627.651 913.444 648.881 912.787 648.635ZM933.781 708.179C911.012 692.531 927.291 704.526 941.164 714.83C943.046 716.098 945.01 717.43 946.876 718.694C938.189 712.96 923.261 702.638 956.243 726.004C938.4 712.974 953.461 723.74 953.582 723.804C956.018 724.636 929.14 705.795 933.801 708.194C933.794 708.189 933.788 708.184 933.781 708.179ZM815.475 569.967C805.902 562.722 780.499 544.463 792.125 553.284C799.962 558.803 807.725 564.348 815.475 569.967ZM608.903 644.854C614.605 652.644 620.761 659.905 628.819 668.554C621.668 660.389 626.463 665.6 629.032 668.27C632.921 672.318 623.699 662.377 623.805 662.389C624.12 662.28 629.831 669.002 616.948 654.035C619.982 657.542 623.491 661.411 626.636 664.731C616.666 653.626 614.564 650.592 609.116 643.162C614.259 650.567 606.886 641.068 600.794 631.921C597.716 627.382 605.691 640.792 608.924 644.883C608.917 644.874 608.91 644.864 608.903 644.854ZM910.435 691.742C908.047 690.2 905.836 688.824 903.51 687.354C901.03 685.671 898.542 683.989 896.054 682.317C895.79 682.047 895.578 681.808 895.26 681.505C891.999 679.277 893.216 680.227 892.237 679.579C892.237 679.579 892.237 679.579 892.238 679.578C878.181 670.315 872.42 666.539 861.46 659.195C861.334 659.39 861.209 659.586 861.083 659.781C863.583 661.361 866.11 662.968 868.611 664.568C870 665.323 871.406 666.091 872.785 666.844C875.61 668.774 878.408 670.698 881.23 672.651C883.545 674.131 886.327 675.928 888.322 677.212C899.334 685.357 873.712 667.711 873.31 667.842C873.083 667.827 899.146 685.197 902.899 687.701C903.443 688.055 898.133 683.83 907.443 690.512C908.897 691.567 908.824 692.75 919.458 699.118C920.974 700.031 916.292 695.961 910.435 691.742ZM814.894 630.049C829.889 639.353 773.617 606.57 797.833 620.851C790.672 617.21 791.968 617.913 798.908 622.117C799.518 622.485 794.59 619.819 795.001 620.065C801.61 623.909 809.378 628.314 809.33 628.605C811.103 629.615 812.785 630.58 814.556 631.601C807.333 627.083 819.077 633.729 823.658 636.24C825.753 637.378 821.069 634.542 822.833 635.496C823.479 635.838 830.044 639.865 830.326 639.937C831.001 640.112 827.015 637.346 820.107 633.072C820.107 633.072 820.107 633.072 820.107 633.071C818.35 632.045 816.649 631.061 814.894 630.049ZM1053.17 788.436C1051.48 785.94 1043.76 776.776 1058.9 794.115C1058.22 793.202 1057.51 792.264 1056.83 791.351C1054.3 788.408 1051.83 785.565 1049.22 782.591C1040.6 774.309 1026.94 757.592 1035.68 768.325C1036.63 769.491 1042.85 776.276 1036.6 769.675C1036.61 769.684 1036.62 769.694 1036.63 769.703C1045.18 779.114 1046.36 780.273 1053.17 788.436ZM1052.36 798.209C1029.06 780.437 1083.62 824.089 1074.58 816.604C1073.95 815.979 1050.28 796.964 1052.36 798.209ZM947.914 681.394C957.595 690.298 958.477 690.612 957.62 689.593C956.759 688.574 949.965 682.509 949.108 681.701C946.335 679.054 952.363 684.507 948.768 681.066C947.597 679.888 930.671 664.458 929.848 663.809C925.417 660.024 931.568 665.927 930.293 664.852C926.147 661.344 920.707 656.35 919.394 655.455C916.578 653.515 927.215 662.259 928.946 663.803C934.199 668.436 933.592 668.198 937.464 671.726C941.32 675.252 943.932 677.519 947.338 680.651C948.472 681.694 947.423 680.943 947.914 681.394ZM980.162 710.578C970.118 701.241 993.757 724.76 996.572 727.64C1004.97 735.774 985.028 714.977 980.162 710.578ZM851.988 653.859C862.75 660.395 838.078 644.55 830.853 640.372C832.12 641.214 848.323 651.591 851.988 653.859ZM940.019 712.619C930.582 705.99 942.739 715.252 950.575 720.917C955.341 723.946 951.02 720.892 945.897 717.192C940.779 713.503 947.366 717.806 940.019 712.619ZM838.893 589.506C840.916 590.958 872.585 615.654 854.564 601.242C853.218 600.103 830.979 582.915 829.22 581.705C825.745 579.19 833.827 585.565 838.893 589.506ZM985.048 744.926C979.978 741.499 975.172 737.931 979.463 741.552C979.469 741.557 979.476 741.561 979.482 741.566C966.973 732.406 966.846 731.479 964.148 729.51C954.674 722.653 963.333 729.599 957.295 725.403C971.18 735.351 966.967 732.693 977.399 740.443C979.708 742.155 989.163 748.98 990.587 749.902C992.017 750.82 987.511 746.952 985.048 744.926ZM793.472 555.528C804.371 563.62 814.598 570.63 799.52 559.404C792.136 553.943 786.816 550.607 793.472 555.528ZM623.251 697.487C625.018 698.566 626.83 699.671 628.713 700.815C624.332 698.514 619.894 696.197 615.411 693.868C618.962 695.695 622.486 697.517 626 699.342C617.76 694.916 614.021 692.688 623.23 697.475C623.237 697.479 623.244 697.483 623.251 697.487ZM319.967 557.037C316.076 555.415 308.225 552.869 309.196 553.266C316.483 556.221 325.365 559.285 319.967 557.037ZM836.822 643.066C823.55 634.916 832.363 640.955 840.516 646.045C835.576 642.858 844.372 647.754 836.822 643.066ZM428.567 602.167C429.827 602.785 431.097 603.408 432.509 604.098C428.029 602.015 427.264 601.626 428.567 602.167ZM843.609 593.841C845.474 595.325 859.292 606.253 861.178 607.71C865.116 610.695 854.584 601.855 848.141 596.964C847.431 596.418 841.767 592.348 843.638 593.864C843.628 593.857 843.618 593.849 843.609 593.841ZM604.659 687.432C604.68 687.45 604.665 687.448 604.618 687.43C604.637 687.433 604.635 687.426 604.659 687.432ZM225.909 521.337C225.815 521.315 225.765 521.299 225.778 521.292C225.813 521.305 225.886 521.324 225.909 521.337ZM938.611 673.858C942.595 678.207 952.773 687.12 945.079 679.697C944.651 679.282 939.665 674.804 938.611 673.858Z" fill="#43637C"/>
</svg>
