<svg width="2326" height="1550" viewBox="0 0 2326 1550" fill="none" xmlns="http://www.w3.org/2000/svg">
<path d="M2471.46 166.677C2410.85 314.619 2339.44 401.044 2239.85 510.803C2016.7 750.095 1656.23 998.569 1349.97 1134.16C1280.03 1164.4 1208 1192.88 1132.65 1205.83C1096.95 1210.64 1049.56 1216.87 1030.25 1184.76C1016.93 1149.79 1038.32 1114.34 1058.18 1079.51C1110.51 993.82 1196.9 932.859 1284.68 888.337C1296.04 882.603 1302.98 879.245 1308.28 876.738C1357.68 852.547 1445.11 821.287 1497.45 806.875C1607.65 772.806 1805.6 741.602 1910.72 734.624C1955.37 730.862 2001.07 728.639 2018.51 727.804C2034.83 727.135 2043.7 727.032 2047.94 726.908C2047.99 726.907 2048.04 726.905 2048.09 726.904C2061.65 726.457 2096.71 725.763 2104.25 725.765C2105.39 725.765 2098.39 725.889 2116.87 725.765C2118.51 725.764 2117.02 725.662 2132.51 725.684C2136.7 725.569 2189.24 726.372 2203.82 726.996C2253.99 727.863 2372.44 736.518 2431.17 745.936C2440.24 747.254 2445.41 748.078 2454.77 749.57C2459.6 750.34 2466.76 751.492 2468.21 751.743C2474.81 752.771 2504.05 758.471 2493.65 756.107C2523.56 761.963 2514.5 760.458 2515.24 760.645C2547.33 767.389 2563.45 771.651 2571.27 773.898C2616.18 786.111 2658.77 800.283 2698.33 823.411C2736.31 844.401 2775.33 887.127 2753.9 931.144C2724.98 994.858 2670.47 1044.85 2616.33 1089.85C2616.27 1089.86 2616.21 1089.86 2616.16 1089.87C2578.54 1120.24 2564.56 1129.32 2542.64 1144.95C2529.08 1154.28 2514.15 1164.14 2500.28 1172.97C2130.36 1402.46 1698.43 1517.67 1270.52 1540.56C1252.45 1541.4 1247.97 1541.74 1217.99 1542.67C1184.89 1543.66 1138.71 1544.09 1095.06 1543.25C1057.2 1542.67 1000.53 1540.32 958.351 1537.18C948.777 1536.49 941.84 1535.89 940.761 1535.81C934.41 1535.31 934.085 1535.35 927.92 1534.84C920.559 1534.22 911.575 1533.37 903.132 1532.58C871.628 1529.68 837.098 1525.49 833.081 1524.97C813.745 1522.58 809.449 1522.02 807.859 1521.82C786.541 1518.94 794.55 1519.94 789.242 1519.21C761.714 1515.29 742.178 1512.52 704.364 1505.73C705.368 1505.97 706.395 1506.21 707.415 1506.44C678.737 1501.35 697.704 1504.58 691.851 1503.5C689.489 1503.26 627.757 1491.12 622.965 1489.89C606.354 1486.34 605.888 1486.26 604.452 1485.96C600.986 1485.27 559.744 1475.75 538.523 1470.37C513.424 1464.08 542.907 1471.73 536.672 1470.18C535.623 1469.95 509.36 1463.15 505.818 1462.22C501.91 1461.25 524.631 1467.23 524.275 1467.13C524.128 1467.1 510.995 1463.75 501.676 1461.28C494.904 1459.5 490.151 1458.25 493.2 1459.11C494.386 1459.44 497.418 1460.27 501.644 1461.41C518.044 1465.9 552.628 1474.52 561.294 1476.57C563.08 1477.01 559.688 1476.28 561.271 1476.67C567.293 1478.92 686.252 1504.03 691.657 1504.24C685.482 1503.07 679.304 1501.88 673.124 1500.66C681.353 1502.22 689.577 1503.74 697.796 1505.22C686.117 1503.08 674.429 1500.86 662.73 1498.54C680.108 1501.77 732.662 1511.27 734.898 1511.68C735.834 1511.94 703.453 1506.7 733.534 1511.85C728.956 1511.12 724.377 1510.37 719.795 1509.61C710.347 1507.97 700.959 1506.28 691.661 1504.54C697.894 1505.66 704.029 1506.74 710.364 1507.82C708.061 1507.4 705.72 1506.96 703.456 1506.53C686.04 1503.4 668.599 1500.07 651.138 1496.53C642.153 1494.74 644.005 1495.18 637.826 1493.93C560.753 1477.51 611.097 1488.34 561.069 1476.76C553.935 1475.08 546.798 1473.36 539.659 1471.61C541.942 1472.03 524.463 1467.8 501.585 1461.62C498.786 1460.87 495.923 1460.09 493.022 1459.3C495.853 1460.11 498.697 1460.92 501.556 1461.73C501.993 1461.86 502.43 1461.98 502.867 1462.1C502.433 1461.99 501.995 1461.87 501.551 1461.75C460.497 1450.92 386.616 1429.73 406.946 1435.32C397.927 1432.72 389.079 1430.14 380.4 1427.57C373.089 1425.34 365.899 1423.13 358.83 1420.92C349.289 1418.01 337.829 1414.46 327.745 1411.27C327.691 1411.28 327.637 1411.29 327.582 1411.3C335.785 1413.89 344.164 1416.51 352.72 1419.14C346.276 1417.24 339.932 1415.34 333.687 1413.45C327.572 1411.52 321.552 1409.59 315.628 1407.67C340.756 1415.63 307.552 1404.93 300.089 1402.33C279.916 1395.67 264.857 1390.58 258.228 1388.27C254.893 1387.22 216.856 1373.16 232.037 1378.95C210.532 1371.04 193.06 1364.28 172.33 1355.67C164.427 1352.41 156.83 1349.18 149.533 1345.97C165.239 1353.07 119.688 1332.93 153.187 1347.9C179.216 1359.2 186.904 1361.91 198.791 1366.62C210.023 1370.98 216.111 1373.37 229.226 1378.21C314.264 1409.07 383.441 1429.37 465.486 1452.19C478.596 1455.81 491.084 1459.21 501.481 1462.01C503.933 1462.67 506.252 1463.29 508.42 1463.86C520.85 1467.13 505.302 1462.96 521.13 1467.12C537.749 1471.43 541.322 1472.35 545.71 1473.45C548.439 1474.13 557.107 1476.19 565.066 1478.09C597.56 1486.01 646.179 1496.14 650.837 1496.99C656.041 1498.51 749.807 1515.12 754.443 1515.37C756.831 1515.72 751.92 1514.77 772.61 1518.14C779.075 1519.1 785.536 1520.03 791.993 1520.94C790.953 1520.75 789.914 1520.55 788.875 1520.35C827.101 1525.77 814.139 1523.99 851.28 1528.45C940.107 1539.33 1072.19 1546.54 1170.31 1544.9C1192.14 1544.63 1200.34 1544.56 1226.38 1543.77C1250.6 1543.23 1312.86 1539.53 1299.37 1540.5C1353.05 1536.92 1361.47 1536.25 1388.01 1533.69C1391.2 1533.42 1394.46 1533.15 1397.71 1532.87C1426.8 1529.86 1435.76 1529.03 1467.16 1525.28C1480.7 1523.6 1464.97 1525.48 1492.43 1522.1C1497.7 1521.4 1502.95 1520.68 1508.2 1519.94C1506.98 1520.08 1505.75 1520.21 1504.52 1520.34C1535.02 1516.16 1536.88 1515.72 1533.46 1516.39C1548.11 1514.21 1562.61 1511.94 1577.17 1509.54C1579.01 1509.28 1580.85 1509.03 1582.68 1508.77C1576.61 1514.66 1241.84 1549.52 1194.57 1544.7C1139.93 1546.51 1029.37 1543.7 985.175 1540.43C967.513 1539.32 959.704 1538.94 933.893 1536.88C907.925 1534.82 875.893 1531.46 862.195 1529.9C816.049 1527.04 602.311 1489.71 747.985 1514.67C743.781 1514.06 739.576 1513.43 735.368 1512.79C677.23 1502.7 698.555 1506.57 650.711 1497.33C630.564 1493.45 582.898 1482.68 585.607 1483.45C622.512 1492 662.55 1500.02 694.849 1505.85C697.897 1506.46 736.796 1513.36 756.69 1516.31C774.654 1518.98 762.349 1517.11 801.326 1522.8C830.549 1526.52 847.492 1528.61 855.186 1529.52C868.513 1531.06 869.984 1531.1 883.288 1532.46C897.786 1533.93 907.675 1534.9 909.728 1535.09C929.938 1537.54 1033.72 1543.86 1038.74 1543.52C1034.54 1543.33 1030.33 1543.13 1026.13 1542.92C1053.29 1544.06 1047.59 1543.87 1054.72 1544.15C1060.02 1544.33 1065.32 1544.49 1070.62 1544.64C1068.52 1544.56 1066.42 1544.47 1064.32 1544.39C1096.29 1545.21 1071.7 1544.88 1117.18 1545.53C1146.18 1545.84 1175.88 1545.35 1178.67 1545.31C1179.5 1545.3 1170.45 1545.49 1182.17 1545.33C1201.39 1545.12 1235.39 1544.04 1239.09 1543.78C1248.63 1543.43 1247.82 1543.53 1249.08 1543.49C1254.56 1543.68 1349.79 1538.06 1366.67 1536.16C1413.72 1532.21 1465.89 1526.43 1516.89 1519.25C1522.12 1518.51 1518.78 1518.93 1524.01 1518.18C1532.51 1517.06 1575.15 1510.55 1581.68 1509.39C1597.88 1506.83 1639.84 1499.23 1646.35 1497.95C1647.29 1497.77 1633.57 1500.44 1649.62 1497.43C1667.4 1494.04 1657.81 1495.77 1658.78 1495.59C1695.36 1488.43 1718.33 1483.49 1742.82 1477.99C1750.63 1476.24 1765.7 1472.68 1776.96 1470C1778.27 1469.69 1775.7 1470.38 1776.98 1470.07C1794.08 1466.02 1809.86 1461.92 1817.15 1460.05C1834.96 1455.45 1825.28 1458.03 1826.21 1457.79C1837.94 1454.77 1854.42 1450.38 1872.46 1445.38C1952.82 1422.93 2018.25 1401.97 2101.56 1370.87C2112.05 1366.93 2124.32 1362.12 2125.89 1361.5C2130.76 1359.6 2129.44 1360.24 2143.44 1354.71C2174.05 1342.55 2200.64 1331.44 2230.33 1318.37C2236.25 1315.75 2238.73 1314.57 2243.21 1312.56C2258.18 1306.07 2308.91 1282.24 2309.62 1281.47C2338.7 1267.49 2358.21 1257.21 2381.25 1244.91C2436.3 1216 2519.53 1165.39 2569.2 1128.48C2579.86 1120.7 2584.61 1117.02 2590.27 1112.72C2600.94 1105.55 2658.12 1057.29 2660.3 1054.16C2665.71 1048.81 2662.47 1052.74 2690.33 1024.38C2705.34 1008.28 2703.94 1009.21 2707 1005.76C2731.04 978.67 2749.1 946.253 2745.49 952.048C2749.65 944.664 2752.92 937.953 2755.53 931.832C2767.91 902.817 2758.72 881.22 2751.72 869.649C2751.89 869.568 2741.9 852.24 2722.06 837.283C2730.89 844.391 2736.09 849.459 2742.11 856.458C2746.9 863.368 2760.64 874.928 2761.38 905.11C2761.36 906.06 2761.47 904.248 2761.45 905.199C2761.36 911.137 2760.05 920.966 2755.4 931.78C2753.71 935.772 2751.79 939.871 2749.81 943.767C2742.86 956.902 2746.75 949.639 2743.77 954.951C2740.78 960.01 2741.16 959.317 2737.03 965.8C2722.91 987.474 2708.84 1003.63 2698.62 1015.03C2692.83 1021.45 2685.91 1028.79 2680.86 1033.89C2661.84 1053.82 2618.47 1091.38 2590.29 1112.36C2584.6 1116.66 2587.15 1114.9 2574.42 1124.32C2572.91 1125.43 2567.49 1129.38 2555.8 1137.65C2544.82 1145.4 2536.01 1151.45 2528.57 1156.44C2522.32 1160.61 2524.99 1158.81 2511.94 1167.37C2502.83 1175.24 2377.14 1248.24 2370.15 1250.42C2360.17 1255.7 2355.38 1258.26 2349.16 1261.45C2348.07 1262.01 2346.16 1262.89 2342.36 1264.82C2281.35 1297.1 2140.97 1357.77 2066.03 1383.49C1911.03 1438.89 1762.78 1477.7 1598.74 1506.1C1595.79 1506.59 1592.85 1507.07 1589.9 1507.55C1606.6 1504.75 1623.19 1501.8 1639.67 1498.73C1639.76 1498.67 1639.86 1498.61 1639.96 1498.55C1662.2 1494.35 1659.23 1494.95 1658.63 1495.14C1666.78 1493.54 1675.24 1491.83 1683.5 1490.13C1690.94 1488.87 1745.14 1477.24 1773.74 1470.26C1792.16 1465.9 1813.81 1460.5 1823.34 1458.03C1843.4 1452.82 1843.14 1452.74 1844.67 1452.34C1847.42 1451.63 1875.91 1444.04 1896.05 1438.22C1925.57 1429.64 1929.53 1428.45 1970.14 1415.81C2022.16 1399.25 2079.86 1379.06 2134.52 1357.61C2123.85 1361.72 2173.66 1342.2 2195.32 1332.86C2329.71 1276.49 2488.56 1192.95 2604.66 1100.88C2619.95 1088.79 2630.34 1079.89 2638.25 1073.06C2642.73 1069.17 2644.74 1067.54 2650.71 1062.16C2651.71 1061.23 2652.59 1060.48 2663.17 1050.57C2691.8 1026.47 2749.04 955.357 2754.87 931.9C2754.91 931.803 2754.95 931.705 2754.99 931.608C2783.25 865.802 2706.48 821.769 2653.78 799.995C2595.71 776.13 2533.88 761.977 2471.54 751.062C2468.47 750.568 2465.46 750.093 2462.4 749.619C2439.6 744.986 2344.42 733.241 2299.04 730.625C2218.08 724.386 2114.34 723.215 2043.11 725.754C2027.72 726.243 2015.06 726.799 2000.4 727.493C1994.1 727.792 1986.19 728.138 1979.67 728.502C1906.31 732.284 1806.99 742.458 1733.8 754.181C1568.26 780.952 1411.3 819.332 1260.68 899.331C1180.4 943.117 1104.71 1000.57 1056.93 1078.75C1048.05 1093.34 1041.08 1106.63 1035.92 1118.65C1032.71 1126.09 1029.88 1133.96 1028.03 1140.77C1027.08 1144.23 1026.33 1147.54 1025.76 1150.72C1025.17 1153.9 1024.57 1158.74 1024.48 1162.38C1020.71 1193.97 1053.92 1211.39 1084.11 1210.88C1142.86 1211.76 1202.68 1192.17 1258.78 1172.49C1371.13 1131.38 1478.84 1076.51 1583.15 1017.1C1791.09 897.194 1987.36 756.882 2161.23 592.2C2166.73 586.948 2166.4 587.158 2170.64 583.079C2196.14 558.952 2250.29 503.21 2276.31 473.103C2296.91 450.148 2328.81 410.615 2335.19 402.296C2266.66 490.502 2183.39 574.901 2096.34 652.011C2090.17 657.473 2089.43 658.196 2088.67 658.868C2074.51 671.261 2083.47 663.418 2062.72 681.25C2055.85 687.575 1991.04 741.04 1998.52 734.462C1983.32 747.909 1869.81 833.785 1846.89 848.912C1840.09 853.708 1844.87 850.256 1843.52 851.207C1837.65 855.328 1835.05 857.257 1829.81 860.923C1815.77 870.84 1779.6 895.327 1772.75 899.819C1757.3 910.289 1708.83 941.817 1687.76 954.794C1668.47 966.778 1671.78 964.617 1654.7 975.037C1641.21 983.182 1655.89 974.508 1625.87 992.468C1611.52 1001.2 1557.87 1031.88 1545.27 1038.66C1532.68 1045.62 1517.96 1053.72 1499.81 1063.32C1474.38 1077.02 1416.18 1106.08 1390.15 1117.91C1388.62 1118.63 1384.4 1120.51 1380.32 1122.38C1371.84 1126.26 1374.43 1125.18 1368.07 1128.06C1361.69 1131.95 1253.39 1176.49 1232.19 1181.99C1218.93 1186.38 1211.13 1188.7 1202.77 1191.18C1196.7 1192.95 1196.08 1193.2 1190.03 1194.89C1187.98 1195.45 1172.81 1199.59 1157.28 1202.93C1148.99 1204.75 1131.15 1208.33 1114.59 1209.99C1095.44 1212 1082.58 1211.19 1077.76 1210.78C1073.2 1210.25 1077.75 1211.12 1065.04 1208.98C1054.61 1206.95 1046.43 1203.36 1041.3 1199.8C1028.49 1191.86 1022.36 1174.4 1024.53 1157.63C1027.38 1135.35 1033.69 1123.92 1035.74 1118.3C1037.72 1113.7 1037.8 1113.56 1038.34 1112.39C1041.41 1105.79 1043 1102.98 1044.17 1100.71C1046.63 1095.96 1051.23 1087.56 1056.7 1078.61C1061.55 1070.62 1066.79 1062.9 1069.65 1058.84C1076.7 1048.93 1079.81 1044.7 1088.07 1034.58C1094.08 1027.25 1106.73 1012.71 1122.95 997.188C1157.98 962.988 1208.04 928.25 1249.91 905.016C1262.69 897.866 1264.75 896.793 1268.74 894.652C1289.27 883.81 1301.07 878.421 1307.15 875.515C1350.19 854.382 1429.61 824.961 1472.37 812.476C1489.27 806.856 1565.38 786.035 1609.18 777.002C1614.12 775.928 1609.48 776.878 1614.99 775.7C1628.18 772.907 1626.99 773.29 1633.7 771.9C1636.95 771.234 1644.34 769.666 1653.84 767.814C1703.15 758.256 1737.11 753.278 1759.79 749.964C1976.88 719.053 2203.15 715.416 2405.96 740.855C2429.25 743.879 2456.18 747.745 2490.9 754.139C2491.96 754.304 2493.02 754.47 2494.08 754.636C2495.27 754.895 2496.45 755.154 2497.64 755.415C2535.05 762.882 2550.75 766.379 2588.58 776.977C2592.01 777.951 2602.28 780.871 2608.3 783.017C2644.35 795.046 2625.64 788.571 2652.56 799.092C2678.82 809.961 2705.75 823.726 2726.58 841.207C2732.22 846.145 2723.93 838.137 2711.49 829.658C2698.04 820.416 2684.25 813.449 2681.91 812.239C2675.91 809.168 2668.38 805.74 2662.9 803.335C2646.08 795.832 2626.6 788.918 2622.91 787.751C2599.75 779.843 2628.65 789.615 2625.69 788.588C2610.62 783.321 2594.05 778.236 2577.36 773.692C2570.29 770.299 2478.37 751.089 2484.52 752.737C2477.05 751.419 2469.46 750.148 2462.44 749.028C2430.93 743.682 2411.1 740.966 2368.27 736.317C2371.42 736.621 2374.55 736.933 2377.67 737.251C2376.93 737.059 2338.15 733.08 2352.01 734.617C2313.03 730.775 2314.97 731.302 2279.26 728.64C2258.5 727.382 2271.2 728.084 2233.75 726.301C2211.2 725.303 2184.08 724.442 2159.13 724.123C2153.39 724.049 2150.88 724.099 2145.75 724.057C2140.63 724.018 2138.08 723.93 2131.91 723.911C2119.32 723.865 2102.86 724.03 2094.9 724.129C2087.77 724.215 2077.57 724.273 2060.24 724.691C2000.5 726.45 2018.48 726.217 2009.03 726.559C1998.87 727.058 1991.38 727.258 1971.21 728.438C1969.18 728.56 1974.43 728.324 1967.84 728.713C1962.52 729.041 1959.85 729.08 1942.21 730.279C1935.09 730.211 1826.26 740.284 1809.75 742.959C1784.39 745.896 1728.09 754.139 1702.09 758.756C1692.05 760.468 1681.48 762.277 1670.76 764.268C1635.37 770.714 1579.11 782.739 1535.47 794.328C1495.46 804.329 1427.09 826.361 1406.3 834.177C1352.14 854.054 1340.01 860.633 1336.03 862.118C1325.49 866.737 1320.13 869.029 1306.76 875.304C1218.16 917.244 1115.75 981.221 1056.41 1078.44C1048.62 1091.23 1042.32 1103.01 1037.42 1113.78C1032.47 1124.36 1026.97 1139.79 1025.24 1150.22C1018.67 1177.12 1032.95 1202.59 1058.79 1207.86C1106.66 1218.51 1156.97 1203.9 1197.52 1193.09C1594.19 1055.32 1953.61 808.067 2246.52 506.836C2247.33 506.019 2248.13 505.203 2248.93 504.386C2215.39 540.744 2173.48 582.31 2137.44 615.593C2089.44 660.635 2014.6 722.96 1976.6 752.79C1992.04 740.716 2016.69 720.558 2016.3 720.994C1989.25 743.106 1961.74 764.763 1933.94 785.896C1934.74 785.223 1935.54 784.55 1936.33 783.876C1907.35 805.929 1877.14 828.113 1847.32 849.211C1842.14 852.874 1845.78 850.242 1841.27 853.425C1836.22 856.981 1839.67 854.611 1838.72 855.277C1825.98 864.23 1821.99 866.896 1820.42 867.993C1816.37 870.797 1819.55 868.677 1807.87 876.73C1786.18 891.64 1770.54 901.839 1775.77 898.618C1768.75 903.312 1761.74 907.969 1754.72 912.586C1752.87 913.735 1751.04 914.874 1749.14 916.048C1705.14 945.054 1685.33 956.706 1660.5 972.335C1652.31 977.283 1644.13 982.171 1635.97 986.997C1631.42 989.79 1626.87 992.564 1622.33 995.317C1621.42 995.802 1620.5 996.286 1619.59 996.769C1575.51 1022.87 1528.31 1049.09 1484.49 1071.9C1454.87 1087.24 1446.85 1091.26 1419.76 1104.46C1359.78 1132.88 1420.53 1104.56 1368.96 1128.44C1371.62 1127.18 1374.28 1125.9 1376.96 1124.61C1368.35 1128.52 1359.84 1132.31 1351.44 1135.97C1345.61 1138.59 1339.83 1141.14 1334.11 1143.64C1307.94 1154.52 1289.99 1161.61 1286.65 1162.92C1283.35 1164.11 1275.23 1167.54 1241.83 1179.31C1255.05 1174.6 1217.44 1187.54 1214.87 1188.13C1212.73 1189.01 1173.43 1200.29 1159.67 1202.95C1145.51 1206.11 1123.43 1210.38 1102.53 1211.5C1086.33 1212.16 1088.46 1211.63 1087.24 1211.71C1067.59 1210.61 1079.32 1211.67 1065.19 1209.56C1052.42 1207.44 1041.13 1200.61 1039.39 1198.95C1038.24 1198.03 1042.01 1201.18 1036.81 1196.93C1018.95 1184.86 1022.78 1146.87 1031.76 1126.88C1035.25 1117.73 1038.2 1111.27 1042.19 1103.33C1048.14 1091.74 1051.81 1085.76 1056.27 1078.35C1056.3 1078.31 1056.33 1078.26 1056.35 1078.22C1057.75 1075.95 1066.4 1061.31 1079.64 1044.26C1082.19 1040.98 1089.7 1031.7 1099.99 1019.81C1100.84 1018.93 1101.7 1018.06 1102.56 1017.2C1152.51 965.557 1170.84 955.631 1196.61 937.367C1240.81 908.415 1210.37 928.149 1215.18 924.936C1218.38 922.829 1232.55 914.227 1234.23 913.285C1237.05 911.61 1236.54 911.858 1239.66 910.038C1298.35 877.391 1272.2 892.437 1290.89 882.726C1336.15 861.16 1372.27 844.879 1292.68 881.765C1292.67 881.743 1292.65 881.721 1292.64 881.699C1311.73 871.857 1361.93 850.58 1345.17 857.594C1331.15 861.252 1216.48 920.989 1281.34 887.039C1296.02 879.637 1303.58 875.831 1330.23 863.744C1347.45 856.244 1349.91 855.336 1373.93 845.696C1369.99 847.326 1366.07 848.972 1362.17 850.633C1395.27 837.23 1435.37 823.259 1461.73 815.12C1470.28 812.342 1502.01 803.43 1494.55 805.243C1509.44 800.512 1579.49 782.565 1592.98 779.929C1596.24 779.299 1600.22 778.131 1646.19 768.773C1649.39 768.114 1652.59 767.461 1655.8 766.816C1613.53 775.001 1688.2 760.44 1667.87 764.181C1660.92 765.489 1627.5 772.205 1622.21 773.44C1613.12 775.457 1640.24 769.728 1605.71 777.137C1583.88 781.529 1646.18 768.31 1636.65 770.121C1682.53 761.13 1687.15 760.596 1697.5 758.706C1741.97 751.112 1770.15 747.11 1812.42 741.843C1822.65 740.447 1746.38 750.583 1736.87 752.372C1771.77 747.316 1711.68 756.261 1686.72 760.793C1684.63 761.231 1682.54 761.673 1680.45 762.116C1712.93 756.207 1745.28 751.103 1777.75 746.732C1779.86 746.419 1781.98 746.108 1784.1 745.801C1776.78 746.741 1769.47 747.714 1762.17 748.721C1789.24 744.902 1772.99 747.2 1809.16 742.439C1810.29 742.375 1811.42 742.311 1812.56 742.247C1847.31 738.001 1882.05 734.506 1916.94 731.701C1935.18 730.14 2002.16 726.257 1989.94 726.812C2017.17 725.46 1983.57 727.176 2009.07 726.028C2020.17 725.529 2041.75 724.778 2047.06 724.587C2044.78 724.428 2012.46 725.571 2002.61 725.966C2008.66 724.573 2158.92 722.466 2145.76 723.024C2157.87 723.121 2152.35 723.118 2174.06 723.516C2234.89 724.331 2328.64 730.293 2377.63 736.528C2319.77 730.488 2303.37 729.407 2259.35 726.758C2231.1 723.541 2059.73 722.976 2098.02 723.487C2091.72 723.53 2085.41 723.595 2079.08 723.684C2072.68 723.856 2066.27 724.052 2059.85 724.271C2077.95 723.823 2095.95 723.564 2113.81 723.49C2118.08 723.413 2122.34 723.347 2126.58 723.291C2128.54 723.332 2130.5 723.376 2132.46 723.422C2140.07 723.45 2147.73 723.513 2155.32 723.609C2153.18 723.535 2151.05 723.464 2148.91 723.395C2160.64 723.494 2172.31 723.672 2183.9 723.931C2180.78 723.924 2177.65 723.924 2174.52 723.929C2228.83 725.277 2210.87 724.859 2241.24 725.976C2263.83 727.113 2225.82 725.167 2273.34 727.851C2329.65 731.838 2292.62 728.346 2364.88 735.288C2365.93 735.431 2366.97 735.575 2368.01 735.72C2384.05 737.408 2399.32 739.207 2415.17 741.298C2413.06 741.055 2410.78 740.796 2408.81 740.58C2442.38 744.766 2485.88 752.439 2497.14 754.57C2463.82 748.426 2464.4 748.562 2472.81 749.879C2487.15 748.014 2764.16 810.554 2760.81 889.414C2764.27 904.671 2762.09 918.378 2756.34 932.177C2738.08 973.422 2710.91 1004.73 2679.35 1036.75C2695.42 1020.49 2737.15 977.488 2756.23 932.128C2772.38 897.422 2751.84 866.153 2744.94 858.52C2743.09 856.584 2744.47 857.125 2731.86 844.654C2689.92 807.574 2626.16 785.339 2559.3 768.124C2561.32 768.709 2563.32 769.297 2565.31 769.89C2606.8 780.202 2642.98 794.649 2638.18 792.533C2646.31 795.597 2654.09 798.752 2661.51 801.997C2661.49 802.042 2661.47 802.088 2661.45 802.133C2672.63 806.995 2685.39 813.264 2695.69 819.212C2695.71 819.169 2695.74 819.126 2695.76 819.083C2704.18 823.876 2714.48 830.568 2722.2 836.646C2723 837.334 2723.79 838.024 2724.57 838.715C2737.41 848.174 2762.39 875.043 2762.02 901.202C2762.47 913.699 2759.3 922.847 2757.98 926.855C2756.4 930.75 2758.08 928.543 2760.81 917.124C2759.81 922.03 2758.24 927.015 2756.1 932.076C2752.55 940.47 2748.1 949.14 2742.77 958.05C2742.77 957.987 2742.77 957.924 2742.76 957.862C2739.64 963.073 2736.31 968.24 2732.65 973.543C2733.88 971.818 2735.07 970.101 2736.24 968.391C2719.59 993.454 2701.06 1014.06 2688.2 1027.37C2696.69 1018.48 2705.35 1008.81 2713.44 998.945C2697.81 1018.76 2665.8 1049.76 2663.09 1052.02C2654.32 1060.21 2649.58 1064.61 2639.25 1073.6C2630.24 1081.37 2631.54 1080.12 2629.85 1081.56C2579.68 1122.55 2599.12 1106.75 2574.94 1124.68C2572.37 1126.63 2569.79 1128.57 2567.17 1130.53C2563.63 1133.04 2560.05 1135.55 2556.43 1138.07C2541.35 1148.75 2525.62 1159.41 2509.16 1170.1C2514.62 1166.49 2519.99 1162.87 2525.29 1159.26C2500.69 1175.58 2490.46 1181.9 2487.91 1183.55C2481.31 1187.69 2478.18 1189.51 2476.11 1190.79C2376.28 1249.92 2436.44 1214.54 2386.3 1242.87C2368.11 1252.48 2386.43 1242.55 2388.9 1241.07C2365.05 1253.95 2356.59 1258.33 2331.02 1271.23C2324.35 1274.57 2317.11 1278.21 2312.83 1280.31C2309.12 1282.13 2297.42 1287.73 2288.3 1292.05C2273.03 1299.29 2253.77 1308.24 2232.76 1317.53C2214.99 1325.53 2162.49 1347.77 2124.87 1362.16C2108.95 1368.29 2112.63 1366.91 2108.5 1368.49C2106.79 1369.14 2094.24 1373.81 2083.79 1377.65C1999.64 1408.61 1911.66 1435.99 1824.07 1458.55C1762.75 1474.36 1699.35 1488.36 1636.82 1499.96C1623.52 1502.41 1630.57 1501.16 1624.76 1502.22C1622.75 1502.57 1620.37 1502.98 1599.65 1506.6C1592.16 1507.89 1600.79 1506.48 1593.42 1507.73C1589.86 1508.32 1588.17 1508.6 1567.33 1511.93C1529.55 1517.89 1508.86 1520.66 1505.46 1521.15C1499.01 1522.02 1500.89 1521.71 1492.32 1522.84C1450.85 1528.26 1415.81 1532.03 1378.51 1535.37C1361.31 1537.63 1240.72 1544.74 1234.07 1544.32C1219.21 1544.84 1233.06 1544.54 1213.97 1545.1C1208.64 1545.21 1203.21 1545.31 1197.95 1545.39C1206.36 1545.19 1214.94 1544.94 1223.41 1544.65C1199.88 1545.44 1173.82 1545.77 1156.52 1545.85C1153.35 1545.9 1123.99 1545.98 1108.92 1545.73C1115.32 1545.83 1121.71 1545.92 1128.09 1545.97C1125.83 1545.98 1123.57 1545.99 1121.31 1545.99C1091.21 1545.72 1059.97 1544.93 1029.15 1543.57C1018.06 1543.07 1021.81 1543.3 1010.56 1542.74C945.66 1538.96 962.041 1539.92 899.365 1534.79C920.514 1537.12 997.651 1542.58 1008.76 1542.85C1016.64 1543.3 1047.08 1544.24 1035.9 1544.11C1098.51 1546.26 1044.23 1544.52 1102.48 1545.84C1101.32 1545.87 1100.16 1545.89 1098.99 1545.91C1119.41 1546.27 1134.63 1546.33 1147.03 1546.24C1151.22 1546.6 1220.48 1545.72 1258.59 1543.77C1313.29 1541.44 1375.28 1536.75 1429.7 1530.81C1448.38 1528.79 1458.87 1527.42 1461.2 1527.14C1464.61 1526.74 1474.17 1525.64 1480.93 1524.78C1506.79 1521.8 1583.33 1510.03 1602.83 1506.57C1452.08 1532.6 1299.93 1546.19 1147.17 1546.49C1166.28 1547.21 1012.07 1544.3 1004.06 1542.69C996.862 1542.31 1002.91 1542.7 1000.77 1542.59C984.848 1541.74 971.214 1540.73 966.141 1540.38C962.27 1540.11 954.458 1539.63 940.663 1538.54C938.133 1538.34 937.433 1538.24 934.712 1538.01C916.678 1536.55 898.94 1534.91 881.06 1533.07C879.969 1532.96 875.439 1532.56 870.908 1532.07C866.367 1531.59 861.881 1531.02 860.734 1530.89C846.387 1529.32 821.724 1526.35 808.006 1524.49C803.259 1523.86 806.557 1524.25 801.285 1523.54C785.1 1521.3 790.423 1522.18 770.387 1519.21C763.668 1518.19 764.117 1518.2 751.235 1516.21C742.11 1514.77 743.07 1515.05 741.622 1514.83C739.658 1514.56 708.012 1509.15 697.854 1507.35C720.094 1511.59 673.474 1502.95 675.728 1503.18C663.358 1500.86 650.975 1498.44 638.583 1495.91C634.363 1495.02 630.142 1494.11 625.92 1493.19C577.194 1482.87 547.763 1475.72 501.117 1463.37C499.824 1463.02 498.521 1462.67 497.208 1462.32C494.51 1461.64 453.224 1450.38 455.324 1450.96C470.942 1455.34 487.057 1459.75 501.085 1463.49C508.449 1465.45 515.102 1467.17 520.663 1468.57C546.47 1475.36 546.973 1475.51 588.665 1485.21C602.619 1488.38 603.589 1488.62 605.227 1488.99C660.096 1501.56 748.29 1516.76 785.62 1521.55C796.041 1523.12 758.553 1517.67 773.124 1519.84C780.528 1522.83 973.754 1542.7 912.013 1536.23C918.451 1536.82 924.882 1537.38 931.309 1537.92C937.735 1538.7 969.627 1540.98 966.015 1540.51C969.03 1540.75 972.044 1540.99 975.057 1541.23C981.011 1541.65 988.055 1542.11 997.918 1542.68C1036.06 1547.6 1262.2 1546.29 1274.16 1543.41C1274.43 1543.44 1274.7 1543.47 1274.98 1543.5C1174.84 1548.46 1078.18 1548.2 969.279 1541.1C972.435 1541.27 975.59 1541.44 978.742 1541.6C935.42 1538.9 891.93 1535.05 848.824 1530.1C894.349 1535.69 967.629 1541.85 1015.71 1543.93C1024.33 1544.34 1018.01 1543.98 1020 1544.07C1025.17 1544.28 1030.74 1544.68 1049.27 1545.38C1067.86 1546.18 1114.07 1546.93 1118.52 1546.88C1126.79 1546.98 1149.04 1547.16 1163.01 1547.03C1181.38 1546.85 1169.07 1546.9 1172.75 1546.86C1188.01 1546.67 1201.51 1546.42 1213.62 1546.09C1231.5 1545.67 1268.36 1544 1280.69 1543.47C1268.07 1544.14 1255.41 1544.72 1242.72 1545.21C1311.26 1542.53 1364.98 1538.3 1432.62 1531.22C1447.99 1529.78 1392.19 1535.76 1439.37 1530.76C1430.82 1531.71 1422.25 1532.62 1413.66 1533.5C1411.64 1533.66 1409.62 1533.82 1407.59 1533.97C1392.68 1535.49 1378.12 1536.86 1363.38 1538.12C1367.58 1537.73 1371.77 1537.33 1375.96 1536.92C1323.81 1541.58 1270.59 1544.17 1252.4 1545.1C1251.31 1545.09 1250.23 1545.08 1249.15 1545.07C1200.11 1547.42 1127.29 1547.12 1140.86 1547.38C1138.54 1547.36 1136.23 1547.34 1133.91 1547.32C1104.33 1547.2 1116.96 1547.13 1105.82 1547C1102.69 1547.1 1045.56 1545.64 1070.89 1546.42C1015.03 1544.67 1032.22 1544.78 1016.79 1544.13C981.084 1542.77 916.947 1537.33 943.921 1539.68C938.599 1539.28 933.273 1538.85 927.943 1538.41C910.374 1536.76 893.29 1535.35 874.459 1533.43C868.079 1532.76 861.693 1532.06 855.304 1531.34C851.031 1530.8 846.756 1530.24 842.48 1529.68C782.133 1522.43 801.523 1523.95 774.083 1520.73C778.327 1521.4 782.57 1522.05 786.811 1522.69C796.885 1524.14 806.896 1525.51 817.121 1526.85C776.337 1521.59 735.646 1515.31 695.024 1507.98C643.925 1498.73 614.2 1492.42 558.053 1479.18C552.776 1477.88 547.499 1476.57 542.22 1475.24C547.568 1476.7 568.074 1481.82 529.874 1472.32C526.595 1471.61 552.384 1478.13 564.145 1480.82C566.979 1481.48 542.905 1475.63 569.985 1482.11C588.417 1486.35 554.858 1478.96 610.165 1491.32C608.092 1490.89 606.018 1490.46 603.944 1490.03C609.998 1491.36 616.049 1492.68 622.098 1493.96C627.488 1495.05 632.877 1496.12 638.263 1497.17C652.056 1500.06 659.801 1501.86 691.3 1507.65C682.787 1506.04 694.304 1508.1 710.016 1510.84C710.009 1510.88 710.002 1510.92 709.995 1510.96C748.15 1517.48 735.003 1515.17 766.645 1520.17C769.816 1520.61 772.985 1521.05 776.154 1521.48C793.158 1524.36 857.213 1532.35 845.547 1530.66C863.502 1533.04 900.888 1536.75 915.03 1537.79C916.109 1537.93 917.189 1538.06 918.268 1538.2C925.768 1538.87 933.261 1539.5 940.745 1540.1C944.923 1540.4 949.098 1540.7 953.271 1540.98C958.567 1541.4 963.859 1541.8 969.148 1542.18C972.344 1542.35 975.539 1542.52 978.731 1542.68C987.223 1543.27 995.703 1543.82 1004.17 1544.32C1009.38 1544.57 1014.66 1544.81 1019.89 1545.02C1020.46 1545.24 1072.26 1547.27 1086.61 1547.37C1090.89 1547.49 1095.18 1547.59 1099.46 1547.69C1101.56 1547.68 1103.63 1547.67 1105.75 1547.66C1108.98 1547.74 1112.2 1547.81 1115.42 1547.88C1122.85 1547.92 1130.26 1547.93 1137.66 1547.92C1167.83 1548.11 1168.75 1547.79 1175.62 1547.73C1188.22 1547.68 1231.81 1546.65 1239.07 1546.29C1246.32 1546.01 1249.82 1545.79 1255.66 1545.54C1351.73 1540.5 1312.44 1542.37 1331.71 1541.29C1342.15 1540.56 1349.52 1539.92 1358.7 1539.18C1374.24 1538.26 1453.89 1530.11 1458.26 1529.3C1464.86 1528.49 1449.3 1530.07 1470.75 1527.54C1471.35 1527.73 1517.57 1521.44 1495.99 1524.54C1515.05 1521.99 1533.98 1519.26 1552.79 1516.34C1550.74 1516.85 1573.69 1513.25 1599.27 1508.86C1635.24 1503.09 1715.5 1486.76 1712.49 1486.99C1721.01 1485.21 1729.49 1483.4 1737.95 1481.55C1796.25 1468.42 1853.03 1453.85 1909.53 1437.36C2078.57 1388.23 2256.21 1317.63 2409.06 1232.5C2416.54 1228.34 2415.43 1228.88 2420.76 1225.87C2448.35 1210.79 2519.53 1167.28 2555.09 1141.47C2566.86 1133.16 2572.61 1128.82 2576.24 1126.16C2588.59 1117 2585.67 1119.23 2591.24 1115.03C2600.07 1108.81 2646.06 1071.3 2660.78 1056.87C2667.96 1050.22 2676.63 1042 2685.06 1033.34C2685.78 1032.6 2684.41 1033.91 2685.01 1033.29C2699.85 1017.83 2690.96 1027.17 2695.86 1021.96C2719.85 995.763 2742.68 967.526 2757.77 932.783C2765.4 915.018 2766.2 896.072 2759.05 878.803C2754.02 865.219 2740.15 849.248 2730.1 840.915C2726.47 837.913 2732.99 842.918 2720.96 833.465C2716.68 830.279 2715.13 829.255 2709.87 825.757C2687.52 811.643 2678.95 807.69 2658.6 798.868C2618 780.622 2544.73 761.657 2505.66 754.388C2496.45 752.568 2491.89 751.75 2482.88 750.113C2476.32 748.924 2465.42 746.975 2455.81 745.44C2446.13 743.887 2430.68 741.564 2411.17 738.996C2391.75 736.394 2366.74 733.654 2362.13 733.197C2356.61 732.626 2354.01 732.443 2348.44 731.9C2332.39 730.221 2287.73 726.629 2266.55 725.521C2243.91 724.214 2230.01 723.722 2222.12 723.407C2214.83 723.12 2206.11 722.77 2202.94 722.675C2197.85 722.52 2196.65 722.559 2190.15 722.389C2179.53 722.121 2168.54 721.837 2152.4 721.661C1864.35 721.123 1575.99 754.386 1317.44 867.819C1288.76 881.236 1272.99 888.398 1232.84 911.798C1216.9 921.414 1223.91 917.228 1211.37 925.12C1205.81 928.7 1207.16 927.73 1200.23 932.321C1169.94 952.09 1137.12 979.903 1126.16 990.554C1121.77 994.674 1116.2 999.805 1107.31 1009.05C1088.33 1028.83 1069.77 1051.97 1054.42 1077.23C1035.2 1111.57 1013.66 1144.15 1025.01 1183.87C1044.16 1221.7 1092.69 1214.87 1127.28 1211.11C1181.37 1203.97 1260.46 1176.73 1317.6 1152.83C1476.42 1086.87 1637.95 992.66 1768.61 905.842C1965.6 773.814 2151.81 625.009 2305.3 443.943C2234.63 529.699 2125.64 634.246 2030.12 712.467C1752.09 927.548 1432.74 1171.22 1065.32 1211.95C1054.17 1209.98 1039.41 1204.54 1031.26 1194.53C1026.88 1189.49 1023.73 1182.56 1022.44 1176.01C1021.19 1169.91 1020.99 1163.04 1021.92 1155.35C1023.54 1142.25 1028.04 1128.81 1034.01 1115.25C1039.08 1103.77 1045.78 1091.08 1054.27 1077.13C1099.93 1001.67 1175.17 943.648 1248.25 902.607C1253.67 899.537 1265.68 892.981 1277.55 886.899C1279.94 885.498 1312.03 869.663 1323.45 864.75C1313.14 869.452 1356.07 850.34 1369.96 845.172C1387.61 838.16 1422.97 824.918 1464.81 811.914C1502.04 800.521 1491.9 803.726 1493.91 803.062C1507.26 799.191 1512 798.005 1522.37 795.203C1563.41 780.658 1783.65 739.89 1846.1 736.225C1862.14 734.517 1862.59 734.443 1866.2 734.074C1875.77 733.12 1889.41 731.891 1904.74 730.599C1932.5 728.219 1964.41 726.118 1979.61 725.301C2016.24 723.081 2085.85 720.974 2132.99 721.314C2146.49 721.368 2145.66 721.312 2151.76 721.366C2178.4 721.396 2248.1 723.796 2280.59 726.159C2334.93 729.667 2388.84 734.976 2443.6 743.3C2447.02 743.789 2450.42 744.286 2453.81 744.792C2459.13 745.672 2464.4 746.574 2469.63 747.497C2560.18 764.394 2655.8 782.891 2729.61 840.127C2734.25 844.159 2745.69 854.135 2754.05 868.206C2762.51 881.699 2764.39 897.599 2764.26 902.084C2764.33 909.885 2763.72 916.272 2760.13 927.193C2759.21 929.864 2758.48 931.637 2757.97 932.868C2755.69 937.876 2758.96 932.388 2749.5 950.581C2746.18 956.462 2749.32 951.136 2742.48 962.471C2742.54 967.217 2687.41 1033.66 2683.09 1035.55C2677.69 1041.04 2672.42 1046.32 2671.21 1047.49C2664.07 1054.35 2664.25 1053.99 2659.26 1058.6C2644.14 1072.61 2623.93 1089.45 2621.37 1091.5C2590.38 1117.55 2529.77 1160.19 2494.05 1182.31C2489.2 1185.37 2489.82 1185.07 2488.96 1185.61C2483.43 1189.09 2479.9 1191.17 2474.52 1194.46C2445.76 1212.24 2399.89 1238.22 2370.28 1253.67C2366.83 1255.49 2359.49 1259.28 2353.22 1262.51C2318.19 1280.39 2329.72 1274.48 2327.69 1275.55C2323 1277.89 2314.72 1281.92 2301.96 1288.07C2269.09 1304.16 2205.75 1332.32 2169.8 1346.78C2142.61 1357.83 2142.94 1357.64 2141.23 1358.35C2137.48 1359.83 2127.09 1363.88 2109.18 1370.67C2074.63 1383.64 2078.11 1382.26 2064.13 1387.34C2062.93 1387.76 2065.02 1386.98 2049.27 1392.53C2018.64 1403.55 1949.53 1425.98 1915.62 1435.71C1902.92 1439.43 1899.92 1440.23 1886.8 1443.95C1866.04 1449.95 1818.27 1462.54 1814.72 1463.35C1813.68 1463.61 1811.32 1464.14 1805.16 1465.68C1798.39 1467.38 1791.7 1469.06 1786.62 1470.29C1757.45 1477.51 1707.7 1488.16 1721.58 1485.4C1712.28 1487.36 1702.94 1489.27 1693.57 1491.15C1632.43 1503.8 1572.81 1514.05 1511.72 1522.52C1497.96 1524.42 1486.23 1526 1474.77 1527.43C1463.3 1529 1411.9 1534.6 1403.18 1535.33C1387.86 1537.22 1300.56 1543.82 1289.6 1544.07C1268.49 1545.27 1247.86 1546.21 1239.19 1546.5C1232.24 1546.73 1238.67 1546.46 1225.39 1546.88C1202.2 1547.66 1163.62 1548.22 1156.53 1548.2C1153.54 1548.19 1159.17 1548.22 1131.1 1548.16C1115.96 1548.09 1107.76 1548.01 1102.3 1547.93C1100.6 1547.87 1103.18 1547.96 1073.4 1547.25C1052.82 1546.69 1043.99 1546.36 1041.82 1546.29C1038.57 1546.16 1030.72 1545.79 1017.62 1545.16C987.125 1543.84 931.626 1539.94 902.593 1537.07C897.041 1536.53 898.952 1536.7 876.788 1534.42C860.925 1532.75 863.684 1533.09 857.739 1532.43C848.308 1531.37 834.263 1529.68 813.374 1526.96C787.155 1525.67 594.253 1490.15 584.835 1486.03C578.218 1484.53 570.544 1482.73 567.257 1481.98C570.06 1482.68 572.861 1483.38 575.663 1484.07C604.791 1490.67 593.013 1488.06 600.733 1489.82C612.016 1492.45 654.72 1501.31 664.998 1503.23C668.665 1503.94 660.252 1502.43 679.96 1506.21C701.073 1510.19 710.57 1511.65 719.076 1513.3C749.457 1518.27 778.481 1522.79 743.403 1517.4C723.877 1515.9 548.456 1480.54 500.497 1465.68C498.389 1465.11 496.521 1464.61 494.912 1464.18C462.446 1455.51 405.445 1439.43 367.622 1427.93C346.36 1421.7 290.289 1403.62 293.47 1404.65C274.044 1398.2 294.833 1405.02 290.667 1403.62C280.832 1400.56 221.715 1379.88 209.242 1374.82C153.101 1353.16 83.1546 1324.12 36.6801 1285.99C38.7752 1287.78 40.9667 1289.59 43.256 1291.4C52.017 1300.21 107.201 1331.5 112.444 1333.35C73.0039 1312.57 31.8433 1292.43 7.06918 1252.13C-5.19496 1232.13 -0.00346828 1204.55 15.4489 1187.8C30.201 1170.4 49.1049 1158.12 69.0213 1146.88C65.8104 1145.71 168.811 1101.85 173.771 1101.83C171.902 1102.44 170.043 1103.04 168.197 1103.65C109.612 1125.8 115.084 1123.62 77.1562 1142.45C62.6838 1150.24 66.45 1148.2 59.2327 1152.4C23.4806 1175.01 25.3354 1178.2 26.5369 1176.14C27.3784 1175.41 28.7165 1174.26 26.6918 1176.1C24.6981 1178.28 19.3143 1181.67 9.56291 1195.72C15.3698 1187.82 9.36122 1193.59 3.53101 1206.94C-2.89755 1219.91 0.262029 1241.59 6.57727 1251.65C7.50917 1254.25 18.2988 1271.08 33.1614 1283.47C48.683 1297.04 64.2199 1306.47 68.5286 1309.23C108.636 1335.14 182.552 1365.93 226.77 1381.78C259.809 1393.85 281.777 1401.32 311.578 1411.01C335.574 1418.71 328.824 1416.46 340.452 1420.11C365.18 1427.77 371.454 1429.8 387.143 1434.19C403.109 1438.96 421.201 1444.21 436.226 1448.49C436.237 1448.45 436.249 1448.41 436.26 1448.37C446.193 1451.18 456.32 1454 466.643 1456.85C469.669 1457.72 472.713 1458.6 475.773 1459.48C506.137 1467.68 497.593 1465.24 500.435 1465.91C500.718 1465.97 501.114 1466.07 501.676 1466.21C508.771 1468.1 515.865 1469.96 522.956 1471.78C528.421 1473.28 533.887 1474.76 539.35 1476.22C571.045 1484.14 602.406 1491.3 634.568 1497.97C636.644 1498.36 638.719 1498.74 640.794 1499.12C640.852 1499.18 640.911 1499.23 640.97 1499.29C694.839 1510.32 749.605 1519.58 803.909 1526.89C818.393 1529.17 731.197 1516.53 724.509 1514.99C687.705 1509.45 590.786 1488.97 590.847 1488.73C573.564 1484.81 529.37 1474.15 500.328 1466.31C491.38 1463.93 483.968 1461.94 479.074 1460.63C486.065 1462.54 493.144 1464.45 500.311 1466.37C525.404 1473.1 550.475 1479.38 575.513 1485.22C574.47 1485.03 573.428 1484.84 572.384 1484.64C612.075 1493.6 618.289 1494.97 659.511 1503.43C659.562 1503.37 659.613 1503.31 659.664 1503.26C688.289 1509.28 739.67 1517.5 741.122 1517.93C756.595 1520.4 772.046 1522.72 787.472 1524.88C820.762 1529.01 768.925 1524.36 900.162 1538.37C909.166 1539.2 907.343 1538.98 921.043 1540.19C924.985 1540.49 947.683 1542.79 990.711 1545.36C997.424 1545.75 997.934 1545.72 1004.89 1546.08C1021.15 1546.99 1053.43 1548.34 1038.78 1547.57C1102.87 1549.71 1076.26 1548.83 1096.08 1549.4C1109.23 1549.66 1106.66 1549.5 1118.17 1549.65C1132.39 1549.7 1122.09 1550.19 1178.82 1549.61C1172.47 1549.69 1166.1 1549.74 1159.73 1549.78C1162.94 1549.72 1166.14 1549.66 1169.34 1549.6C1201.69 1549.26 1198.51 1549.1 1213.93 1548.91C1237.61 1548.16 1258.05 1547.41 1290.07 1545.67C1352.69 1541.73 1320.89 1544.41 1391.76 1538.01C1403.37 1536.96 1414.97 1535.83 1426.51 1534.64C1445.45 1532.48 1430.16 1534.14 1458.33 1530.85C1436.38 1533.68 1495.53 1526.5 1505.82 1525.09C1506.88 1524.91 1507.93 1524.72 1508.98 1524.54C1515.29 1523.67 1521.59 1522.78 1527.88 1521.87C1527.9 1521.9 1527.93 1521.93 1527.95 1521.96C1536.32 1520.73 1544.66 1519.46 1552.98 1518.15C1559.24 1517.22 1565.49 1516.27 1571.72 1515.3C1581.98 1513.58 1592.45 1511.76 1602.76 1509.92C1609.25 1508.79 1615.72 1507.65 1622.17 1506.48C1620.14 1506.9 1618.1 1507.31 1616.06 1507.72C1624.37 1506.23 1632.65 1504.7 1640.91 1503.15C1631.29 1504.99 1637.43 1504.06 1663.01 1499.1C1684.35 1494.84 1660.39 1499.64 1706.15 1490.22C1709.33 1489.49 1715.03 1488.69 1757.82 1478.92C1809.53 1466.73 1784.33 1472.53 1793.53 1470.34C1795.33 1469.9 1811 1466.1 1825.5 1462.36C1833.69 1460.26 1841.74 1458.08 1842.85 1457.78C1848.01 1456.42 1849.54 1456.08 1856.65 1454.17C1874.74 1449.3 1898.7 1442.5 1915.97 1437.4C1923.96 1435.05 1931.54 1432.81 1935.09 1431.74C1940.62 1430.07 1947.59 1427.87 1953.14 1426.15C1973.66 1419.84 2004.22 1410.05 2013.83 1406.48C2033.71 1400.2 2073.81 1385.54 2070.88 1386.74C2123.58 1369.02 2258.26 1311.61 2254.05 1312.28C2282.35 1299.64 2279.44 1300.65 2291.53 1294.97C2304.86 1288.61 2297.99 1291.96 2308.5 1286.88C2332.79 1275.07 2355.87 1263.33 2379.77 1250.6C2376.03 1252.55 2372.26 1254.49 2368.48 1256.43C2393.56 1243.12 2384.72 1248.01 2410.08 1234.08C2456.84 1207.74 2436.85 1218.76 2443.69 1214.78C2441.69 1216.35 2495.99 1183.51 2500.82 1180.04C2504.08 1177.88 2489.72 1187.2 2522.19 1166.05C2520.43 1167.26 2518.66 1168.47 2516.89 1169.68C2532.16 1159.88 2570.35 1133.18 2577.13 1127.91C2580.37 1125.54 2595.18 1114.19 2610.08 1102.66C2611.81 1101.24 2613.52 1099.82 2615.22 1098.4C2630.98 1085.79 2646.21 1072.86 2661.18 1059.1C2663.47 1056.89 2665.73 1054.68 2667.95 1052.47C2672.33 1048.32 2677.14 1043.66 2681.78 1039.01C2678.79 1042.1 2675.53 1045.38 2672.59 1048.31C2702.26 1020.51 2731.1 983.592 2735.78 975.487C2740.8 968.239 2744.68 962.245 2749.37 954.018C2752.13 948.958 2754.6 943.972 2756.79 939.069C2757.72 937.067 2758.55 935.191 2759.3 933.427C2766.09 916.49 2765.79 908.376 2765.61 899.876C2765.04 891.842 2763.85 884.37 2758.37 872.88C2758.79 873.871 2759.2 874.865 2759.58 875.861C2751.48 855.277 2724.93 831.283 2698.91 816.767C2688.25 810.244 2664.98 799.534 2662.97 798.801C2660.58 797.45 2630.62 785.402 2626.84 784.619C2583.56 769.707 2562.71 765.48 2544.28 760.926C2531.93 758.052 2526.43 756.772 2513.15 754.015C2494.2 750.089 2472.88 746.395 2462.4 744.682C2456.04 743.636 2454.85 743.387 2450.41 742.687C2429.28 739.462 2441.78 741.348 2419.07 738.155C2416.73 737.835 2400.79 735.581 2382.39 733.49C2372.23 732.268 2344.75 729.6 2342.6 729.44C2332.24 728.53 2340.79 728.919 2304.93 726.285C2305.98 726.332 2307.03 726.378 2308.07 726.426C2262.98 723.033 2256.75 723.218 2247.62 722.693C2246.49 722.633 2235.67 722.06 2229.14 721.803C2218.13 721.363 2213.63 721.301 2211.18 721.217C2202.52 720.901 2174.21 720.098 2155.21 719.996C2159.01 719.656 2093.35 719.447 2078.63 720.203C2066.91 720.366 2055.15 720.608 2043.6 720.922C2038.35 721.127 2033.09 721.349 2027.82 721.586C2024.62 721.665 2021.41 721.749 2018.2 721.84C2001.25 722.623 1984.05 723.584 1967.22 724.689C1966.14 724.664 1965.05 724.64 1963.97 724.616C1959.23 724.918 1954.48 725.232 1949.74 725.56C1946.04 725.88 1942.34 726.207 1938.63 726.542C1932.7 726.951 1926.75 727.381 1920.81 727.831C1919.34 727.894 1917.86 727.958 1916.38 728.024C1884.46 730.714 1900.9 729.349 1840.23 735.237C1830.81 736.314 1821.38 737.445 1811.97 738.631C1801.3 739.714 1781.4 742.392 1765.4 744.65C1754.11 746.249 1754.75 746.056 1739.31 748.392C1723.89 750.769 1724.47 750.796 1723.27 750.979C1710.73 752.996 1701.31 754.531 1692.17 756.14C1690.79 756.388 1687.35 757.057 1675.75 759.177C1664.01 761.346 1656.91 762.561 1639.58 766.045C1630.71 767.846 1628.17 768.452 1620.34 770.106C1582.98 777.998 1545.41 786.882 1517.82 794.915C1511.27 796.491 1466.6 809.159 1447.29 815.654C1417.41 825.532 1429 821.858 1417.26 825.9C1415.5 826.564 1406.86 829.326 1382.1 838.738C1377.67 840.439 1378.68 840.001 1378.04 840.245C1349.32 850.967 1294.78 875.242 1265.67 891.218C1263.01 892.681 1248.56 899.943 1226.11 913.711C1191.63 933.634 1131.72 977.738 1096.91 1017.53C1092.06 1022.87 1086.5 1029.54 1084.51 1031.97C1070.1 1050.24 1071.25 1047.3 1052.86 1076.28C1048.83 1082.95 1044.26 1090.85 1039.6 1099.97C1040.74 1097.72 1039.53 1099.86 1037.12 1104.68C1034.6 1109.85 1031.69 1115.52 1027.32 1127.24C1021.9 1142.82 1022.37 1144.29 1021.92 1145.77C1021.79 1146.44 1021.69 1146.95 1021.37 1148.66C1021.29 1149.09 1021.2 1149.59 1021.1 1150.19C1021 1150.81 1020.9 1151.36 1020.72 1152.54C1020.4 1154.68 1020.05 1157.42 1019.87 1160.81C1019.83 1160.81 1019.79 1160.81 1019.75 1160.81C1019.4 1168.75 1020.1 1174.47 1021.88 1180.55C1023.81 1186.91 1026.79 1191.9 1030.31 1195.96C1037.16 1203.77 1045.63 1208.06 1054.53 1210.97C1062.17 1213.4 1070.83 1215.01 1082.23 1215.63C1091.38 1216.09 1102.58 1215.98 1118.47 1214.19C1136.83 1212.46 1169.76 1204.9 1173.08 1203.93C1174.71 1203.63 1196.57 1197.9 1198.87 1197.15C1211.4 1193.53 1217.24 1191.63 1227 1188.49C1260.17 1177.86 1298.31 1162.76 1291.3 1165.28C1300.11 1161.89 1309.08 1158.34 1318.19 1154.63C1351.1 1140.76 1375.44 1129.86 1382.58 1126.35C1388.69 1123.59 1394.47 1120.96 1400.11 1118.36C1538.82 1052.72 1672.19 973.703 1799.41 887.316C1804.66 884.047 1859.68 845.577 1862.35 843.445C1875.16 834.172 1861.53 843.858 1887.69 824.911C1890.62 822.863 1893.55 820.808 1896.47 818.748C1929.1 794.636 1913.35 806.177 1926.13 796.551C1931.47 792.533 1929.79 793.885 1937 788.417C1976.33 759.043 2054.51 695.643 2094.61 659.74C2102.71 652.596 2101.44 653.628 2103.95 651.405C2110.8 645.315 2124.43 633.184 2138.15 620.501C2223.02 543.378 2334.09 422.981 2396.18 325.514C2400.36 319.107 2400.89 318.135 2403.79 313.586C2407.85 307.258 2416.57 293.153 2420.45 286.498C2424.13 280.228 2426.41 276.191 2430.17 269.486C2447.78 238.404 2468.32 195.789 2481.05 158.794C2482.51 155.672 2493.79 118.227 2493.8 116.783C2494.79 111.569 2486.6 146.358 2499.9 89.0821C2486.98 140.243 2494.11 124.026 2504.68 57.8012C2500.39 90.8529 2491.63 125.01 2480.59 156.332C2480.55 156.369 2480.51 156.406 2480.47 156.443C2490.11 127.769 2499.51 97.4012 2505.14 51.1467C2504.94 52.6175 2504.74 54.0889 2504.53 55.5612C2499.71 96.4459 2485.17 144.802 2473.3 174.2C2489.89 130.896 2501.67 85.8609 2505.52 39.5488C2505.31 41.8626 2505.07 44.1786 2504.81 46.4968C2503.16 68.9335 2492.69 116.117 2486.73 133.625C2465.73 200.199 2503.76 74.4557 2496.62 94.7926C2480.79 167.156 2448 236.329 2409.73 298.761C2408.87 299.757 2447.38 239.715 2472.4 173.714C2499.01 108.574 2505.36 36.5307 2504.66 38.1796C2502.67 61.8987 2498.82 84.0981 2493.17 107.056C2495.62 96.8487 2497.71 86.6833 2499.43 76.5656C2498.92 79.3471 2498.38 82.1313 2497.82 84.9184C2490.08 123.895 2477.75 160.71 2461.95 197.182C2508.58 87.2132 2504.95 27.2228 2504.96 -0.00182155C2505.01 3.1893 2505.02 6.38614 2504.99 9.58859C2509.41 35.7495 2485.33 156.57 2453.89 214.233C2459.79 202.972 2481.06 148.946 2483.75 137.605C2484.75 134.384 2481.14 145.581 2483.47 138.12C2491.93 118.939 2505.66 31.7795 2502.82 44.2269C2507.23 53.3986 2469.34 190.901 2453.32 213.969C2480.55 155.26 2500.78 90.4173 2503.77 25.264C2500.81 66.2297 2496.08 103.29 2469.98 172.979C2465.58 183.654 2479.01 151.954 2488.4 116.326C2498.57 79.8933 2502.19 40.0901 2502.17 38.0332C2499.76 65.9674 2494.83 91.7333 2487.38 118.874C2493.65 95.9421 2498.08 73.9363 2500.78 50.708C2500.77 50.6377 2500.76 50.5673 2500.75 50.497C2493.61 109.431 2476 163.54 2446.5 224.781C2447.69 222.534 2464.5 186.271 2471.46 166.677ZM200.119 1371.99C198.515 1371.5 222.946 1380.84 236.386 1385.63C234.408 1384.93 232.697 1384.33 230.492 1383.54C257.464 1393.6 312.89 1411.76 314.213 1412.27C334.902 1418.9 325.847 1415.84 332.614 1417.96C335.542 1418.89 362.519 1427.39 383.88 1433.59C389.031 1435.12 394.24 1436.65 399.509 1438.19C400.512 1438.54 401.518 1438.9 402.526 1439.25C409.838 1441.31 417.721 1443.51 424.809 1445.46C348.36 1423.54 273.553 1400.32 200.227 1372.03C200.191 1372.02 200.155 1372 200.119 1371.99ZM962.566 1543.38C991.005 1545.45 1034.85 1547.36 1026 1547.1C1007.78 1546.27 989.903 1545.26 971.889 1544.06C968.782 1543.84 965.675 1543.61 962.566 1543.38ZM1970.55 724.637C1946.79 726.228 1924.69 727.543 1887.9 730.872C1887.94 730.835 1887.99 730.798 1888.03 730.761C1903.02 729.417 1943.05 726.159 1970.55 724.637ZM397.362 1037C402.444 1035.7 407.55 1034.4 412.678 1033.1C391.728 1038.2 388.494 1039.13 364.731 1045.28C363.313 1045.65 363.795 1045.48 363.301 1045.61C357.553 1047.11 352.284 1048.54 347.157 1049.9C337.437 1052.48 328.868 1054.7 311.348 1059.51C297.808 1063.24 297.841 1063.34 292.925 1064.71C288.682 1065.86 248.144 1077.22 222.731 1085.43C173.258 1099.74 381.721 1039.27 397.362 1037ZM545.152 1000.7C540.209 1001.88 535.273 1003.06 530.345 1004.24C545.174 1000.81 515.349 1007.92 493.263 1013.26C494.004 1013.18 540.41 1001.97 561.329 997.034C555.93 998.255 550.537 999.476 545.152 1000.7ZM12.6615 1260.65C6.48007 1251.69 5.38081 1248.05 4.6383 1246.68C4.01928 1245.31 4.363 1246.25 4.50116 1246.63C6.82005 1252.15 10.5954 1258.35 14.4155 1263.34C13.8105 1262.44 13.3719 1261.75 12.6615 1260.65ZM74.4922 1144.22C68.7859 1146.77 31.198 1168.52 17.7612 1185.34C17.2022 1186.2 20.8012 1181.19 11.4517 1193.32C10.2015 1194.97 3.13304 1205.38 1.16314 1215.61C-1.14306 1226.05 0.972281 1234.81 0.351733 1229.94C-0.601925 1185.66 42.4933 1162.65 74.442 1144.25C74.4587 1144.24 74.4755 1144.23 74.4922 1144.22ZM113.855 1125.3C106.144 1128.61 99.1361 1131.76 91.6951 1135.31C87.7631 1137.26 83.9414 1139.22 80.2334 1141.18C88.5096 1136.92 97.1513 1132.82 105.357 1129.14C108.143 1127.85 110.976 1126.57 113.855 1125.3ZM1870.89 835.879C1869.39 837.024 1867.88 838.168 1866.37 839.31C1860.45 843.663 1831.29 863.964 1840.46 857.448C1850.63 850.33 1860.77 843.139 1870.89 835.879ZM1990.8 744.918C1996.59 740.274 2002.36 735.61 2008.1 730.926C2014.78 725.626 2021.43 720.3 2028.04 714.949C1999.6 738.555 1968.47 762.91 1973.36 758.784C1966.69 764.013 1960.01 769.215 1953.3 774.39C1959 770.097 1958.3 770.758 1940.73 784.284C1936.78 787.121 1918.62 801.059 1897.44 816.6C1912.84 805.255 1928.06 793.824 1943.23 782.215C1943.22 782.196 1943.2 782.176 1943.19 782.157C1909.3 807.882 1951.43 775.928 1973.23 758.817C1974.93 757.443 1976.62 756.071 1978.32 754.689C1982.49 751.443 1986.65 748.185 1990.8 744.918ZM2764.68 901.618C2764.47 896.145 2763.59 890.774 2762.05 885.521C2754.88 866.078 2773.6 903.894 2758.56 933.117C2758.11 934.222 2757.64 935.319 2757.17 936.402C2758.91 932.084 2755.79 939.734 2750.75 949.114C2745.52 958.941 2739.29 968.377 2738.53 969.518C2741.37 965.064 2743.65 961.31 2746.48 956.309C2751.13 948.356 2755.08 940.584 2758.31 933.01C2762.82 922.3 2764.93 912.561 2764.68 901.618ZM2662.52 799.972C2680.04 806.275 2596.11 773.322 2566.19 767.541C2559.25 765.724 2546.44 762.702 2541.14 761.48C2537.95 760.706 2534.73 759.942 2531.48 759.187C2528.39 758.275 2469.44 746.497 2447.41 743.44C2445.26 743.148 2443.1 742.86 2440.93 742.576C2432.56 741.301 2424.08 740.08 2415.49 738.911C2416.57 739.096 2417.64 739.282 2418.71 739.469C2412.12 738.524 2405.96 737.674 2399.74 736.847C2375.1 733.812 2390.33 735.839 2371.58 733.659C2350.58 731.325 2385.01 734.899 2384.3 734.791C2400.69 736.597 2439.92 741.998 2456.55 744.807C2466.41 746.519 2454.5 743.931 2497.51 752.039C2506.76 753.773 2515.84 755.579 2524.73 757.455C2541.67 761.173 2559.03 765.418 2574.97 769.806C2578 770.566 2580.89 771.303 2584.24 772.19C2586.55 772.561 2624.42 784.624 2622.06 784.121C2637.57 789.372 2669.2 800.556 2699.16 818.051C2701.75 819.601 2704.94 821.575 2707.89 823.505C2678.98 806.149 2698.7 818.024 2690.01 813.123C2685.38 810.491 2667.71 802.042 2662.52 799.972ZM1675.76 966.045C1723.51 936.36 1693.88 955.084 1745.51 921.769C1741.94 924.185 1738.38 926.592 1734.81 928.988C1709.3 945.468 1667.85 971.197 1675.71 966.076C1675.73 966.066 1675.75 966.056 1675.76 966.045ZM2152.45 605.665C2128.73 627.702 2140.56 616.773 2110.1 644.264C2110.09 644.277 2110.07 644.29 2110.06 644.303C2125.75 630.23 2141.64 615.614 2156.98 601.093C2155.47 602.618 2153.96 604.142 2152.45 605.665ZM1433.63 821.396C1463.33 811.578 1457.54 813.524 1484.29 805.315C1524.62 793.789 1490.47 803.605 1490.52 803.74C1481.32 806.386 1472.19 809.102 1463.14 811.888C1440.87 819.052 1462.15 812.368 1462.06 812.422C1462.04 812.428 1462.03 812.434 1462.01 812.439C1461.99 812.489 1462.83 812.212 1454.19 814.982C1447.29 817.078 1440.44 819.216 1433.63 821.396ZM1561.37 784.764C1551.05 787.251 1546.31 788.204 1573.52 781.577C1573.54 781.572 1573.56 781.568 1573.58 781.563C1575.73 781.202 1602.23 774.925 1613.97 772.475C1617.09 771.824 1620.22 771.18 1623.36 770.543C1602.86 774.888 1581.87 779.688 1561.37 784.764ZM2024.69 723.056C2024.8 722.85 2001.36 723.723 2034.34 722.285C2040.73 722.066 2047.12 721.87 2053.49 721.698C2057.65 721.628 2061.91 721.566 2066.15 721.515C2147.63 720.246 2171.89 719.674 2034.34 722.457C2034.32 722.457 2034.3 722.458 2034.28 722.458C2031.09 722.652 2027.89 722.851 2024.69 723.056ZM1881.64 732.443C1880.6 732.431 1879.56 732.419 1878.53 732.409C1860.66 734.382 1837.55 736.404 1802.55 740.959C1799.38 741.324 1796.21 741.695 1793.05 742.072C1779.89 742.88 1652.24 764.128 1679.92 759.492C1691.87 757.207 1718.16 752.917 1720.44 752.579C1728.12 751.33 1738.14 749.65 1751.18 747.727C1758.67 746.618 1774.47 744.46 1789.82 742.458C1824.17 737.806 1886.88 730.835 1932.39 727.93C1935.66 727.656 1938.93 727.389 1942.19 727.128C1975.9 724.917 1964.49 725.717 1995.99 723.923C2017.55 722.623 1869.96 732.325 1900.74 730.749C1900.72 730.751 1900.7 730.752 1900.68 730.754C1894.33 731.293 1887.99 731.856 1881.64 732.443ZM1050.32 1082.9C1049.76 1083.91 1044.09 1093.65 1040.18 1101.41C1036.18 1109.22 1033.58 1115.31 1035.39 1111.56C1034.08 1114.35 1033.17 1116.36 1031.72 1119.78C1030.29 1123.18 1029 1126.48 1027.85 1129.69C1025.56 1136.1 1023.83 1142.14 1022.65 1147.82C1022.64 1147.73 1022.64 1147.63 1022.64 1147.54C1023.8 1141.88 1025.51 1135.86 1027.77 1129.46C1028.9 1126.26 1030.17 1122.97 1031.59 1119.58C1032.99 1116.23 1033.91 1114.19 1035.19 1111.41C1035.18 1111.35 1035.17 1111.3 1035.16 1111.24C1037.84 1105.49 1044.18 1092.6 1053.81 1076.85C1067.9 1053.13 1088.66 1028.57 1087.43 1029.96C1090.15 1026.8 1092.93 1023.66 1095.76 1020.55C1121.13 992.132 1145.72 970.589 1178.92 946.126C1181.51 944.302 1184.11 942.491 1186.74 940.693C1188.42 939.473 1190.11 938.259 1191.81 937.05C1204.16 928.528 1217.27 920.153 1229.8 912.65C1271.84 887.907 1190.23 936.478 1181.66 944.512C1180.44 945.403 1180.53 945.167 1172.93 950.768C1157.79 959.488 1087.56 1024.03 1072.06 1049.87C1071.95 1050.11 1071.85 1050.35 1071.74 1050.58C1065.39 1059.17 1059.44 1067.95 1053.92 1076.92C1052.69 1078.94 1051.48 1080.93 1050.32 1082.9ZM2206.05 722.156C2208.2 722.168 2210.4 722.184 2212.57 722.202C2250.05 723.583 2272.77 725.107 2263.44 724.712C2263.42 724.711 2263.4 724.71 2263.38 724.709C2244.54 723.637 2225.39 722.784 2206.05 722.156ZM823.095 1528.76C824.075 1528.76 841.714 1531 864.405 1533.57C863.307 1533.48 862.21 1533.39 861.112 1533.3C849.316 1531.86 834.4 1530.48 797.935 1525.51C797.942 1525.45 797.95 1525.4 797.958 1525.34C806.22 1526.51 814.704 1527.66 823.095 1528.76ZM2174.36 721.371C2163.14 721.172 2131.2 720.726 2152.2 720.896C2168.23 721.055 2180.4 721.462 2174.36 721.371ZM2242.36 515.77C2236.7 521.8 2230.99 527.817 2225.21 533.82C2222.17 536.91 2219.1 539.995 2216.02 543.076C2216.03 543.062 2216.05 543.048 2216.06 543.034C2224.97 533.979 2233.73 524.89 2242.36 515.77ZM1334.65 859.24C1360.09 848.169 1387.7 837.429 1413.81 828.233C1414.09 828.169 1414.36 828.105 1414.64 828.042C1388.22 837.286 1377.17 841.93 1371.04 844.313C1371.07 844.302 1371.1 844.292 1371.13 844.281C1351.07 852.23 1333.26 859.828 1314.39 868.543C1321.07 865.389 1328.16 862.14 1334.65 859.24ZM1247.3 902.724C1251.26 900.428 1257.17 896.134 1295.7 877.269C1294.16 878.047 1292.63 878.828 1291.1 879.612C1271.12 889.455 1259.36 895.997 1262.94 894.152C1257.67 896.971 1252.45 899.828 1247.3 902.724ZM1667.19 761.948C1661.96 762.883 1621.24 770.998 1623.48 770.58C1624.25 770.229 1677.18 759.823 1667.19 761.948ZM513.934 1469C523.236 1471.42 532.535 1473.78 541.83 1476.08C529.476 1472.98 517.116 1469.77 504.751 1466.45C507.812 1467.3 510.873 1468.16 513.934 1469ZM412.379 1440.6C405.724 1438.68 427.137 1445.19 387.468 1433.61C416.835 1442.3 444.098 1450.02 473.074 1457.98C459.479 1454.22 446.22 1450.49 433.292 1446.79C435.565 1447.37 437.848 1447.96 440.141 1448.54C430.963 1445.95 422.402 1443.5 412.379 1440.6ZM381.358 1431.66C396.761 1436.24 316.196 1411.69 308.971 1409.05C307.325 1408.53 299.606 1406.13 296.821 1405.24C308.424 1409.06 320.412 1412.91 332.79 1416.81C328.637 1415.54 324.528 1414.28 320.462 1413.02C334.344 1417.46 350.377 1422.45 363.369 1426.4C357.443 1424.57 351.942 1422.84 345.365 1420.77C358.163 1424.72 369.034 1428 381.358 1431.66ZM709.895 1511.53C699.35 1509.7 689.04 1507.83 678.599 1505.87C680.691 1506.21 682.783 1506.54 684.874 1506.87C691.106 1508.02 697.336 1509.15 703.562 1510.26C705.648 1510.68 707.784 1511.11 709.895 1511.53ZM498.291 1464.63C499.007 1464.83 499.781 1465.05 500.603 1465.28C516.974 1469.89 552.315 1478.41 506.535 1466.73C504.363 1466.16 502.211 1465.6 500.627 1465.19C498.607 1464.67 497.482 1464.4 498.291 1464.63ZM279.348 1399.3C247.527 1388.19 254.218 1391.04 284.868 1401.27C286.432 1401.79 281.779 1400.14 279.348 1399.3ZM53.4115 1298.12C52.3613 1297.37 50.8516 1296.37 47.3369 1293.78C43.3932 1290.82 36.5642 1285.75 28.027 1277.5C24.8114 1274.43 21.6119 1271.09 18.8839 1267.92C22.722 1279.15 94.5491 1325.11 84.7925 1317.87C74.1681 1311.81 64.0748 1305.61 53.4115 1298.12ZM124.788 1337.97C136.904 1343.75 147.849 1348.64 159.41 1353.6C155.56 1352 151.787 1350.41 148.088 1348.82C153.573 1351.26 159.227 1353.71 165.053 1356.18C175.091 1360.34 185.603 1364.5 194.895 1368.06C169.338 1357.99 144.998 1347.73 118.947 1335.05C120.868 1336.02 122.815 1336.99 124.788 1337.97ZM442.76 1448.62C421.225 1442.62 388.957 1433.32 353.325 1422.39C353.308 1422.39 353.29 1422.38 353.272 1422.38C351.529 1421.84 347.804 1420.76 341.549 1418.82C335.468 1417.49 234.36 1383.47 242.747 1386.02C280.956 1399.69 297.182 1404.58 305.747 1407.67C307.636 1408.23 309.534 1408.79 311.442 1409.36C349.578 1421.49 360.662 1424.88 381.547 1431.23C381.475 1431.17 381.402 1431.1 381.329 1431.04C395.451 1435.25 410.44 1439.61 425.056 1443.78C423.177 1443.27 421.026 1442.68 418.906 1442.1C424.453 1443.69 428.824 1444.93 433.854 1446.36C445.851 1449.65 461.441 1453.96 442.76 1448.62ZM74.3718 1311.19C69.5367 1307.55 40.4657 1292.65 16.9076 1264.45C5.15386 1250.3 -2.71393 1229.83 3.44639 1211.67C9.36962 1193.5 22.0111 1181.86 32.3586 1173C21.4133 1182.22 8.65777 1194.4 3.15973 1212.35C-2.42759 1230.28 4.90235 1248.62 14.2686 1261.08C32.4455 1283.61 37.4534 1284.48 35.923 1283.95C34.6829 1282.98 29.3062 1278.15 32.7846 1281.33C36.0147 1285.02 62.1928 1304.29 74.3718 1311.19ZM529.589 1472.13C518.485 1469.31 509.318 1466.89 500.786 1464.6C487.325 1460.98 475.617 1457.8 461.109 1453.85C463.113 1454.43 465.125 1455 467.144 1455.58C470.745 1456.57 485.688 1460.65 500.766 1464.68C519.508 1469.69 537.537 1474.17 529.589 1472.13ZM97.8749 1133.63C48.3874 1158.64 71.9201 1146.37 47.897 1161.33C63.3281 1150.91 80.3977 1141.89 97.9061 1133.7C97.8957 1133.67 97.8853 1133.65 97.8749 1133.63ZM2110.63 722.007C2087.37 722.124 2060.73 722.777 2046.95 723.105C2062.65 722.615 2078.95 722.254 2094.82 722.05C2100.1 722.019 2105.37 722.005 2110.63 722.007ZM2748.83 863.249C2746.32 858.758 2731.79 843.636 2729.44 842.104C2727.69 840.585 2727.32 840.304 2727.1 840.131C2726.92 839.993 2727.11 840.163 2727.08 840.149C2706.44 824.149 2726.14 838.696 2709.69 827.078C2708.95 826.592 2705.86 824.531 2701.09 821.659C2696.94 819.157 2691.28 815.927 2684.79 812.563C2671.37 805.561 2656.52 799.251 2647.67 795.739C2618.66 784.177 2592.66 776.831 2580.76 773.484C2564.05 768.69 2528.87 760.027 2499.81 754.512C2487.42 752.13 2482.86 751.37 2470.15 749.173C2390.65 733.889 2230.36 722.658 2158.26 723.012C2140.29 722.788 2123.29 722.886 2113.96 722.925C2106.56 722.926 2099.14 722.958 2091.7 723.023C2068.83 723.66 2060.95 723.568 2036.51 724.33C2020.9 724.852 2013.57 725.286 2011.47 725.372C1997.52 725.986 1990.58 726.306 1979.64 726.899C1967.42 727.555 1949.82 728.744 1945.43 729.048C1942.74 729.3 1951.35 728.27 1903.73 732.127C1855.38 736.235 1807.54 741.632 1758.72 748.685C1774.95 745.994 1789.05 744.317 1809.09 741.855C1814.47 741.201 1811.05 741.56 1815.73 740.997C1828.98 739.379 1854.3 736.677 1865.26 735.598C1877.1 734.419 1873.04 734.666 1888.06 733.326C1888.82 733.26 1886.42 733.53 1889.96 733.22C1925.46 730.23 1937.26 729.142 1982.1 726.55C2012.01 723.18 2193.71 722.055 2199.56 723.704C2232.39 723.307 2040.6 721.836 2018.64 724.648C2010.82 724.979 2019.02 724.693 2011.89 725.008C2008.9 725.135 1981.55 726.225 1954.88 727.979C1922.44 729.871 1857.4 735.821 1826.68 739.579C1566.89 774.185 1289.36 826.983 1099 1019.42C1095.2 1023.74 1090.35 1028.69 1078.73 1043.56C1070.19 1054.6 1062.33 1065.98 1055.2 1077.7C1034.76 1114.36 1007.04 1157.21 1032.51 1194.31C1064.45 1223.81 1113.97 1212.41 1153.13 1205.62C1236.13 1187.5 1313.68 1155 1390.93 1119.48C1543.11 1048.18 1689.5 960.387 1827.24 864.759C1889.49 821.388 1950.16 776.106 2009.81 727.643C2017.24 721.675 2024.64 715.675 2031.99 709.644C2013.31 725.206 1978.36 753.171 1975.12 755.642C1973.97 756.545 1966.69 762.228 1954.9 771.346C1938.32 784.155 1930.99 789.698 1929.62 790.743C1925.37 793.956 1928.13 791.812 1924.06 794.875C1893.81 817.63 1869.82 835.011 1841.46 855.015C1809.33 877.578 1792.59 888.989 1768.84 904.714C1766.18 906.537 1763.51 908.355 1760.84 910.167C1743.1 922.367 1635 990.533 1590.11 1015.52C1575.81 1023.73 1578.37 1022.32 1573.57 1025.05C1570.56 1026.7 1571.52 1026.33 1534.7 1046.63C1515.94 1056.88 1510.59 1059.76 1501.1 1064.81C1495.9 1067.55 1496.71 1067.06 1489.27 1070.95C1447.17 1092.92 1410.87 1110.82 1367.15 1130.57C1354.83 1136.09 1354.78 1136.14 1352.04 1137.35C1341.95 1141.75 1325.07 1149.08 1298.24 1159.77C1256.54 1177.25 1168.53 1205.69 1130.09 1209.96C1124.71 1210.77 1120.88 1211.32 1116.63 1211.78C1109.89 1212.5 1107.43 1212.55 1106.28 1212.64C1085.42 1213.62 1097.78 1213.26 1084.72 1213.14C1077.62 1212.69 1067.77 1212.68 1052.66 1207.54C1040.98 1203.03 1038.21 1199.7 1035.94 1197.98C1033.93 1196.15 1032.79 1195.24 1029.94 1191.39C1029.53 1190.43 1028.62 1190.71 1025 1181.64C1014.88 1148.27 1036.78 1108.78 1055.11 1077.65C1057.01 1074.53 1058.89 1071.56 1060.71 1068.76C1065.98 1060.71 1069.98 1054.75 1078.25 1043.93C1089.94 1017.56 1211.23 920.559 1224.8 917.502C1225.94 916.824 1214.25 923.756 1232.79 912.569C1238.24 909.379 1243.76 906.235 1249.35 903.135C1258.55 897.882 1268.45 892.5 1277.56 887.746C1276.83 887.832 1333.8 860.905 1333.31 861.352C1339.48 858.644 1345.72 855.979 1352.01 853.355C1365.15 848.13 1374.14 844.292 1400.07 834.816C1404.04 833.311 1408.03 831.821 1412.03 830.347C1413.06 830.018 1414.08 829.69 1415.11 829.364C1428.8 824.286 1452.01 816.906 1454.87 816.033C1465.77 812.565 1473.57 810.154 1478.66 808.625C1497.33 802.868 1539.02 791.531 1561.18 786.203C1562.23 785.946 1561.17 786.118 1567.55 784.563C1579.07 781.786 1580.21 781.608 1595.68 777.961C1598.81 777.289 1602 776.612 1605.07 775.971C1608.34 775.234 1611.62 774.504 1614.9 773.781C1634.32 769.625 1653.92 765.734 1673.68 762.105C1655.69 765.343 1676.4 761.3 1695.73 758.063C1702.31 756.963 1696.49 758.045 1698.69 757.68C1701.58 756.762 1790.25 743.385 1796.15 743.011C1800.35 742.495 1804.57 741.991 1808.78 741.497C1810.9 741.187 1813.03 740.878 1815.15 740.573C1817.48 740.31 1819.81 740.051 1822.13 739.795C1845.29 736.774 1905.47 731.33 1916.47 730.606C1922.32 730.159 1917.06 730.252 1945.09 728.283C1946.06 728.274 1947.04 728.265 1948.02 728.257C1954.43 727.832 1960.84 727.43 1967.24 727.052C1979.21 726.308 1996.85 725.32 1997.41 725.233C2001.19 725.089 2004.97 724.953 2008.75 724.826C2018.91 724.11 2072.74 722.411 2094.62 722.395C2100.97 722.279 2107.31 722.186 2113.63 722.116C2122.17 722.125 2130.44 722.176 2139.16 722.27C2159.11 722.424 2138.04 722.19 2142.29 722.215C2151.4 722.142 2196.72 723.196 2193.68 723.023C2199.85 723.189 2205.82 723.372 2212.2 723.591C2215.42 723.752 2218.64 723.919 2221.85 724.092C2232.68 724.381 2250.81 725.015 2288.54 727.454C2291.74 727.71 2294.93 727.972 2298.12 728.241C2309.86 729.034 2321.48 729.914 2332.96 730.88C2335.31 731.154 2337.65 731.431 2339.99 731.712C2344.87 732.173 2350.1 732.685 2355.24 733.21C2365.73 734.096 2384.17 736.302 2393.4 737.382C2406.81 738.982 2396.69 737.455 2371.21 734.62C2373.05 734.354 2449.06 744.164 2465.65 747.483C2464.53 747.317 2463.4 747.151 2462.28 746.986C2444.98 744.114 2426.97 741.451 2408.84 739.074C2393.63 737.333 2443.14 743.707 2464.39 747.518C2466.14 747.837 2478.02 749.789 2500.28 754.079C2508.85 755.606 2541.81 762.605 2548.47 764.339C2598.91 777.266 2561.71 767.047 2611.35 781.831C2601.15 778.846 2629.32 786.93 2657.71 799.054C2659.94 799.999 2671.25 804.843 2682.45 810.6C2693.54 816.243 2702.38 821.719 2704.27 822.907C2720.37 833.586 2703.96 821.648 2725.19 837.547C2726.38 838.529 2727.55 839.517 2728.69 840.509C2730 841.654 2731.3 842.822 2732.55 843.989C2737.45 848.468 2741.81 853.057 2745.58 857.753C2768.72 888.916 2763.12 901.863 2762.5 914.195C2761.35 919.542 2763.55 912.585 2759.45 926.601C2758.83 928.4 2758.13 930.271 2757.17 932.526C2755.51 936.33 2753.31 941.37 2748.68 949.929C2726.08 988.6 2714.76 1000.77 2686.84 1030.39C2682.44 1034.99 2677.88 1039.62 2673.14 1044.28C2669.96 1047.31 2667.08 1049.99 2663.96 1052.86C2640.1 1075.02 2648.41 1066.98 2639.34 1075.01C2616.65 1095.39 2564.99 1133.81 2559.96 1137.15C2538.48 1152.23 2510.61 1170.84 2502.09 1176.22C2496.86 1179.54 2491.55 1182.85 2486.18 1186.17C2479.9 1190.12 2473.53 1194.08 2467.07 1198.03C2469.84 1196.14 2437.27 1215.79 2433.99 1217.56C2430.32 1219.91 2378.67 1248.56 2358.82 1258.57C2338.67 1269.13 2305.24 1285.56 2301.87 1287.13C2298.2 1288.95 2264.58 1304.9 2237.73 1316.76C2214.47 1328.53 2073.69 1383.86 2081.95 1379.76C2091.38 1376.28 2104.68 1371.28 2116.05 1366.91C2152.61 1355.58 2355.39 1264.61 2404.02 1234.13C2504.23 1178.32 2604.95 1113.15 2685.8 1031.17C2690.49 1026.32 2691.12 1025.54 2694.97 1021.41C2700.35 1015.84 2716.15 997.578 2720.85 991.267C2735.29 973.037 2749.79 949.806 2756.9 932.412C2760.24 924.503 2761.7 917.896 2762.39 913.109C2766.62 873.169 2741.96 851.438 2720.02 833.994C2713.48 827.734 2671.74 803.544 2642.91 793.451C2637.47 791.367 2631.77 789.287 2626.13 787.326C2642.68 792.718 2682.21 809.558 2698.51 819.885C2724.86 835.59 2735.24 846.521 2742.65 854.751C2745.25 857.722 2755.2 869.437 2759.72 883.772C2764.98 898.93 2762.78 915.948 2759.03 926.3C2758.14 928.946 2757.41 930.761 2756.76 932.354C2755.92 934.385 2755.25 935.997 2753.86 938.957C2740.56 967.742 2715.98 998.579 2697.26 1018.74C2705.34 1010.95 2657.41 1059.68 2654.39 1061.28C2649.91 1065.34 2644.58 1070.05 2635.14 1078.13C2617.26 1093.16 2619.5 1091.67 2595.57 1110.17C2589.88 1114.6 2584.06 1119.04 2578.11 1123.5C2577.88 1124.35 2500.6 1178.06 2477.66 1190.88C2477.63 1192.14 2578.81 1124.52 2586.17 1117.15C2634.74 1081.14 2701.76 1021.83 2734.48 972.027C2739.45 964.874 2750.45 947.184 2756.53 932.258C2763.22 916.669 2762.64 903.987 2762.59 901.685C2762.2 894.928 2762.65 901.023 2762.44 898.109C2757.75 868.593 2748.24 864.041 2748.61 862.78C2747.99 861.928 2751.21 866.66 2748.83 863.249ZM381.667 1430.83C398.527 1435.84 418.107 1441.51 434.26 1446.07C433.047 1445.68 431.836 1445.3 430.628 1444.91C423.263 1442.83 414.527 1440.34 406.415 1438C400.129 1436.15 393.926 1434.31 387.806 1432.47C385.75 1431.92 383.704 1431.37 381.667 1430.83ZM339.321 1417.74C323.919 1412.9 323.313 1412.76 319.82 1411.66C309.514 1408.38 300.846 1405.52 291.346 1402.37C302.085 1406.18 326.406 1413.91 339.321 1417.74ZM653.894 1499.89C650.429 1499.21 627.138 1494.81 600.798 1488.72C581.266 1484.44 561.711 1479.9 542.136 1475.09C575.343 1483.38 621.364 1493.56 637.934 1496.88C644.177 1498.16 645.381 1498.34 650.367 1499.34C679.129 1505.13 706.861 1510.13 709.967 1510.44C682.725 1505.76 658.352 1500.77 653.894 1499.89ZM481.089 1458.92C476.45 1457.71 471.849 1456.5 467.285 1455.29C478.247 1458.31 489.431 1461.35 500.838 1464.41C506.328 1465.88 511.818 1467.33 517.306 1468.76C512.865 1467.56 508.424 1466.34 503.983 1465.1C502.947 1464.83 501.911 1464.55 500.875 1464.27C494.203 1462.48 487.608 1460.7 481.089 1458.92ZM1770.81 1473.03C1760.61 1475.45 1750.23 1477.84 1740.21 1480.1C1740.77 1479.94 1752.27 1477.33 1756.66 1476.29C1756.64 1476.29 1756.62 1476.29 1756.6 1476.3C1761.41 1475.15 1759.35 1475.6 1768.08 1473.53C1768.99 1473.36 1769.9 1473.2 1770.81 1473.03ZM2041.6 701.453C2056.02 691.172 2175.86 582.464 2165.16 591.341C2160.43 596.177 2119.58 634.107 2107.43 644.722C2091.34 659.391 2046.05 698.271 2041.6 701.453ZM2249.91 505.211C2252.25 503.738 2181.93 576.075 2174.31 582.501C2175.8 581.041 2178.07 578.78 2180.04 576.841C2190.12 567.309 2235.39 521.389 2249.91 505.211ZM2320.76 1277.37C2313.53 1281.02 2306.23 1284.65 2298.85 1288.26C2300.76 1287.25 2302.67 1286.24 2304.57 1285.23C2310.01 1282.62 2315.41 1280 2320.76 1277.37ZM2620.22 785.242C2490.58 743.058 2354.63 730.105 2218.92 724.263C2230.98 724.748 2242.93 725.32 2254.77 725.979C2370.89 732.296 2495.93 746.715 2604.54 780.252C2609.88 781.882 2615.1 783.545 2620.22 785.242ZM691.42 1506.67C725.516 1512.86 754.493 1517.65 791.732 1522.8C756.214 1517.66 738.526 1514.99 703.881 1508.79C703.862 1508.79 703.843 1508.78 703.824 1508.78C699.691 1508.09 695.556 1507.39 691.42 1506.67ZM1464.28 1527.42C1453.83 1528.62 1443.34 1529.77 1432.82 1530.87C1445.47 1529.48 1458.07 1528.02 1470.61 1526.47C1468.51 1526.79 1466.4 1527.1 1464.28 1527.42ZM1451.6 817.67C1416.19 827.996 1330.57 861.81 1303.54 875.632C1301.84 876.465 1317.59 868.759 1292.01 880.999C1311.16 871.599 1325.37 865.419 1326.87 864.833C1332.86 862.132 1338.39 859.692 1344.23 857.176C1353.88 853.11 1363.66 849.146 1373.58 845.281C1372.48 845.627 1373.19 845.259 1388.6 839.474C1395.75 836.751 1402.35 834.303 1409.31 831.786C1412.26 830.776 1415.21 829.775 1418.17 828.782C1424.18 826.62 1430.23 824.492 1436.32 822.398C1460.24 814.582 1445.72 819.489 1451.6 817.67ZM1574.13 783.631C1567.86 783.152 1406.57 830.732 1479.53 808.715C1498.44 803.045 1517.97 797.598 1537.18 792.603C1521.38 796.965 1573.57 783.351 1578.08 782.496C1599.05 777.49 1625.4 771.946 1640.61 768.914C1653.66 766.295 1661.46 764.761 1670.71 763.038C1701.92 757.083 1751.86 749.45 1758.72 748.685C1734.17 752.236 1709.2 756.245 1683.96 760.763C1657.07 765.685 1633.59 769.995 1583.55 781.289C1571.18 784.202 1575.62 783.276 1574.13 783.631ZM1401.06 1534.16C1402.13 1534.36 1338.48 1539.81 1337.93 1539.62C1337.81 1539.62 1358.69 1538 1361.65 1537.72C1361.67 1537.72 1361.69 1537.72 1361.71 1537.72C1362.95 1537.61 1356.66 1538.08 1366.44 1537.25C1378.01 1536.29 1389.33 1535.28 1401.06 1534.16ZM1841.89 854.158C1849.77 850.376 2008.38 730.421 2011.98 725.488C2013.22 724.493 2011.52 725.917 2012.01 725.536C1976 754.868 1923.87 795.062 1888.23 820.986C1878.3 828.235 1881.24 826.019 1880.67 826.431C1880.65 826.448 1880.63 826.465 1880.6 826.482C1874.98 830.619 1849.52 849.024 1841.89 854.158ZM1247.05 904.902C1254.41 900.706 1261.9 896.588 1269.51 892.547C1271.5 891.545 1273.34 890.63 1275.24 889.693C1275.22 889.702 1275.2 889.71 1275.18 889.719C1265.89 894.512 1256.23 899.718 1247.05 904.902ZM1039.65 1106.72C1040.48 1104.95 1041.35 1103.16 1042.26 1101.34C1046.07 1093.92 1050.48 1086.1 1055.48 1077.87C1062.06 1067.06 1069.26 1056.52 1077.06 1046.25C1075.74 1047.96 1074.44 1049.68 1073.16 1051.4C1092.78 1025.2 1101.85 1016.54 1113.97 1003.98C1113.96 1003.99 1113.94 1004 1113.93 1004.02C1115.25 1002.7 1116.77 1001.04 1121.79 996.195C1132.42 985.154 1167.82 956.268 1172.31 953.493C1181.04 945.61 1110.77 1003.45 1100.88 1017.79C1095.73 1023.4 1089.88 1030.34 1086.99 1033.87C1083.76 1037.82 1079.18 1043.25 1071.87 1053.29C1070.68 1054.93 1062.89 1065.72 1055.54 1077.91C1048.66 1089.18 1042.85 1100.14 1039.65 1106.72ZM1301.72 1157.9C1295.56 1160.45 1282.9 1165.31 1278.35 1167.03C1277.26 1167.45 1285.78 1164.27 1275.48 1168.19C1272.56 1169.25 1269.67 1170.29 1266.78 1171.32C1278.15 1167.14 1289.8 1162.66 1301.72 1157.9ZM1293.26 1542.44C1295.02 1542.38 1329.74 1540.15 1331.36 1539.99C1352.11 1538.73 1280.37 1543.44 1293.26 1542.44ZM431.294 1444.22C445.757 1449.04 267.033 1395.12 248.94 1386.91C249.323 1387.27 292.645 1401.98 269.878 1394.35C292.175 1402.12 350.552 1420.64 364.289 1424.64C372.503 1427.11 374.674 1427.66 375.927 1428.03C380.224 1429.39 426.918 1443.11 431.294 1444.22ZM105.768 1327.24C120.291 1334.74 138.987 1343.43 153.939 1349.89C136.124 1342.14 115.091 1332.27 97.0303 1322.54C99.9087 1324.12 103.313 1325.94 105.768 1327.24ZM85.5412 1316.26C86.398 1317.54 33.7822 1284.47 24.5556 1271.44C36.2587 1284.63 61.5958 1302.89 85.5412 1316.26ZM1064.41 1545.32C1092.35 1546.03 1104.32 1546.55 1070.39 1545.61C1069.35 1545.57 1063.24 1545.29 1064.41 1545.32ZM1443.44 820.796C1438.51 822.075 1383.32 841.863 1379.79 843.533C1369.52 847.27 1406.16 833.325 1418.32 829.199C1438.26 822.317 1408.52 831.943 1457.87 815.901C1455.83 816.514 1453.79 817.131 1451.75 817.751C1480.56 808.622 1471.09 811.949 1476.27 810.359C1477.82 809.87 1495.8 804.54 1499.1 803.642C1539.82 792.139 1447.92 818.574 1443.44 820.796ZM1752.29 1476.49C1806.89 1463.51 1783.54 1469.42 1838.73 1455.22C1840.63 1455.08 1759.77 1475.17 1752.29 1476.49ZM1976.98 727.392C1919.53 730.681 1872.14 734.989 1818.7 741.152C1822.02 739.158 1991.95 725.376 1976.98 727.392ZM2332.18 407.901C2193.28 584.851 1991.93 752.382 1794.41 886.529C1772.84 901.131 1770.81 902.491 1763 907.682C1757.88 911.062 1758.74 910.424 1751.94 914.894C1627.46 996.369 1501.81 1068.32 1370.55 1128.06C1306.11 1157.01 1238.33 1184.32 1169.48 1201.2C1134.1 1209.27 1099.33 1216.23 1063.71 1209.75C1047.55 1206.71 1029.37 1196.76 1024.94 1178.55C1022.81 1170.71 1022.62 1162.2 1024.24 1152.01C1025.46 1144.53 1027.71 1136.29 1031.06 1127.3C1035.04 1116.79 1041.33 1101.95 1055.8 1078.06C1070.22 1053.88 1090.38 1029.89 1097.01 1022.75C1106.04 1011.9 1065.86 1059.95 1061.4 1069.41C1058.16 1074.44 1057.4 1075.8 1055.97 1078.17C1055.48 1078.98 1054.94 1079.89 1054.25 1081.04C1051.12 1086.32 1053.61 1081.97 1050.11 1088.01C1036.41 1112.24 1023.84 1138.85 1023.3 1164C1020.41 1196.55 1055.68 1212.77 1085.56 1212.09C1114.6 1212.87 1145.43 1207.01 1173.88 1200.02C1232.74 1185.12 1287.12 1164.12 1342.37 1140.4C1451.29 1093.06 1556.41 1035.98 1659.05 973.52C1684.17 958.125 1678.8 961.281 1680.1 960.5C1680.11 960.49 1680.13 960.48 1680.15 960.47C1812.44 878.562 1957.99 774.282 2082.46 665.475C2170.09 588.915 2253.15 506.699 2325.88 415.782C2327.99 413.156 2330.09 410.529 2332.18 407.901ZM1561.8 786.886C1547.74 790.721 1544.77 790.598 1494.32 804.979C1490.24 806.121 1486.17 807.277 1482.12 808.447C1508.39 800.618 1535.37 793.353 1561.88 786.865C1561.86 786.872 1561.83 786.879 1561.8 786.886ZM1241.25 908.723C1233.57 911.559 1134.88 976.112 1101.8 1017.52C1094.49 1023.72 1148.5 970.432 1164.17 960.314C1170.74 954.749 1210.43 925.826 1241.67 908.449C1241.53 908.54 1241.39 908.632 1241.25 908.723ZM622.959 1492.31C631.277 1494.09 639.592 1495.82 647.901 1497.51C627.152 1493.36 606.075 1488.85 585.647 1484.19C618.404 1491.69 651.964 1498.62 685.005 1504.73C678.846 1503.52 672.685 1502.29 666.521 1501.04C652.015 1498.27 637.495 1495.37 622.959 1492.31ZM730.775 1512.74C672.119 1502.64 733.351 1513.49 747.958 1515.59C756.712 1516.93 736.763 1513.76 730.775 1512.74ZM883.434 1533.04C856.098 1530.33 800.466 1523.12 820.209 1525.86C849.973 1529.5 869.02 1531.89 911.992 1535.81C905.625 1535.2 899.442 1534.57 893.171 1533.91C893.142 1533.91 893.113 1533.91 893.084 1533.91C889.869 1533.62 886.652 1533.33 883.434 1533.04ZM704.018 1508.02C665.772 1501.57 776.699 1520.35 741.837 1514.41C740.214 1514.21 705.513 1508.34 704.018 1508.02ZM2164.29 590.436C2167.73 587.28 2146.18 607.778 2138.82 614.53C2107.05 644.124 2065.76 680.177 2031.18 708.754C2033.75 706.59 2036.32 704.423 2038.89 702.252C2081.99 666.263 2123.82 629.144 2164.29 590.436ZM1921.25 795.458C1896.74 813.883 1871.71 832.13 1846.69 849.836C1844.36 851.494 1833.36 859.155 1841.5 853.408C1868.27 834.577 1895.05 815.124 1921.25 795.458ZM1752.51 750.361C1729.19 753.76 1796.35 744.353 1793.33 744.737C1779.69 746.496 1766.08 748.37 1752.51 750.361ZM1970.67 728.187C1955.95 729.036 1941.2 730.009 1926.44 731.111C1926.42 731.137 1926.4 731.163 1926.39 731.189C1941.17 730.061 1955.94 729.061 1970.67 728.187ZM2249.06 504.426C2238.39 516.178 2212.96 542.716 2196.2 559.319C2207.73 547.822 2234.12 520.739 2249.06 504.426ZM1409.53 832.739C1411.42 831.153 1323.82 866.224 1354.06 854.146C1372.13 846.641 1391.39 839.242 1409.53 832.739ZM1236.64 912.007C1253.86 901.887 1267.99 894.511 1264.21 896.398C1254.68 901.525 1245.34 906.777 1236.22 912.154C1236.36 912.105 1236.5 912.056 1236.64 912.007ZM988.209 1541.35C1021.84 1543.38 1056.11 1544.76 1089.76 1545.44C1088.51 1545.39 1087.26 1545.34 1086.01 1545.29C1053.56 1544.58 1020.5 1543.23 988.097 1541.27C988.134 1541.3 988.171 1541.32 988.209 1541.35ZM2261.97 490.018C2277.79 472.578 2292.57 455.636 2307.71 437.45C2292.58 455.672 2277.81 472.65 2262 490.127C2261.98 490.105 2261.95 490.083 2261.93 490.061C2261.94 490.047 2261.95 490.032 2261.97 490.018ZM530.322 1470.09C610.865 1489.68 544.657 1474 501.383 1462.38C490.204 1459.39 480.743 1456.84 475.407 1455.41C475.378 1455.4 475.35 1455.39 475.321 1455.39C472.974 1454.76 477.91 1456.19 474.003 1455.15C482.974 1457.58 492.092 1460.02 501.357 1462.47C502.696 1462.83 504.035 1463.18 505.375 1463.54C514.709 1466.06 524.041 1468.53 533.37 1470.94C536.449 1471.7 539.528 1472.46 542.606 1473.21C538.512 1472.18 534.417 1471.14 530.322 1470.09ZM133.474 1339.53C49.6705 1297.34 135.227 1342.87 178.124 1358.99C177.001 1358.64 141.899 1343.67 133.474 1339.53ZM364.309 1423.5C377.998 1427.67 392.128 1431.89 406.706 1436.14C408.575 1436.66 410.45 1437.19 412.333 1437.71C401.056 1434.43 390.045 1431.17 379.295 1427.94C374.243 1426.45 369.247 1424.98 364.309 1423.5ZM839.402 1527.3C863.052 1529.98 893.261 1534 817.224 1524.68C817.265 1524.67 817.308 1524.65 817.349 1524.63C820.386 1525.03 829.283 1526.17 829.769 1526.23C831.163 1526.39 829.532 1526.12 839.402 1527.3ZM4.75582 1233.06C4.58573 1231.79 4.39894 1230.97 4.27104 1226.87C4.37593 1222.86 3.85919 1215.73 10.0035 1203.31C13.5387 1196.48 19.3374 1189.28 24.7565 1183.88C26.1979 1182.34 27.7178 1180.81 29.315 1179.27C6.22957 1201.85 8.75587 1207.58 7.12331 1209.18C3.91452 1219.05 6.16044 1211.64 4.66055 1218.21C-2.1384 1236.6 24.8118 1271.19 13.7395 1255.2C11.8775 1252.28 9.32623 1247.73 7.62519 1243.32C5.71846 1238.52 4.94956 1234.31 4.75582 1233.06ZM39.5163 1282.93C36.4193 1280.41 46.3457 1288.64 44.0042 1286.74C42.8205 1285.84 34.7658 1279.39 28.8753 1273.53C22.1617 1266.93 18.2332 1261.74 21.3606 1265.69C25.3689 1270.41 30.5386 1275.5 34.8014 1279.28C36.376 1280.64 38.0117 1282.01 39.7092 1283.38C44.4475 1287.39 49.9536 1291.59 54.4686 1294.83C62.5061 1300.53 82.461 1313 59.6461 1298.1C67.677 1303.57 76.4748 1308.97 84.3631 1313.51C88.6187 1316.01 93.0599 1318.52 97.6896 1321.05C95.2829 1319.69 92.9285 1318.33 90.626 1316.98C73.2187 1307.25 55.6569 1296.39 39.5163 1282.93ZM185.178 1102.38C184.011 1102.75 182.848 1103.11 181.689 1103.48C215.23 1091.72 269.019 1075.9 238.503 1084.88C192.156 1099.16 145.937 1114.69 102.007 1134.77C99.1045 1136.14 96.5786 1137.35 93.4259 1138.9C125.713 1123.87 116.255 1128.64 145.21 1116.91C150.087 1115.08 136.078 1120.01 166.925 1108.73C165.826 1109.16 164.731 1109.59 163.641 1110.03C170.643 1107.47 177.826 1104.92 185.178 1102.38ZM481.828 1020.33C422.176 1034.95 487.932 1018.98 498.895 1016.27C498.876 1016.27 498.857 1016.28 498.838 1016.28C528.957 1008.73 464.234 1024.5 460.144 1025.54C454.806 1026.86 442.677 1029.59 414.066 1037.06C436.722 1031.36 459.251 1025.82 481.828 1020.33ZM287.87 1070.56C292.886 1069.15 290.097 1069.88 292.267 1069.27C292.286 1069.27 292.305 1069.26 292.324 1069.26C323.647 1060.2 399.632 1040.64 407.668 1038.55C384.137 1044.1 279.1 1072.39 272.77 1074.8C277.759 1073.39 282.793 1071.97 287.87 1070.56ZM71.9008 1150.09C54.0072 1160.13 94.0252 1137.98 104.776 1133.75C107.037 1132.76 89.4073 1140.25 71.9008 1150.09ZM1363.04 1535.41C1407.04 1531.67 1349.25 1536.74 1369.27 1535.11C1360.86 1535.82 1352.43 1536.5 1343.99 1537.13C1350.35 1536.58 1356.7 1536.01 1363.04 1535.41ZM2389.81 739.869C2379.62 738.679 2384.45 739.193 2383.56 739.086C2376.85 738.309 2370.45 737.662 2367.83 737.378C2319.2 732.367 2351.51 735.576 2352.07 735.595C2353.1 735.641 2340.27 734.294 2358.06 736.001C2368.81 737.118 2379.43 738.313 2389.9 739.584C2395.1 740.172 2400.27 740.779 2405.4 741.404C2426.25 744.204 2398.97 740.635 2395.96 740.402C2394.77 740.294 2414.22 742.733 2389.81 739.869ZM1442.11 1527.46C1449.27 1526.76 1466.73 1524.83 1449.6 1526.94C1449.58 1526.94 1449.56 1526.95 1449.54 1526.95C1446.37 1527.34 1433.43 1528.8 1429.44 1529.25C1400.95 1532.09 1411.91 1530.92 1442.11 1527.46ZM2576.91 774.907C2593.84 779.523 2610.62 784.69 2625.89 790.055C2625.62 789.896 2625.4 789.752 2625.15 789.601C2616.93 786.73 2608.38 783.947 2599.54 781.253C2596.45 780.276 2593.32 779.31 2590.15 778.355C2601.41 781.574 2612.21 784.932 2622.53 788.426C2635.55 792.944 2649.08 798.185 2660.95 803.418C2655.42 801.032 2649.68 798.696 2643.75 796.411C2673.9 808.888 2668.44 806.269 2692.49 818.898C2699.92 823.099 2709.08 828.864 2716.43 834.328C2726.69 841.654 2738.22 851.95 2745.66 861.934C2752.66 871.389 2754.73 877.179 2755.32 878.4C2755.78 879.693 2754.84 876.687 2750.92 870.019C2756.61 879.783 2760.93 891.272 2760.64 904.979C2760.61 906.103 2760.59 903.984 2760.57 904.977C2760.31 915.325 2757.78 923.836 2754.6 931.441C2736.43 969.557 2734.7 967.043 2729.7 975.407C2724.78 983.028 2705.25 1006.66 2704.33 1007.33C2703.67 1007.17 2748.6 957.795 2677.88 1035.2C2717.1 997.55 2749.58 944.57 2727.57 978.023C2732.76 970.892 2746.53 950.76 2754.55 931.418C2763.66 911.065 2759.66 892.594 2759.04 890.319C2757.3 883.693 2758.04 885.933 2754.92 878.209C2752.45 874.27 2749.32 858.969 2716.34 834.448C2712.19 831.378 2707.76 828.358 2703.06 825.391C2698.36 822.512 2694.91 820.545 2690.58 818.177C2698.68 822.737 2708.17 828.68 2716.09 834.599C2683.07 811.12 2652.27 800.062 2628.41 791.04C2608.91 784.162 2598.98 781.391 2607.61 784.138C2601.61 782.22 2595.46 780.345 2589.17 778.513C2585.14 777.293 2580.62 775.97 2576.91 774.907ZM1571.04 1509.96C1591.9 1506.49 1599.5 1505.32 1596.23 1505.91C1577.83 1509.12 1560.28 1511.72 1571.04 1509.96ZM2427.8 744.718C2451.22 748.004 2473.25 751.553 2496.8 756.009C2496.79 756.073 2496.78 756.137 2496.77 756.201C2473.23 751.682 2451.21 748.069 2427.8 744.718ZM1356.58 1535.8C1354.46 1536.02 1352.33 1536.24 1350.2 1536.45C1324.85 1538.28 1299.21 1540.09 1286.83 1540.7C1284.11 1540.84 1289.59 1540.46 1294.76 1540.14C1298 1540.08 1352.17 1536.28 1356.58 1535.8ZM309.744 1405.27C318.604 1408.18 327.682 1411.1 336.979 1414.05C336.481 1413.83 335.983 1413.62 335.486 1413.41C330.905 1411.96 326.377 1410.52 321.903 1409.08C317.806 1407.8 313.753 1406.54 309.744 1405.27ZM413.419 1437C430.714 1441.99 445.221 1446.07 461.865 1450.68C400.472 1433.41 451.562 1447.8 413.463 1436.85C413.448 1436.9 413.434 1436.95 413.419 1437ZM579.765 1480.97C577.751 1480.46 575.738 1479.96 573.724 1479.45C557.28 1475.59 540.824 1471.53 524.355 1467.29C534.799 1469.86 545.235 1472.36 555.666 1474.78C561.694 1476.25 567.721 1477.69 573.746 1479.1C575.752 1479.73 577.758 1480.35 579.765 1480.97ZM1932.67 732.469C1922.43 733.151 1886.88 736.1 1888.42 735.971C1903.13 734.59 1917.93 733.328 1932.71 732.195C1932.78 732.255 1932.85 732.316 1932.93 732.376C1935.01 732.19 1937.1 732.006 1939.18 731.825C1947.59 731.252 1955.98 730.721 1964.37 730.23C1968.59 729.913 1972.82 729.606 1977.03 729.31C1981.27 729.136 1985.55 728.969 1989.83 728.813C1949.27 731.147 1950.7 731.175 1942.25 731.708C1937.97 732.009 1935.26 732.247 1933.75 732.379C1933.39 732.409 1933.03 732.439 1932.67 732.469ZM2443.73 747.487C2394.68 740.193 2368.29 737.392 2332.98 734.261C2355.82 734.724 2500.08 753.79 2549.57 767.72C2554.76 769.028 2559.88 770.362 2564.92 771.72C2538.18 764.769 2518.56 760.877 2505.68 758.294C2495.13 756.22 2496.19 756.406 2495.39 756.246C2495.35 756.238 2495.31 756.231 2495.27 756.224C2469.84 751.483 2462.55 750.418 2443.73 747.487ZM1320.58 1538.23C1333.65 1537.3 1356.37 1535.52 1356.63 1535.6C1343.99 1536.65 1331.32 1537.62 1318.6 1538.5C1321.21 1538.3 1318.35 1538.39 1320.58 1538.23ZM598.95 1485.01C608.825 1487.22 632.521 1492.29 622.298 1490.21C620.466 1489.87 596.952 1484.64 610.714 1487.84C587.894 1482.8 593.365 1483.77 598.95 1485.01ZM2443.48 1208.52C2436.19 1212.79 2428.79 1217.05 2421.29 1221.3C2419.51 1222.25 2417.74 1223.2 2415.96 1224.15C2425.29 1218.95 2434.47 1213.74 2443.48 1208.52ZM1210.58 1543.29C1199.04 1543.82 1179.89 1544.01 1158.5 1544.32C1150.61 1544.37 1142.71 1544.39 1134.8 1544.37C1134.78 1544.37 1134.76 1544.37 1134.74 1544.37C1134.53 1544.3 1134.31 1544.24 1134.1 1544.18C1159.73 1544.26 1185.01 1543.96 1210.58 1543.29ZM2721.04 838.222C2723.02 839.752 2724.93 841.29 2726.78 842.85C2728.93 844.663 2730.97 846.493 2732.92 848.34C2739.94 855.195 2745 861.071 2750.24 869.618C2748.92 867.463 2747.47 865.318 2745.91 863.208C2744.54 861.353 2743.07 859.512 2741.51 857.685C2735.93 850.934 2727.63 843.328 2721.04 838.222ZM1071.97 1543.21C1099.48 1543.85 1109.8 1544.23 1074.64 1543.45C1059.8 1543.05 1043.09 1542.36 1071.97 1543.21ZM1416.21 832.154C1425.07 829.015 1434.03 825.949 1443.07 822.956C1446.16 821.981 1449.26 821.015 1452.37 820.057C1440.16 823.958 1428.11 827.99 1416.21 832.154ZM471.141 1452.83C472.212 1453.17 473.285 1453.51 474.36 1453.84C482.622 1456.1 491.008 1458.37 499.52 1460.64C497.391 1460.03 495.27 1459.42 493.157 1458.8C485.722 1456.8 478.383 1454.81 471.141 1452.83ZM1476.72 812.355C1483.9 810.173 1491.12 808.035 1498.39 805.94C1503.29 804.557 1508.2 803.193 1513.13 801.849C1506.27 803.767 1499.46 805.723 1492.68 807.716C1487.34 809.239 1482.02 810.785 1476.72 812.355ZM811.157 1522.63C821.765 1524.05 863.958 1529.28 825.917 1524.67C801.65 1521.59 809.565 1522.41 811.157 1522.63ZM754.644 1514.45C794.589 1520.31 764.639 1516.77 716.887 1508.34C764.982 1516.44 752.284 1514.01 754.644 1514.45ZM407.517 1434.53C406.521 1434.24 405.639 1434.07 397.715 1431.75C369.694 1423.58 332.765 1412.19 312.831 1405.71C263.953 1391.85 121.918 1335.68 106.816 1324.85C103.673 1323.28 110.82 1327.09 109.55 1326.44C108.577 1325.95 106.627 1324.96 104.03 1323.6C101.202 1322.12 97.9596 1320.4 95.0677 1318.82C89.275 1315.67 84.8688 1313.12 86.8707 1314.32C92.2987 1317.41 98.017 1320.52 104.031 1323.65C109.372 1326.44 114.671 1329.11 120.324 1331.87C131.586 1337.37 143.948 1343 154.763 1347.71C149.104 1345.17 144.287 1342.96 138.296 1340.14C194.487 1364.96 177.895 1357.08 193.377 1363.67C202.945 1367.39 212.911 1371.15 223.286 1374.95C245.778 1383.34 265.777 1390.38 289.386 1398.32C284.127 1396.53 278.951 1394.74 273.857 1392.96C308.331 1404.49 297.51 1400.86 315.81 1406.92C315.86 1406.89 315.909 1406.87 315.958 1406.84C348.096 1417.21 355.586 1419.22 361.946 1421.19C375.366 1425.22 395.574 1432.06 450.019 1446.85C473.218 1453.55 472.981 1452.97 487.038 1457.05C528.188 1467.87 449.984 1447.01 415.762 1436.96C415.743 1436.96 415.723 1436.95 415.704 1436.94C412.923 1436.14 417.322 1437.37 407.517 1434.53ZM612.953 1488.04C588.522 1482.78 685.226 1502.77 653.169 1496.5C648.404 1495.56 643.639 1494.61 638.872 1493.64C630.217 1491.82 621.559 1489.95 612.896 1488.03C612.915 1488.04 612.934 1488.04 612.953 1488.04ZM1533.45 1515.12C1623.29 1501.24 1572.25 1509.44 1541.83 1513.97C1535.74 1514.86 1532.39 1515.31 1533.45 1515.12ZM2374.96 738.633C2373.63 738.46 2372.3 738.288 2370.98 738.118C2401.03 741.08 2460.24 749.91 2458.99 750.081C2431.52 745.586 2402.7 741.715 2374.96 738.633ZM2611.81 785.774C2605.95 783.711 2579.54 775.993 2582.66 776.89C2594.33 780.137 2605.53 783.528 2616.23 787.061C2621.24 788.768 2625.89 790.41 2631.4 792.443C2623.56 789.576 2613.69 786.375 2611.81 785.774Z" fill="#43637C"/>
</svg>
