<svg width="746" height="721" viewBox="0 0 746 721" fill="none" xmlns="http://www.w3.org/2000/svg">
<path d="M393.132 155.373L473.332 69.706L501.612 168.745L393.132 155.373Z" fill="#6B7F94" stroke="#6B7F94" stroke-width="3.21474"/>
<path d="M506.002 54.2967L710.199 79.4678C728.701 81.7486 741.852 98.5966 739.571 117.099L730.918 187.292C728.637 205.794 711.789 218.945 693.287 216.664L489.09 191.493C470.587 189.212 457.437 172.364 459.718 153.862L468.371 83.6683C470.651 65.1661 487.499 52.0159 506.002 54.2967Z" fill="#6B7F94" stroke="#6B7F94" stroke-width="3.21474"/>
<rect x="73.7658" y="52.8427" width="668.667" height="514.359" rx="33.7548" transform="rotate(7.02733 73.7658 52.8427)" fill="#6B7F94" stroke="#6B7F94" stroke-width="3.21474"/>
<rect x="66.2893" y="113.46" width="668.667" height="527.218" rx="33.7548" transform="rotate(7.02733 66.2893 113.46)" fill="#6B7F94" stroke="#6B7F94" stroke-width="3.21474"/>
<path d="M467.821 92.0773C467.541 92.0249 467.219 91.9527 466.882 91.8922C466.748 91.8682 466.706 91.8483 466.664 91.8208C466.623 91.7932 466.582 91.7586 466.609 91.7171C466.616 91.7069 466.623 91.6971 466.631 91.6875C466.366 91.6426 466.264 91.6196 466.211 91.6015C466.183 91.5978 466.154 91.5939 466.125 91.5899C466.063 91.5813 466.051 91.5189 466.05 91.4597C466.044 91.446 466.039 91.4317 466.036 91.4169C465.978 91.4335 465.934 91.442 465.903 91.4496C465.843 91.4641 465.783 91.4502 465.745 91.3936C465.663 91.2732 465.701 90.8987 465.798 90.3646C465.72 90.3928 465.645 90.4148 465.57 90.4297C465.517 90.4403 465.461 90.4461 465.806 90.3209C465.821 90.2393 465.837 90.1543 465.855 90.066C465.921 89.7324 466.085 89.4596 466.399 88.9682C466.563 88.711 466.775 88.398 466.983 88.0981C466.08 88.3954 465.109 88.7026 464.444 88.9217C464.111 89.0312 463.835 89.1242 463.605 89.2032C463.595 89.2102 463.586 89.2171 463.576 89.2238C462.969 89.6514 463.005 89.5967 463.059 89.528C463.096 89.481 463.139 89.4287 463.237 89.3321C462.645 89.5434 462.51 89.6152 462.446 89.6476C462.398 89.6717 462.35 89.6955 463.18 89.206C463.34 89.1114 463.533 88.9978 463.747 88.8716C464.037 88.6308 464.521 88.2531 465.445 87.5808C465.84 87.2934 466.31 86.9561 466.81 86.5987C466.847 86.4306 466.88 86.2078 466.9 85.9109C466.888 85.9205 466.876 85.93 466.864 85.9393C466.285 86.396 466.083 86.5688 465.995 86.6556C465.928 86.7359 465.904 86.762 465.931 86.7266C465.946 86.708 465.963 86.6877 465.995 86.6556C466.128 86.4979 466.429 86.131 466.835 85.6114C466.865 85.5731 466.892 85.5381 466.917 85.5051C466.919 85.3844 466.922 85.267 466.926 85.1534C466.566 84.7263 466.278 84.3793 466.164 84.1785C465.967 83.8322 466.207 83.1908 466.385 82.8196C466.391 82.7997 466.398 82.7806 466.405 82.7623C466.516 82.462 466.57 82.197 466.723 81.8818C466.863 81.5922 466.958 81.3688 467.073 81.1627C467.179 80.9734 467.266 80.7591 467.43 80.5711C467.48 80.5139 467.532 80.4556 467.584 80.3977C467.549 80.4235 467.512 80.4504 467.472 80.4787C467.385 80.5408 467.337 80.5452 467.309 80.5271C467.169 80.4375 467.259 80.0744 467.34 79.8436C467.409 79.6452 467.582 79.5148 467.67 79.346C467.767 79.1597 467.913 79.0172 468.037 78.8529C468.174 78.6724 468.322 78.4845 468.468 78.3302C468.613 78.1775 468.78 78.0474 468.98 77.8776C469.028 77.8362 469.078 77.7952 469.128 77.7548C469.158 77.7201 469.189 77.6856 469.218 77.6513C469.358 77.4888 469.507 77.3061 469.688 77.1784C469.86 77.0572 470.029 76.9328 470.178 76.7825C470.256 76.7033 470.336 76.6229 470.415 76.543C470.445 76.5022 470.473 76.4611 470.498 76.4196C470.609 76.2408 470.741 76.0908 470.866 75.9265C471.022 75.7199 471.234 75.4787 471.389 75.3181C471.585 75.1155 471.855 74.8882 472.191 74.606L472.203 74.5965C472.402 74.4287 472.549 74.2796 472.702 74.134C472.766 74.0727 472.833 74.0143 472.899 73.9551C472.913 73.9349 472.927 73.9143 472.941 73.8931C473.052 73.727 473.176 73.5211 473.341 73.3216C473.482 73.1519 473.622 72.991 473.798 72.8322C473.865 72.7718 473.93 72.7111 473.998 72.6513C474.092 72.5677 474.192 72.4858 474.306 72.409C474.485 72.2886 474.821 71.901 474.775 72.0563C474.762 72.0998 474.682 72.3431 474.44 72.6442C474.211 72.9295 474.071 73.0914 473.932 73.2538C473.792 73.4162 473.623 73.547 473.352 73.833C473.18 74.0137 472.935 74.2122 472.72 74.4055C472.56 74.5502 472.416 74.6728 472.259 74.8123C472.013 75.0301 471.766 75.2739 471.571 75.4163C471.419 75.5753 471.25 75.6824 471.134 75.8163C471.017 75.952 470.872 76.0676 470.739 76.2026C470.696 76.2647 470.659 76.3278 470.629 76.3909C470.59 76.4724 470.508 76.5587 470.445 76.6503C470.572 76.5292 470.712 76.4223 470.861 76.3222C471.058 76.1904 471.213 76.0145 471.4 75.8951C471.579 75.7807 471.711 75.612 471.904 75.5085C471.924 75.4975 471.944 75.4865 471.964 75.4754C472.091 75.3491 472.242 75.2167 472.362 75.0778C472.502 74.9153 472.625 74.7378 472.788 74.592C472.965 74.4341 473.068 74.2405 473.223 74.0996C473.433 73.9086 473.655 73.683 473.863 73.5132C474.055 73.3571 474.236 73.1657 474.438 73.1585C474.483 73.1569 474.54 73.1754 474.536 73.2085C474.527 73.2821 474.484 73.3663 474.446 73.4518C474.363 73.6365 474.261 73.8684 474.144 74.0801C474.047 74.2553 473.869 74.3253 473.695 74.4433C473.499 74.5762 473.266 74.7195 473.061 74.8586C472.865 74.9915 472.674 75.0873 472.482 75.1835C472.31 75.2702 472.148 75.3736 471.964 75.4754C471.923 75.5169 471.884 75.5577 471.849 75.5978C471.704 75.7667 471.464 75.9386 471.243 76.1509C470.992 76.3917 470.652 76.7052 470.476 76.9091C470.441 76.9498 470.407 76.99 470.394 76.9669C470.334 76.8548 470.378 76.7495 470.445 76.6503C470.42 76.6747 470.395 76.6997 470.371 76.7254C470.269 76.8324 470.149 76.9161 470.028 77.0123C469.858 77.2186 469.704 77.4211 469.579 77.5701C469.413 77.7665 469.264 77.9201 469.118 78.0889C468.979 78.2514 468.707 78.6878 468.357 78.7494C468.334 78.7534 468.353 78.7106 468.382 78.6698C468.5 78.5046 468.629 78.335 468.757 78.1776C468.864 78.0458 468.999 77.8998 469.128 77.7548C469.078 77.7952 469.028 77.8362 468.98 77.8776C468.78 78.0474 468.613 78.1775 468.468 78.3302C468.322 78.4845 468.174 78.6724 468.037 78.8529C467.913 79.0172 467.767 79.1597 467.67 79.346C467.582 79.5148 467.409 79.6452 467.34 79.8436C467.259 80.0744 467.169 80.4375 467.309 80.5271C467.337 80.5452 467.385 80.5408 467.472 80.4787C467.512 80.4504 467.549 80.4235 467.584 80.3977C467.742 80.2229 467.905 80.0523 468.04 79.9287C468.08 79.892 468.122 79.8533 468.166 79.8132C468.235 79.665 468.354 79.5134 468.518 79.2568C468.65 79.0512 468.809 78.9034 468.995 78.7839C469.261 78.6134 469.527 78.4087 469.739 78.2105C469.956 78.0068 470.17 77.9145 470.381 77.7729C470.385 77.7689 470.389 77.7649 470.393 77.7609C470.478 77.6569 470.558 77.5613 470.656 77.4872C470.764 77.3815 470.876 77.2761 470.978 77.1428C471.13 76.9446 471.276 76.7886 471.459 76.5813C471.65 76.3653 471.802 76.1545 471.993 76.0117C472.224 75.8385 472.477 75.6507 472.716 75.4804C472.913 75.3402 473.12 75.23 473.315 75.0531C473.521 74.8654 473.652 74.724 473.843 74.5177L473.853 74.5063C474.008 74.3384 474.336 73.9111 474.259 74.0564C474.17 74.2265 473.913 74.5798 473.654 74.9021C473.495 75.0997 473.325 75.2894 473.163 75.4846C473.045 75.6276 472.922 75.7771 472.772 75.9305C472.916 75.8245 473.054 75.7226 473.168 75.6404C473.505 75.3979 473.79 75.0115 474.032 75.1128C474.06 75.1245 474.06 75.185 474.037 75.2487C473.911 75.6014 473.712 76.071 473.549 76.2948C473.414 76.4805 473.278 76.6796 473.087 76.8285C472.877 76.9921 472.59 77.1081 472.185 77.4655C472.09 77.6137 471.923 77.8457 471.616 78.2528C471.083 78.9599 470.132 80.1899 469.348 81.1056C468.822 81.7208 468.384 82.1774 468.056 82.5072C468.002 82.6529 467.952 82.7921 467.908 82.9214C467.653 83.6734 467.588 84.0799 467.559 84.4362C467.553 84.5152 467.548 84.5912 467.545 84.6638C467.918 84.185 468.54 83.4113 469.069 82.8636C469.994 81.905 470.601 81.5917 470.745 81.4527C470.758 81.4402 470.77 81.4276 470.783 81.4151C471.089 81.0068 471.113 80.9828 471.109 80.9884C471.074 81.0472 470.961 81.2331 470.783 81.4151C470.707 81.5161 470.614 81.6405 470.499 81.7939C469.922 82.5673 468.804 84.0728 468.21 84.8092C468.142 84.8937 468.082 84.9674 468.027 85.0315C468.691 84.5173 469.394 83.977 469.823 83.6498C470.533 83.1088 470.496 83.1472 470.471 83.1907C470.426 83.2709 470.046 83.7464 469.342 84.7906C469.787 84.4711 470.194 84.177 470.527 83.9324C470.993 83.5901 471.312 83.3457 471.535 83.1672C471.581 83.117 471.625 83.0701 471.666 83.0263C472.13 82.5277 472.196 82.4766 472.211 82.4776C472.227 82.4786 472.191 82.5334 472.086 82.662C472.019 82.7438 471.924 82.8548 471.535 83.1672C471.106 83.6311 470.452 84.3642 469.769 85.2966C470.473 84.9346 470.712 84.8648 470.78 84.8729C470.83 84.8789 470.772 85.1376 470.644 85.5829C470.981 85.3474 471.18 85.2488 471.217 85.2704C471.259 85.2956 471.221 85.4188 471.029 85.7743C470.91 85.9955 470.721 86.3136 470.471 86.6877C471.354 86.1301 471.923 85.6952 471.861 85.7467C471.644 85.9281 471.076 86.3256 470.292 86.9496C470.227 87.042 470.159 87.1369 470.088 87.2338C470.052 87.3226 470.016 87.4084 469.98 87.4904C469.97 87.5149 469.959 87.5391 469.949 87.5628C469.981 87.5863 470.004 87.6033 470.017 87.6133C470.119 87.693 470.293 87.7715 470.389 87.9286C470.448 88.0248 470.497 88.1166 470.542 88.2167C471.001 88.0338 471.507 87.8836 472.057 87.7542C472.933 87.5478 473.499 87.5561 473.587 87.5743C473.604 87.5778 473.556 87.5927 472.42 88.0377C471.978 88.2107 471.371 88.4497 470.726 88.704C470.903 89.2356 470.904 89.4267 471.013 89.7185C471.154 90.0952 471.518 90.7161 471.626 91.1769C471.7 91.494 472.087 92.4546 472 93.238C471.973 93.4782 471.944 93.6962 471.917 93.8847C471.984 93.9045 472.027 93.9231 472.042 93.9402C472.068 93.9686 472.014 93.9926 471.898 94.0124C471.859 94.2782 471.824 94.4709 471.806 94.5641C471.743 94.8936 471.722 95.2907 471.507 95.8363C471.355 96.2213 471.235 96.8014 470.596 97.579C470.183 98.0813 469.994 98.4665 469.753 98.6549C469.538 98.8229 469.381 98.9329 469.172 99.0016C469.166 99.0037 469.159 99.0058 469.153 99.008C469.183 99.0137 469.213 99.0193 469.243 99.0247C469.32 99.0385 469.27 99.0724 469.2 99.0939C469.15 99.1091 469.09 99.1227 468.856 99.1098C468.72 99.1531 468.591 99.1828 468.455 99.1745C468.344 99.1678 468.168 99.156 467.956 99.1406C468.664 99.2451 469.066 99.2792 468.974 99.2905C468.853 99.3054 468.062 99.2232 466.936 99.077C466.816 99.0615 466.701 99.0448 466.59 99.0274C466.484 99.0173 466.381 99.007 466.284 98.9967C465.842 98.9495 465.525 98.8834 465.428 98.8611C465.218 98.8125 463.704 98.5625 464.008 98.5963C464.628 98.6653 465.091 98.7526 465.232 98.7773C465.602 98.8417 466.046 98.9426 466.59 99.0274C467.045 99.071 467.563 99.112 467.956 99.1406C467.737 99.1081 467.488 99.0689 467.215 99.0214C466.772 98.9444 466.592 98.924 466.369 98.8723C466.026 98.7928 463.3 98.4119 464.49 98.5586C465.067 98.6298 465.677 98.7344 466.283 98.8171C466.845 98.8938 467.895 99.0232 468.467 99.0784C468.634 99.0946 468.76 99.1044 468.856 99.1098C468.951 99.0797 469.048 99.043 469.153 99.008C468.924 98.9641 468.715 98.9143 468.564 98.8888C468.074 98.8057 467.373 98.6655 466.776 98.5786C465.758 98.4305 465.532 98.3461 465.227 98.2979C464.576 98.195 464.183 98.2023 463.967 98.0377C463.886 97.9753 464.293 98.0383 464.983 98.0734C465.293 98.0892 465.756 98.1759 466.373 98.1999C466.639 98.2102 466.914 98.2067 467.26 98.2796C467.685 98.3692 468.173 98.5239 468.805 98.5445C469.216 98.5579 469.619 98.6409 469.867 98.533C470.001 98.4748 469.442 98.405 468.515 98.2396C468.109 98.1671 467.598 98.1781 466.984 97.9983C466.719 97.9208 466.382 97.9063 465.948 97.7886C465.594 97.6925 465.277 97.6151 465.015 97.5463C464.913 97.5196 464.805 97.4894 464.694 97.4603C464.537 97.4391 464.395 97.4196 464.281 97.4038C463.785 97.3353 463.831 97.3261 463.92 97.3295C464.193 97.3398 464.454 97.3977 464.694 97.4603C465.215 97.5307 465.903 97.6195 466.309 97.6536C466.881 97.7017 467.372 97.7282 467.847 97.7685C468.437 97.8186 468.8 97.8948 469.221 97.8329C469.305 97.8206 469.369 97.7882 469.285 97.7737C468.985 97.7219 468.665 97.652 468.452 97.6188C468.225 97.5834 467.422 97.353 466.341 97.1264C465.827 97.0186 465.595 96.9565 465.164 96.8995C464.356 96.7924 463.922 96.7236 464.043 96.7087L464.047 96.7082C464.169 96.6932 464.387 96.6664 465.44 96.7461C466.072 96.794 467.126 96.8943 467.843 96.945C468.56 96.9957 468.93 96.9983 469.146 96.9937C469.558 96.985 470.187 97.0402 470.021 96.9147C469.89 96.816 469.556 96.6567 468.828 96.4527C468.701 96.417 468.546 96.3748 468.367 96.3293C468.803 96.4719 469.274 96.6083 469.517 96.6945C469.848 96.8112 469.744 96.8132 468.617 96.6375C467.489 96.4618 465.342 96.1082 464.363 95.9122C463.384 95.7162 463.639 95.6884 464.261 95.7197C464.883 95.751 465.864 95.8423 466.749 95.988C467.375 96.091 467.938 96.2197 468.367 96.3293C468.213 96.2787 468.063 96.2273 467.929 96.177C467.677 96.0823 467.466 96.0055 467.291 95.9415C466.402 95.8292 465.513 95.7159 464.903 95.6338C463.612 95.4598 463.66 95.4361 463.715 95.4128C463.831 95.3642 463.942 95.3358 464.047 95.3264C464.314 95.3025 464.534 95.4981 465.426 95.3998C465.548 95.3863 465.663 95.3846 465.769 95.3915C465.713 95.3438 465.666 95.2922 465.629 95.2362C465.591 95.1788 465.569 95.1169 465.577 95.0577C465.585 94.9986 465.621 94.9438 465.678 94.9136C465.734 94.8833 465.809 94.8777 466.619 94.9168C467.429 94.9559 468.929 95.0372 469.749 95.0711C470.568 95.1051 470.703 95.0921 470.842 95.0639C470.981 95.0357 471.119 94.9935 470.922 94.9015C470.726 94.8096 470.21 94.6719 469.019 94.4958C467.829 94.3196 466.021 94.0871 465.059 94.0157C463.994 93.9367 463.768 93.9384 463.623 93.9206C463.595 93.9171 463.653 93.9243 464.642 93.9394C465.291 93.9493 466.318 93.9898 467.277 93.9861C466.03 93.9011 465.064 93.7746 464.593 93.6816C463.994 93.5634 464.238 93.5046 464.434 93.446C464.63 93.3874 464.77 93.3306 465.114 93.2609C465.137 93.256 465.162 93.2512 465.188 93.2462C465.303 93.1473 465.524 93.0221 465.809 92.8845C465.552 92.8253 465.34 92.7696 465.155 92.7173C464.592 92.5578 464.297 92.4325 464.122 92.3436C463.947 92.2548 463.894 92.2038 464.52 92.2054C465.146 92.207 466.413 92.2973 467.132 92.2734C467.194 92.2714 467.255 92.269 467.314 92.2665C467.403 92.2404 467.492 92.2185 467.578 92.2002C467.659 92.1592 467.74 92.1181 467.821 92.0773Z" fill="#6B7F94"/>
<path d="M470.789 92.2018C470.626 92.1965 469.802 92.125 469.335 92.1121C468.974 92.1021 468.706 92.1245 468.509 92.1448C468.167 92.1799 467.554 92.013 466.882 91.8922C466.748 91.8682 466.706 91.8483 466.664 91.8208C466.623 91.7932 466.582 91.7586 466.609 91.7171C466.808 91.4075 467.729 91.3778 468.527 91.3548C469.307 91.3322 470.071 91.6934 470.518 91.9501C470.69 92.0491 470.74 92.1051 470.678 92.1352C470.216 92.3589 469.87 92.1481 469.145 92.0664C468.537 91.9979 467.449 91.8206 466.859 91.7252C466.269 91.6298 466.212 91.6081 466.163 91.5796C466.114 91.5511 466.074 91.5165 466.05 91.4613C465.998 91.3389 466.041 91.1688 466.097 91.0189C466.186 90.7774 466.618 90.5975 467.681 90.2651C468.229 90.0939 468.549 90.1015 468.801 90.184C468.993 90.2467 468.727 90.6156 468.57 90.7978C468.258 91.1604 467.805 91.3091 467.377 91.5038C466.972 91.6878 466.552 91.649 466.125 91.5899C466.042 91.5784 466.049 91.4695 466.05 91.4018C466.051 91.2756 466.142 91.0771 466.351 90.7675C466.625 90.3622 467.157 89.9771 467.697 89.5957C468.119 89.2971 468.548 89.1302 468.987 88.9606C469.211 88.8739 469.429 88.7619 469.886 88.6237C471.019 88.2811 471.861 88.1025 471.993 88.0661C472.112 88.0333 471.652 88.24 471.308 88.3761C471.086 88.464 470.774 88.6073 469.771 88.9602C468.769 89.313 467.086 89.8754 466.256 90.1623C465.426 90.4492 465.501 90.4436 465.57 90.4297C465.873 90.3693 466.16 90.196 466.776 89.953C467.289 89.7508 468.192 89.3496 468.795 89.0684C469.398 88.7871 469.669 88.6281 469.965 88.4767C470.567 88.1694 471.266 87.9402 472.057 87.7542C472.933 87.5478 473.499 87.5561 473.587 87.5743C473.604 87.5778 473.556 87.5927 472.42 88.0377C471.284 88.4826 469.058 89.363 467.889 89.8212C466.719 90.2793 466.674 90.2885 466.666 90.2285C466.64 90.0394 466.909 89.5737 467.363 88.8544C467.613 88.4576 467.962 88.0346 468.369 87.589C468.776 87.1435 469.246 86.698 469.715 86.304C470.614 85.5497 471.154 85.2333 471.217 85.2704C471.259 85.2956 471.221 85.4188 471.029 85.7743C470.838 86.1297 470.467 86.7354 469.948 87.4216C469.43 88.1078 468.775 88.8562 468.388 89.2874C467.752 89.9947 467.583 90.191 467.531 90.2446C467.52 90.2556 467.574 90.2505 467.607 90.2248C467.804 90.0736 467.813 89.6528 468.253 88.9769C468.431 88.704 468.728 88.3811 469.079 88.0264C469.429 87.6717 469.844 87.3083 470.163 87.0526C471.014 86.3691 471.633 85.9379 471.861 85.7467C471.925 85.6934 471.313 86.1614 470.376 86.7471C469.889 87.052 469.326 87.2893 468.211 87.6824C467.097 88.0755 465.433 88.5959 464.444 88.9216C462.791 89.4658 462.541 89.5996 462.446 89.6476C462.398 89.6717 462.35 89.6955 463.18 89.206C464.009 88.7165 465.717 87.713 466.738 87.132C467.759 86.551 468.041 86.423 468.409 86.2364C469.746 85.5572 469.862 85.4034 469.911 85.3717C469.967 85.3351 469.885 85.5843 469.517 86.2879C469.189 86.914 468.514 88.0533 468.122 88.7119C467.642 89.5169 467.441 89.7688 467.23 90.0855C467.1 90.2817 466.9 90.5353 466.79 90.6889C466.68 90.8424 466.66 90.8844 466.71 90.7136C466.761 90.5428 466.882 90.1581 467.36 89.2338C467.838 88.3095 468.668 86.8573 469.515 85.6502C470.362 84.443 471.201 83.5249 471.666 83.0263C472.13 82.5277 472.196 82.4766 472.211 82.4776C472.227 82.4786 472.191 82.5334 472.086 82.662C471.98 82.7905 471.808 82.9913 470.527 83.9324C469.247 84.8735 466.864 86.5488 465.445 87.5808C464.027 88.6127 463.645 88.9505 463.413 89.1647C463.182 89.3789 463.113 89.4592 463.059 89.528C463.005 89.5967 462.969 89.6514 463.576 89.2238C464.184 88.7963 465.436 87.8847 466.621 87.1189C467.806 86.3531 468.886 85.7608 469.551 85.4099C470.426 84.9488 470.706 84.864 470.78 84.8729C470.853 84.8817 470.698 85.4265 470.426 86.303C470.29 86.739 470.128 87.1468 469.98 87.4904C469.833 87.834 469.697 88.0985 469.475 88.4456C469.253 88.7926 468.949 89.2141 468.481 89.6742C468.014 90.1343 467.391 90.6201 467.009 90.8924C466.328 91.3769 466.026 91.4199 465.903 91.4496C465.843 91.4641 465.783 91.4502 465.745 91.3936C465.649 91.2519 465.718 90.7579 465.855 90.066C465.921 89.7324 466.085 89.4596 466.399 88.9682C466.713 88.4768 467.198 87.7816 467.507 87.3641C468.088 86.58 468.632 86.1369 468.936 85.9989C469.126 85.9127 468.957 86.5601 468.886 87.1945C468.845 87.5706 468.446 88.0512 467.695 88.6925C467.541 88.8237 467.435 88.856 467.363 88.8851C467.291 88.9142 467.246 88.9234 467.231 88.8625C467.184 88.6762 467.437 88.0847 467.972 87.0035C468.291 86.3586 468.816 85.5755 469.25 84.9275C470.013 83.7877 470.424 83.2743 470.471 83.1907C470.496 83.1472 470.533 83.1088 469.823 83.6498C469.113 84.1908 467.657 85.3141 466.864 85.9393C466.071 86.5646 465.986 86.6577 465.931 86.7266C465.849 86.8315 466.222 86.3953 466.835 85.6114C467.066 85.316 467.118 85.2163 467.48 84.7485C467.842 84.2808 468.507 83.445 469.069 82.8636C469.994 81.905 470.601 81.5917 470.745 81.4527C470.945 81.2594 471.071 81.0513 471.109 80.9884C471.113 80.9814 471.076 81.0205 470.499 81.7939C469.922 82.5673 468.804 84.0728 468.21 84.8092C467.617 85.5456 467.582 85.4673 467.56 85.2785C467.539 85.0896 467.531 84.7925 467.559 84.4362C467.588 84.0799 467.653 83.6734 467.908 82.9214C468.164 82.1694 468.609 81.0842 468.961 80.3108C469.312 79.5375 469.558 79.1088 469.719 78.8477C469.935 78.4974 470.202 78.2685 470.599 77.952C471.036 77.6027 471.636 77.2941 472.149 77.0802C472.321 77.0082 472.35 77.1093 472.305 77.2381C472.26 77.3669 472.149 77.5457 471.616 78.2528C471.083 78.9599 470.132 80.1899 469.348 81.1056C468.565 82.0214 467.977 82.5855 467.656 82.9035C467.1 83.4546 466.684 83.903 466.518 84.0261C466.298 84.1895 466.69 83.4731 467.291 82.4071C467.498 82.0388 467.805 81.6733 468.239 81.1875C468.672 80.7017 469.247 80.1212 469.6 79.7846C470.338 79.08 470.904 78.6386 471.18 78.4032C471.393 78.2223 471.658 77.984 471.94 77.6974C472.479 77.1505 472.838 77.0232 473.087 76.8285C473.278 76.6796 473.414 76.4805 473.549 76.2948C473.712 76.071 473.911 75.6014 474.037 75.2487C474.06 75.185 474.06 75.1245 474.032 75.1128C473.79 75.0115 473.505 75.3979 473.168 75.6404C472.806 75.901 472.205 76.3584 471.952 76.5228C471.475 76.8331 470.873 77.3319 470.676 77.4721C470.487 77.6068 470.364 77.8219 470.159 78.0288C469.991 78.1979 469.817 78.3825 469.645 78.5563C469.474 78.7294 469.207 78.965 468.985 79.1181C468.748 79.2826 468.33 79.6627 468.04 79.9287C467.861 80.0932 467.631 80.341 467.43 80.5711C467.266 80.7591 467.179 80.9734 467.073 81.1627C466.958 81.3688 466.863 81.5922 466.723 81.8818C466.57 82.197 466.516 82.462 466.405 82.7623C466.321 82.9873 466.273 83.3427 466.347 83.6446C466.374 83.7546 466.699 83.4921 466.836 83.4243C466.974 83.3564 466.996 83.4184 466.993 83.5669C466.985 83.9501 466.934 84.6485 466.916 85.5194C466.891 86.7636 466.657 87.0262 466.616 87.1107C466.596 87.1533 466.576 87.1953 466.641 87.2632C466.829 87.4576 467.434 87.8376 468.281 88.59C468.736 88.9946 469.13 89.5648 469.389 89.9225C469.753 90.4244 469.827 90.662 469.824 90.8105C469.822 90.8995 469.784 91.0138 469.738 91.0839C469.692 91.1541 469.63 91.1761 469.007 91.4846C468.383 91.7931 467.199 92.3874 466.493 92.7557C465.328 93.3634 465.206 93.4575 465.156 93.4368C464.841 93.3061 465.881 92.8099 467.049 92.3561C467.836 92.0504 468.63 92.1151 468.781 92.1113C468.97 92.1065 468.274 92.2355 467.132 92.2734C466.413 92.2973 465.146 92.207 464.52 92.2054C463.894 92.2038 463.947 92.2548 464.122 92.3436C464.297 92.4325 464.592 92.5578 465.155 92.7173C465.717 92.8768 466.538 93.0667 468.092 93.2966C469.645 93.5265 471.908 93.7906 472.042 93.9402C472.177 94.0898 470.116 94.117 468.354 94.0448C466.592 93.9725 465.192 93.7999 464.593 93.6816C463.994 93.5634 464.238 93.5046 464.434 93.446C464.63 93.3874 464.77 93.3306 465.114 93.2609C465.457 93.1911 466 93.11 466.627 93.074C467.254 93.038 467.949 93.0495 468.423 93.0699C469.132 93.1003 469.774 93.2427 470.434 93.4061C470.692 93.4701 470.789 93.5172 470.815 93.5579C470.86 93.6271 470.284 93.7829 468.66 93.9331C467.497 94.0406 465.631 93.9545 464.642 93.9394C463.653 93.9243 463.595 93.9171 463.623 93.9206C463.768 93.9384 463.994 93.9367 465.059 94.0157C466.021 94.0871 467.829 94.3196 469.019 94.4958C470.21 94.6719 470.726 94.8096 470.922 94.9015C471.119 94.9935 470.981 95.0357 470.842 95.0639C470.703 95.0921 470.568 95.1051 469.749 95.0711C468.929 95.0372 467.429 94.9559 466.619 94.9168C465.809 94.8777 465.734 94.8833 465.678 94.9136C465.621 94.9438 465.585 94.9986 465.577 95.0577C465.569 95.1169 465.591 95.1788 465.629 95.2362C465.889 95.6314 466.664 95.8055 467.484 95.9589C468.13 96.0796 469.254 96.2145 469.979 96.304C470.703 96.3935 470.996 96.4149 469.871 96.2686C468.747 96.1223 466.195 95.8077 464.903 95.6338C463.612 95.4598 463.66 95.4361 463.715 95.4128C463.831 95.3642 463.942 95.3358 464.047 95.3264C464.314 95.3025 464.534 95.4981 465.426 95.3998C466.001 95.3364 466.399 95.5333 466.586 95.6534C466.748 95.7576 467.133 95.8776 467.929 96.177C468.439 96.3687 469.187 96.5777 469.517 96.6945C469.848 96.8112 469.744 96.8132 468.617 96.6375C467.489 96.4617 465.342 96.1082 464.363 95.9122C463.384 95.7162 463.639 95.6884 464.261 95.7197C464.883 95.751 465.864 95.8423 466.749 95.988C467.634 96.1337 468.395 96.3311 468.828 96.4527C469.556 96.6567 469.89 96.816 470.021 96.9147C470.187 97.0402 469.558 96.985 469.146 96.9937C468.93 96.9983 468.56 96.9957 467.843 96.945C467.126 96.8943 466.072 96.794 465.44 96.7461C464.375 96.6655 464.164 96.6939 464.043 96.7088C463.922 96.7236 464.356 96.7924 465.164 96.8995C465.595 96.9565 465.827 97.0186 466.341 97.1264C467.422 97.353 468.225 97.5834 468.452 97.6188C468.665 97.652 468.985 97.7219 469.285 97.7737C469.369 97.7882 469.305 97.8206 469.221 97.8329C468.8 97.8948 468.437 97.8186 467.847 97.7685C467.372 97.7282 466.881 97.7017 466.309 97.6536C465.781 97.6093 464.776 97.4723 464.281 97.4038C463.785 97.3353 463.831 97.3261 463.92 97.3295C464.321 97.3446 464.694 97.4622 465.015 97.5463C465.277 97.6151 465.594 97.6925 465.948 97.7886C466.382 97.9063 466.719 97.9208 466.984 97.9983C467.598 98.1781 468.109 98.1671 468.515 98.2396C469.442 98.405 470.001 98.4748 469.867 98.533C469.619 98.6409 469.216 98.5579 468.805 98.5445C468.173 98.5239 467.685 98.3692 467.26 98.2796C466.914 98.2067 466.639 98.2102 466.373 98.1999C465.756 98.1759 465.293 98.0892 464.983 98.0734C464.293 98.0383 463.886 97.9753 463.967 98.0377C464.183 98.2023 464.576 98.195 465.227 98.2979C465.532 98.3461 465.758 98.4305 466.776 98.5786C467.373 98.6655 468.074 98.8057 468.564 98.8888C468.735 98.9177 468.98 98.9774 469.243 99.0247C469.32 99.0385 469.27 99.0724 469.2 99.0939C469.13 99.1153 469.039 99.1337 468.467 99.0784C467.895 99.0232 466.845 98.8938 466.283 98.8171C465.677 98.7344 465.067 98.6298 464.49 98.5586C463.3 98.4119 466.026 98.7928 466.369 98.8723C466.592 98.924 466.772 98.9444 467.215 99.0214C468.366 99.2217 469.095 99.2756 468.974 99.2905C468.853 99.3054 468.062 99.2232 466.936 99.077C466.23 98.9854 465.678 98.8549 465.232 98.7773C465.091 98.7526 464.628 98.6653 464.008 98.5963C463.704 98.5625 465.218 98.8125 465.428 98.8611C465.525 98.8834 465.842 98.9495 466.284 98.9967C467.021 99.0752 468.092 99.1524 468.455 99.1745C468.691 99.1889 468.907 99.0887 469.172 99.0016C469.381 98.9329 469.538 98.8229 469.753 98.6549C469.994 98.4665 470.183 98.0813 470.596 97.579C471.235 96.8014 471.355 96.2213 471.507 95.8363C471.722 95.2907 471.743 94.8936 471.806 94.5641C471.838 94.3956 471.925 93.9013 472 93.238C472.087 92.4546 471.7 91.494 471.626 91.1769C471.518 90.7161 471.154 90.0952 471.013 89.7185C470.897 89.4076 470.904 89.211 470.689 88.5952C470.591 88.3142 470.514 88.1311 470.389 87.9286C470.293 87.7715 470.119 87.693 470.017 87.6133C469.917 87.5358 469.233 87.0486 468.181 86.366C467.67 86.0339 467.48 85.8132 467.195 85.4729C466.715 84.9009 466.305 84.4274 466.164 84.1785C465.946 83.7946 466.264 83.0482 466.44 82.709C466.642 82.3216 466.945 81.7692 467.087 81.5849C467.375 81.2116 467.792 80.8426 467.913 80.5876C468.013 80.3792 468.062 80.1133 468.133 79.8966C468.192 79.7181 468.324 79.5614 468.518 79.2568C468.65 79.0512 468.809 78.9034 468.995 78.7839C469.261 78.6134 469.527 78.4087 469.739 78.2105C469.965 77.9982 470.188 77.9069 470.408 77.7546C470.827 77.4646 471.007 77.3198 471.254 77.1411C471.526 76.9436 471.75 76.7536 471.952 76.636C472.179 76.5032 472.439 76.2562 472.686 76.0166C472.876 75.833 473.022 75.6543 473.163 75.4846C473.325 75.2894 473.495 75.0997 473.654 74.9021C473.913 74.5798 474.17 74.2265 474.259 74.0564C474.336 73.9111 474.008 74.3384 473.853 74.5063C473.657 74.7189 473.525 74.862 473.315 75.0531C473.12 75.23 472.913 75.3402 472.716 75.4804C472.477 75.6507 472.224 75.8385 471.993 76.0117C471.802 76.1545 471.65 76.3653 471.459 76.5813C471.276 76.7886 471.13 76.9446 470.978 77.1428C470.831 77.3356 470.661 77.47 470.514 77.6316C470.355 77.8068 470.198 77.9513 470.05 78.1201C469.869 78.3269 469.686 78.4713 469.489 78.6714C469.279 78.8856 469.09 79.0556 468.836 79.3011C468.612 79.5168 468.462 79.6663 468.203 79.8886C468.021 80.0447 467.874 80.1923 467.472 80.4787C467.385 80.5408 467.337 80.5452 467.309 80.5271C467.169 80.4375 467.259 80.0744 467.34 79.8436C467.409 79.6452 467.582 79.5148 467.67 79.346C467.767 79.1597 467.913 79.0172 468.037 78.8529C468.174 78.6724 468.322 78.4845 468.468 78.3302C468.613 78.1775 468.78 78.0474 468.98 77.8776C469.316 77.5926 469.691 77.3226 469.87 77.1497C470.04 76.9854 470.225 76.8796 470.371 76.7254C470.515 76.5726 470.682 76.4425 470.861 76.3222C471.058 76.1904 471.213 76.0145 471.4 75.8951C471.579 75.7807 471.711 75.612 471.904 75.5085C472.113 75.3963 472.291 75.2797 472.482 75.1835C472.674 75.0873 472.865 74.9915 473.061 74.8586C473.266 74.7195 473.499 74.5762 473.695 74.4433C473.869 74.3253 474.047 74.2553 474.144 74.0801C474.261 73.8684 474.363 73.6365 474.446 73.4518C474.484 73.3663 474.527 73.2821 474.536 73.2085C474.54 73.1754 474.483 73.1569 474.438 73.1585C474.236 73.1657 474.055 73.3571 473.863 73.5132C473.655 73.683 473.433 73.9086 473.223 74.0996C473.068 74.2405 472.965 74.4341 472.788 74.592C472.625 74.7378 472.502 74.9153 472.362 75.0778C472.203 75.2623 471.989 75.4354 471.849 75.5978C471.704 75.7667 471.464 75.9386 471.243 76.1509C470.992 76.3917 470.652 76.7052 470.476 76.9091C470.441 76.9498 470.407 76.99 470.394 76.9669C470.278 76.7513 470.548 76.5606 470.629 76.3909C470.718 76.2042 470.869 76.0169 471.046 75.859C471.209 75.7132 471.358 75.5684 471.555 75.4283C471.752 75.288 472.006 75.0364 472.259 74.8123C472.416 74.6728 472.56 74.5502 472.72 74.4055C472.935 74.2122 473.18 74.0137 473.352 73.833C473.623 73.547 473.792 73.4162 473.932 73.2538C474.071 73.0914 474.211 72.9295 474.44 72.6442C474.682 72.3431 474.762 72.0998 474.775 72.0563C474.821 71.901 474.485 72.2886 474.306 72.409C474.11 72.5408 473.958 72.6875 473.798 72.8322C473.622 72.991 473.482 73.1519 473.341 73.3216C473.176 73.5211 473.052 73.727 472.941 73.8931C472.818 74.0787 472.677 74.2192 472.567 74.3852C472.438 74.5785 472.258 74.7059 472.103 74.8738C471.906 75.0864 471.746 75.2259 471.598 75.3875C471.439 75.5627 471.257 75.6744 471.134 75.8163C471 75.9713 470.83 76.1001 470.683 76.2616C470.53 76.4299 470.349 76.6088 470.178 76.7825C470.029 76.9328 469.86 77.0572 469.688 77.1784C469.507 77.3061 469.358 77.4888 469.218 77.6513C469.065 77.8292 468.889 78.0143 468.757 78.1776C468.629 78.335 468.5 78.5046 468.382 78.6698C468.353 78.7106 468.334 78.7534 468.357 78.7494C468.707 78.6878 468.979 78.2514 469.118 78.0889C469.264 77.9201 469.413 77.7665 469.579 77.5701C469.724 77.3983 469.906 77.1553 470.108 76.9175C470.253 76.746 470.395 76.5866 470.498 76.4196C470.609 76.2408 470.741 76.0908 470.866 75.9265C471.022 75.7199 471.234 75.4787 471.389 75.3181C471.587 75.1132 471.861 74.8831 472.203 74.5965C472.402 74.4287 472.549 74.2796 472.702 74.134C472.855 73.9884 473.019 73.8594 473.159 73.6969C473.294 73.5404 473.394 73.3672 473.534 73.2048C473.674 73.0423 473.813 72.8805 473.946 72.7172C474.069 72.5648 474.188 72.3883 474.328 72.2259C474.467 72.0634 474.607 71.9016 474.746 71.7392C474.894 71.5673 475.064 71.3451 475.184 71.165C475.3 70.99 475.485 70.8434 475.682 70.7028C475.844 70.5869 476.086 70.5729 476.425 70.6143C476.497 70.638 476.537 70.6726 476.578 70.7077C476.619 70.7427 476.659 70.7773 476.7 70.8129" stroke="#6B7F94" stroke-width="1.30462" stroke-linecap="round"/>
<rect x="449.234" y="96.9414" width="288.974" height="41.0957" transform="rotate(7.02733 449.234 96.9414)" fill="#6B7F94"/>
<path d="M506.097 77.3688C511.146 78.5698 517.333 83.8722 512.644 88.727C509.276 92.21 499.389 92.1832 492.482 89.1166L491.961 93.5735L488.648 93.1861L490.522 77.1653C496.065 75.7072 501.526 76.2543 506.097 77.3688ZM502.85 90.5122C508.04 90.5086 510.784 87.9295 510.904 84.5551C511.209 76.9897 497.894 76.7758 493.834 77.5527L492.665 87.5506C493.713 88.2531 494.6 88.7538 494.57 88.7502C497.393 89.935 500.286 90.5175 502.85 90.5122ZM539.573 82.352L543.044 81.3842L541.062 98.3386C536.528 98.9989 528.795 98.0336 524.993 97.1311C522.232 96.4723 518.312 94.4877 516.849 92.1187L518.282 79.8622L521.754 78.8944L520.162 92.5061C522.148 96.4015 533.069 97.7702 537.788 97.6199L539.573 82.352ZM564.778 97.571C566.802 99.0592 568.121 100.831 568.774 102.556L566.395 102.278C565.485 100.401 564.094 98.9867 562.479 97.9127C558.319 98.2504 553.307 97.5117 549.303 95.7308L548.782 100.188L545.469 99.8003L547.343 83.7795C552.886 82.3214 558.343 82.8986 562.918 83.983C567.967 85.184 574.154 90.4864 569.465 95.3412C568.424 96.41 566.749 97.1605 564.778 97.571ZM559.671 97.1264C560.13 97.119 560.589 97.1116 561.055 97.044C557.739 95.3742 553.798 94.8827 550.734 94.9823C551.134 95.2123 551.391 95.3644 551.391 95.3644C554.213 96.5492 557.106 97.1317 559.671 97.1264ZM557.112 94.4766C559.533 94.9124 561.581 95.6709 563.274 96.6014C566.125 95.7138 567.647 93.6633 567.725 91.1693C568.026 83.634 554.714 83.39 550.655 84.1669L549.497 94.0745C551.758 93.7895 554.75 94.0478 557.112 94.4766ZM592.893 100.859C594.917 102.347 596.236 104.119 596.889 105.844L594.51 105.566C593.6 103.689 592.208 102.275 590.594 101.2C586.433 101.538 581.422 100.799 577.417 99.0185L576.896 103.475L573.584 103.088L575.457 87.0673C581 85.6092 586.458 86.1864 591.032 87.2708C596.081 88.4717 602.268 93.7742 597.58 98.629C596.539 99.6978 594.864 100.448 592.893 100.859ZM587.786 100.414C588.244 100.407 588.703 100.399 589.169 100.332C585.854 98.662 581.912 98.1705 578.848 98.2701C579.249 98.5001 579.506 98.6522 579.506 98.6522C582.328 99.837 585.221 100.42 587.786 100.414ZM585.226 97.7644C587.648 98.2002 589.696 98.9586 591.388 99.8892C594.239 99.0015 595.761 96.9511 595.839 94.4571C596.14 86.9218 582.829 86.6778 578.77 87.4547L577.611 97.3623C579.873 97.0773 582.865 97.3356 585.226 97.7644ZM600.397 88.0911L625 90.9683L624.782 92.8354L614.151 91.5922L612.278 107.613L608.935 107.222L610.809 91.2013L600.178 89.9582L600.397 88.0911ZM636.095 92.2657L644.904 111.428L641.381 111.016L639.962 108.012C637.696 104.419 630.114 103.471 625.396 104.141L621.656 108.71L620.241 108.544L633.049 93.2527L636.095 92.2657ZM634.085 103.447C635.761 103.735 637.152 104.111 638.401 104.654L633.485 94.2195L626.286 103.054C628.578 102.773 631.66 103.042 634.085 103.447ZM644.362 93.2326L668.966 96.1097L668.747 97.9768L658.117 96.7337L656.243 112.754L652.901 112.364L654.774 96.3428L644.144 95.0996L644.362 93.2326ZM681.637 97.5916C688.292 98.3698 693.669 101.471 692.908 107.976C692.116 114.752 685.832 116.276 679.538 115.54C673.274 114.807 667.512 111.874 668.305 105.099C669.065 98.594 675.012 96.8168 681.637 97.5916ZM686.101 113.193C687.926 111.942 689.237 109.867 689.502 107.608C689.766 105.349 689.137 102.895 687.623 101.222C686.106 99.5794 683.767 98.6954 681.539 98.4348C679.34 98.1777 676.861 98.4982 675.002 99.7766C673.146 101.025 671.938 103.265 671.704 105.527C671.41 107.782 672.237 110.107 673.724 111.746C675.238 113.419 677.442 114.409 679.64 114.666C681.869 114.927 684.242 114.472 686.101 113.193ZM709.222 100.817C715.878 101.596 721.254 104.697 720.493 111.202C719.701 117.977 713.417 119.502 707.123 118.766C700.86 118.033 695.097 115.1 695.89 108.325C696.65 101.82 702.597 100.043 709.222 100.817ZM713.686 116.419C715.511 115.168 716.823 113.092 717.087 110.834C717.351 108.575 716.722 106.121 715.208 104.448C713.691 102.805 711.352 101.921 709.124 101.661C706.925 101.404 704.446 101.724 702.587 103.002C700.731 104.251 699.523 106.491 699.289 108.753C698.995 111.008 699.822 113.333 701.309 114.972C702.823 116.645 705.027 117.635 707.226 117.892C709.454 118.153 711.827 117.698 713.686 116.419Z" fill="white"/>
</svg>
