<svg width="766" height="742" viewBox="0 0 766 742" fill="none" xmlns="http://www.w3.org/2000/svg">
<path d="M345.278 168.213L398.511 63.6328L453.201 150.911L345.278 168.213Z" fill="#43637C" stroke="#43637C" stroke-width="3.21474"/>
<path d="M425.608 39.7548L628.757 7.18519C647.164 4.23407 664.479 16.7638 667.43 35.171L678.626 105.004C681.577 123.411 669.047 140.725 650.64 143.677L447.491 176.246C429.084 179.197 411.77 166.667 408.818 148.26L397.623 78.4276C394.671 60.0204 407.201 42.706 425.608 39.7548Z" fill="#43637C" stroke="#43637C" stroke-width="3.21474"/>
<rect x="9.99781" y="158.481" width="668.667" height="514.359" rx="33.7548" transform="rotate(-9.10838 9.99781 158.481)" fill="#43637C" stroke="#43637C" stroke-width="3.21474"/>
<rect x="19.6541" y="218.79" width="668.667" height="527.218" rx="33.7548" transform="rotate(-9.10838 19.6541 218.79)" fill="#43637C" stroke="#43637C" stroke-width="3.21474"/>
<path d="M399.426 86.6619C399.141 86.6895 398.812 86.7098 398.471 86.7453C398.336 86.7594 398.29 86.752 398.243 86.7371C398.195 86.7222 398.147 86.7001 398.161 86.6528C398.164 86.6412 398.169 86.6297 398.174 86.6183C397.907 86.6487 397.802 86.6551 397.747 86.6523C397.718 86.6567 397.689 86.6609 397.661 86.6651C397.599 86.674 397.57 86.6174 397.552 86.561C397.543 86.5494 397.534 86.537 397.527 86.5237C397.475 86.5559 397.436 86.5761 397.408 86.5922C397.355 86.6227 397.293 86.6259 397.241 86.5822C397.129 86.4893 397.061 86.1191 397.006 85.579C396.938 85.6279 396.873 85.6696 396.805 85.7048C396.757 85.7297 396.705 85.7509 397.001 85.5348C396.993 85.4523 396.985 85.366 396.978 85.2763C396.948 84.9375 397.03 84.6298 397.195 84.0706C397.281 83.7779 397.397 83.4184 397.514 83.0725C396.729 83.6091 395.883 84.1738 395.304 84.5693C395.015 84.7671 394.775 84.9331 394.577 85.0727C394.569 85.0822 394.562 85.0915 394.555 85.1007C394.09 85.6802 394.11 85.6176 394.142 85.5366C394.164 85.4813 394.192 85.4189 394.259 85.2989C393.749 85.6664 393.639 85.7728 393.587 85.8218C393.547 85.8584 393.508 85.8944 394.169 85.1936C394.297 85.0583 394.45 84.8955 394.621 84.7147C394.832 84.403 395.192 83.9056 395.893 83.0029C396.193 82.617 396.551 82.1625 396.932 81.6802C396.92 81.5084 396.89 81.2851 396.827 80.9945C396.818 81.0071 396.809 81.0196 396.8 81.0318C396.371 81.6315 396.225 81.8535 396.165 81.9613C396.122 82.0571 396.106 82.0889 396.123 82.0472C396.132 82.0253 396.142 82.0011 396.165 81.9613C396.248 81.7729 396.435 81.3369 396.681 80.7249C396.699 80.6798 396.715 80.6387 396.73 80.6001C396.699 80.4834 396.669 80.3698 396.641 80.2596C396.177 79.9493 395.803 79.6962 395.638 79.535C395.353 79.2569 395.405 78.5743 395.473 78.1681C395.474 78.1472 395.474 78.127 395.476 78.1076C395.5 77.7881 395.478 77.5186 395.537 77.1734C395.591 76.8562 395.62 76.6153 395.673 76.3853C395.722 76.1741 395.747 75.9438 395.852 75.7176C395.884 75.6488 395.918 75.5785 395.952 75.5084C395.925 75.5428 395.897 75.579 395.867 75.6172C395.801 75.701 395.755 75.7188 395.723 75.7093C395.564 75.6619 395.55 75.2881 395.563 75.0441C395.574 74.8342 395.704 74.6609 395.742 74.4742C395.784 74.2681 395.884 74.091 395.958 73.8985C396.039 73.687 396.129 73.4654 396.226 73.2766C396.323 73.0897 396.447 72.9184 396.592 72.6997C396.627 72.6464 396.663 72.5932 396.7 72.5406C396.72 72.4988 396.739 72.4571 396.758 72.416C396.847 72.2211 396.94 72.0042 397.078 71.8312C397.209 71.667 397.338 71.5004 397.438 71.3148C397.492 71.2169 397.546 71.1174 397.6 71.0189C397.617 70.9713 397.633 70.9241 397.646 70.8771C397.702 70.6746 397.787 70.4939 397.861 70.3014C397.955 70.0593 398.091 69.7687 398.195 69.5714C398.327 69.3224 398.524 69.0288 398.768 68.6644L398.776 68.6521C398.921 68.4354 399.02 68.2516 399.127 68.0692C399.172 67.9924 399.219 67.9178 399.266 67.8426C399.275 67.8192 399.283 67.7954 399.29 67.7711C399.35 67.5809 399.412 67.3487 399.515 67.1111C399.603 66.909 399.693 66.7154 399.818 66.514C399.865 66.4375 399.911 66.361 399.96 66.2847C400.028 66.1781 400.1 66.0718 400.189 65.9662C400.328 65.8008 400.543 65.335 400.541 65.4971C400.541 65.5424 400.532 65.7983 400.383 66.1549C400.242 66.4927 400.153 66.6869 400.064 66.8818C399.975 67.0767 399.849 67.2492 399.668 67.5994C399.553 67.8208 399.372 68.0796 399.22 68.3248C399.107 68.5083 399.003 68.666 398.89 68.8438C398.714 69.1214 398.545 69.4242 398.398 69.615C398.295 69.8102 398.163 69.96 398.089 70.1208C398.014 70.2838 397.907 70.435 397.817 70.6017C397.793 70.6732 397.775 70.7442 397.763 70.8131C397.749 70.9022 397.693 71.0081 397.659 71.1134C397.747 70.962 397.852 70.8202 397.967 70.6826C398.119 70.5014 398.22 70.2892 398.366 70.1226C398.506 69.963 398.586 69.7642 398.743 69.6113C398.759 69.595 398.775 69.5788 398.791 69.5627C398.878 69.406 398.987 69.2369 399.063 69.0702C399.152 68.8753 399.221 68.6704 399.337 68.4851C399.463 68.2843 399.508 68.0697 399.618 67.8913C399.767 67.6493 399.917 67.371 400.07 67.15C400.211 66.9468 400.331 66.7127 400.524 66.6496C400.567 66.6354 400.627 66.6374 400.632 66.6704C400.643 66.7436 400.626 66.8363 400.613 66.9291C400.585 67.1295 400.551 67.3807 400.498 67.6165C400.453 67.8117 400.302 67.9284 400.167 68.0902C400.016 68.2723 399.832 68.4747 399.673 68.6655C399.522 68.8476 399.365 68.9927 399.208 69.1383C399.066 69.2696 398.939 69.414 398.791 69.5627C398.763 69.6141 398.737 69.6641 398.715 69.7122C398.622 69.9149 398.439 70.1467 398.286 70.4121C398.112 70.7131 397.872 71.1089 397.76 71.3534C397.738 71.4023 397.716 71.4505 397.698 71.4318C397.608 71.3409 397.622 71.2274 397.659 71.1134C397.641 71.1439 397.624 71.1749 397.608 71.2062C397.54 71.3373 397.448 71.451 397.359 71.577C397.253 71.8224 397.161 72.0598 397.082 72.2378C396.977 72.4727 396.877 72.6615 396.784 72.8641C396.695 73.059 396.555 73.5538 396.236 73.7102C396.216 73.7203 396.222 73.674 396.238 73.6267C396.305 73.4354 396.382 73.2365 396.461 73.0498C396.528 72.8934 396.617 72.7156 396.7 72.5406C396.663 72.5932 396.627 72.6464 396.592 72.6997C396.447 72.9184 396.323 73.0897 396.226 73.2766C396.129 73.4654 396.039 73.687 395.958 73.8985C395.884 74.091 395.784 74.2681 395.742 74.4742C395.704 74.6609 395.574 74.8342 395.563 75.0441C395.55 75.2881 395.564 75.6619 395.723 75.7093C395.755 75.7188 395.801 75.701 395.867 75.6172C395.897 75.579 395.925 75.5428 395.952 75.5084C396.055 75.2966 396.164 75.0873 396.26 74.931C396.288 74.8848 396.318 74.8357 396.349 74.785C396.373 74.6236 396.446 74.4448 396.532 74.1527C396.601 73.9188 396.713 73.7326 396.859 73.566C397.067 73.3281 397.266 73.0577 397.414 72.8085C397.566 72.5524 397.745 72.4045 397.909 72.2096C397.912 72.2048 397.914 72.1999 397.917 72.1949C397.97 72.0713 398.02 71.9572 398.093 71.859C398.168 71.7273 398.247 71.5947 398.308 71.4384C398.398 71.2058 398.495 71.0155 398.613 70.7655C398.737 70.5049 398.825 70.26 398.968 70.0699C399.141 69.8393 399.332 69.5886 399.515 69.3585C399.665 69.1691 399.834 69.0056 399.971 68.7816C400.117 68.5441 400.204 68.3719 400.33 68.1207L400.336 68.1068C400.439 67.9024 400.635 67.401 400.602 67.5617C400.563 67.7498 400.414 68.1608 400.255 68.5425C400.157 68.7764 400.047 69.0058 399.946 69.2383C399.871 69.4087 399.795 69.5864 399.694 69.7752C399.802 69.6335 399.907 69.4973 399.994 69.3866C400.249 69.0601 400.416 68.6096 400.677 68.6396C400.707 68.6431 400.724 68.7012 400.72 68.7687C400.696 69.1427 400.636 69.649 400.542 69.9093C400.463 70.1252 400.388 70.3543 400.246 70.5504C400.09 70.7658 399.847 70.957 399.556 71.4132C399.506 71.5819 399.41 71.8511 399.229 72.3274C398.914 73.1547 398.342 74.6006 397.843 75.6981C397.508 76.4354 397.215 76.9957 396.991 77.4037C396.98 77.5586 396.971 77.7061 396.965 77.8425C396.928 78.636 396.979 79.0445 397.05 79.3947C397.066 79.4723 397.083 79.5466 397.1 79.6172C397.325 79.0536 397.707 78.1377 398.063 77.4646C398.686 76.2865 399.181 75.817 399.281 75.6434C399.29 75.6278 399.299 75.6122 399.307 75.5967C399.488 75.1193 399.504 75.0898 399.502 75.0961C399.485 75.1625 399.428 75.3723 399.307 75.5967C399.262 75.7148 399.207 75.8603 399.14 76.0394C398.801 76.9427 398.145 78.6997 397.779 79.572C397.738 79.6721 397.7 79.7598 397.665 79.8364C398.16 79.158 398.685 78.4438 399.006 78.0101C399.538 77.293 399.513 77.3403 399.501 77.3889C399.48 77.4786 399.247 78.0409 398.861 79.2397C399.2 78.809 399.51 78.4133 399.761 78.0859C400.113 77.6276 400.352 77.3042 400.516 77.0708C400.547 77.0098 400.576 76.9525 400.603 76.8991C400.911 76.291 400.96 76.2237 400.975 76.2203C400.99 76.217 400.97 76.2797 400.905 76.4324C400.864 76.5296 400.804 76.6625 400.516 77.0708C400.234 77.6355 399.809 78.5215 399.412 79.6071C399.988 79.0636 400.198 78.9301 400.265 78.9192C400.315 78.911 400.332 79.1755 400.332 79.639C400.591 79.3189 400.754 79.169 400.795 79.1796C400.843 79.1919 400.841 79.3209 400.756 79.7156C400.702 79.9613 400.609 80.3193 400.473 80.7483C401.166 79.9673 401.592 79.3915 401.547 79.458C401.389 79.6925 400.954 80.2322 400.373 81.0497C400.337 81.1564 400.298 81.2664 400.257 81.3792C400.247 81.4747 400.236 81.5671 400.225 81.6557C400.222 81.6822 400.218 81.7083 400.215 81.734C400.252 81.7476 400.279 81.7576 400.294 81.7636C400.414 81.8118 400.603 81.839 400.739 81.963C400.823 82.039 400.895 82.1137 400.966 82.1973C401.356 81.894 401.8 81.6092 402.292 81.3321C403.077 80.8902 403.623 80.7408 403.713 80.7339C403.73 80.7326 403.688 80.7602 402.72 81.5034C402.344 81.7925 401.827 82.1906 401.278 82.6143C401.596 83.0756 401.65 83.259 401.836 83.5089C402.076 83.8316 402.599 84.3269 402.83 84.7396C402.989 85.0237 403.628 85.8387 403.762 86.6157C403.803 86.8539 403.836 87.0713 403.862 87.2598C403.932 87.2604 403.978 87.2662 403.998 87.2784C404.03 87.2986 403.986 87.3365 403.88 87.3877C403.915 87.6541 403.936 87.8489 403.944 87.9433C403.975 88.2775 404.066 88.6646 404.011 89.2486C403.972 89.6607 404.018 90.2512 403.619 91.1759C403.362 91.7732 403.289 92.1955 403.109 92.4435C402.95 92.6646 402.829 92.8141 402.647 92.9381C402.642 92.9419 402.636 92.9457 402.631 92.9495C402.661 92.9467 402.692 92.9437 402.722 92.9405C402.8 92.9324 402.761 92.9789 402.7 93.0189C402.656 93.0473 402.602 93.0771 402.374 93.1297C402.256 93.2091 402.14 93.2736 402.007 93.3035C401.899 93.3277 401.726 93.3653 401.518 93.4094C402.227 93.3132 402.623 93.2341 402.537 93.2707C402.425 93.3187 401.642 93.4595 400.52 93.632C400.401 93.6503 400.285 93.6664 400.174 93.6806C400.069 93.7003 399.968 93.7189 399.872 93.7359C399.434 93.8136 399.111 93.8381 399.012 93.8435C398.796 93.8554 397.273 94.0358 397.574 93.9839C398.189 93.8779 398.658 93.8332 398.8 93.8175C399.174 93.7765 399.628 93.7502 400.174 93.6806C400.623 93.596 401.132 93.4913 401.518 93.4094C401.298 93.4393 401.048 93.4708 400.773 93.5011C400.326 93.5501 400.147 93.5806 399.919 93.5929C399.567 93.6119 396.843 94.0035 398.027 93.8137C398.601 93.7216 399.216 93.6527 399.821 93.5637C400.382 93.4812 401.427 93.3137 401.991 93.2078C402.156 93.1769 402.28 93.1514 402.374 93.1297C402.456 93.0746 402.54 93.0123 402.631 92.9495C402.399 92.9709 402.184 92.9812 402.032 92.9986C401.539 93.055 400.826 93.1152 400.228 93.1976C399.209 93.3382 398.968 93.3201 398.662 93.3585C398.008 93.4406 397.633 93.5567 397.38 93.4586C397.284 93.4214 397.693 93.3687 398.366 93.2105C398.668 93.1396 399.136 93.0943 399.736 92.9458C399.994 92.8818 400.257 92.802 400.61 92.7759C401.043 92.7439 401.555 92.7568 402.168 92.601C402.566 92.4997 402.977 92.4674 403.185 92.2947C403.298 92.2016 402.741 92.2899 401.805 92.3886C401.394 92.4319 400.906 92.5844 400.266 92.5825C399.99 92.5817 399.663 92.6614 399.214 92.6688C398.847 92.6748 398.52 92.6887 398.249 92.6955C398.144 92.6981 398.033 92.699 397.917 92.7021C397.761 92.7253 397.619 92.746 397.505 92.7626C397.01 92.8345 397.051 92.813 397.137 92.7915C397.403 92.7254 397.669 92.7086 397.917 92.7021C398.438 92.6247 399.123 92.5189 399.523 92.4388C400.086 92.326 400.564 92.215 401.032 92.1218C401.613 92.0058 401.982 91.9784 402.37 91.8018C402.447 91.7666 402.5 91.7177 402.415 91.7271C402.112 91.7608 401.786 91.7825 401.571 91.8098C401.344 91.8389 400.508 91.8407 399.407 91.9234C398.883 91.9628 398.643 91.9676 398.213 92.0325C397.407 92.1544 396.971 92.2089 397.083 92.1609L397.087 92.1593C397.2 92.111 397.402 92.0247 398.436 91.8086C399.056 91.6789 400.096 91.4824 400.799 91.3318C401.502 91.1812 401.859 91.0808 402.065 91.0164C402.457 90.8937 403.078 90.7717 402.883 90.6974C402.73 90.639 402.364 90.579 401.609 90.5851C401.477 90.5862 401.316 90.5888 401.132 90.5947C401.589 90.6107 402.08 90.6108 402.338 90.6258C402.688 90.6462 402.589 90.677 401.457 90.8214C400.325 90.9659 398.164 91.2231 397.169 91.3068C396.175 91.3905 396.412 91.2929 397.018 91.1502C397.624 91.0075 398.591 90.8227 399.482 90.7166C400.112 90.6416 400.689 90.6088 401.132 90.5947C400.969 90.589 400.811 90.5813 400.668 90.5702C400.4 90.5492 400.176 90.534 399.99 90.5214C399.105 90.6604 398.219 90.7988 397.611 90.8892C396.323 91.0809 396.361 91.0449 396.408 91.0072C396.506 90.9283 396.604 90.8702 396.703 90.8318C396.953 90.7346 397.219 90.8615 398.048 90.5193C398.162 90.4723 398.271 90.4388 398.375 90.4159C398.308 90.3857 398.248 90.3493 398.197 90.3057C398.145 90.2611 398.107 90.2077 398.098 90.1487C398.089 90.0898 398.108 90.0271 398.154 89.9823C398.2 89.9374 398.271 89.9113 399.06 89.7237C399.849 89.5361 401.312 89.1973 402.109 89.0021C402.906 88.807 403.032 88.757 403.157 88.6914C403.283 88.6257 403.404 88.5468 403.189 88.513C402.975 88.4793 402.441 88.4905 401.248 88.6522C400.056 88.8138 398.254 89.0929 397.311 89.2916C396.266 89.5117 396.049 89.5762 395.905 89.5993C395.877 89.6038 395.935 89.5945 396.889 89.3342C397.515 89.1634 398.513 88.9168 399.433 88.6469C398.211 88.9118 397.248 89.0587 396.77 89.1003C396.162 89.1532 396.38 89.0289 396.552 88.9181C396.724 88.8074 396.843 88.7139 397.153 88.5513C397.175 88.5401 397.197 88.5286 397.221 88.5167C397.304 88.3896 397.481 88.2079 397.717 87.9966C397.453 88.0111 397.234 88.0167 397.042 88.0177C396.457 88.0208 396.139 87.9826 395.946 87.9459C395.753 87.9091 395.688 87.8749 396.29 87.7024C396.892 87.5299 398.134 87.2646 398.818 87.0419C398.877 87.0227 398.934 87.0036 398.991 86.9846C399.069 86.9348 399.148 86.8892 399.226 86.8476C399.292 86.7856 399.359 86.7236 399.426 86.6619Z" fill="#43637C"/>
<path d="M402.311 85.9568C402.153 85.9969 401.342 86.1572 400.89 86.2746C400.54 86.3654 400.288 86.4614 400.104 86.5358C399.787 86.6642 399.151 86.6744 398.471 86.7453C398.336 86.7594 398.29 86.752 398.243 86.7371C398.195 86.7222 398.147 86.7001 398.161 86.6528C398.266 86.3003 399.143 86.0155 399.903 85.7717C400.646 85.5333 401.48 85.6679 401.98 85.7904C402.173 85.8377 402.237 85.8776 402.186 85.9237C401.804 86.267 401.413 86.1607 400.694 86.2836C400.091 86.3867 398.996 86.5188 398.403 86.5912C397.81 86.6635 397.75 86.6583 397.694 86.6446C397.639 86.6309 397.591 86.6088 397.553 86.5624C397.469 86.4592 397.463 86.284 397.475 86.1245C397.494 85.8676 397.858 85.5748 398.787 84.96C399.266 84.6434 399.575 84.5618 399.841 84.5709C400.042 84.5778 399.889 85.0062 399.789 85.2246C399.591 85.6597 399.196 85.9285 398.839 86.2344C398.502 86.5237 398.087 86.6033 397.661 86.6651C397.578 86.6771 397.554 86.5706 397.536 86.5054C397.502 86.3837 397.534 86.168 397.649 85.8124C397.8 85.3469 398.204 84.829 398.616 84.3126C398.939 83.9084 399.305 83.6288 399.679 83.344C399.87 83.1984 400.049 83.0302 400.449 82.7705C401.442 82.1265 402.202 81.7209 402.318 81.6492C402.423 81.5848 402.039 81.9111 401.746 82.1376C401.557 82.2837 401.298 82.508 400.433 83.1256C399.567 83.7433 398.107 84.7512 397.39 85.2574C396.672 85.7636 396.742 85.7375 396.805 85.7048C397.079 85.5627 397.307 85.3165 397.831 84.9117C398.268 84.575 399.024 83.9386 399.525 83.501C400.025 83.0633 400.242 82.8351 400.485 82.6073C400.977 82.145 401.585 81.7306 402.292 81.3321C403.077 80.8902 403.623 80.7408 403.713 80.7339C403.73 80.7326 403.688 80.7602 402.72 81.5034C401.752 82.2466 399.859 83.7109 398.863 84.4759C397.867 85.241 397.826 85.2625 397.802 85.2071C397.725 85.0326 397.854 84.5104 398.089 83.6934C398.219 83.2427 398.437 82.7393 398.704 82.1982C398.972 81.6571 399.299 81.0986 399.64 80.5898C400.294 79.6154 400.725 79.1614 400.795 79.1796C400.843 79.1919 400.841 79.3209 400.756 79.7156C400.67 80.1104 400.482 80.7953 400.175 81.5985C399.868 82.4018 399.447 83.3026 399.194 83.8245C398.78 84.6806 398.672 84.9163 398.637 84.9821C398.63 84.9957 398.68 84.9758 398.705 84.9419C398.852 84.7419 398.744 84.3353 398.979 83.5636C399.074 83.252 399.269 82.8594 399.507 82.4212C399.746 81.983 400.043 81.5186 400.278 81.1844C400.906 80.2913 401.381 79.7051 401.547 79.458C401.593 79.3891 401.136 80.0087 400.398 80.8317C400.015 81.2601 399.541 81.6443 398.579 82.3317C397.617 83.0192 396.164 83.9813 395.304 84.5693C393.867 85.5514 393.665 85.7493 393.587 85.8218C393.547 85.8584 393.508 85.8944 394.169 85.1936C394.83 84.4929 396.191 83.0543 397.011 82.2125C397.83 81.3707 398.065 81.1692 398.367 80.8878C399.463 79.8636 399.531 79.6838 399.569 79.6398C399.613 79.589 399.603 79.8512 399.445 80.6294C399.304 81.3219 398.973 82.6039 398.779 83.3457C398.542 84.2522 398.418 84.5502 398.304 84.9128C398.234 85.1375 398.112 85.4367 398.049 85.6148C397.986 85.793 397.978 85.8388 397.979 85.6607C397.98 85.4827 397.99 85.0793 398.192 84.0587C398.394 83.038 398.788 81.4123 399.266 80.0173C399.745 78.6223 400.295 77.5072 400.603 76.8991C400.911 76.291 400.96 76.2237 400.975 76.2203C400.99 76.217 400.97 76.2797 400.905 76.4324C400.84 76.5851 400.73 76.826 399.761 78.0859C398.793 79.3458 396.969 81.6173 395.893 83.0029C394.818 84.3884 394.544 84.8191 394.382 85.0892C394.219 85.3592 394.175 85.4556 394.142 85.5366C394.11 85.6176 394.09 85.6802 394.555 85.1007C395.019 84.5211 395.969 83.2974 396.894 82.2325C397.82 81.1675 398.693 80.2985 399.234 79.7764C399.946 79.0905 400.192 78.9311 400.265 78.9192C400.338 78.9073 400.34 79.4738 400.322 80.3914C400.314 80.8478 400.271 81.2846 400.225 81.6557C400.179 82.0268 400.121 82.3187 400.004 82.7138C399.888 83.1088 399.713 83.5981 399.392 84.17C399.07 84.742 398.607 85.3817 398.316 85.7495C397.796 86.4042 397.518 86.5295 397.408 86.5922C397.355 86.6227 397.293 86.6259 397.241 86.5822C397.109 86.4728 397.038 85.9791 396.978 85.2763C396.948 84.9375 397.03 84.6298 397.195 84.0706C397.36 83.5113 397.633 82.7086 397.814 82.2216C398.154 81.307 398.553 80.7302 398.807 80.5132C398.966 80.3776 398.983 81.0465 399.092 81.6755C399.156 82.0483 398.907 82.6207 398.363 83.4456C398.252 83.6144 398.159 83.675 398.098 83.7229C398.037 83.7707 397.996 83.7922 397.965 83.738C397.868 83.5721 397.947 82.9334 398.16 81.7461C398.287 81.038 398.574 80.1398 398.811 79.3967C399.227 78.0898 399.479 77.4825 399.501 77.3889C399.513 77.3403 399.538 77.293 399.006 78.0101C398.474 78.7271 397.388 80.2109 396.8 81.0318C396.212 81.8528 396.156 81.966 396.123 82.0472C396.073 82.1709 396.311 81.6481 396.681 80.7249C396.82 80.377 396.843 80.2667 397.061 79.7168C397.278 79.1669 397.685 78.179 398.063 77.4646C398.686 76.2865 399.181 75.817 399.281 75.6434C399.42 75.402 399.483 75.167 399.502 75.0961C399.504 75.0882 399.479 75.1361 399.14 76.0394C398.801 76.9427 398.145 78.6997 397.779 79.572C397.414 80.4444 397.359 80.3788 397.285 80.2034C397.212 80.028 397.122 79.7449 397.05 79.3947C396.979 79.0445 396.928 78.636 396.965 77.8425C397.001 77.049 397.127 75.883 397.25 75.0424C397.373 74.2017 397.489 73.7217 397.571 73.4263C397.681 73.0297 397.875 72.7355 398.168 72.3212C398.491 71.864 398.982 71.4008 399.414 71.053C399.56 70.9359 399.616 71.0251 399.608 71.1613C399.601 71.2976 399.544 71.5001 399.229 72.3274C398.914 73.1547 398.342 74.6006 397.843 75.6981C397.345 76.7955 396.937 77.5008 396.717 77.8955C396.336 78.5794 396.061 79.1258 395.936 79.2901C395.77 79.5083 395.948 78.711 396.228 77.5202C396.325 77.1087 396.518 76.6724 396.8 76.0852C397.081 75.498 397.472 74.7806 397.718 74.3593C398.231 73.4772 398.652 72.8959 398.852 72.593C399.006 72.3601 399.194 72.0577 399.386 71.7039C399.751 71.0288 400.06 70.8067 400.246 70.5504C400.388 70.3543 400.463 70.1252 400.542 69.9093C400.636 69.649 400.696 69.1427 400.72 68.7687C400.724 68.7012 400.707 68.6431 400.677 68.6396C400.416 68.6096 400.249 69.0601 399.994 69.3866C399.719 69.7375 399.268 70.3439 399.071 70.5722C398.698 71.0029 398.259 71.6493 398.109 71.8386C397.964 72.0207 397.906 72.2614 397.767 72.5172C397.653 72.7263 397.536 72.9521 397.42 73.1667C397.303 73.3806 397.112 73.6812 396.942 73.8897C396.76 74.1138 396.464 74.595 396.26 74.931C396.133 75.139 395.981 75.4408 395.852 75.7176C395.747 75.9438 395.722 76.1741 395.673 76.3853C395.62 76.6153 395.591 76.8562 395.537 77.1734C395.478 77.5186 395.5 77.7881 395.476 78.1076C395.458 78.347 395.511 78.7017 395.666 78.9712C395.722 79.0693 395.961 78.7269 396.075 78.6235C396.188 78.5201 396.226 78.5735 396.264 78.7171C396.363 79.0873 396.509 79.7724 396.734 80.6139C397.055 81.8161 396.903 82.1335 396.888 82.2259C396.88 82.2724 396.873 82.3183 396.954 82.3654C397.188 82.5001 397.875 82.6968 398.898 83.1843C399.448 83.4464 399.984 83.8847 400.333 84.1562C400.822 84.5371 400.959 84.7449 400.997 84.8885C401.02 84.9746 401.015 85.0948 400.991 85.175C400.966 85.2551 400.913 85.2934 400.399 85.7631C399.886 86.2328 398.914 87.1327 398.338 87.6827C397.388 88.5903 397.297 88.7146 397.243 88.7085C396.904 88.6705 397.765 87.9049 398.761 87.1443C399.432 86.6319 400.213 86.4735 400.357 86.4279C400.537 86.3709 399.904 86.688 398.818 87.0419C398.134 87.2646 396.892 87.5299 396.29 87.7024C395.688 87.8749 395.753 87.9091 395.946 87.9459C396.139 87.9826 396.457 88.0208 397.042 88.0177C397.627 88.0146 398.468 87.9691 400.024 87.7581C401.58 87.5471 403.827 87.1721 403.998 87.2784C404.169 87.3846 402.197 87.9836 400.484 88.4038C398.771 88.8241 397.379 89.0474 396.77 89.1003C396.162 89.1532 396.38 89.0289 396.552 88.9181C396.724 88.8074 396.843 88.7139 397.153 88.5513C397.464 88.3888 397.963 88.16 398.556 87.9511C399.148 87.7423 399.818 87.5605 400.279 87.4482C400.969 87.2804 401.625 87.2387 402.304 87.2123C402.57 87.202 402.677 87.2203 402.713 87.2521C402.775 87.3063 402.266 87.6158 400.747 88.2115C399.66 88.6379 397.843 89.0739 396.889 89.3342C395.935 89.5945 395.877 89.6038 395.905 89.5993C396.049 89.5762 396.266 89.5117 397.311 89.2916C398.254 89.0929 400.056 88.8138 401.248 88.6522C402.441 88.4905 402.975 88.4793 403.189 88.513C403.404 88.5468 403.283 88.6257 403.157 88.6914C403.032 88.757 402.906 88.807 402.109 89.0021C401.312 89.1973 399.849 89.5361 399.06 89.7237C398.271 89.9113 398.2 89.9374 398.154 89.9823C398.108 90.0271 398.089 90.0898 398.098 90.1487C398.107 90.2077 398.145 90.2611 398.197 90.3057C398.557 90.613 399.35 90.5649 400.181 90.4842C400.834 90.4208 401.952 90.2379 402.672 90.1226C403.393 90.0073 403.681 89.9463 402.56 90.1184C401.439 90.2904 398.9 90.6975 397.611 90.8892C396.323 91.0809 396.361 91.0449 396.408 91.0072C396.506 90.9283 396.604 90.8702 396.703 90.8318C396.953 90.7346 397.219 90.8615 398.048 90.5193C398.583 90.2985 399.02 90.377 399.233 90.4405C399.417 90.4956 399.82 90.5039 400.668 90.5702C401.212 90.6126 401.988 90.6055 402.338 90.6258C402.688 90.6462 402.589 90.677 401.457 90.8214C400.325 90.9659 398.164 91.2231 397.169 91.3068C396.175 91.3905 396.412 91.2929 397.018 91.1502C397.624 91.0075 398.591 90.8227 399.482 90.7166C400.373 90.6105 401.159 90.5888 401.609 90.5851C402.364 90.579 402.73 90.639 402.883 90.6974C403.078 90.7717 402.457 90.8937 402.065 91.0164C401.859 91.0808 401.502 91.1812 400.799 91.3318C400.096 91.4824 399.056 91.6789 398.436 91.8086C397.39 92.0272 397.196 92.113 397.083 92.1609C396.971 92.2089 397.407 92.1544 398.213 92.0325C398.643 91.9676 398.883 91.9628 399.407 91.9234C400.508 91.8407 401.344 91.8389 401.571 91.8098C401.786 91.7825 402.112 91.7608 402.415 91.7271C402.5 91.7177 402.447 91.7666 402.37 91.8018C401.982 91.9784 401.613 92.0058 401.032 92.1218C400.564 92.215 400.086 92.326 399.523 92.4388C399.003 92.5429 398 92.6907 397.505 92.7626C397.01 92.8345 397.051 92.813 397.137 92.7915C397.527 92.6945 397.918 92.7038 398.249 92.6955C398.52 92.6887 398.847 92.6748 399.214 92.6688C399.663 92.6614 399.99 92.5817 400.266 92.5825C400.906 92.5844 401.394 92.4319 401.805 92.3886C402.741 92.2899 403.298 92.2016 403.185 92.2947C402.977 92.4674 402.566 92.4997 402.168 92.601C401.555 92.7568 401.043 92.7439 400.61 92.7759C400.257 92.802 399.994 92.8818 399.736 92.9458C399.136 93.0943 398.668 93.1396 398.366 93.2105C397.693 93.3687 397.284 93.4214 397.38 93.4586C397.633 93.5567 398.008 93.4406 398.662 93.3585C398.968 93.3201 399.209 93.3382 400.228 93.1976C400.826 93.1152 401.539 93.055 402.032 92.9986C402.204 92.979 402.456 92.9683 402.722 92.9405C402.8 92.9324 402.761 92.9789 402.7 93.0189C402.639 93.059 402.556 93.1019 401.991 93.2078C401.427 93.3137 400.382 93.4812 399.821 93.5637C399.216 93.6527 398.601 93.7216 398.027 93.8137C396.843 94.0035 399.567 93.6119 399.919 93.5929C400.147 93.5806 400.326 93.5501 400.773 93.5011C401.935 93.3735 402.65 93.2227 402.537 93.2707C402.425 93.3187 401.642 93.4595 400.52 93.632C399.817 93.74 399.25 93.7682 398.8 93.8175C398.658 93.8332 398.189 93.8779 397.574 93.9839C397.273 94.0358 398.796 93.8554 399.012 93.8435C399.111 93.8381 399.434 93.8136 399.872 93.7359C400.602 93.6065 401.652 93.3832 402.007 93.3035C402.237 93.2517 402.417 93.0954 402.647 92.9381C402.829 92.8141 402.95 92.6646 403.109 92.4435C403.289 92.1955 403.362 91.7732 403.619 91.1759C404.018 90.2512 403.972 89.6607 404.011 89.2486C404.066 88.6646 403.975 88.2775 403.944 87.9433C403.929 87.7725 403.875 87.2735 403.762 86.6157C403.628 85.8387 402.989 85.0237 402.83 84.7396C402.599 84.3269 402.076 83.8316 401.836 83.5089C401.638 83.2426 401.59 83.0519 401.212 82.5201C401.04 82.2774 400.915 82.1229 400.739 81.963C400.603 81.839 400.414 81.8118 400.294 81.7636C400.177 81.7168 399.384 81.439 398.184 81.0756C397.6 80.8988 397.357 80.7394 396.988 80.4919C396.368 80.0757 395.843 79.7348 395.638 79.535C395.322 79.2267 395.42 78.4214 395.495 78.0465C395.582 77.6182 395.719 77.0034 395.804 76.7868C395.977 76.3483 396.275 75.8781 396.321 75.5992C396.359 75.3714 396.332 75.1023 396.34 74.8744C396.347 74.6865 396.43 74.4995 396.532 74.1527C396.601 73.9188 396.713 73.7326 396.859 73.566C397.067 73.3281 397.266 73.0577 397.414 72.8085C397.572 72.5416 397.76 72.3921 397.93 72.1846C398.252 71.7896 398.385 71.6003 398.572 71.3602C398.778 71.0949 398.941 70.85 399.102 70.6811C399.284 70.4902 399.464 70.1808 399.635 69.8819C399.766 69.6528 399.858 69.4404 399.946 69.2383C400.047 69.0058 400.157 68.7764 400.255 68.5425C400.414 68.1608 400.563 67.7498 400.602 67.5617C400.635 67.401 400.439 67.9024 400.336 68.1068C400.207 68.3656 400.12 68.5397 399.971 68.7816C399.834 69.0056 399.665 69.1691 399.515 69.3585C399.332 69.5886 399.141 69.8393 398.968 70.0699C398.825 70.26 398.737 70.5049 398.613 70.7655C398.495 71.0155 398.398 71.2058 398.308 71.4384C398.22 71.6645 398.094 71.8408 397.998 72.0369C397.893 72.2495 397.783 72.4318 397.688 72.6351C397.571 72.8841 397.435 73.0738 397.302 73.3207C397.159 73.5848 397.026 73.8005 396.849 74.1071C396.694 74.3765 396.591 74.5619 396.404 74.8474C396.273 75.0479 396.173 75.2306 395.867 75.6172C395.801 75.701 395.755 75.7188 395.723 75.7093C395.564 75.6619 395.55 75.2881 395.563 75.0441C395.574 74.8342 395.704 74.6609 395.742 74.4742C395.784 74.2681 395.884 74.091 395.958 73.8985C396.039 73.687 396.129 73.4654 396.226 73.2766C396.323 73.0897 396.447 72.9184 396.592 72.6997C396.835 72.3326 397.121 71.9689 397.245 71.7531C397.362 71.548 397.51 71.395 397.608 71.2062C397.705 71.0193 397.829 70.848 397.967 70.6826C398.119 70.5014 398.22 70.2892 398.366 70.1226C398.506 69.963 398.586 69.7642 398.743 69.6113C398.912 69.4455 399.051 69.2839 399.208 69.1383C399.365 68.9927 399.522 68.8476 399.673 68.6655C399.832 68.4747 400.016 68.2723 400.167 68.0902C400.302 67.9284 400.453 67.8117 400.498 67.6165C400.551 67.3807 400.585 67.1295 400.613 66.9291C400.626 66.8363 400.643 66.7436 400.632 66.6704C400.627 66.6374 400.567 66.6354 400.524 66.6496C400.331 66.7127 400.211 66.9468 400.07 67.15C399.917 67.371 399.767 67.6493 399.618 67.8913C399.508 68.0697 399.463 68.2843 399.337 68.4851C399.221 68.6704 399.152 68.8753 399.063 69.0702C398.962 69.2916 398.804 69.5173 398.715 69.7122C398.622 69.9149 398.439 70.1467 398.286 70.4121C398.112 70.7131 397.872 71.1089 397.76 71.3534C397.738 71.4023 397.716 71.4505 397.698 71.4318C397.526 71.2569 397.733 70.9986 397.763 70.8131C397.797 70.6091 397.89 70.3872 398.016 70.1864C398.132 70.0011 398.235 69.8205 398.385 69.6312C398.535 69.4416 398.709 69.1294 398.89 68.8438C399.003 68.666 399.107 68.5083 399.22 68.3248C399.372 68.0796 399.553 67.8208 399.668 67.5994C399.849 67.2492 399.975 67.0767 400.064 66.8818C400.153 66.6869 400.242 66.4927 400.383 66.1549C400.532 65.7983 400.541 65.5424 400.541 65.4971C400.543 65.335 400.328 65.8008 400.189 65.9662C400.037 66.1474 399.932 66.3305 399.818 66.514C399.693 66.7154 399.603 66.909 399.515 67.1111C399.412 67.3487 399.35 67.5809 399.29 67.7711C399.223 67.9837 399.127 68.1578 399.067 68.348C398.997 68.5693 398.86 68.7418 398.757 68.9462C398.628 69.205 398.512 69.3838 398.416 69.5798C398.311 69.7925 398.167 69.9504 398.089 70.1208C398.003 70.3069 397.876 70.4779 397.779 70.6739C397.679 70.8782 397.555 71.1002 397.438 71.3148C397.338 71.5004 397.209 71.667 397.078 71.8312C396.94 72.0042 396.847 72.2211 396.758 72.416C396.661 72.6294 396.543 72.856 396.461 73.0498C396.382 73.2365 396.305 73.4354 396.238 73.6267C396.222 73.674 396.216 73.7203 396.236 73.7102C396.555 73.5538 396.695 73.059 396.784 72.8641C396.877 72.6615 396.977 72.4727 397.082 72.2378C397.173 72.0325 397.281 71.7484 397.409 71.4639C397.501 71.2587 397.593 71.0661 397.646 70.8771C397.702 70.6746 397.787 70.4939 397.861 70.3014C397.955 70.0593 398.091 69.7687 398.195 69.5714C398.328 69.3197 398.528 69.0223 398.776 68.6521C398.921 68.4354 399.02 68.2516 399.127 68.0692C399.233 67.8868 399.356 67.7171 399.445 67.5222C399.531 67.3343 399.579 67.1401 399.668 66.9452C399.757 66.7503 399.846 66.5562 399.928 66.3624C400.004 66.1818 400.069 65.9793 400.158 65.7844C400.248 65.5895 400.336 65.3953 400.426 65.2004C400.52 64.9942 400.621 64.7337 400.686 64.5273C400.749 64.3268 400.886 64.1348 401.036 63.945C401.16 63.7886 401.388 63.7079 401.725 63.6534C401.801 63.6561 401.85 63.6781 401.899 63.7005C401.947 63.7228 401.996 63.7449 402.045 63.7676" stroke="#43637C" stroke-width="1.30462" stroke-linecap="round"/>
<rect x="382.922" y="96.5" width="288.974" height="41.0957" transform="rotate(-9.10838 382.922 96.5)" fill="#43637C"/>
<path d="M431.673 61.6473C436.86 61.4803 444.223 64.972 440.973 70.8876C438.638 75.1328 429.09 77.7034 421.621 76.558L422.288 80.9954L418.99 81.4915L416.591 65.5409C421.557 62.6784 426.97 61.7722 431.673 61.6473ZM431.992 75.182C436.998 73.8157 438.969 70.6066 438.198 67.3192C436.506 59.9393 423.602 63.2293 419.889 65.0449L421.386 74.999C422.581 75.4017 423.569 75.6517 423.539 75.6562C426.574 76.0583 429.518 75.8607 431.992 75.182ZM465.283 57.6649L468.378 55.8196L470.917 72.6996C466.716 74.5274 459.001 75.6265 455.096 75.754C452.258 75.8436 447.955 74.9578 445.921 73.0562L444.085 60.8534L447.181 59.0081L449.219 72.5601C452.159 75.7972 463.056 74.25 467.569 72.8659L465.283 57.6649ZM493.6 65.7311C495.943 66.6357 497.681 67.9993 498.764 69.492L496.396 69.8483C495.025 68.2762 493.311 67.2769 491.471 66.6645C487.545 68.0829 482.516 68.6861 478.184 68.0192L478.852 72.4566L475.554 72.9527L473.154 57.0021C478.12 54.1396 483.538 53.2634 488.236 53.1085C493.424 52.9415 500.786 56.4332 497.537 62.3488C496.813 63.6534 495.394 64.8174 493.6 65.7311ZM488.555 66.6432C488.996 66.5156 489.437 66.388 489.868 66.2004C486.231 65.4598 482.299 66.0206 479.368 66.9213C479.815 67.0381 480.103 67.1174 480.103 67.1174C483.137 67.5195 486.082 67.3219 488.555 66.6432ZM485.39 64.7585C487.841 64.5431 490.016 64.7371 491.893 65.1906C494.411 63.5855 495.341 61.2073 494.762 58.7804C493.074 51.4305 480.165 54.6905 476.453 56.5061L477.936 66.3702C480.044 65.5013 482.998 64.9649 485.39 64.7585ZM521.591 61.5208C523.935 62.4253 525.673 63.7889 526.756 65.2817L524.387 65.638C523.016 64.0658 521.302 63.0666 519.462 62.4542C515.537 63.8725 510.507 64.4757 506.176 63.8089L506.843 68.2462L503.545 68.7423L501.146 52.7918C506.111 49.9293 511.529 49.053 516.228 48.8982C521.415 48.7312 528.777 52.2228 525.528 58.1385C524.804 59.4431 523.385 60.607 521.591 61.5208ZM516.546 62.4329C516.987 62.3052 517.428 62.1776 517.86 61.9901C514.222 61.2494 510.29 61.8102 507.359 62.711C507.806 62.8277 508.094 62.9071 508.094 62.9071C511.129 63.3091 514.073 63.1115 516.546 62.4329ZM513.381 60.5482C515.832 60.3328 518.007 60.5268 519.885 60.9803C522.403 59.3751 523.333 56.997 522.753 54.57C521.065 47.2201 508.157 50.4801 504.444 52.2957L505.927 62.1598C508.035 61.2909 510.99 60.7545 513.381 60.5482ZM525.479 47.2307L549.974 43.5462L550.254 45.4051L539.67 46.997L542.069 62.9476L538.741 63.4482L536.342 47.4976L525.758 49.0896L525.479 47.2307ZM561.02 41.8846L574.553 58.0615L571.045 58.5892L568.886 56.0624C565.756 53.1912 558.192 54.2677 553.815 56.1525L551.406 61.5431L549.997 61.7551L558.34 43.6368L561.02 41.8846ZM562.017 53.2017C563.71 53.0391 565.151 53.037 566.498 53.2329L559.015 44.4551L554.389 54.8704C556.526 53.997 559.571 53.4471 562.017 53.2017ZM569.252 40.6465L593.747 36.962L594.027 38.8209L583.443 40.4128L585.842 56.3634L582.514 56.864L580.115 40.9134L569.531 42.5054L569.252 40.6465ZM606.363 35.0643C612.989 34.0676 618.991 35.6483 619.965 42.1245C620.98 48.8705 615.317 51.9912 609.051 52.9337C602.815 53.8718 596.484 52.555 595.47 45.809C594.496 39.3329 599.767 36.0565 606.363 35.0643ZM614.767 48.9465C616.2 47.2593 616.92 44.9128 616.582 42.6641C616.243 40.4154 614.992 38.2121 613.092 36.9955C611.197 35.8089 608.708 35.5701 606.489 35.9038C604.301 36.233 601.992 37.1935 600.534 38.9151C599.072 40.6068 598.494 43.0853 598.862 45.3294C599.17 47.5826 600.579 49.6089 602.444 50.8C604.344 52.0166 606.731 52.3934 608.92 52.0642C611.139 51.7305 613.309 50.6682 614.767 48.9465ZM633.827 30.9332C640.453 29.9365 646.455 31.5172 647.429 37.9934C648.444 44.7394 642.781 47.8601 636.515 48.8026C630.279 49.7407 623.949 48.4239 622.934 41.6779C621.96 35.2018 627.231 31.9254 633.827 30.9332ZM642.231 44.8154C643.664 43.1282 644.384 40.7817 644.046 38.533C643.708 36.2843 642.456 34.081 640.556 32.8644C638.661 31.6778 636.172 31.439 633.953 31.7727C631.765 32.1019 629.456 33.0624 627.998 34.784C626.536 36.4757 625.958 38.9542 626.326 41.1983C626.635 43.4515 628.043 45.4778 629.909 46.6689C631.809 47.8855 634.196 48.2624 636.384 47.9331C638.603 47.5994 640.773 46.5371 642.231 44.8154Z" fill="white"/>
</svg>
