<svg width="2326" height="1550" viewBox="0 0 2326 1550" fill="none" xmlns="http://www.w3.org/2000/svg">
<path d="M393.809 1036.97C241.477 1081.4 122.397 1090.67 9.64573 1194.52C-4.88161 1213.4 -2.80546 1243.21 12.6275 1262.01C26.9064 1281.27 46.4286 1295.6 67.2795 1308.87C109.19 1334.88 154.417 1354.25 201.926 1372.76C297.14 1409.27 399.059 1439.07 500.308 1466.38C666.27 1511.17 835.571 1536.03 985.89 1544.96C1239.12 1560.52 1498.33 1537.32 1743.97 1481.61C1756.42 1478.79 1764.17 1476.89 1769.86 1475.55C1823.8 1463.14 1912.51 1438.83 1965.13 1421.9C2075.34 1389.02 2261.58 1313.35 2354.52 1263.22C2394.55 1242.67 2434.59 1219.74 2449.21 1210.88C2462.79 1202.88 2471.18 1197.89 2474.74 1195.73C2474.79 1195.7 2474.83 1195.68 2474.87 1195.65C2487.03 1188.36 2515.33 1170.12 2522.25 1165.44C2523.19 1164.79 2517.39 1168.84 2532.95 1158.37C2534.3 1157.44 2533.11 1158.24 2545.89 1149.45C2548.82 1147.72 2592.41 1116.43 2603.44 1107.37C2643.17 1077.88 2733.22 996.318 2756.71 938.714C2757.62 936.742 2758.39 934.988 2759.09 933.339C2761.57 927.368 2763.21 922.515 2764.5 915.234C2765.45 910.369 2765.54 902.617 2765.38 900.981C2765.37 897.486 2764.13 888.022 2761.63 881.407C2759.3 874.934 2756.85 870.691 2759.03 875.618C2752.18 861.392 2747.57 857.37 2746.9 856.116C2745.92 854.828 2747.25 856.373 2747.07 856.083C2724.01 829.86 2709.41 824.36 2701.64 818.722C2555.44 742.282 2386.03 731.067 2224.83 722.077C2224.78 722.043 2224.73 722.008 2224.68 721.973C2176.36 720.322 2160.28 720.121 2132.41 720.14C2115.65 720.054 2098.75 720.132 2081.75 720.377C1717.55 738.357 1289.18 768.534 1053.09 1076.42C1044.36 1090.77 1037.43 1103.91 1032.22 1115.91C1025.68 1131.36 1021.53 1143.29 1020.13 1159.62C1018.79 1174.76 1023.54 1191.47 1035.91 1200.99C1041.43 1205.6 1049.89 1209.42 1056.54 1211.28C1063.21 1213.22 1070.67 1214.47 1078.87 1215.08C1096.19 1215.87 1102.75 1215.99 1131.46 1212.01C1165.8 1206.87 1209.8 1194.59 1250.87 1180.07C1287.32 1167.44 1339.09 1146.04 1378.22 1128.01C1387.23 1123.9 1393.71 1120.91 1394.55 1120.52C1400.16 1117.89 1400.42 1117.69 1405.9 1115.1C1412.46 1111.98 1420.46 1108.19 1428.17 1104.43C1457.58 1090.11 1487.64 1074.41 1491.35 1072.46C1508.58 1063.41 1512.45 1061.19 1513.86 1060.44C1533.24 1050.01 1526.08 1053.91 1530.83 1051.34C1554.88 1038.16 1572.12 1028.43 1605.74 1009.07C1604.82 1009.54 1603.91 1010.01 1602.99 1010.47C1627.92 995.863 1611.52 1005.62 1616.64 1002.66C1618.65 1001.67 1672.81 969.019 1677.08 966.192C1691.34 957.343 1691.67 957.007 1692.91 956.241C1695.89 954.43 1731.88 931.743 1750.33 919.48C1771.84 905.246 1746.43 921.768 1751.74 918.239C1752.69 917.644 1775.1 902.828 1778.09 900.731C1781.39 898.477 1761.99 911.409 1762.27 911.171C1762.48 911.082 1794.63 889.403 1788.41 893.47C1783.44 896.861 1739.71 925.915 1730.05 931.965C1728.49 932.964 1731.38 930.996 1730 931.882C1724.78 935.902 1621.11 999.784 1616.3 1001.97C1621.72 998.836 1627.15 995.669 1632.58 992.474C1625.38 996.772 1618.2 1001.02 1611.04 1005.22C1621.24 999.284 1631.49 993.245 1641.76 987.108C1626.82 996.639 1580.42 1023.14 1578.2 1024.09C1577.31 1024.53 1605.93 1007.9 1579.16 1023.09C1583.2 1020.77 1587.26 1018.42 1591.31 1016.06C1599.79 1011.22 1607.97 1006.5 1616.1 1001.75C1610.66 1004.98 1605.4 1008.07 1599.81 1011.34C1601.9 1010.15 1603.91 1009.01 1605.91 1007.87C1621.1 999.059 1636.39 990.016 1651.74 980.759C1659.62 975.959 1657.94 976.892 1663.36 973.566C1730.11 931.969 1686.58 959.404 1730.07 931.673C1736.26 927.64 1742.45 923.576 1748.63 919.481C1746.63 920.962 1765.5 908.585 1788.38 893.209C1785.62 895.011 1782.86 896.807 1780.1 898.597C1813.51 876.583 1879.25 829.304 1861.61 842.198C1869.03 836.857 1876.45 831.477 1883.85 826.061C1890.13 821.539 1896.41 816.99 1902.67 812.416C1911.25 806.065 1919.79 799.672 1928.31 793.23C1928.34 793.181 1928.36 793.132 1928.39 793.084C1921.59 798.217 1914.78 803.322 1907.94 808.396C1913.03 804.528 1918.1 800.644 1923.17 796.743C1928.19 792.975 1933.21 789.191 1938.22 785.391C1917.26 801.386 1945.04 780.485 1951.74 775.388C1969.37 761.842 1980.42 752.91 1986.28 748.259C1989.08 746.125 2021.34 720.333 2008.6 730.326C2025.15 716.949 2041.38 703.541 2057.69 689.737C2064.04 684.325 2070.35 678.89 2076.63 673.435C2062.92 685.162 2102.33 650.807 2073.2 676.003C2051.32 694.757 2045.86 699.349 2035.44 708.047C2026 715.878 2020.94 719.947 2010.56 728.383C1940.54 784.985 1881.54 828.608 1811.25 877.148C1797.29 886.755 1784.55 895.304 1775.16 901.586C1764.55 908.662 1777.89 899.894 1764.37 908.856C1750.21 918.194 1746.92 920.216 1743.12 922.698C1740.75 924.248 1733.25 929.203 1726.32 933.656C1697.97 952.017 1655.93 977.685 1651.65 980.213C1647.15 983.36 1564.79 1031.46 1560.58 1033.41C1558.49 1034.57 1562.93 1032.43 1544.6 1042.29C1538.9 1045.43 1533.36 1048.46 1527.55 1051.61C1528.53 1051.13 1529.52 1050.65 1530.44 1050.2C1495.61 1068.78 1507.47 1062.6 1474.47 1079.75C1394.67 1121 1274.3 1176.69 1178.21 1200.95C1158.66 1205.78 1147.45 1208.41 1123.38 1211.78C1118.56 1212.43 1108.12 1213.59 1099.28 1213.93C1090.03 1214.28 1081.76 1214.2 1071.96 1213C1062.95 1211.86 1056.75 1210.04 1052.59 1208.54C1048.05 1206.82 1046.81 1206.11 1050.25 1207.52C1023.63 1197.03 1021.35 1174.97 1021.42 1164.37C1021.95 1150.22 1023.74 1144.03 1028.05 1130.4C1029.21 1127.16 1030.51 1123.83 1031.96 1120.4C1039.65 1102.14 1044.77 1093.21 1054.37 1077.19C1057.54 1072.02 1061.25 1066.2 1066.16 1059.11C1074.2 1047.95 1064.39 1060.53 1081.54 1038.47C1084.91 1034.22 1088.2 1030.24 1091.61 1026.26C1090.79 1027.16 1089.97 1028.06 1089.16 1028.96C1109.14 1005.97 1111.36 1004.93 1108.81 1007.47C1119.3 996.598 1129.99 986.549 1141.15 976.883C1142.57 975.714 1144.01 974.55 1145.45 973.391C1143.75 975.612 1093.46 1013.51 1054.48 1077.26C1046.98 1089.57 1040.63 1101.32 1035.63 1112.21C1030.77 1122.49 1024.88 1138.67 1023.06 1149.43C1015.89 1177.08 1031.62 1204.49 1056.8 1209.71C1079.68 1215.95 1100.34 1214.12 1118.93 1212.21C1134.46 1210.41 1147.69 1207.73 1154.74 1206.27C1209.17 1196.21 1312.63 1156.28 1352.68 1137.86C1368.68 1130.78 1376.84 1127.04 1399.82 1116.25C1422.47 1105.64 1452.79 1090.63 1464.74 1084.5C1506.14 1065.58 1694.83 955.944 1566.08 1029.95C1569.76 1027.82 1573.44 1025.68 1577.14 1023.52C1628.86 993.937 1609.47 1005.09 1651.52 979.884C1669.46 969.132 1710.44 943.509 1708.06 944.688C1676.35 964.778 1640.95 986.382 1612.85 1002.83C1610.4 1004.33 1575.69 1024.34 1558.23 1034.05C1542.32 1042.9 1553.81 1036.96 1518.7 1055.75C1492.45 1070.14 1477.5 1077.52 1470.68 1081.01C1458.96 1086.96 1457.72 1087.72 1445.41 1093.89C1432.07 1100.56 1423.01 1104.84 1421.21 1105.71C1404.07 1114.84 1308.64 1156.87 1303.01 1158.35C1306.97 1156.78 1310.95 1155.19 1314.97 1153.56C1289.27 1164.04 1294.77 1161.57 1288.11 1164.19C1283.21 1166.09 1278.36 1167.95 1273.56 1169.75C1275.47 1169.05 1277.39 1168.36 1279.32 1167.65C1250.6 1178.24 1271.95 1170.81 1229.13 1185.38C1203.56 1193.98 1171.86 1202.14 1170.19 1202.42C1169.42 1202.6 1177.86 1200.51 1166.93 1203.12C1146.85 1208.18 1115.91 1212.51 1110.48 1212.75C1100.41 1213.53 1101.42 1213.24 1100.1 1213.33C1098.72 1213.38 1091.56 1213.77 1082.56 1213.32C1070.88 1212.57 1059.72 1211.49 1046.44 1205.29C1033.99 1199.6 1025.11 1187.72 1023.06 1175.93C1020.88 1165.83 1022.51 1154.78 1023.25 1150.66C1024.92 1140.27 1030.07 1125.27 1035.32 1113.86C1040.25 1102.91 1046.7 1090.78 1054.81 1077.46C1066.91 1057.49 1082.11 1037.41 1097.68 1020.11C1101.2 1016.21 1098.9 1018.66 1102.48 1014.77C1107.91 1008.09 1139.67 978.249 1144.91 974.436C1157.27 963.381 1191.46 938.394 1197.34 934.835C1198.13 934.297 1186.48 942.293 1200.18 933.042C1215.61 922.895 1207.28 928.299 1208.1 927.737C1239.12 907.735 1260.4 896.5 1282.69 885.11C1289.92 881.435 1303.46 874.739 1314.12 869.869C1315.35 869.307 1312.95 870.487 1314.15 869.936C1330.46 862.44 1345.08 856.139 1352.11 853.216C1369.21 846.17 1359.94 850.091 1360.82 849.719C1372.13 845.126 1388.33 838.772 1405.56 832.568C1484.84 804.405 1550.59 786.902 1637.95 768.883C1648.9 766.657 1661.98 764.098 1663.67 763.783C1668.87 762.812 1667.49 763.112 1682.48 760.392C1714 754.73 1743.85 750.042 1775.31 745.714C1781.67 744.843 1784.37 744.412 1789.23 743.771C1805.5 741.439 1861.25 735.449 1862.15 735.257C1894.6 732.214 1916.2 730.293 1942.4 728.436C2004.35 723.76 2101.77 721.068 2163.84 722.334C2176.91 722.531 2182.99 722.624 2190.2 722.799C2202.86 722.792 2277.72 726.372 2281.32 726.887C2288.99 727.43 2284.74 726.613 2323.8 729.994C2346.56 731.984 2343.61 731.691 2348.54 732.138C2386.46 735.703 2420.88 740.783 2414.66 739.703C2458.32 745.645 2485.08 750.848 2502.81 754.081C2502.95 754.241 2521.27 757.716 2546.39 763.632C2520.8 757.763 2525.87 757.797 2465.04 747.106C2464.12 746.953 2465.87 747.318 2464.95 747.164C2456.63 745.763 2438.95 742.936 2424.03 740.879C2409.08 738.833 2417.37 740.022 2411.36 739.215C2406.04 738.519 2406.29 738.475 2398.64 737.516C2373.97 734.437 2350.49 732.105 2336.55 730.846C2327.62 730.032 2317.51 729.253 2310.45 728.706C2282.72 726.375 2225.33 723.246 2190.44 722.527C2183.24 722.356 2186.29 722.465 2170.46 722.17C2168.61 722.143 2161.88 721.93 2147.89 721.789C2133.8 721.654 2123.22 721.701 2114.33 721.731C2106.91 721.769 2110.03 721.659 2094.76 721.817C2081.7 720.957 1937.79 727.427 1929.98 728.987C1918.72 729.846 1913.38 730.377 1906.5 730.937C1905.29 731.037 1903.25 731.12 1899.07 731.475C1830.06 736.229 1678.17 757.781 1601.31 776.227C1440.73 813.428 1291.25 860.799 1158.11 963.052C1155.74 964.92 1153.39 966.801 1151.07 968.694C1164.4 957.736 1177.58 947.881 1191.48 938.275C1191.54 938.18 1191.61 938.086 1191.67 937.992C1210.62 925.101 1208.37 927.009 1207.8 927.378C1215.08 922.621 1222.04 918.257 1229.18 913.934C1235.09 910.057 1284.53 882.492 1311 870.773C1328.49 862.589 1348.72 854.103 1357.98 850.342C1377.46 842.45 1377.06 842.675 1378.58 842.048C1381.36 840.916 1408.6 830.683 1428.64 823.956C1458.52 814.008 1461.54 812.708 1502.66 800.924C1555.66 785.796 1614.62 772.26 1673.04 761.534C1662.03 763.378 1713.91 754.069 1737.69 750.606C1881.66 727.849 2061.59 717.418 2208.78 722.797C2228.03 723.433 2242.36 724.047 2252.87 724.591C2258.56 724.891 2261.04 725.107 2268.89 725.554C2270.37 725.647 2270.92 725.558 2286.07 726.537C2323.6 728.432 2413.51 738.378 2437.55 742.382C2499.76 751.728 2561.59 764.107 2621.69 784.469C2677.49 805.572 2751.54 830.833 2763.93 897.706C2764.26 900.937 2764.35 904.21 2764.2 907.52C2763.85 912.755 2762.77 921.529 2757.97 932.865C2743.78 969.305 2700.88 1019.19 2674.64 1043.98C2617.14 1100.87 2530.72 1160.63 2469.89 1197.17C2456.1 1205.53 2445.95 1211.56 2433.16 1218.93C2427.71 1222.07 2420.81 1225.91 2415 1229.16C2351.01 1265.43 2261.09 1308.74 2192.45 1337.25C2036.64 1402.38 1884.51 1449.58 1717.99 1485.91C1316.45 1572.83 895.481 1571.21 500.701 1464.92C343.113 1419.81 182.312 1382.12 45.9248 1292.33C39.4199 1287.31 39.7642 1287.62 35.2118 1283.78C23.2596 1272.98 -2.29045 1250.77 1.30151 1219.59C6.36074 1188.99 33.6126 1170.97 49.7121 1159.7C75.7474 1141.78 122.289 1122.15 132.093 1118.48C84.0757 1140.66 16.9877 1160.65 1.32192 1220.85C-1.25272 1252.19 24.0396 1275.22 46.7216 1292.74C68.9473 1309.52 97.2786 1324.84 121.734 1336.61C129.269 1340.23 130.369 1340.63 131.309 1341.07C149.525 1349.37 137.271 1344.09 162.365 1354.96C171.491 1359.58 250.423 1389.03 240.46 1385.31C259.087 1393.02 393.529 1435.47 421.942 1442.83C429.754 1445.07 424.207 1443.55 425.752 1444C432.379 1445.9 435.43 1446.67 441.465 1448.37C454.36 1452.02 484.67 1460.41 500.756 1464.71C504.374 1465.69 507.16 1466.43 508.696 1466.84C527.254 1471.93 582.671 1485.4 607.16 1490.61C629.81 1495.54 625.551 1494.71 645.115 1498.74C660.524 1501.81 643.768 1498.53 678.15 1505.11C694.949 1508.48 755.322 1518.65 769.854 1520.61C784.5 1522.79 800.464 1525 820.901 1527.62C850.244 1531.58 913.323 1538.09 943.407 1540.25C945.188 1540.39 949.521 1540.79 953.906 1541.12C962.985 1541.77 960.265 1541.49 967.115 1541.95C973.77 1543.07 1093.01 1548.28 1113.1 1547.74C1127.12 1547.9 1136.77 1547.96 1144.48 1547.96C1150.54 1547.95 1151.18 1547.87 1157.35 1547.84C1159.26 1547.83 1175.51 1547.8 1191.66 1547.48C1206.91 1547.38 1265.43 1545.17 1272.03 1544.69C1276.41 1544.47 1271.62 1544.78 1284.54 1544.09C1296.26 1543.46 1304.08 1542.91 1310.86 1542.48C1326.57 1541.48 1344.06 1540.26 1360.58 1538.9C1407.88 1534.85 1405.69 1534.65 1408.5 1534.44C1416.44 1533.63 1419.62 1533.37 1422.22 1533.1C1433.23 1531.99 1460.01 1528.93 1469.68 1527.71C1481.74 1526.22 1486.86 1525.49 1499.83 1523.76C1509.48 1522.47 1528.94 1519.86 1550.7 1516.53C1599.93 1509.06 1657.89 1498.49 1706.12 1488.2C1720.38 1485.17 1722.52 1484.61 1726.86 1483.66C1749.54 1478.65 1762.46 1475.66 1769.01 1474.12C1815.65 1463.42 1897.5 1441.1 1939.94 1427.85C1957.25 1422.83 2032.7 1398.57 2073.96 1383.23C2078.81 1381.46 2074.25 1383.07 2079.65 1381.11C2092.52 1376.41 2091.34 1376.94 2097.82 1374.52C2100.94 1373.35 2108.04 1370.63 2117.03 1367.18C2163.27 1349.41 2195.82 1335.58 2216.3 1326.73C2415.39 1236.95 2622.54 1130.72 2743.06 960.698C2748.13 952.381 2753.42 942.607 2757.6 932.71C2764.38 916.839 2766.75 898.134 2758.92 878.982C2758.5 878.021 2758.05 877.065 2757.58 876.114C2757.11 875.003 2756.61 873.897 2756.08 872.794C2735.57 839.322 2719.89 831.208 2685.93 811.874C2682.95 810.28 2673.12 805.57 2666.95 802.625C2631.6 787.759 2650.92 795.534 2623.1 785.34C2596.1 776.021 2568.01 768.402 2540.1 761.957C2525.36 758.353 2587.46 773.755 2592.54 775.872C2599.31 777.865 2606.19 779.903 2612.38 781.916C2629.83 787.484 2649.29 795.242 2652.87 796.688C2675.56 806.401 2647.33 794.356 2650.03 795.664C2664.94 801.628 2681.69 809.346 2695.75 817.361C2698.6 819.196 2722.04 832.091 2738.79 849.554C2746.96 857.862 2753.55 867.556 2756.95 874.899C2760.34 882.082 2761.27 886.626 2760.83 885.064C2763.06 892.342 2764.01 899.847 2763.61 907.545C2762.99 916.492 2760.77 924.587 2757.38 932.616C2749.72 950.184 2740.32 967.082 2721.12 991.948C2723.02 989.474 2724.6 987.355 2726.67 984.52C2726.42 985.533 2702.16 1014.76 2711.01 1004.34C2684.79 1033.94 2685.42 1033.06 2660.21 1056.81C2644.88 1070.63 2653.7 1063.44 2625.71 1087.12C2608.5 1101.44 2586.9 1118.05 2566.44 1132.77C2561.73 1136.16 2559.53 1137.82 2555.45 1140.7C2551.4 1143.55 2549.38 1144.88 2544.38 1148.33C2534.08 1155.47 2520.18 1164.78 2513.3 1169.24C2507.07 1173.3 2499.06 1178.44 2484.4 1187.57C2432.33 1219.34 2448.62 1209.11 2440.35 1214.15C2431.59 1219.26 2425.29 1222.81 2407.2 1232.89C2405.37 1233.9 2410.13 1231.35 2404.2 1234.63C2399.47 1237.22 2397.32 1238.37 2381.83 1246.67C2376.04 1250.56 2277.59 1299.66 2262.52 1305.76C2239.46 1316.53 2187.25 1339.13 2162.58 1348.95C2153.07 1352.8 2142.7 1356.86 2132.85 1360.71C2099.71 1373.77 2045.83 1393.46 2002.3 1407.76C1963.86 1420.77 1894.57 1441.44 1873.07 1447.04C1817.12 1462.36 1804.09 1465.21 1799.78 1466.38C1788.42 1469.19 1783.13 1470.41 1768.67 1473.83C1582.99 1519.49 1330.73 1548.96 1149.84 1547.58C931.446 1548.23 712.815 1521.29 500.848 1464.37C402.439 1437.8 305.425 1409.65 209.565 1373.46C162.778 1355.5 115.575 1335.73 72.3443 1309.54C49.6712 1295.38 29.6332 1281.24 14.1947 1260.53C-2.57402 1240.25 -1.88182 1208.83 15.9714 1189.62C16.7337 1188.73 17.5895 1187.77 18.3384 1186.96C0.060918 1204.87 -4.26246 1238.15 14.0502 1260.09C30.5818 1282.35 52.1764 1296.81 74.092 1310.39C128.905 1344.35 222.881 1379.17 267.269 1393.99C248.562 1387.62 219.536 1377.03 219.601 1376.89C252.078 1389.01 286.543 1400.68 318.473 1410.89C317.467 1410.62 316.463 1410.35 315.461 1410.09C351.467 1421.66 384.723 1431.63 421.9 1442.31C427.924 1444.03 423.641 1442.86 428.778 1444.32C434.517 1445.95 430.64 1444.8 431.715 1445.11C446.283 1449.23 450.88 1450.55 452.681 1451.05C457.381 1452.36 453.671 1451.29 467.35 1455.05C481.532 1458.95 493.857 1462.3 500.898 1464.19C506.288 1465.63 508.402 1466.15 505.772 1465.36C514.005 1467.55 522.236 1469.69 530.464 1471.79C532.58 1472.39 534.697 1472.98 536.813 1473.57C587.445 1485.95 610.646 1491.17 639.062 1496.78C648.365 1498.74 657.662 1500.64 666.954 1502.49C672.207 1503.45 677.458 1504.38 682.707 1505.3C683.719 1505.54 684.73 1505.78 685.742 1506.02C736.087 1515.33 789.629 1523.48 838.451 1529.33C872.344 1533.31 880.365 1534.09 910.329 1536.91C977.447 1542.56 910.866 1537.13 966.523 1541.2C963.626 1541.06 960.728 1540.92 957.829 1540.77C967.037 1541.46 976.234 1542.09 985.417 1542.67C991.814 1543.01 998.204 1543.33 1004.59 1543.62C1033.2 1545.4 1051.69 1545.75 1055.57 1545.89C1058.69 1545.96 1069.51 1546.64 1103.07 1547.07C1089.06 1547.09 1128.93 1547.41 1132.13 1547.35C1135.18 1547.42 1173.9 1547.36 1189.49 1546.99C1201.64 1546.8 1228.33 1546.05 1246.67 1545.3C1262.9 1544.64 1261.24 1544.74 1262.43 1544.7C1282.35 1543.76 1269.87 1544.31 1284.25 1543.56C1298.53 1542.79 1309.89 1542.12 1313 1541.91C1314.57 1541.81 1309.31 1542.09 1316.51 1541.61C1335.87 1540.37 1370.62 1537.68 1392.44 1535.57C1400.3 1534.83 1410.17 1533.8 1418.87 1532.89C1432.21 1531.49 1438.42 1530.86 1446.13 1529.99C1448.82 1529.67 1465.88 1527.63 1487.04 1524.9C1491.12 1524.38 1503.12 1523.07 1518.87 1520.49C1520.09 1520.37 1521.32 1520.24 1522.54 1520.12C1593.34 1509.88 1613.44 1505.33 1644.69 1499.97C1695.74 1490.08 1660.66 1496.71 1666.23 1495.63C1669.91 1494.9 1686.71 1491.56 1688.54 1491.17C1691.79 1490.49 1691.23 1490.57 1694.79 1489.83C1759.84 1475.96 1730.87 1482.12 1751.37 1477.62C1800.56 1466.25 1838.47 1456.67 1753.37 1477.09C1753.36 1477.07 1753.35 1477.05 1753.35 1477.02C1774.62 1472.32 1827.24 1459.06 1809.62 1463.35C1795.89 1467.43 1669.83 1495.48 1741.03 1479.53C1757 1475.87 1765.84 1474 1793.71 1467.02C1812.18 1462.43 1814.76 1462.05 1839.64 1455.44C1835.49 1456.62 1831.46 1457.75 1827.42 1458.88C1861.75 1450.15 1903.07 1438.3 1929.08 1430.49C1938.01 1427.88 1969.66 1418.4 1962.19 1420.34C1976.68 1416.09 2046.08 1392.75 2058.39 1388.12C2061.39 1386.99 2065.49 1386.11 2109.67 1369.41C2112.71 1368.23 2115.74 1367.05 2118.77 1365.86C2078.72 1381.08 2149.26 1353.97 2130.04 1361.14C2123.69 1363.77 2091.84 1375.89 2086.58 1377.81C2077.73 1381.13 2104.23 1371.54 2070.48 1383.84C2049.3 1391.23 2109.85 1369.24 2100.47 1372.29C2144.09 1355.92 2148 1353.86 2158.03 1349.89C2200.03 1332.84 2226.07 1321.6 2264.69 1303.9C2274.52 1299.69 2203.37 1331.62 2194.96 1334.76C2227.04 1321.36 2172.16 1344.85 2147.75 1354.22C2145.75 1355.09 2143.74 1355.96 2141.82 1356.79C2173.33 1344.28 2202.27 1332.17 2232.97 1318.66C2234.94 1317.77 2236.9 1316.87 2238.86 1315.97C2232.06 1318.96 2225.22 1321.93 2218.32 1324.88C2243.64 1313.7 2228.75 1320.61 2261.8 1305.44C2262.85 1305.04 2263.89 1304.64 2264.94 1304.24C2296.57 1289.66 2327.94 1274.34 2359.2 1258.08C2375.76 1250.03 2434.33 1217.33 2423.53 1223.05C2447.13 1209.52 2418.13 1226.3 2440.13 1213.67C2449.54 1208.26 2468.14 1197.11 2472.81 1194.16C2470.59 1195.38 2442.93 1211.9 2434.42 1216.56C2439.49 1215.58 2567.68 1133.04 2554.85 1139.86C2564.7 1132.81 2560.5 1136.08 2578.11 1123.2C2627.71 1087.72 2697.53 1024.47 2726.02 984.193C2690.62 1029.56 2677.13 1040.26 2644.61 1069.93C2625.86 1091.22 2484.29 1188.84 2515.65 1166.98C2510.13 1170.57 2505.04 1173.84 2499.8 1177.15C2494.55 1180.57 2489.24 1183.99 2483.85 1187.4C2499.06 1177.95 2513.86 1168.43 2529.12 1158.2C2532.66 1155.74 2536.18 1153.29 2539.65 1150.84C2541.29 1149.77 2542.93 1148.69 2544.55 1147.62C2550.73 1143.36 2556.53 1139.3 2563.01 1134.66C2561.22 1135.89 2559.41 1137.11 2557.59 1138.34C2567.4 1131.37 2576.91 1124.42 2586.1 1117.49C2583.66 1119.41 2581.21 1121.32 2578.72 1123.24C2621.62 1090.74 2608 1100.84 2630.9 1081.92C2647.86 1067.28 2618.8 1093 2655.53 1060.54C2695.24 1022.19 2671.18 1048.83 2718.53 994.169C2719.18 993.393 2719.84 992.618 2720.49 991.845C2730.21 979.369 2739.3 966.273 2747.16 952.154C2746.14 954.077 2745.07 956.012 2743.96 957.96C2748.83 949.772 2753.41 940.958 2757 932.455C2769.12 906.856 2759.71 879.88 2755.72 873.704C2762.93 888.291 2762.67 897.581 2762.91 900.387C2762.94 903.423 2762.91 901.132 2762.45 896.813C2762.18 892.662 2758.85 871.231 2739.18 851.193C2719.67 830.402 2687.8 812.098 2653.32 797.915C2584.1 769.392 2505.98 755.561 2480.55 750.866C2416.72 739.658 2366.15 734.206 2307.34 729.411C2347.56 730.858 2488.84 750.126 2515.33 757.411C2518 757.981 2516.89 757.384 2533.84 761.436C2587.63 774.171 2652.41 789.918 2711.98 828.356C2710.23 827.082 2708.44 825.815 2706.6 824.557C2670.77 802.109 2632.71 789.67 2637.91 791.551C2629.55 788.409 2621.74 785.694 2613.94 783.129C2613.96 783.082 2613.97 783.035 2613.99 782.988C2602.22 779.113 2589.3 775.254 2576.95 771.884C2576.94 771.931 2576.93 771.979 2576.92 772.026C2567.1 769.341 2556.97 766.757 2546.54 764.275C2545.47 763.969 2544.39 763.664 2543.31 763.36C2512.69 755.021 2406.09 738.326 2452.81 745.936C2438.33 743.641 2423.26 741.477 2408.32 739.536C2408.37 739.506 2408.42 739.476 2408.47 739.447C2402.29 738.638 2396.05 737.856 2389.76 737.102C2391.83 737.381 2393.89 737.663 2395.94 737.949C2367.29 734.356 2338.77 731.849 2320.11 730.206C2332.77 731.23 2344.82 732.308 2357.91 733.614C2333.45 731.031 2289.27 727.674 2284.91 727.465C2272.38 726.648 2266.43 726.367 2253.19 725.669C2241.3 725.067 2242.92 725.11 2240.7 725.003C2175.53 722.448 2200.88 723.874 2170.66 722.764C2167.45 722.756 2164.24 722.755 2161.02 722.759C2156.74 722.659 2152.45 722.57 2148.15 722.491C2128.71 722.327 2110.23 722.379 2091.05 722.636C2097.41 722.49 2103.75 722.367 2110.08 722.268C2081.62 722.437 2068.13 722.972 2065.36 723.019C2057.45 723.211 2053.94 723.238 2051.53 723.305C1935.36 727.869 2005.81 725.046 1947.9 728.643C1927.21 729.968 1948.13 728.386 1951.05 728.088C1923.58 730.029 1914.86 730.668 1885.94 733.263C1878.41 733.954 1870.31 734.803 1865.56 735.28C1861.44 735.687 1848.56 736.941 1838.68 738.042C1822.23 739.857 1800.3 742.519 1777.85 745.581C1759.25 747.982 1702.03 756.558 1662.54 764.242C1645.6 767.485 1649.56 766.812 1645.19 767.665C1643.37 768.02 1630.23 770.584 1619.5 772.87C1531.55 791.546 1442.49 816.641 1358.78 850.757C1299.99 874.765 1241.87 903.968 1189.37 940.574C1178.32 948.366 1184.2 944.282 1179.43 947.713C1177.74 949.024 1175.97 949.822 1159.16 963.037C1153.17 967.844 1160.09 962.364 1154.22 967.099C1151.45 969.447 1149.88 970.209 1134.1 984.144C1105.55 1009.89 1092.61 1026.59 1090.39 1028.95C1086.26 1033.86 1087.45 1032.27 1081.97 1039.08C1071.53 1052.21 1062.73 1064.93 1055.01 1077.59C1041.33 1100.63 1033.1 1115.85 1025.9 1140C1024.38 1143.77 1011.81 1191.69 1047.79 1205.66C1078.96 1218.51 1111.86 1211.6 1115.86 1211.86C1130.34 1210.08 1116.74 1211.84 1135.04 1209.1C1140.23 1208.28 1145.57 1207.33 1151.07 1206.25C1142.36 1208.04 1134.01 1209.5 1126.06 1210.63C1136.96 1209.11 1149.62 1206.76 1161.82 1204.01C1172.43 1201.64 1182.88 1198.94 1191.36 1196.59C1192.92 1196.16 1200.94 1193.92 1210.73 1190.92C1219.37 1188.29 1229.66 1184.93 1236.76 1182.54C1230.73 1184.54 1224.79 1186.46 1218.95 1188.27C1221.01 1187.6 1223.08 1186.92 1225.16 1186.22C1253.6 1177.07 1283.05 1166.06 1311.88 1154.27C1322.32 1149.97 1319.2 1151.22 1329.31 1146.97C1387.89 1121.53 1374.72 1127.63 1430.27 1100.56C1411.79 1110.11 1340.42 1142.49 1330.82 1146.12C1324.09 1149.07 1294.83 1161.28 1305.39 1156.63C1246.82 1179.4 1299.39 1159.89 1242.82 1180.26C1243.92 1179.83 1245.03 1179.41 1246.14 1178.98C1226.1 1185.88 1214.13 1189.55 1200.69 1193.57C1195.77 1194.95 1130.23 1213.89 1090.78 1212.85C1064.41 1213.2 1027.64 1205.83 1023.33 1173.59C1020.07 1142.54 1034.3 1116.66 1046.53 1093.15C1049.72 1087.36 1052.76 1082.19 1055.41 1077.83C1059.9 1070.42 1062.78 1066.13 1063.63 1064.84C1065.51 1061.98 1071.07 1054.08 1075.24 1048.56C1089.31 1026.53 1145.25 972.476 1161.98 961.473C1120.34 994.128 1082.89 1032.8 1055.48 1077.87C1041.01 1102.07 1030.51 1122.32 1024.82 1146.75C1018.11 1171.45 1027.11 1199.94 1053.64 1207.41C1101.02 1220.94 1153.94 1205.98 1200.48 1193.37C1183.82 1200.68 1327.76 1149.68 1334.98 1144.24C1341.47 1141.46 1335.98 1143.74 1337.91 1142.91C1352.29 1136.71 1364.97 1131.11 1369.69 1128.98C1373.2 1127.39 1380.8 1123.92 1393.29 1118.09C1395.52 1117.05 1396.16 1116.8 1398.57 1115.67C1414.48 1108.18 1430.49 1100.42 1447.01 1092.16C1448.02 1091.66 1452.16 1089.51 1456.36 1087.39C1460.5 1085.3 1464.36 1083.41 1465.39 1082.88C1477.97 1076.5 1499.86 1064.99 1512.18 1058.36C1516.44 1056.08 1513.51 1057.71 1518.3 1055.13C1533.09 1047.12 1528.07 1049.76 1545.7 1040.09C1551.6 1036.83 1551.24 1037.13 1562.58 1030.77C1570.62 1026.24 1569.69 1026.59 1570.97 1025.87C1572.6 1024.98 1601.03 1008.82 1609.61 1003.64C1590.09 1014.79 1630.83 991.169 1628.96 992.314C1639.75 985.865 1650.59 979.304 1661.45 972.638C1665.17 970.393 1668.89 968.135 1672.62 965.866C1715.4 939.244 1742.31 921.952 1783.51 894.293C1785.52 893.019 1820.44 869.071 1818.78 870.108C1797.85 884.532 1776.94 898.571 1763.6 907.538C1741.49 921.835 1740.83 922.638 1704.65 945.628C1692.52 953.278 1691.64 953.733 1690.24 954.611C1642.85 984.603 1564.78 1029.72 1532.29 1047.32C1523.15 1052.29 1555.94 1034.24 1543.16 1041.24C1536.9 1046.67 1363.12 1133.32 1418.68 1105.9C1412.91 1108.68 1407.18 1111.41 1401.49 1114.09C1396.21 1116.46 1366.22 1130.25 1369.74 1128.81C1366.92 1130.04 1364.11 1131.26 1361.31 1132.46C1355.81 1134.88 1349.33 1137.73 1340.39 1141.58C1306.63 1161.83 1091.24 1228.66 1075.3 1211.73C1075.02 1211.66 1074.73 1211.58 1074.45 1211.51C1175.03 1214.16 1266.9 1172.49 1366.54 1129.85C1363.63 1131.2 1360.74 1132.53 1357.86 1133.86C1398.89 1115.57 1436.8 1097.08 1475.57 1077.03C1434.99 1098.14 1367.59 1130.18 1324.28 1148.07C1316.03 1151.53 1322.1 1149.05 1320.21 1149.85C1315.3 1151.89 1309.83 1154.13 1292.59 1160.92C1276.25 1167.63 1231.09 1183.59 1227.45 1184.52C1223.57 1185.78 1216.75 1187.95 1208.96 1190.27C1200.44 1192.83 1191.47 1195.33 1184.72 1197.13C1167.14 1201.7 1178.94 1198.7 1175.42 1199.61C1161.91 1203.04 1146.67 1206.21 1135.25 1208.07C1130.93 1208.78 1125.56 1209.6 1119.95 1210.28C1113.98 1211.02 1106.31 1211.72 1099.93 1211.98C1093.41 1212.28 1087.46 1212.23 1082.57 1211.97C1076.54 1211.66 1071.67 1211 1068.62 1210.46C1082.54 1212.54 1093.19 1212.35 1106.6 1211.48C1076.06 1213.74 1034.42 1210.79 1025.34 1179.26C1018.11 1149.73 1033.16 1119.36 1048.62 1090.88C1056.45 1077.03 1028.77 1127.69 1052.48 1084.73C1047.72 1092.85 1043.57 1100.56 1040.03 1107.85C1039.15 1109.54 1038.31 1111.21 1037.51 1112.86C1035.06 1118.15 1031.44 1126.9 1029.21 1133.88C1026.85 1141.27 1025.39 1147.04 1024.36 1154.44C1025 1149.66 1025.57 1146.87 1026.53 1142.82C1025.77 1145.8 1025.16 1148.68 1024.69 1151.45C1024.12 1154.73 1023.68 1158.61 1023.56 1161.9C1023.34 1168.78 1023.86 1174.02 1025.77 1180.18C1029.81 1192.74 1038.78 1200.27 1049.24 1204.88C1068.79 1213.07 1088.77 1211.84 1096.81 1211.71C1097.87 1211.73 1098.94 1211.74 1100.03 1211.75C1148.85 1210.12 1219.6 1186.73 1206.6 1190.64C1207.77 1190.3 1208.95 1189.95 1210.13 1189.6C1211.17 1189.29 1212.22 1188.98 1213.26 1188.67C1240.27 1180.05 1228.86 1183.73 1239.25 1180.31C1240.68 1179.84 1255.37 1174.76 1266.55 1170.58C1276.89 1166.73 1284.19 1163.88 1272.65 1168.2C1323.88 1148.39 1308.68 1154.21 1323.19 1148.37C1354.94 1135.29 1414.72 1107.33 1389.99 1118.66C1394.66 1116.47 1399.36 1114.26 1404.08 1112.01C1419.69 1104.8 1435.17 1097.03 1452.54 1088.23C1458.62 1085.16 1463.89 1082.48 1469.59 1079.56C1473.38 1077.68 1477.18 1075.78 1480.99 1073.86C1534.28 1045.55 1518.48 1054.53 1541.87 1041.1C1538.13 1043.12 1534.4 1045.12 1530.68 1047.11C1521.73 1051.97 1512.4 1056.98 1503.35 1061.77C1540.57 1041.96 1575.38 1022.42 1611.33 1001.33C1655.86 974.855 1681.74 959.254 1730.41 927.811C1735.01 924.861 1739.61 921.894 1744.21 918.91C1739.43 921.843 1721.74 933.458 1754.72 911.795C1757.56 909.824 1735.16 924.511 1724.99 931.102C1722.54 932.703 1743.52 919.287 1719.99 934.429C1704.02 944.573 1732.92 926.26 1685.15 956.361C1686.91 955.238 1688.66 954.112 1690.42 952.983C1685.24 956.229 1680.09 959.432 1674.89 962.65C1670.19 965.618 1665.5 968.567 1660.82 971.496C1648.68 978.783 1641.77 982.948 1614.35 999.162C1621.77 994.82 1611.86 1000.84 1598.13 1008.8C1598.11 1008.77 1598.09 1008.73 1598.07 1008.7C1564.23 1028.14 1575.93 1021.59 1548.06 1037.07C1545.3 1038.64 1542.54 1040.2 1539.79 1041.75C1524.91 1050.05 1467.25 1080.19 1477.94 1074.76C1462.59 1082.57 1427.66 1100.08 1415.32 1106.1C1414.34 1106.52 1413.36 1106.95 1412.37 1107.38C1405.68 1110.58 1399.05 1113.71 1392.46 1116.77C1388.93 1118.45 1384.81 1120.39 1380.96 1122.18C1375.99 1124.44 1371.05 1126.66 1366.15 1128.84C1363.21 1130.2 1360.28 1131.55 1357.37 1132.89C1349.54 1136.31 1341.81 1139.62 1334.16 1142.83C1329.46 1144.87 1325.08 1146.75 1319.9 1148.94C1318.8 1149.49 1271.45 1168.38 1257.64 1173.11C1253.41 1174.61 1249.23 1176.06 1245.08 1177.47C1243.08 1178.21 1241.08 1178.94 1239.09 1179.66C1236.04 1180.66 1233 1181.65 1230 1182.6C1223.09 1184.91 1216.38 1187.08 1209.69 1189.15C1179.21 1197.98 1179.14 1197.64 1172.52 1199.4C1169.46 1200.15 1165.05 1201.21 1159.21 1202.49C1152.9 1203.87 1145.89 1205.27 1139.31 1206.41C1126.12 1208.72 1114.92 1209.86 1110.38 1210.24C1102.76 1210.88 1099.3 1211.08 1093.64 1211.2C1044.69 1211.65 1035.93 1194.41 1033.3 1192.45C1030.76 1188.9 1033.2 1193.12 1028.63 1185.02C1024.22 1174.94 1024.08 1169.5 1024.49 1159.65C1025.18 1151.25 1026.92 1140.35 1034.59 1121.57C1040.61 1106.87 1049.6 1090.62 1056.88 1078.73C1060.33 1073.08 1062.84 1069.29 1063.38 1068.46C1067.06 1062.96 1058 1075.67 1070.24 1057.94C1070.26 1057.14 1099.27 1020.75 1085.81 1037.76C1097.66 1023.09 1110.51 1009.24 1124.58 995.804C1123.26 997.385 1139.5 981.331 1159.91 965.216C1187.32 941.545 1258.01 900.17 1255.67 901.96C1263.31 897.789 1271.42 893.528 1278.88 889.75C1331.54 862.654 1386.49 840.888 1442.23 822.489C1608.91 767.572 1798.92 739.053 1973.02 728.905C1981.38 728.423 1980.13 728.429 1986.21 728.1C2018.07 726.098 2100.6 723.814 2144.98 724.478C2159.35 724.589 2166.28 724.659 2170.8 724.731C2186.11 725.014 2182.48 725.044 2189.5 725.207C2200.11 725.289 2259.97 727.627 2279.62 729.098C2289.84 729.744 2301.83 730.657 2313.54 731.57C2314.55 731.649 2312.69 731.43 2313.55 731.497C2334.83 733.234 2322.02 732.246 2329.19 732.851C2380.91 737.351 2435.77 744.053 2490.98 754.349C2505.13 756.962 2524.59 760.953 2537.06 763.83C2541.59 764.885 2533.52 763.015 2549.09 766.703C2554.37 767.982 2556.18 768.356 2562.03 769.839C2586.18 776.109 2596.53 779.402 2617.16 786.005C2658.85 799.188 2729.24 831.185 2749.99 867.315C2754.98 875.463 2756.73 879.236 2759.19 887.667C2760.96 893.538 2762.09 905.177 2760.38 914.17C2759.63 918.706 2758.23 924.589 2755.24 931.712C2752.47 938.308 2748.68 946.136 2743.5 955.04C2734.01 971.797 2717.87 992.275 2715.34 995.278C2711.95 999.46 2710.37 1001.47 2706.75 1005.71C2696.07 1018.81 2665.05 1049.98 2649.01 1063.84C2631.03 1079.83 2621.56 1087.41 2615.19 1092.63C2609.54 1097.21 2602.68 1102.53 2599.96 1104.64C2595.82 1107.87 2595.1 1108.52 2589.98 1112.43C2581.64 1118.76 2572.86 1125.28 2559.46 1134.84C2322.73 1299.52 2052.26 1401.87 1780.59 1468.64C1749.81 1475.97 1733.04 1479.88 1687.71 1489.31C1669.29 1493.06 1677.05 1491.58 1662.68 1494.4C1656.36 1495.62 1657.95 1495.25 1649.94 1496.78C1614.66 1503.57 1572.29 1510.59 1557.11 1512.9C1550.98 1513.85 1543.96 1514.87 1531.32 1516.72C1437.12 1530.67 1324.41 1541.15 1222.19 1544.04C1167.95 1545.9 1085.82 1545.59 1023.51 1542.48C851.428 1535.08 667.883 1506.25 516.008 1465.95C511.158 1464.68 506.309 1463.4 501.459 1462.1C389.274 1431.7 277.093 1399.2 170.493 1355.35C118.002 1332.62 63.0115 1309.19 23.0002 1267.65C2.59205 1247.57 -3.08722 1213.77 17.2948 1191.77C35.7385 1169.42 61.3736 1154.95 86.7784 1141.93C62.7023 1154.44 35.2375 1169.03 15.7313 1193.92C6.49034 1205.82 1.08797 1222.6 5.61489 1237.79C9.88025 1253.22 20.6138 1266.12 32.9267 1277.53C84.3704 1321.81 147.888 1346.18 205.151 1369.07C300.439 1405.46 400.432 1434.65 501.506 1461.92C753.988 1530.06 1023.62 1555.55 1283.54 1541.28C1410.15 1535.02 1569.43 1514.74 1705.25 1485.41C1711.42 1484.1 1724.18 1481.42 1737.37 1478.46C1740.02 1477.92 1775.26 1469.69 1786.97 1466.77C1775.92 1469.68 1821.79 1458.24 1835.75 1454.46C1853.94 1449.7 1890.8 1439.87 1932.27 1427.29C1969.93 1415.75 1959.41 1418.79 1961.51 1418.17C1974.69 1413.99 1979.28 1412.62 1989.28 1409.38C2031.71 1398.15 2239.67 1317.4 2294.79 1287.85C2309.43 1280.82 2309.74 1280.54 2313.01 1278.95C2321.69 1274.7 2333.57 1268.89 2347.38 1261.82C2372.81 1248.84 2399.54 1234.2 2413.54 1226.31C2445.79 1208.51 2504.4 1173.2 2543.78 1145.59C2554.59 1138.08 2553.59 1138.65 2558.75 1134.99C2581.54 1119.3 2634.59 1077.94 2659.29 1054.17C2696.77 1018.96 2734.2 978.955 2755 931.611C2755.8 929.731 2756.51 927.864 2757.15 926.01C2758.26 922.661 2759.11 919.356 2759.71 916.094C2760.72 910.983 2761.18 905.92 2760.93 900.479C2757.19 853.711 2708.91 825.719 2669.15 806.749C2627.76 787.687 2582.17 774.52 2537.82 764.285C2527.09 761.505 2476.55 751.717 2467.43 750.439C2460.47 749.266 2453.58 748.053 2442.97 746.449C2428.01 744.251 2442.23 746.407 2417.46 742.906C2410.85 742.011 2416.92 742.73 2404.06 741.046C2400.31 740.066 2314.97 731.37 2310.62 731.487C2303 730.898 2296.14 730.548 2294.15 730.411C2283.81 729.709 2284.24 729.643 2277.26 729.187C2257.43 727.874 2230.86 726.772 2227.53 726.653C2187.53 724.738 2113.32 723.935 2071.35 725.108C2065.53 725.238 2066.23 725.306 2065.21 725.331C2058.58 725.503 2054.57 725.521 2048.37 725.7C2015.02 726.57 1962.37 729.371 1928.8 732.016C1924.92 732.307 1916.73 732.897 1909.8 733.475C1870.76 736.851 1883.44 735.92 1881.22 736.088C1875.96 736.591 1866.71 737.384 1852.73 738.845C1816.66 742.397 1747.89 751.558 1709.55 758.218C1680.92 763.076 1681.44 763.228 1679.56 763.537C1675.6 764.268 1664.28 766.217 1645.49 769.932C1609.38 777.23 1613.71 776.587 1598.87 779.82C1597.63 780.112 1599.75 779.509 1583.3 783.3C1551.57 790.282 1481.22 809.488 1448.37 820.61C1435.57 824.795 1432.57 825.731 1419.68 830.197C1399.56 836.895 1353.41 855.244 1350.19 856.837C1349.2 857.253 1346.94 858.106 1341.17 860.579C1334.85 863.287 1328.61 866.086 1323.74 868.282C1296.03 880.294 1251.51 904.199 1264.03 897.815C1255.5 902.334 1247.13 906.952 1238.93 911.67C1185.31 943.16 1136.79 979.381 1095.92 1025.91C1087.05 1036.07 1079.7 1045.48 1072.89 1054.9C1070.07 1058.79 1063.41 1068.21 1056.98 1078.78C1046.14 1096.33 1038.37 1112.89 1036.69 1116.9C1035.65 1119.23 1031.26 1129.4 1028.56 1138.92C1027.11 1144.02 1026.05 1148.3 1025.17 1154.52C1024.25 1161.22 1024.21 1167.51 1025.07 1173.06C1027.69 1199.15 1057.34 1207.18 1060.42 1207.68C1081.22 1212.72 1100.85 1210.67 1110.24 1210.03C1113.91 1209.71 1114.08 1209.69 1115.07 1209.62C1115.57 1209.57 1116.28 1209.51 1117.78 1209.35C1119.06 1209.21 1120.91 1209.01 1123.98 1208.61C1134.37 1207.29 1150.5 1204.34 1163.82 1201.21C1176.09 1198.38 1187.3 1195.27 1190.73 1194.32C1193.54 1193.46 1188.57 1195.27 1215.56 1187.06C1229.3 1182.76 1237.06 1180.01 1242.28 1178.23C1243.82 1177.63 1241.73 1178.77 1270.09 1168.34C1288.68 1161.38 1297.06 1157.86 1299.04 1157.09C1302.09 1155.87 1309.43 1153.04 1321.96 1147.81C1349.04 1136.74 1400.97 1112.88 1426.29 1100.32C1431.37 1097.81 1429.58 1098.87 1449.98 1088.68C1464.65 1081.28 1461.66 1082.69 1466.99 1079.97C1475.28 1075.72 1487.69 1069.44 1506.35 1059.5C1530.38 1048.67 1699.56 948.609 1706.76 942.323C1712.5 938.673 1719.16 934.408 1721.99 932.548C1719.53 934.085 1717.07 935.617 1714.61 937.143C1689.42 953.293 1699.54 946.665 1692.84 950.887C1683.42 956.875 1645.91 979.896 1636.94 985.143C1633.73 987.042 1641.01 982.634 1623.79 992.832C1605.37 1003.69 1597.24 1008.51 1589.51 1012.76C1562.72 1028.42 1537.17 1042.28 1567.97 1024.97C1586.57 1016.12 1751.51 914.886 1783.55 891.379C1810.34 873.454 1859.62 839.064 1891.47 815.507C1910.33 801.854 1955.73 767.149 1953.71 768.469C1969.99 755.823 1952.82 769.277 1956.24 766.634C1963.49 761.277 2013.88 721.045 2023.11 713.188C2069.56 675.166 2126.59 624.876 2168.31 584.302C2166.35 586.155 2164.38 588.005 2162.41 589.854C2153.22 598.886 2108.05 640.459 2102.92 644.607C2169.5 585.148 2232.42 522.91 2290.56 455.268C2290.19 457.268 2358.86 371.485 2361.31 366.053C2360.12 367.608 2358.92 369.162 2357.72 370.716C2320.62 420.574 2323.49 415.514 2296.59 448.161C2285.7 460.938 2288.9 457.023 2283.45 463.299C2227.7 525.518 2283.21 464.597 2239.58 511.94C2252.51 498.001 2217.15 535.684 2200.26 552.335C2196.51 556.503 2146.35 605.074 2139.97 610.611C2105.65 642.915 2044.88 695.34 2008.71 724.478C1980.21 747.557 1964.24 759.942 1937.83 780.147C1917.71 795.415 1923.5 791.066 1914 798.205C1894.06 813.089 1887.21 817.815 1874.45 827.414C1860.72 837.317 1846.94 847.091 1833.13 856.731C1833.15 856.764 1833.17 856.798 1833.2 856.831C1824.59 862.866 1815.72 869.015 1806.95 875.034C1804.34 876.775 1801.73 878.511 1799.12 880.242C1771.24 899.238 1782.95 891.372 1777.8 894.999C1771.77 899.053 1765.74 903.08 1759.71 907.078C1754.97 910.101 1750.31 913.064 1745.46 916.131C1717.89 934.171 1690.92 951.258 1662.99 968.38C1661.2 969.525 1659.41 970.667 1657.62 971.805C1657.54 971.806 1657.46 971.807 1657.38 971.808C1610.36 1000.47 1562.45 1028.04 1514.14 1053.99C1501.65 1060.89 1578.21 1018.77 1584.21 1014.93C1616.69 996.828 1700.92 944.999 1700.61 944.69C1720.26 932.649 1778.5 894.38 1796.16 881.967C1769.01 900.457 1741.72 918.459 1713.89 936.231C1714.76 935.619 1715.63 935.006 1716.49 934.393C1682.1 956.478 1677.24 959.508 1640.88 981.318C1640.88 981.395 1640.88 981.471 1640.88 981.547C1615.87 996.485 1570.93 1022.68 1569.42 1023.13C1555.8 1030.87 1542.27 1038.41 1528.86 1045.74C1498.72 1061.48 1545.47 1038.39 1427.71 1097.93C1419.51 1101.93 1421.22 1101.2 1409.01 1107.05C1405.63 1108.6 1385.18 1118.61 1345.53 1135.97C1339.45 1138.62 1339.01 1138.88 1332.76 1141.56C1318.51 1147.76 1287.3 1160.06 1301.32 1154.67C1242.56 1177.6 1266.71 1167.78 1247.74 1174.67C1235.03 1179.03 1237.61 1178.27 1226.89 1181.78C1213.77 1185.63 1223.67 1183.96 1169.1 1198.26C1174.99 1196.85 1181.03 1195.31 1187.21 1193.64C1184.11 1194.51 1181.04 1195.36 1178.02 1196.17C1148.8 1203.29 1148.84 1202.92 1134.56 1205.31C1128.89 1206.27 1123.58 1207.03 1118.43 1207.64C1112.49 1208.34 1106.23 1208.89 1100.3 1209.16C1094.31 1209.44 1088.37 1209.48 1082.4 1209.17C1074.9 1208.78 1067.51 1207.84 1060.49 1206.02C1031.11 1196.87 1031.63 1185.97 1028.19 1179.01C1026.64 1172.3 1022.22 1160.92 1033.64 1128.62C1034.7 1125.77 1035.95 1122.68 1037.17 1119.83C1038.16 1117.55 1039.21 1115.22 1040.32 1112.84C1042.55 1108.09 1045.06 1103.15 1047.83 1098.01C1055.42 1084.14 1051.77 1090.48 1058.23 1079.54C1059.64 1077.21 1061.63 1073.97 1064.61 1069.41C1052.51 1087.77 1085.67 1038.44 1093.3 1031.64C1093.94 1030.82 1094.58 1030 1095.23 1029.19C1099.29 1024.48 1103.48 1019.82 1107.79 1015.23C1107.83 1015.24 1107.87 1015.25 1107.91 1015.26C1113.64 1009.13 1119.6 1003.1 1125.77 997.183C1130.31 992.91 1134.88 988.76 1139.6 984.632C1147.27 977.763 1155.24 971.038 1163.49 964.458C1168.78 960.294 1173.82 956.465 1179.01 952.649C1177.4 953.894 1175.79 955.144 1174.2 956.399C1180.77 951.448 1187.51 946.584 1194.41 941.805C1186.55 947.489 1191.18 943.819 1213.4 929.379C1231.89 917.914 1210.53 930.16 1250.55 906.927C1253.26 905.612 1258.8 901.655 1297.37 882.565C1345.13 860.063 1322.07 871.04 1330.62 867.051C1332.38 866.264 1346.76 859.997 1360.72 854.344C1368.61 851.127 1376.32 848.069 1377.38 847.656C1382.33 845.734 1383.8 845.234 1390.73 842.619C1408.03 836.075 1431.23 827.947 1448.76 822.293C1456.7 819.713 1464.21 817.408 1467.64 816.348C1473.04 814.673 1479.91 812.525 1485.43 810.89C1505.72 804.78 1537.57 796.501 1546.85 793.902C1566.56 788.987 1608.85 779.121 1605.73 780.062C1658.81 766.764 1803.93 745.612 1799.67 746.657C1830.57 743.07 1827.82 743.33 1840.75 741.865C1855.23 740.299 1847.74 741.152 1859.25 739.951C1886.13 737.195 1911.84 734.948 1938.71 733.025C1934.5 733.285 1930.28 733.555 1926.06 733.836C1954.24 731.766 1944.56 732.508 1973.24 730.769C2026.23 727.968 2003.92 729.186 2011.73 728.665C2009.72 728.697 2071.85 726.619 2078.43 726.681C2082.21 726.639 2065.62 726.652 2103.88 726.244C2101.79 726.302 2099.7 726.363 2097.61 726.427C2114.91 726.054 2162.41 726.433 2170.44 726.668C2174.19 726.721 2193.66 726.766 2211.73 727.666C2213.94 727.701 2216.14 727.739 2218.35 727.78C2238.61 728.584 2258.53 729.63 2278.25 730.926C2281.52 731.058 2284.77 731.197 2288.01 731.343C2294.45 731.779 2300.85 732.24 2307.21 732.728C2302.98 732.469 2298.74 732.223 2294.48 731.987C2333.69 734.574 2381.59 739.972 2389.49 740.782C2397.84 741.82 2405.69 742.85 2414.26 744.037C2419.83 744.709 2425.36 745.403 2430.85 746.12C2469.45 751.918 2469.49 752.166 2496.19 757.176C2495.18 756.923 2494.16 756.671 2493.14 756.42C2512.17 760.01 2548.01 767.742 2574.45 775.066C2587.41 778.476 2610.13 785.48 2612.79 786.448C2615.37 787.078 2645.71 798.385 2648.69 799.578C2691.18 817.198 2708.57 829.543 2722.66 840.508C2731.57 847.876 2736.58 852.544 2744.3 862.392C2756.77 878.149 2760.46 896.885 2759.29 907.98C2758.77 913.913 2758.38 915.046 2757.43 919.231C2755.79 925.658 2754.32 928.91 2753.5 930.975C2751.75 934.846 2752.61 934 2745.63 947.4C2744.5 949.531 2736.98 963.19 2725.86 978.415C2719.71 987.314 2703.29 1007.05 2701.24 1009.15C2693.71 1017.34 2700.64 1010.54 2675.37 1036.57C2676.1 1035.8 2676.83 1035.02 2677.56 1034.25C2646.12 1065 2639.7 1069.37 2633.18 1075.28C2632.36 1075.99 2624.32 1082.73 2619.33 1086.81C2610.94 1093.71 2607.4 1096.57 2605.48 1098.11C2598.12 1104.04 2576.71 1120.41 2560.79 1131.81C2563.67 1129.87 2509.94 1166.75 2497.61 1174.41C2487.95 1180.52 2478.06 1186.62 2467.94 1192.71C2463.44 1195.5 2458.7 1198.4 2454.28 1201.08C2451.58 1202.64 2448.86 1204.2 2446.13 1205.76C2431.8 1214.29 2417.06 1222.8 2401.9 1231.27C2400.87 1231.73 2399.92 1232.15 2398.95 1232.58C2394.89 1234.83 2390.79 1237.07 2386.67 1239.31C2383.49 1241.11 2380.28 1242.91 2377.06 1244.71C2371.84 1247.48 2366.58 1250.24 2361.27 1253C2359.93 1253.63 2358.59 1254.27 2357.25 1254.91C2328.07 1269.71 2344.3 1262.58 2288.86 1288.88C2280.1 1293.09 2271.77 1297.02 2263.28 1300.98C2253.61 1305.22 2235.45 1313.56 2220.4 1320.08C2209.73 1324.7 2210.48 1324.31 2196.32 1330.32C2182.14 1336.3 2182.63 1336.14 2181.52 1336.61C2169.87 1341.46 2160.94 1345.01 2152.23 1348.52C2150.97 1349.02 2147.45 1350.55 2136.67 1354.8C2125.8 1359.07 2119.2 1361.55 2102.72 1367.8C2094.25 1371 2091.82 1371.98 2084.24 1374.78C2048.39 1388.05 2012 1400.02 1984.81 1409.29C1978.83 1411.26 1934.22 1425.08 1914.66 1430.72C1885.07 1439.38 1896.47 1436.12 1884.63 1439.52C1882.91 1439.99 1873.89 1442.6 1848.5 1449.43C1843.95 1450.65 1844.99 1450.32 1844.33 1450.49C1815.12 1458.42 1757.19 1472.58 1724.85 1479.52C1721.93 1480.15 1706.74 1483.41 1680.64 1488.89C1642.16 1496.74 1569.18 1509.98 1517.96 1516.77C1510.83 1517.78 1502.15 1519.01 1498.98 1519.43C1471.5 1522.93 1481.97 1521.89 1420.31 1528.88C1425.3 1528.27 1410.85 1529.78 1390.35 1531.71C1359.89 1534.48 1381.57 1532.71 1357 1534.77C1356.99 1534.73 1356.99 1534.69 1356.99 1534.64C1300.19 1539.09 1288.94 1539.57 1231.88 1541.79C1211.22 1542.55 1180.98 1543.16 1176.11 1543.19C1174.23 1543.24 1151.8 1543.32 1149.65 1543.3C1137.56 1543.33 1130.72 1543.34 1120.25 1543.26C1085.68 1543.05 1044.84 1541.4 1052.2 1541.89C1042.73 1541.51 1033.24 1541.08 1023.74 1540.59C987.807 1539.18 961.433 1536.86 953.861 1536.55C947.479 1536.03 941.092 1535.49 934.699 1534.92C788.607 1523.05 643.51 1498.31 501.93 1460.34C494.88 1458.45 487.915 1456.56 481.035 1454.69C474.191 1452.86 412.09 1435.41 407.466 1433.96C392.073 1429.51 407.919 1434.39 377.218 1425.23C373.879 1424.15 370.565 1423.08 367.277 1422C329.378 1410.39 347.051 1415.85 331.763 1411.14C325.319 1409.09 327.385 1409.69 318.79 1406.94C272.571 1392.54 177.596 1358.79 129.62 1335.23C119.715 1330.51 121.291 1331.28 118.298 1329.83C110.787 1326.15 93.3541 1317.22 78.4449 1308.25C54.0789 1293.17 26.5062 1275.7 11.3207 1247.68C-5.90157 1218.24 19.5218 1185.41 47.2859 1167.21C104.402 1129 171.907 1108.14 226.296 1090.37C233.628 1088.07 234.546 1087.72 239.572 1086.17C246.499 1084.03 262.549 1079.29 269.675 1077.23C276.57 1075.21 281.015 1073.88 288.542 1071.74C322.524 1062.02 369.051 1049.84 405.651 1040.48C408.784 1039.65 447.333 1029.78 448.197 1029.58C453.331 1028.22 418.824 1036.5 475.383 1022.5C424.718 1034.81 440.67 1030.52 506.112 1014.58C473.167 1022.49 440.417 1030.46 407.445 1038.74C407.391 1038.73 407.337 1038.72 407.283 1038.7C437.327 1030.99 466.767 1023.69 512.421 1012.69C510.987 1013.01 509.554 1013.33 508.122 1013.65C467.912 1023.18 419.295 1035.14 388.82 1042.79C433.679 1031.2 478.326 1020.21 523.368 1009.27C521.127 1009.79 518.887 1010.31 516.649 1010.82C494.977 1015.96 447.913 1027.39 430.184 1031.78C361.801 1048.66 489.816 1016.85 468.849 1022.01C396.657 1039.67 324.706 1057.82 253.668 1078.97C250.585 1077.14 526.968 1006.6 524.387 1008.03C501.655 1013.46 479.144 1018.88 456.344 1024.46C466.501 1021.9 476.546 1019.39 486.6 1016.89C483.817 1017.54 481.039 1018.2 478.264 1018.85C439.895 1028.13 401.861 1037.52 363.655 1047.43C479.616 1017.64 533.787 1005.5 561.602 998.179C558.432 998.922 555.263 999.666 552.097 1000.41C527.09 1006.67 407.77 1035.11 345.146 1051.92C357.774 1048.38 413.257 1034.26 425.198 1031.3C428.541 1030.45 416.829 1033.31 424.602 1031.33C444.441 1026.19 530.683 1005.26 518.113 1008.21C509.812 1009.95 371.919 1043.69 344.985 1051.31C407.814 1034.53 473.014 1018.69 536.467 1003.35C496.415 1012.79 460.738 1020.88 387.887 1039.37C365.442 1044.67 520.08 1006.28 523.749 1005.61C496.875 1012 470.224 1018.38 443.328 1024.95C466.061 1019.36 488.548 1013.92 511.341 1008.45C511.403 1008.42 511.465 1008.38 511.527 1008.35C452.828 1022.41 399.219 1035.22 332.279 1053.14C334.506 1052.39 374.444 1041.85 393.809 1036.97ZM2030.06 706.633C2031.09 705.686 2011.62 721.785 2000.49 730.715C2002.15 729.357 2003.8 727.997 2005.46 726.637C1981.91 745.946 1937.09 780.543 1935.26 781.604C1917.98 794.7 1925.7 789.014 1920.13 793.243C1917.96 794.902 1895.26 811.796 1876.92 825.197C1872.56 828.362 1868.19 831.515 1863.82 834.655C1862.94 835.216 1862.06 835.776 1861.18 836.336C1855.12 840.763 1849.06 845.165 1842.98 849.541C1907.07 804.28 1969.57 756.74 2029.97 706.707C2030 706.682 2030.03 706.658 2030.06 706.633ZM1371.46 1124.63C1345.1 1136.8 1305.56 1153.11 1313.32 1149.72C1330.99 1142.45 1345.91 1136.02 1362.82 1128.47C1365.69 1127.2 1368.57 1125.92 1371.46 1124.63ZM2404.95 1229.75C2384.4 1241.26 2364.92 1251.66 2331.94 1268.3C2331.97 1268.25 2332 1268.2 2332.03 1268.15C2345.21 1261.71 2381.37 1242.91 2404.95 1229.75ZM2473.51 163.747C2475.32 158.794 2477.05 153.848 2478.7 148.909C2471.61 168.809 2470.19 173.015 2460.9 195.048C2460.33 196.356 2460.49 195.886 2460.29 196.342C2458 201.651 2455.83 206.588 2453.62 211.394C2449.3 220.665 2445.74 228.205 2437.19 244.682C2430.4 257.579 2430.59 257.192 2428.2 261.572C2426.47 265.075 2405.3 301.464 2390.29 323.949C2364.76 368.72 2475.27 181.869 2473.51 163.747ZM2503.54 16.2862C2503.42 21.2918 2503.19 26.3118 2502.86 31.3456C2503.8 16.1351 2502.54 47.0256 2498.69 69.1317C2499.33 69.0283 2505.08 20.7682 2503.79 0.0210695C2503.83 5.42778 2503.75 10.8502 2503.54 16.2862ZM2193.29 559.945C2207.43 545.842 2204.92 548.08 2204.32 548.644C2199.86 553.146 2195.37 557.64 2190.85 562.125C2191.66 561.399 2192.48 560.672 2193.29 559.945ZM2294.77 450.797C2290.9 455.38 2262.67 487.577 2248.43 502.711C2247.81 503.367 2251.73 499.261 2241.75 509.948C2238.98 513.099 2209.39 543.524 2216.01 536.948C2242.8 509.479 2269.92 479.956 2294.73 450.841C2294.74 450.826 2294.75 450.812 2294.77 450.797ZM2322.62 417.028C2317.51 423.35 2312.31 429.665 2307.04 435.971C2304.36 439.269 2301.66 442.565 2298.94 445.859C2305.02 438.678 2310.99 431.485 2316.86 424.283C2318.79 421.866 2320.71 419.447 2322.62 417.028ZM396.054 1431.84C397.901 1432.33 399.755 1432.82 401.616 1433.32C405.169 1434.34 415.808 1437.48 424.185 1439.93C431.882 1442.19 437.559 1443.85 432.311 1442.39C421.438 1439.28 407.829 1435.33 396.054 1431.84ZM253.063 1386.24C246.166 1383.84 239.556 1381.5 232.845 1379.07C224.41 1375.91 216.237 1372.77 208.323 1369.66C244.641 1383.52 279.551 1395.03 274.179 1393.5C282.352 1396.29 291.049 1399.19 298.454 1401.63C292.062 1399.4 292.645 1399.63 313.32 1406.26C317.398 1407.73 340.795 1415.17 365.045 1422.54C348.173 1417.43 327.63 1411.03 310.245 1405.4C310.238 1405.42 310.23 1405.44 310.222 1405.47C350.177 1418.21 301.271 1402.99 274.276 1393.59C272.148 1392.9 270.033 1392.21 267.932 1391.52C262.895 1389.75 257.939 1387.99 253.063 1386.24ZM2467.78 750.93C2472.68 751.735 2478.36 752.703 2483.58 753.624C2503.82 757.705 2462.67 749.562 2433.61 745.75C2443.49 746.902 2398.07 740.616 2395.95 740.498C2401.05 741.059 2406.02 741.626 2411.14 742.236C2430.6 744.866 2449.5 747.767 2467.78 750.93ZM2613.13 785.24C2595.49 779.077 2681.41 808.336 2705.03 826.512C2711.62 830.575 2721.9 838.061 2725.51 841.222C2727.62 843.009 2730.49 845.573 2732.76 847.783C2734.33 849.449 2745.53 858.799 2753.86 875.365C2762.2 890.736 2761.52 911.791 2757.87 922.236C2757.31 924.324 2756.65 926.431 2755.89 928.557C2755.52 929.53 2755.12 930.506 2754.71 931.486C2752.01 937.823 2748.79 944.328 2745.06 950.981C2745.63 950.05 2746.18 949.122 2746.73 948.196C2743.58 953.929 2740.16 959.533 2736.89 964.535C2723.07 984.965 2731.73 972.839 2720.51 987.849C2708 1003.72 2728.32 977.49 2727.95 977.343C2731.59 972.285 2736.57 965.006 2741.2 957.279C2746.48 948.511 2751.19 939.305 2754.52 931.407C2757.56 924.249 2759.05 918.005 2759.74 913.451C2760.38 908.817 2760.25 909.304 2760.42 905.6C2760.11 902.141 2762.08 893.418 2753.49 874.953C2751.44 870.919 2748.96 866.93 2746.08 863.036C2743.55 859.611 2740.69 856.235 2737.52 852.909C2725.02 839.808 2712.42 830.921 2697.02 821.703C2694.4 820.232 2691.7 818.777 2688.94 817.338C2687.84 816.106 2651.36 799.09 2653.54 800.382C2638.62 794.163 2608.17 783.037 2573.87 773.891C2570.76 773.017 2567.62 772.154 2564.44 771.3C2595.88 779.799 2574.47 773.945 2584.18 776.556C2590.07 778.136 2607.19 783.279 2613.13 785.24ZM623.799 1490.9C568.499 1478.58 602.798 1486.65 543.425 1472.34C547.584 1473.3 551.742 1474.25 555.899 1475.18C584.91 1482.53 633.234 1492.73 623.857 1490.91C623.837 1490.91 623.818 1490.9 623.799 1490.9ZM60.4114 1298.1C88.8319 1316.18 72.6817 1307.08 109.669 1326.88C109.686 1326.89 109.702 1326.9 109.718 1326.91C90.5159 1317.11 72.597 1307 55.153 1294.73C56.8629 1295.85 58.6156 1296.97 60.4114 1298.1ZM1901.09 1435.91C1930.49 1427.28 1925.11 1428.93 1951.93 1420.59C1991.83 1408.21 1958.12 1418.8 1958.14 1418.91C1949.01 1421.73 1939.82 1424.51 1930.57 1427.26C1908.17 1434.08 1929.48 1427.78 1929.47 1427.78C1929.45 1427.79 1929.43 1427.8 1929.42 1427.8C1929.42 1427.84 1930.16 1427.63 1921.56 1430.22C1914.56 1432.2 1907.92 1434.04 1901.09 1435.91ZM2027.68 1396.14C2017.55 1399.49 2013.07 1400.98 2039.44 1391.82C2039.46 1391.82 2039.48 1391.81 2039.49 1391.8C2041.78 1391.23 2066.47 1382.37 2078.18 1378.06C2081.24 1376.97 2084.28 1375.87 2087.31 1374.77C2067.02 1382.31 2047.82 1389.19 2027.68 1396.14ZM2452.3 1203.83C2452.35 1203.55 2432.36 1215.4 2460.37 1198.53C2465.99 1195.16 2471.54 1191.78 2477.03 1188.4C2480.65 1186.22 2484.25 1184.04 2487.81 1181.86C2555.49 1137.05 2577.16 1125.52 2460.46 1198.67C2460.44 1198.68 2460.42 1198.69 2460.41 1198.7C2457.6 1200.49 2454.95 1202.16 2452.3 1203.83ZM2326.76 1272C2325.8 1272.36 2324.84 1272.71 2323.88 1273.07C2308.27 1281.1 2286.33 1291.56 2255.09 1305.99C2252.2 1307.28 2249.29 1308.56 2246.38 1309.83C2234.46 1316.27 2114.97 1365.19 2140.78 1354.32C2152.21 1349.77 2177.11 1339.7 2179.16 1338.82C2186.32 1335.84 2195.58 1331.87 2207.45 1326.78C2214.15 1323.92 2229.36 1317.44 2243.4 1311.13C2274.76 1297.23 2331.19 1269.95 2371.94 1248.49C2374.82 1246.93 2377.68 1245.37 2380.52 1243.81C2409.7 1228.03 2400.28 1233.35 2427.63 1217.74C2447.15 1208.36 2316.55 1277.78 2343.66 1263.5C2343.64 1263.51 2343.62 1263.52 2343.6 1263.53C2337.94 1266.41 2332.42 1269.18 2326.76 1272ZM1439.49 1527.94C1437.52 1528.33 1398.48 1532.22 1407.67 1531.49C1394.84 1532.69 1382.22 1533.78 1369.56 1534.79C1369.65 1534.76 1369.75 1534.73 1369.84 1534.71C1382.42 1533.64 1394.96 1532.49 1407.7 1531.24C1407.75 1531.2 1407.79 1531.16 1407.84 1531.12C1426.94 1529.66 1504.74 1519.97 1502.54 1519.92C1506.75 1519.4 1510.94 1518.88 1515.14 1518.34C1552.51 1512.93 1584.44 1508.01 1624.99 1500.57C1628.13 1500.04 1631.26 1499.51 1634.39 1498.97C1636.41 1498.56 1638.44 1498.16 1640.46 1497.74C1655.07 1495 1669.73 1492.14 1684.52 1489.12C1732.51 1479.41 1639.33 1498.68 1628.17 1500.29C1626.67 1500.56 1626.9 1500.44 1617.5 1502.11C1600.68 1505.5 1507.27 1520.19 1477.83 1523.38C1477.59 1523.47 1477.35 1523.56 1477.11 1523.64C1464.62 1525.16 1452.08 1526.59 1439.49 1527.94ZM2602.12 1102.17C2603.82 1100.76 2605.51 1099.36 2607.18 1097.95C2636.15 1074.99 2653.08 1058.95 2646.17 1065.52C2646.16 1065.53 2646.15 1065.54 2646.13 1065.56C2631.14 1078.83 2617.81 1089.85 2602.12 1102.17ZM1497.36 1063.66C1496.56 1064.2 1480.84 1072.6 1460.93 1082.62C1461.88 1082.1 1462.82 1081.59 1463.76 1081.07C1474.22 1075.81 1487 1069.22 1519.9 1051.53C1519.93 1051.58 1519.96 1051.63 1519.99 1051.68C1512.4 1055.74 1504.86 1059.73 1497.36 1063.66ZM2577.04 1121.31C2568.1 1128.14 2541.66 1146.52 2558.85 1134.34C2572.16 1124.85 2581.83 1117.69 2577.04 1121.31ZM12.9923 1198.97C8.77532 1205.61 5.62077 1213.36 4.83841 1221.27C4.35058 1225.36 4.49757 1229.69 5.15819 1233.61C5.15499 1233.59 5.15178 1233.57 5.14861 1233.55C2.93375 1221.66 6.31932 1209.23 12.9923 1198.97ZM1798.9 1463.31C1826.16 1456.56 1853.8 1449.27 1881.05 1441.62C1881.33 1441.58 1881.61 1441.53 1881.89 1441.49C1854.57 1449.02 1843.37 1452.01 1836.93 1453.74C1836.96 1453.73 1836.99 1453.72 1837.02 1453.71C1816.58 1459.11 1797.11 1464.01 1777.48 1468.76C1784.65 1466.97 1791.79 1465.15 1798.9 1463.31ZM1704.32 1485.23C1708.95 1483.97 1715.05 1482.93 1757.38 1473.38C1755.69 1473.8 1754.01 1474.22 1752.32 1474.64C1730.46 1479.63 1717.64 1482.29 1721.52 1481.58C1715.8 1482.81 1710.07 1484.03 1704.32 1485.23ZM2128.95 1359.07C2124.28 1361.07 2085.42 1375.65 2087.45 1374.79C2088.46 1374.54 2138.42 1355.34 2128.95 1359.07ZM1767.71 902.271C1759.77 907.573 1752 912.713 1743.86 918.052C1754.67 911.018 1765.03 904.196 1775.62 897.138C1772.98 898.854 1770.34 900.566 1767.71 902.271ZM1854.26 843.064C1859.77 839.066 1841.69 851.857 1874.71 828.027C1850.65 845.443 1826.64 862.331 1801.98 879.183C1813.48 871.364 1825.09 863.36 1836.37 855.475C1834.43 856.911 1832.48 858.344 1830.54 859.775C1838.45 854.249 1846.36 848.678 1854.26 843.064ZM1880 824.357C1867.28 834.004 1934.94 784.085 1940.95 779.088C1942.33 778.027 1948.84 772.889 1951.24 771C1941.19 778.751 1931.1 786.438 1920.97 794.061C1924.33 791.481 1927.7 788.894 1931.06 786.3C1919.21 795.267 1907.36 804.114 1895.36 812.932C1900.52 809.181 1905.62 805.441 1910.73 801.678C1900.58 809.267 1890.29 816.861 1880 824.357ZM1597.78 1008.2C1607.02 1002.83 1615.92 997.605 1625.03 992.19C1623.25 993.316 1621.46 994.44 1619.68 995.56C1614.25 998.768 1608.83 1001.95 1603.42 1005.1C1601.59 1006.11 1599.7 1007.14 1597.78 1008.2ZM1781.11 893.555C1768.14 901.977 1733.55 925.55 1774.25 898.284C1778.35 895.514 1782.34 892.761 1781.11 893.555ZM1965.84 759.805C1991.94 739.523 1985.82 743.853 1961.35 763.164C1960.12 764.132 1963.88 761.32 1965.84 759.805ZM2153.98 598.732C2155.89 596.887 2159.31 593.618 2177.57 576.087C2180.53 573.187 2183.58 570.172 2186.6 567.174C2179.81 574.384 2118.34 631.897 2126.77 624.016C2136.35 615.24 2144.28 607.897 2153.98 598.732ZM2093.94 654.265C2084.46 662.625 2074.9 670.939 2065.25 679.203C2068.4 676.442 2071.54 673.677 2074.67 670.906C2069.95 674.979 2065.2 679.041 2060.43 683.09C2052.35 690.091 2044.21 697.046 2036.12 703.888C2057.22 686.331 2078.34 668.22 2098.84 650.044C2097.21 651.452 2095.58 652.859 2093.94 654.265ZM1828.78 861.78C1848.63 847.84 1873.05 830.624 1904.93 806.982C1904.95 806.97 1904.96 806.959 1904.98 806.947C1906.56 805.771 1909.33 803.639 1914.42 799.833C1919.02 796.976 2003.44 731.28 1996.64 736.098C1964.21 761.93 1951.98 771.277 1943.97 777.177C1942.4 778.442 1940.83 779.706 1939.26 780.968C1907.65 805.113 1898.35 811.602 1880.23 824.77C1880.32 824.748 1880.41 824.726 1880.5 824.705C1868.42 833.497 1856.3 842.191 1844.14 850.781C1845.84 849.551 1847.54 848.318 1849.24 847.083C1844.94 850.132 1840.64 853.167 1836.34 856.19C1825.97 863.608 1812.46 872.994 1828.78 861.78ZM2136.56 615.672C2145.79 608.275 2227.62 528.969 2262.11 489.553C2243.24 510.245 2214.69 540.277 2193.16 561.565C2151.87 602.066 2180.34 574.002 2173.3 580.832C2169.9 584.172 2146.41 606.797 2136.56 615.672ZM1755.05 911.712C1778.88 895.953 1792.27 886.965 1812.8 872.724C1811.07 873.896 1809.33 875.064 1807.6 876.231C1800.57 881.314 1743 919.713 1755.05 911.712ZM2311.98 431.773C2276.14 474.684 2293.83 453.173 2275.01 475.1C2287.65 460.84 2299.62 446.883 2312.03 431.82C2312.01 431.805 2312 431.789 2311.98 431.773ZM2525.61 1158.74C2505.38 1172.3 2484.42 1185.47 2471.99 1192.92C2485.79 1184.47 2498.81 1176.24 2512.12 1167.53C2516.67 1164.6 2521.17 1161.67 2525.61 1158.74ZM2509.18 756.424C2514.41 757.402 2534.53 761.84 2537.09 762.473C2541.24 763.424 2540.11 763.13 2540.17 763.133C2566.87 769.511 2542.37 763.69 2561.79 768.538C2564.53 768.969 2611.28 781.944 2628.1 788.434C2642.76 793.638 2656.27 799.148 2666.9 803.98C2678.95 809.439 2687.77 814.171 2692.43 816.763C2708.02 825.438 2739.45 844.666 2754.01 871.656C2759.6 882.755 2761.15 886.957 2762.44 899.578C2763.05 910.049 2761.52 920.006 2756.44 932.22C2722.41 1012.72 2615.92 1095.95 2565.07 1132.4C2550.09 1143.21 2536.99 1152.23 2528.92 1157.65C2522.7 1161.79 2516.37 1165.93 2509.93 1170.07C2491.27 1182.47 2484.77 1186.25 2463.3 1199.23C2449.67 1207.41 2443.81 1210.88 2441.93 1211.98C2429.99 1218.93 2423.94 1222.31 2414.27 1227.73C2403.14 1233.98 2388.16 1242.15 2384.24 1244.24C2381.73 1245.48 2389.89 1241.43 2347 1263.63C2304.17 1285.52 2260.78 1305.93 2214.92 1325.78C2230.16 1318.8 2243.34 1313.23 2261.55 1304.91C2266.43 1302.67 2263.32 1304.04 2267.55 1302.09C2279.17 1296.78 2302.94 1285.52 2312.66 1280.71C2323.3 1275.46 2319.65 1277.14 2332.99 1270.52C2333.67 1270.19 2331.57 1271.3 2334.7 1269.74C2366.67 1253.57 2376.84 1248.31 2416.36 1226.32C2443.11 1214.48 2595.7 1113.26 2597.97 1107.62C2625.35 1089.23 2469.16 1199.26 2447.83 1208.04C2441.19 1211.94 2448.2 1207.9 2442.13 1211.47C2439.73 1212.89 2415.72 1226.72 2392.29 1239.39C2364.09 1255 2305.94 1284.29 2277.34 1297.4C2036.53 1409.26 1781.24 1482.04 1518.35 1519.57C1512.73 1520.35 1505.33 1521.36 1486.89 1523.76C1164.17 1566.07 821.135 1549.57 501.203 1463.05C482.159 1457.94 463.761 1452.89 445.994 1447.9C372.304 1427.15 301.242 1405.57 228.981 1379.23C219.597 1375.74 210.54 1372.27 201.804 1368.83C225.052 1378.04 266.216 1392.31 270.511 1393.7C271.722 1394.12 281.466 1397.53 295.157 1402.04C314.261 1408.34 323.337 1411.11 324.938 1411.63C330.067 1413.26 326.681 1412.24 331.611 1413.8C369.153 1425.58 395.255 1433.28 429.867 1443.16C460.103 1451.75 479.195 1456.87 501.258 1462.84C505.685 1464.04 510.222 1465.26 515.007 1466.53C518.17 1467.31 521.332 1468.09 524.494 1468.86C545.078 1475.17 669.395 1503.14 720.367 1510.8C736.49 1513.52 733.669 1512.94 739.084 1513.83C742.53 1514.33 741.197 1514.51 783.249 1520.66C804.382 1523.66 809.975 1524.27 820.707 1525.67C826.529 1526.41 825.576 1526.36 833.935 1527.39C882.205 1533.24 921.591 1536.92 969.078 1540.18C982.388 1541.06 982.532 1540.99 985.508 1541.18C996.41 1541.84 1015.58 1543.08 1043.63 1544.16C1089.56 1546.35 1181.51 1546.41 1219.14 1544.87C1224.69 1544.7 1229.29 1544.48 1233.37 1544.34C1239.55 1544.13 1241.97 1544.1 1243.05 1544.06C1263.66 1543.23 1251.26 1543.68 1265.04 1543.08C1272.46 1542.73 1280.21 1542.46 1297.37 1541.48C1320.31 1540.1 1315.78 1540.24 1325.34 1539.61C1326.35 1539.54 1326.66 1539.6 1336.03 1538.92C1371.45 1536.43 1422.95 1531.47 1456.31 1527.44C1465.9 1526.3 1472.96 1525.4 1486.29 1523.69C1513.82 1521.32 1665.78 1495.59 1678.07 1492.02C1679.38 1491.75 1665.83 1494.4 1687.4 1490.02C1693.67 1488.78 1699.92 1487.52 1706.15 1486.24C1716.54 1483.97 1726.88 1481.65 1737.17 1479.28C1736.62 1479.81 1798.02 1465.38 1797.2 1465.18C1803.83 1463.53 1810.44 1461.86 1817.03 1460.17C1830.71 1456.82 1840.03 1454.41 1866.74 1447.2C1870.88 1446.02 1875.01 1444.82 1879.13 1443.62C1880.18 1443.36 1881.22 1443.1 1882.27 1442.84C1896.41 1438.71 1919.19 1432.2 1922.21 1431.29C1933.12 1428.05 1941.23 1425.52 1946.3 1423.96C1965.27 1418.21 2005.58 1405.26 2027.62 1397.59C2028.65 1397.24 2027.62 1397.52 2033.82 1395.37C2044.97 1391.49 2046.11 1391.22 2060.78 1385.86C2063.76 1384.83 2066.73 1383.8 2069.69 1382.77C2072.85 1381.61 2076.11 1380.41 2079.3 1379.22C2098.25 1372.3 2116.91 1365.24 2135.25 1358.05C2118.6 1364.4 2137.36 1357.1 2156.15 1349.65C2162.42 1347.16 2156.9 1349.47 2158.99 1348.64C2162.2 1347.77 2244.25 1312.77 2249.61 1309.83C2253.47 1308.11 2257.32 1306.39 2261.15 1304.66C2263.06 1303.73 2264.97 1302.8 2266.87 1301.87C2268.97 1300.91 2271.07 1299.96 2273.17 1299.01C2294.78 1289.11 2348.05 1262.84 2358.33 1257.26C2363.53 1254.51 2358.95 1256.81 2383.62 1243.68C2384.49 1243.28 2385.37 1242.87 2386.25 1242.46C2391.86 1239.45 2397.35 1236.46 2402.93 1233.39C2413.79 1227.42 2429.05 1218.61 2429.48 1218.27C2432.77 1216.43 2436.04 1214.59 2439.29 1212.75C2447.54 1208.04 2494.62 1179.59 2512.13 1167.94C2517.56 1164.34 2522.92 1160.75 2528.2 1157.15C2535.35 1152.41 2542.36 1147.67 2549.23 1142.94C2564.96 1131.89 2548.32 1143.5 2551.66 1141.14C2559.08 1136.22 2595.9 1109.01 2593.07 1110.74C2597.74 1107.17 2602.85 1103.19 2607.8 1099.26C2610.38 1097.27 2612.93 1095.29 2615.45 1093.31C2623.49 1086.43 2638.16 1075.15 2665.44 1049.46C2667.73 1047.34 2669.79 1045.41 2672.22 1043.11C2680.91 1034.58 2689.02 1026.14 2696.55 1017.83C2698.18 1016.15 2699.65 1014.62 2701.44 1012.7C2704.98 1008.74 2708.38 1004.81 2711.64 1000.91C2718.1 993.082 2729.4 978.449 2734.59 970.413C2741.7 959.049 2736.96 967.884 2721.15 988.657C2721.72 987.911 2745.31 957.48 2755.59 931.862C2760.82 919.559 2761.6 909.821 2761.66 904.446C2761.67 905.589 2761.64 906.803 2761.59 907.893C2761.07 915.678 2759.12 923.674 2755.64 931.882C2752.15 940.114 2747.79 948.617 2742.58 957.355C2737.25 966.196 2748.5 949.425 2755.81 931.954C2759.98 922.236 2761.69 912.766 2761.88 905.707C2761.62 903.963 2763.84 890.975 2753.38 871.57C2752.33 869.662 2750.4 866.389 2747.6 862.544C2745.08 859.089 2741.91 855.279 2738.31 851.523C2734.75 847.799 2730.69 844.095 2727.34 841.282C2724.34 838.758 2721.78 836.802 2720.54 835.852C2675.78 806.466 2710.97 826.86 2663.89 803.512C2673.29 807.683 2647.7 795.575 2618.02 785.75C2613.91 783.962 2569.98 770.965 2567.82 770.706C2549.97 766.135 2569.67 771.114 2543.27 764.687C2540.06 763.9 2536.83 763.123 2533.57 762.356C2526.98 760.877 2521.44 759.685 2515.32 758.412C2478.36 751.207 2468.55 749.733 2455.79 747.556C2450.44 746.699 2457.37 747.84 2443.42 745.67C2438.13 744.869 2432.32 743.9 2417.78 741.906C2373.83 736.125 2357.21 734.771 2316.92 731.052C2310.6 730.58 2304.25 730.134 2297.86 729.714C2293.56 729.354 2289.23 729.006 2284.89 728.67C2252.16 726.758 2264.12 727.409 2252.32 726.752C2220.96 724.884 2157.22 723.608 2151.47 723.822C2124.08 723.236 2092.41 723.893 2081.58 724.092C2075.24 724.167 2068.88 724.265 2062.51 724.387C2055 724.602 2047.71 724.842 2040.29 725.117C2043.91 724.681 2005.49 726.4 2001.76 726.655C1997.37 726.725 1938.46 730.036 1916.41 732C1894.42 733.672 1856.33 737.526 1852.96 737.931C1849.11 738.302 1811.81 742.269 1782.8 746.235C1757.28 748.197 1607.71 775.739 1617.42 774.698C1627.07 772.598 1640.89 769.73 1652.92 767.38C1689.72 757.298 1910.8 728.89 1967.9 728.184C2081.66 721.305 2201.32 721.574 2315.65 730.753C2322.35 731.296 2323.37 731.315 2329.08 731.807C2337.55 732.509 2360.03 734.756 2368.72 735.725C2400.66 739.048 2440.15 744.667 2456.88 747.457C2495.4 753.762 2519.98 758.76 2549.75 765.849C2558.52 767.802 2603.91 779.629 2633.12 790.657C2638.74 792.697 2644.22 794.779 2649.53 796.904C2633.87 790.147 2593.89 777.006 2574.01 771.947C2546.43 764.55 2529.24 761.058 2519.53 758.96C2511.27 756.988 2464.06 748.073 2443.64 745.208C2437.09 744.217 2435.73 744.091 2430.06 743.273C2399.03 738.745 2359.29 734.371 2332.66 731.995C2343.69 732.808 2275.6 727.497 2272.04 727.554C2266.02 727.195 2259.5 726.737 2247.07 726.118C2223.18 725.016 2225.83 725.211 2196.02 724.15C2188.67 723.985 2181.29 723.853 2173.88 723.753C2173.37 723.195 2079.69 723.133 2052.8 724.159C2052.16 723.505 2174.18 722.724 2184.16 723.708C2244.88 724.793 2333.04 730.624 2391.92 738.025C2408.47 739.714 2464.85 748.061 2468.13 748.868C2474.58 749.972 2468.74 749.04 2471.53 749.52C2531.27 760.48 2501.2 755.022 2509.18 756.424ZM1880.47 825.107C1865.8 835.784 1851.07 846.316 1836.3 856.694C1837.4 855.975 1838.49 855.255 1839.59 854.534C1846.34 849.76 1853.09 844.953 1859.83 840.115C1865.03 836.426 1870.22 832.718 1875.41 828.992C1877.1 827.699 1878.79 826.404 1880.47 825.107ZM1916.53 798.709C1929.1 789.302 1929.65 788.744 1932.54 786.555C1941.14 780.003 1948.59 774.334 1956.89 767.902C1947.22 775.169 1926.79 790.861 1916.53 798.709ZM1647.43 980.153C1650.33 978.387 1671.11 965.569 1693.56 951.71C1710.46 941.03 1727.41 930.105 1744.37 918.948C1715.4 938.086 1676.09 962.483 1661.26 971.484C1655.79 974.829 1654.78 975.52 1650.41 978.17C1625.19 993.482 1601.06 1007.3 1598.43 1009.08C1622.12 995.282 1643.52 982.531 1647.43 980.153ZM1796.17 884.592C1800.03 881.915 1803.88 879.227 1807.73 876.528C1793.72 886.141 1779.69 895.61 1765.67 904.926C1769.49 902.446 1773.31 899.955 1777.13 897.453C1783.48 893.197 1789.83 888.91 1796.17 884.592ZM1308.68 874.081C1299.18 878.541 1289.85 883.108 1280.69 887.784C1281.16 887.488 1291.71 882.179 1295.66 880.252C1295.64 880.26 1295.62 880.269 1295.6 880.277C1299.99 878.121 1298.07 878.978 1306.12 875.125C1306.97 874.776 1307.83 874.428 1308.68 874.081ZM190.311 1364.49C182.659 1361.45 139.829 1344.46 104.563 1326.01C67.1349 1307.21 39.2122 1284.59 44.2768 1288.42C48.8743 1293.49 95.9028 1322.54 110.979 1329.16C130.062 1339.43 185.518 1362.61 190.311 1364.49ZM19.3364 1187.76C21.1532 1186.73 -0.386449 1205.4 3.47229 1232.3C7.24806 1258.12 32.2113 1277.83 34.3669 1280.19C32.8184 1278.84 30.6748 1276.92 28.6987 1275C23.5344 1269.67 8.81328 1256.09 4.03714 1235.89C-1.19966 1215.34 11.9363 1195.81 19.3364 1187.76ZM1874.05 735.322C1865.95 736.167 1857.85 737.05 1849.76 737.973C1851.88 737.665 1854.01 737.36 1856.13 737.058C1862.1 736.458 1868.07 735.88 1874.05 735.322ZM2655.47 799.393C2707.7 821.099 2784.67 865.514 2756.14 932.093C2725.84 998.451 2669.46 1049.2 2613.35 1095.37C2622.85 1087.76 2631.52 1080.57 2640.65 1072.68C2685.14 1033.43 2731.64 987.553 2756.22 932.127C2783.19 870.928 2716.8 826.979 2670.54 805.923C2664.92 803.356 2660.65 801.53 2655.47 799.393ZM1614.89 999.98C1585.19 1017.42 1559.11 1032.18 1526.66 1049.95C1557.84 1033.04 1573.39 1024.1 1604.13 1006.42C1604.14 1006.41 1604.16 1006.4 1604.18 1006.39C1607.74 1004.27 1611.32 1002.13 1614.89 999.98ZM1065.85 1062.69C1062.36 1067.75 1059.02 1072.88 1055.82 1078.08C1053.2 1082.33 1050.75 1086.47 1048.45 1090.5C1050.73 1086.46 1053.16 1082.3 1055.76 1078.04C1060.03 1071.02 1064.57 1064.11 1069.36 1057.32C1068.17 1059.1 1067 1060.89 1065.85 1062.69ZM1918.92 1432.85C1884.52 1443.35 1794.47 1467.24 1765.44 1473.48C1763.56 1473.9 1780.8 1469.83 1752.89 1476.2C1774 1471.37 1788.69 1467.76 1790.27 1467.48C1796.46 1465.94 1802.62 1464.37 1808.76 1462.79C1819.01 1460.24 1829.01 1457.69 1839.34 1454.99C1838.18 1455.19 1839.04 1455.01 1854.84 1450.83C1862.02 1448.86 1869.17 1446.88 1876.29 1444.87C1879.32 1444.06 1882.35 1443.26 1885.37 1442.45C1891.51 1440.66 1897.62 1438.85 1903.7 1437.03C1927.45 1430.16 1913.04 1434.48 1918.92 1432.85ZM2040.25 1393.8C2034.97 1396.95 1873.84 1446.86 1947.18 1424.04C1966.34 1418.15 1984.83 1412.25 2003.93 1405.92C1988.28 1411.5 2040.02 1393.84 2044.04 1392.28C2063.89 1385.33 2089.7 1375.96 2104.19 1370.47C2116.65 1365.76 2123.94 1362.87 2132.57 1359.51C2162.35 1348.04 2208.79 1328.39 2214.92 1325.78C2192.5 1335.48 2169.34 1345.11 2144.99 1354.77C2120.12 1364.55 2097.31 1373.69 2049.3 1390.51C2037.42 1394.69 2041.68 1393.3 2040.25 1393.8ZM1034.74 1117.96C1035.4 1116.6 1027.58 1134.25 1025.01 1147.93C1024.36 1151.02 1023.61 1155.75 1023.35 1159.73C1023.07 1163.73 1023.16 1167.22 1023.42 1170.08C1023.93 1175.73 1025.14 1179.26 1025.19 1179.55C1025.12 1179.4 1023.73 1174.92 1023.32 1169.64C1022.8 1164.37 1023.37 1157.91 1023.59 1156.25C1023.59 1156.23 1023.59 1156.2 1023.59 1156.18C1023.79 1154.87 1022.76 1161.56 1024.25 1151.12C1025.92 1141.35 1029.63 1129.72 1034.74 1117.96ZM428.96 1443.38C419.085 1442.07 230.012 1382.13 225.887 1378.42C224.334 1377.84 226.516 1378.61 225.908 1378.36C268.158 1394.26 332.372 1414.87 373.814 1427.18C385.383 1430.65 381.944 1429.66 382.59 1429.86C382.618 1429.87 382.646 1429.88 382.674 1429.88C388.93 1431.78 420.66 1440.89 428.96 1443.38ZM1703.43 1487.23C1711.69 1485.47 1719.93 1483.67 1728.13 1481.84C1730.22 1481.43 1732.31 1481 1734.4 1480.58C1734.38 1480.59 1734.36 1480.59 1734.34 1480.59C1724.09 1482.86 1713.78 1485.07 1703.43 1487.23ZM1414.48 1532.58C1416.52 1532.34 1418.57 1532.1 1420.62 1531.85C1441.83 1529.63 1462.9 1527.16 1483.82 1524.48C1481.71 1524.73 1479.6 1524.98 1477.48 1525.23C1509.41 1521.12 1522.73 1519.23 1539.62 1516.73C1539.6 1516.73 1539.58 1516.74 1539.56 1516.74C1541.38 1516.47 1543.57 1516.08 1550.32 1515.05C1565.64 1512.81 1610.38 1505.24 1615.69 1504.27C1627.08 1502.64 1537.63 1517.54 1520.86 1519.51C1513.28 1520.59 1504.15 1521.89 1499.51 1522.51C1494.47 1523.19 1487.4 1524.06 1475.25 1525.59C1471.7 1526.09 1431.89 1530.89 1414.48 1532.58ZM1039.73 1544.46C1046.3 1544.67 1059.98 1545.2 1064.99 1545.33C1066.19 1545.36 1056.87 1545.03 1068.18 1545.35C1071.37 1545.48 1074.57 1545.6 1077.76 1545.72C1065.11 1545.39 1052.43 1544.98 1039.73 1544.46ZM1056.72 1208.12C1056.59 1208.11 1046.26 1205.08 1039.42 1199.82C1032.39 1195.03 1027.75 1186.53 1027.55 1185.84C1023.87 1175.76 1026.87 1189.61 1037.31 1198.05C1042.21 1202.25 1048.87 1205.41 1053.68 1207.07C1057.78 1208.48 1059.51 1208.88 1056.72 1208.12ZM1839.7 855.497C1827.35 865.72 1979.12 753.654 1992.49 741.017C1991.74 741.567 1956.53 769.399 1974.92 754.762C1957.46 768.831 1908.05 806.176 1896.21 814.732C1889.07 820.001 1887.32 821.389 1886.24 822.183C1882.03 825.376 1844.25 852.32 1839.7 855.497ZM2111.3 640.372C2098.06 652.29 2084.64 664.119 2071.05 675.85C2087.12 662.025 2102.9 648.115 2118.53 633.981C2116.07 636.159 2113.71 638.247 2111.3 640.372ZM2128.07 625.223C2127.89 625.748 2172.27 584.135 2183.37 572.949C2170.49 585.352 2149.02 606.13 2128.07 625.223ZM1278.88 1166.82C1253.64 1176.36 1241.02 1180.46 1273.4 1168.77C1274.34 1168.43 1279.94 1166.41 1278.88 1166.82ZM1910.77 1435.72C1906.4 1437.17 1849.23 1453.23 1845.71 1453.95C1835.09 1456.63 1873.05 1446.54 1885.49 1442.87C1905.67 1436.98 1875.91 1445.63 1925.21 1431.21C1923.16 1431.79 1921.11 1432.36 1919.06 1432.94C1948.19 1424.23 1938.67 1427.26 1943.89 1425.72C1945.5 1425.25 1963.48 1419.64 1966.7 1418.63C2007.14 1406.07 1915.24 1434.82 1910.77 1435.72ZM1291.5 881.423C1342.04 857.432 1320.12 867.286 1373 845.583C1374.47 844.351 1297.65 877.462 1291.5 881.423ZM2412.06 1229.37C2361.9 1257.24 2319.47 1278.65 2270.38 1301.34C2274.44 1301.02 2425.55 1223.44 2412.06 1229.37ZM126.76 1121.82C100.448 1132.79 74.9642 1144.55 50.5407 1160.58C27.4885 1176.18 -0.0443882 1198.58 2.3704 1229.94C16.9414 1290.24 83.9897 1315.64 137.057 1342.57C248.697 1392.6 368.223 1427.13 483.764 1459.02C491.132 1461.02 496.684 1462.51 501.037 1463.67C511.518 1466.45 514.635 1467.22 521.178 1468.92C527.176 1470.47 526.112 1470.27 534.084 1472.29C821.717 1544.88 1109.44 1561.53 1391.81 1535.12C1410.04 1533.78 1495.9 1523.62 1514.66 1520.83C1528.67 1519.12 1466.44 1527.39 1456.25 1528.39C1448.49 1529.3 1448.17 1529.41 1442.99 1530C1437.49 1530.62 1442.03 1530.06 1435.64 1530.77C1408.49 1533.78 1378.82 1536.58 1354.38 1538.52C1113.56 1557.6 876.237 1544.93 640.921 1496.9C612.362 1490.98 618.213 1492.17 616.777 1491.89C616.758 1491.88 616.739 1491.88 616.72 1491.87C579.026 1483.75 540.593 1474.52 500.978 1463.88C380.171 1431.01 253.972 1394.73 140.32 1344.24C89.0167 1318.83 29.2071 1295.8 4.31075 1240.38C-5.77279 1210.64 18.0083 1183.78 40.6352 1167.37C64.0275 1150.14 90.9547 1137.11 117.391 1125.7C120.621 1124.34 123.769 1123.03 126.76 1121.82ZM2028.3 1398.22C2014.71 1403 2011.05 1404.4 1961.96 1420.08C1957.91 1421.31 1953.86 1422.53 1949.79 1423.75C1976.13 1415.62 2002.07 1407.19 2028.38 1398.19C2028.36 1398.2 2028.33 1398.21 2028.3 1398.22ZM1696.73 1489.08C1688.08 1491.68 1573.5 1513.21 1521.74 1519.89C1512.35 1521.25 1587.3 1510.04 1605.28 1506.59C1614.32 1505.07 1661.02 1496.52 1697.21 1488.95C1697.05 1488.99 1696.89 1489.04 1696.73 1489.08ZM1675.4 964.439C1668.08 968.953 1660.77 973.42 1653.48 977.838C1671.85 966.644 1689.66 955.547 1707.5 944.197C1679.31 962.102 1649.83 980.196 1620.99 997.26C1626.4 994.13 1631.83 990.973 1637.26 987.788C1649.93 980.153 1662.65 972.368 1675.4 964.439ZM1580.76 1020.66C1632.85 990.628 1578.32 1022.06 1565.53 1029.22C1557.84 1033.6 1575.44 1023.72 1580.76 1020.66ZM1444.97 1093.49C1470.18 1081.23 1518.91 1055.32 1501.39 1064.36C1474.9 1078.41 1458.31 1087.03 1418.91 1106.25C1424.6 1103.55 1430.32 1100.8 1436.08 1098.01C1436.11 1097.99 1436.13 1097.98 1436.16 1097.97C1439.09 1096.48 1442.03 1094.99 1444.97 1093.49ZM1604.52 1007.1C1638.08 987.6 1540.24 1043.89 1571.06 1026.32C1572.44 1025.61 1603.35 1007.85 1604.52 1007.1ZM43.5044 1289.41C40.2303 1287.05 62.9279 1303.86 72.8025 1309.42C109.798 1332.15 159.571 1353.83 201.423 1369.98C198.315 1368.8 195.247 1367.62 192.218 1366.45C139.982 1345.39 88.3787 1323.41 43.5044 1289.41ZM333.774 1415.76C364.698 1425.46 391.215 1433.36 422.824 1442.42C425.445 1443.17 437.887 1446.77 428.623 1444.15C395.827 1434.78 366.359 1426.01 333.774 1415.76ZM2209.4 1328.99C2187.77 1338.41 2250.43 1311.41 2247.42 1312.3C2234.93 1317.92 2221.96 1323.61 2209.4 1328.99ZM2406.59 1232.9C2393.59 1240.07 2380.97 1246.86 2367.75 1253.78C2367.74 1253.81 2367.74 1253.84 2367.73 1253.87C2380.96 1246.92 2393.59 1240.1 2406.59 1232.9ZM18.4671 1187C13.1002 1193.25 4.70314 1204.12 2.39047 1218.39C-0.192861 1233.04 5.78392 1247.71 12.4648 1257.52C7.86422 1250.67 1.03439 1238.23 1.8063 1223.53C2.40111 1208.73 10.8506 1195.64 18.4671 1187ZM1876.44 1445.83C1878.34 1445.61 1787.53 1469.3 1818.95 1461.25C1837.78 1456.42 1857.46 1451.14 1876.44 1445.83ZM1691.26 1490.74C1711.05 1486.67 1726.17 1483.29 1722.13 1484.09C1711.74 1486.36 1701.3 1488.58 1690.82 1490.74C1690.97 1490.74 1691.12 1490.74 1691.26 1490.74ZM1349.56 1138.42C1319.94 1151.38 1286.64 1164.91 1255.25 1176.08C1256.49 1175.67 1257.73 1175.25 1258.97 1174.83C1288.74 1164.12 1321.21 1150.92 1349.7 1138.44C1349.65 1138.44 1349.61 1138.43 1349.56 1138.42ZM32.1724 1173.43C50.006 1158.62 70.5517 1147.23 91.672 1136.95C70.552 1147.26 49.9951 1158.71 32.1929 1173.54C32.1719 1173.51 32.1508 1173.49 32.1298 1173.46C32.1439 1173.45 32.1582 1173.44 32.1724 1173.43ZM1756.07 913.63C1668.83 970.37 1780.39 898.553 1802.44 882.611C1802.47 882.594 1802.49 882.578 1802.52 882.561C1804.49 881.196 1800.26 883.998 1803.54 881.721C1794.83 887.714 1786.11 893.65 1777.39 899.528C1769.4 904.832 1761.4 910.087 1753.41 915.291C1750.8 917.029 1748.09 918.819 1745.44 920.574C1749 918.255 1752.59 915.908 1756.07 913.63ZM2089.25 661.436C2158.95 599.076 2088.16 663.11 2052.24 693.217C2052.58 693.062 2082.83 667.183 2089.25 661.436ZM1897.12 815.421C1885.16 824.21 1873.15 832.905 1861.11 841.499C1859.58 842.615 1858.06 843.73 1856.53 844.843C1865.79 838.272 1875.02 831.64 1884.23 824.953C1888.54 821.788 1892.83 818.611 1897.12 815.421ZM1484.85 1074.1C1464 1084.83 1436.96 1098.82 1504.52 1063.59C1504.49 1063.63 1504.47 1063.67 1504.45 1063.71C1501.73 1065.16 1493.78 1069.32 1493.35 1069.55C1492.12 1070.2 1493.6 1069.53 1484.85 1074.1ZM2216.25 542.403C2218.09 540.489 2219.48 539.667 2238.29 519.484C2243.96 513.508 2249.83 507.243 2255.59 500.997C2257.04 499.341 2258.48 497.684 2259.91 496.027C2237.55 520.437 2235.29 522.284 2233.64 524.098C2226.21 531.861 2231.75 526.153 2226.94 531.163C2214.65 544.125 2185.32 573.213 2198.7 560.12C2203.53 555.41 2214.39 544.313 2216.25 542.403ZM2171.05 587.445C2173.87 584.709 2164.69 593.417 2166.82 591.347C2168.7 589.637 2196.68 562.158 2189 569.485C2184.33 574.091 2179.78 578.545 2175.19 582.994C2173.66 584.526 2172.12 586.057 2170.58 587.587C2166.09 591.863 2161.58 596.129 2157.03 600.386C2149.48 607.666 2133.15 623.032 2152.63 604.913C2145.51 611.599 2138.33 618.261 2131.08 624.897C2127.31 628.307 2123.51 631.709 2119.7 635.105C2121.73 633.356 2123.75 631.605 2125.76 629.853C2141.14 615.829 2156.25 601.687 2171.05 587.445ZM2370.88 360.041C2370.16 360.998 2369.44 361.955 2368.71 362.911C2389.98 333.994 2419.29 286.224 2402.13 313.307C2376.33 353.814 2347.02 393.404 2316.28 430.912C2314.23 433.448 2312.17 435.982 2310.1 438.515C2333.21 410.145 2326.47 419.151 2345.55 394.363C2348.74 390.062 2339.31 402.591 2359.47 375.682C2358.78 376.676 2358.09 377.67 2357.4 378.665C2361.98 372.461 2366.47 366.253 2370.88 360.041ZM2500.64 82.2958C2487.38 142.585 2502.96 76.1213 2503.6 65.1569C2503.6 65.1759 2503.6 65.1952 2503.59 65.2137C2507.87 34.4799 2498.02 100.166 2495.89 104.159C2494.54 109.378 2491.65 122.31 2482.78 149.887C2490.06 128.327 2496.38 105.008 2500.64 82.2958ZM2428.87 269.118C2431.36 264.677 2429.94 267.113 2431.01 265.194C2431.02 265.177 2431.03 265.16 2431.04 265.144C2448.28 236.686 2478.84 164.742 2480.56 156.039C2474.51 180.772 2425.55 277.848 2421.05 282.579C2423.71 278.091 2426.32 273.604 2428.87 269.118ZM2294.35 457.306C2281.39 472.569 2310.8 438.355 2318.37 428.699C2319.88 426.825 2307.65 441.665 2294.35 457.306ZM1021.64 1154.21C1030.66 1112.82 1018.92 1166.44 1022.87 1148.16C1021.25 1155.73 1020.47 1166.63 1021.86 1174.14C1020.81 1168.17 1020.72 1161.53 1021.64 1154.21ZM2735.12 974.781C2729.08 983.454 2731.87 979.322 2731.35 980.071C2727.15 985.947 2723.34 990.917 2721.8 992.873C2690.82 1030.12 2711.37 1005.27 2711.85 1004.85C2712.45 1004.02 2704.16 1013.8 2715.5 1000.15C2722.18 992.057 2728.64 983.657 2734.92 974.565C2737.92 970.134 2740.73 965.752 2743.34 961.424C2754.39 942.773 2740.15 967.235 2738.45 969.465C2737.82 970.489 2748.65 954.039 2735.12 974.781ZM1051.66 1080.26C1052.26 1079.28 1052.99 1078.1 1053.78 1076.84C1057.96 1070.15 1064 1061.11 1056.09 1073.64C1056.08 1073.65 1056.07 1073.67 1056.06 1073.69C1055.65 1074.36 1054.92 1075.54 1054.04 1076.99C1050.91 1082.11 1046.57 1089.73 1045.11 1092.47C1032.17 1117.5 1035.25 1108.98 1051.66 1080.26ZM2696.49 816.295C2682.13 808.093 2665.12 800.267 2649.87 794.181C2650.12 794.347 2650.37 794.514 2650.61 794.68C2659.3 798.192 2666.61 801.334 2675.82 805.728C2678.85 807.213 2681.81 808.716 2684.69 810.235C2674.24 804.924 2663.48 800.154 2653.29 796.038C2640.88 790.882 2626.57 785.683 2614.37 781.662C2620.42 783.622 2625.53 785.337 2632.15 787.695C2600.61 776.725 2607.89 779.397 2580.14 771.41C2571.35 768.913 2562.3 766.497 2553 764.165C2539.5 760.917 2525.4 757.85 2512.4 755.25C2489.84 750.701 2487.62 750.353 2503.06 753.239C2491.93 750.971 2478.62 748.652 2465.28 746.396C2464.17 746.209 2466.27 746.487 2465.29 746.323C2394.63 735.141 2397.95 736.976 2386.78 735.385C2378.91 734.383 2346.32 730.902 2345.72 730.862C2345.48 730.921 2412.15 736.588 2307.56 727.295C2361.11 731.011 2423.3 739.458 2383.53 734.786C2400.15 736.184 2475.64 747.566 2480.39 748.882C2487.5 750.153 2485.05 749.607 2493.85 751.251C2499.44 752.446 2511.43 754.279 2553.04 764.021C2558.19 765.315 2563.27 766.634 2568.27 767.979C2573.02 769.197 2577.44 770.365 2582.31 771.701C2572.65 768.896 2563.2 766.33 2553.22 763.786C2591.51 773.233 2623.63 783.466 2647.5 793.144C2666.99 800.914 2676.29 805.704 2667.76 801.586C2673.91 804.373 2679.97 807.303 2685.67 810.262C2689.4 812.245 2693 814.256 2696.49 816.295ZM1136.17 980.483C1151.96 966.528 1158.48 962.052 1155.8 964.112C1141.14 975.916 1128.1 987.82 1136.17 980.483ZM2754.59 941.493C2755.95 938.65 2757.22 935.833 2758.39 933.045C2767.04 913.205 2766.55 891.222 2757.06 873.094C2757.12 873.065 2757.18 873.036 2757.24 873.006C2766.7 891.208 2767.12 913.236 2758.42 933.055C2757.24 935.841 2755.96 938.654 2754.59 941.493ZM1020.84 1161.4C1020.78 1163.71 1020.84 1165.94 1021.01 1168.09C1020.05 1196.35 1051.5 1210.63 1062 1211.67C1064.65 1212.24 1059.19 1211.27 1054.64 1209.78C1053.31 1209.31 1037.33 1204.71 1028.75 1192.21C1019.32 1178.82 1020.89 1164.02 1020.84 1161.4ZM1943.63 781.869C1936.05 787.625 1928.45 793.344 1920.82 799.026C1921.28 798.755 1921.73 798.482 1922.18 798.211C1925.95 795.397 1929.7 792.575 1933.45 789.744C1936.85 787.126 1940.24 784.501 1943.63 781.869ZM1856.43 846.117C1842.61 855.97 1828.86 865.608 1814.75 875.339C1867.97 838.336 1824.4 868.835 1856.53 846.247C1856.5 846.204 1856.46 846.16 1856.43 846.117ZM1713.95 942.255C1715.73 941.162 1717.5 940.067 1719.28 938.969C1733.54 929.854 1748.14 920.355 1762.1 911.122C1753.34 917.051 1744.25 923.138 1735.27 929.092C1730.01 932.493 1724.76 935.871 1719.52 939.227C1717.66 940.239 1715.81 941.248 1713.95 942.255ZM2374.02 1252.53C2365.03 1257.4 2332.73 1273.74 2334.29 1272.86C2347.01 1266.43 2360.99 1259.17 2373.94 1252.27C2374.03 1252.29 2374.12 1252.32 2374.21 1252.34C2376.05 1251.33 2377.88 1250.32 2379.71 1249.31C2387.13 1245.38 2394.47 1241.44 2401.71 1237.49C2405.32 1235.44 2409.22 1233.21 2412.94 1231.07C2416.76 1229.01 2420.56 1226.95 2424.33 1224.88C2388.05 1245.4 2390.07 1243.79 2382.45 1247.96C2378.69 1249.98 2376.3 1251.29 2374.97 1252.02C2374.65 1252.19 2374.33 1252.36 2374.02 1252.53ZM2761.3 926.571C2760.56 928.819 2759.72 931.033 2758.8 933.216C2739.79 974.601 2721.87 993.889 2699.24 1019.87C2706.98 1010.64 2739.31 977.545 2758.66 933.156C2781.06 887.403 2739.78 844.564 2720.93 832.35C2716.74 829.15 2712.27 826.01 2707.53 822.931C2731.56 838.244 2745.25 852.999 2752.76 864.549C2758.77 874.267 2757.62 873.371 2758.12 874.105C2758.13 874.141 2758.15 874.177 2758.17 874.213C2768.12 897.978 2766.39 907.819 2761.3 926.571ZM1031.63 1196.19C1026.86 1191.46 1022.28 1181.77 1021.32 1174.75C1020.09 1167.81 1020.61 1161.44 1020.64 1161.33C1020.38 1168.32 1020.9 1173.98 1022.81 1180.38C1024.87 1187.12 1028.39 1192.89 1033.19 1197.6C1031.25 1195.66 1033.26 1197.9 1031.63 1196.19ZM1697.49 953.046C1688.96 958.478 1668.54 971.051 1677.34 965.495C1678.9 964.532 1699.11 952.002 1687.18 959.236C1706.85 946.937 1702.36 949.943 1697.49 953.046ZM2014.5 723.035C2005.92 723.395 1997.33 723.797 1988.71 724.243C1986.71 724.301 1984.7 724.363 1982.69 724.426C1993.31 723.897 2003.92 723.434 2014.5 723.035ZM1138.62 1210.41C1144.24 1209.33 1152.07 1207.85 1161.6 1205.72C1169.75 1203.9 1179.36 1201.55 1189.81 1198.59C1197.45 1196.5 1205.87 1194.03 1213.34 1191.73C1213.36 1191.73 1213.37 1191.72 1213.39 1191.72C1213.6 1191.72 1213.82 1191.71 1214.03 1191.71C1187.82 1199.71 1165.89 1205.58 1138.62 1210.41ZM2546.94 762.359C2541.71 761.145 2536.41 759.957 2531.04 758.794C2521.85 756.723 2513.08 754.86 2503.82 752.999C2508.81 753.958 2513.74 754.937 2518.62 755.938C2527.52 757.835 2537.5 760.081 2546.94 762.359ZM1272.89 1171.57C1246.82 1181.18 1236.31 1184.65 1270.4 1172.31C1283.86 1167.29 1299.31 1161.48 1272.89 1171.57ZM1883.19 1445.69C1892.29 1443.12 1901.34 1440.51 1910.34 1437.86C1913.43 1437 1916.45 1436.16 1919.63 1435.26C1907.45 1438.84 1895.43 1442.28 1883.19 1445.69ZM1807.13 881.051C1806.19 881.647 1805.25 882.242 1804.3 882.837C1797.31 887.626 1790.31 892.379 1783.31 897.095C1785.1 895.944 1786.88 894.792 1788.67 893.637C1794.82 889.47 1800.98 885.274 1807.13 881.051ZM1944.35 1427.71C1951.62 1425.48 1958.85 1423.22 1966.05 1420.94C1970.9 1419.43 1975.72 1417.92 1980.54 1416.39C1973.85 1418.56 1967.13 1420.71 1960.38 1422.85C1955.06 1424.48 1949.71 1426.1 1944.35 1427.71ZM1510.69 1061.73C1501.14 1066.95 1463.59 1086.34 1497.4 1068.62C1519.08 1057.1 1512.12 1060.94 1510.69 1061.73ZM1560.99 1034.25C1525.95 1053.74 1551.74 1039.34 1594.39 1015.17C1551.67 1039.58 1563.1 1032.99 1560.99 1034.25ZM1861.87 843.126C1862.7 842.531 1863.35 841.995 1869.96 837.236C1893.81 820.115 1924.83 796.944 1941.46 784.188C1982.24 754.589 2100.79 655.046 2113.17 642.194C2115.92 639.665 2109.44 645.321 2110.56 644.3C2113.82 641.405 2133.13 623.914 2129.5 627.084C2110.6 644.379 2091.96 660.906 2072.66 677.535C2077.43 673.516 2082.17 669.485 2086.9 665.441C2039.04 706.76 2054.66 693.009 2040.77 704.6C2032.63 711.471 2024.43 718.304 2016.18 725.099C1998.13 739.749 1979.81 754.251 1961.43 768.457C1965.62 765.254 1969.8 762.04 1973.98 758.816C1946.4 780.441 1954.02 774.384 1938.74 785.972C1938.73 786.028 1938.73 786.084 1938.72 786.14C1911.7 806.524 1906.43 810.405 1900.48 814.838C1888.21 823.799 1872.44 835.178 1825.42 868.585C1805.12 882.359 1805.84 882.381 1793.83 890.26C1759.66 913.62 1825.18 869.525 1855.07 847.93C1855.09 847.918 1855.1 847.907 1855.12 847.896C1857.4 846.27 1853.8 848.892 1861.87 843.126ZM1685.46 960.635C1707.01 947.699 1622.39 999.528 1650.25 982.157C1654.43 979.62 1658.61 977.066 1662.79 974.497C1670.41 969.881 1678.14 965.15 1685.51 960.605C1685.49 960.615 1685.48 960.625 1685.46 960.635ZM1108.03 1006.47C1174.97 943.816 1136.61 978.951 1114.13 1000.41C1109.67 1004.83 1107.3 1007.29 1108.03 1006.47ZM2726.39 987.684C2725.61 988.682 2724.81 989.683 2724 990.685C2735.72 975.89 2751.67 951.115 2758.87 933.248C2764.58 919.708 2764.77 910.585 2764.93 910.903C2764.15 918.236 2762.17 925.705 2758.96 933.285C2750.95 952.129 2739.65 970.102 2726.39 987.684ZM2663.87 799.561C2669.67 801.769 2694.82 814.595 2691.5 813.097C2681.67 807.754 2669.32 801.975 2659.6 797.89C2654.76 795.786 2649.77 793.72 2644.64 791.692C2651.89 794.461 2662.34 798.863 2663.87 799.561Z" fill="#43637C"/>
</svg>
