<svg width="301" height="40" viewBox="0 0 301 40" fill="none" xmlns="http://www.w3.org/2000/svg">
<path d="M26.583 1.83648V31H21.463V6.26016H8.11008V31H2.99008V1.83648H26.583ZM45.2067 1.14016C49.33 1.14016 52.6751 2.56011 55.2419 5.4C57.8361 8.21259 59.1331 11.8853 59.1331 16.4182C59.1331 20.9511 57.8361 24.6375 55.2419 27.4774C52.6478 30.29 49.2754 31.6963 45.1248 31.6963C40.9469 31.6963 37.5609 30.29 34.9667 27.4774C32.3999 24.6649 31.1165 20.9785 31.1165 16.4182C31.1165 11.9946 32.3726 8.34912 34.8848 5.48192C37.4243 2.58741 40.865 1.14016 45.2067 1.14016ZM45.1248 5.44096C42.4487 5.44096 40.3052 6.43765 38.6941 8.43104C37.083 10.3971 36.2774 13.0322 36.2774 16.3363C36.2774 19.7223 37.0693 22.4121 38.6531 24.4054C40.2642 26.3988 42.4487 27.3955 45.2067 27.3955C47.8555 27.3955 49.9717 26.3988 51.5555 24.4054C53.1666 22.3847 53.9722 19.7087 53.9722 16.3773C53.9722 13.0459 53.1666 10.3971 51.5555 8.43104C49.9717 6.43765 47.8282 5.44096 45.1248 5.44096ZM89.8026 38.2499H84.8464V31H65.841V38.2499H60.8848V26.5763H63.711C64.8306 24.6102 65.7454 21.743 66.4554 17.9747C67.1653 14.2064 67.5203 10.3289 67.5203 6.34208V1.83648H86.5258V26.5763H89.8026V38.2499ZM81.4058 26.5763V6.26016H72.5174V8.02144C72.5174 11.544 72.1898 15.0529 71.5344 18.5482C70.9063 22.0161 70.1281 24.6922 69.1997 26.5763H81.4058ZM93.3939 1.83648H106.051C109.191 1.83648 111.662 2.58741 113.464 4.08928C115.294 5.56384 116.209 7.77568 116.209 10.7248C116.209 13.5101 115.362 15.7219 113.669 17.3603C111.976 18.9714 109.669 19.777 106.747 19.777H98.5139V31H93.3939V1.83648ZM98.5139 6.09632V15.64H105.641C109.355 15.64 111.212 14.0426 111.212 10.8477C111.212 7.68011 109.204 6.09632 105.19 6.09632H98.5139ZM133.207 1.14016C137.33 1.14016 140.675 2.56011 143.242 5.4C145.836 8.21259 147.133 11.8853 147.133 16.4182C147.133 20.9511 145.836 24.6375 143.242 27.4774C140.648 30.29 137.275 31.6963 133.125 31.6963C128.947 31.6963 125.561 30.29 122.967 27.4774C120.4 24.6649 119.116 20.9785 119.116 16.4182C119.116 11.9946 120.373 8.34912 122.885 5.48192C125.424 2.58741 128.865 1.14016 133.207 1.14016ZM133.125 5.44096C130.449 5.44096 128.305 6.43765 126.694 8.43104C125.083 10.3971 124.277 13.0322 124.277 16.3363C124.277 19.7223 125.069 22.4121 126.653 24.4054C128.264 26.3988 130.449 27.3955 133.207 27.3955C135.855 27.3955 137.972 26.3988 139.556 24.4054C141.167 22.3847 141.972 19.7087 141.972 16.3773C141.972 13.0459 141.167 10.3971 139.556 8.43104C137.972 6.43765 135.828 5.44096 133.125 5.44096ZM175.591 21.9478C175.591 24.8423 174.717 27.0815 172.969 28.6653C171.249 30.2218 168.805 31 165.637 31H151.793V1.83648H173.256V6.26016H156.913V12.9776H165.637C168.832 12.9776 171.29 13.7558 173.01 15.3123C174.731 16.8688 175.591 19.0806 175.591 21.9478ZM170.471 22.0707C170.471 20.5415 170.02 19.3401 169.119 18.4662C168.218 17.5924 166.962 17.1555 165.351 17.1555H156.913V26.8221H165.433C168.791 26.8221 170.471 25.2383 170.471 22.0707ZM204.103 1.83648V31H198.983V17.8928H185.63V31H180.51V1.83648H185.63V13.4282H198.983V1.83648H204.103ZM231.124 1.83648V6.13728H215.19V13.8787H229.977V18.0157H215.19V26.6173H231.369V31H210.111V1.83648H231.124ZM256.924 1.83648V6.13728H240.99V13.8787H255.777V18.0157H240.99V26.6173H257.169V31H235.911V1.83648H256.924Z" fill="#43637C"/>
<path d="M271 31L298 4M298 24.6471V4H277.353" stroke="#43637C" stroke-width="4.8" stroke-linecap="square"/>
</svg>
