<svg width="2880" height="627" viewBox="0 0 2880 627" fill="none" xmlns="http://www.w3.org/2000/svg">
<rect width="2880" height="627" fill="black"/>
<path d="M102.606 66.2898C116.057 67.8723 133.703 79.7414 123.021 93.7469C115.345 103.796 89.7081 106.724 70.8759 100.868V112.579H62.1719V70.4835C76.0983 65.0237 90.4203 64.7864 102.606 66.2898ZM98.1747 101.343C111.626 99.7605 117.957 92.2435 117.244 83.4604C115.741 63.7577 81.1624 67.2393 70.8759 70.4835V96.7537C73.8036 98.2571 76.2565 99.2858 76.1774 99.2858C83.8527 101.501 91.5281 102.134 98.1747 101.343ZM190.891 69.0592L199.595 65.4985V110.047C188.042 113.133 167.706 112.975 157.578 111.788C150.219 110.917 139.458 106.961 134.948 101.264V69.0592L143.652 65.4985V101.264C149.982 110.759 178.705 110.997 190.891 109.177V69.0592ZM260.838 100.868C266.535 104.113 270.491 108.306 272.707 112.579H266.456C263.528 107.99 259.493 104.746 254.982 102.451C244.3 104.587 231.086 104.192 220.166 100.789V112.5H211.463V70.4044C225.389 64.9446 239.711 64.7864 251.896 66.2106C265.348 67.7932 282.993 79.6623 272.311 93.6678C269.937 96.7537 265.823 99.2066 260.838 100.868ZM247.465 101.264C248.652 101.106 249.839 100.947 251.026 100.631C241.926 97.3076 231.561 97.2285 223.648 98.4154C224.756 98.8901 225.468 99.2066 225.468 99.2066C233.143 101.422 240.819 102.055 247.465 101.264ZM240.027 95.1712C246.437 95.5668 251.976 96.912 256.644 98.811C263.766 95.6459 267.089 89.8696 266.535 83.3812C265.032 63.7577 230.453 67.1602 220.166 70.4044V96.4372C225.943 95.0129 233.776 94.7755 240.027 95.1712ZM334.71 100.868C340.408 104.113 344.364 108.306 346.579 112.579H340.328C337.401 107.99 333.365 104.746 328.855 102.451C318.173 104.587 304.959 104.192 294.039 100.789V112.5H285.335V70.4044C299.261 64.9446 313.583 64.7864 325.769 66.2106C339.221 67.7932 356.866 79.6623 346.184 93.6678C343.81 96.7537 339.695 99.2066 334.71 100.868ZM321.338 101.264C322.525 101.106 323.712 100.947 324.899 100.631C315.799 97.3076 305.433 97.2285 297.521 98.4154C298.628 98.8901 299.341 99.2066 299.341 99.2066C307.016 101.422 314.691 102.055 321.338 101.264ZM313.9 95.1712C320.309 95.5668 325.848 96.912 330.517 98.811C337.638 95.6459 340.961 89.8696 340.408 83.3812C338.904 63.7577 304.326 67.1602 294.039 70.4044V96.4372C299.815 95.0129 307.649 94.7755 313.9 95.1712ZM350.291 65.4985H414.938V70.4044H387.006V112.5H378.223V70.4044H350.291V65.4985ZM444.09 65.4985L472.734 112.5H463.476L458.887 105.141C451.924 96.5163 431.984 96.3581 419.956 99.5232L411.648 112.5H407.929L436.494 68.9801L444.09 65.4985ZM442.27 95.092C446.701 95.3294 450.42 95.8833 453.823 96.912L437.918 71.3539L421.934 96.4372C427.79 95.0129 435.861 94.7755 442.27 95.092ZM465.813 65.4985H530.46V70.4044H502.528V112.5H493.745V70.4044H465.813V65.4985ZM563.756 65.4985C581.243 65.4985 596.118 71.9078 596.118 88.9993C596.118 106.803 580.293 112.658 563.756 112.658C547.297 112.658 531.472 106.803 531.472 88.9993C531.472 71.9078 546.348 65.4985 563.756 65.4985ZM580.056 104.587C584.408 100.789 587.177 95.0129 587.177 89.0784C587.177 83.1438 584.803 76.9719 580.372 73.0947C575.941 69.2966 569.611 67.7141 563.756 67.7141C557.979 67.7141 551.649 69.2966 547.218 73.1738C542.787 76.9719 540.334 83.1438 540.413 89.0784C540.334 95.0129 543.182 100.789 547.534 104.587C551.966 108.465 557.979 110.364 563.756 110.364C569.611 110.364 575.625 108.465 580.056 104.587ZM636.237 65.4985C653.724 65.4985 668.6 71.9078 668.6 88.9993C668.6 106.803 652.775 112.658 636.237 112.658C619.779 112.658 603.953 106.803 603.953 88.9993C603.953 71.9078 618.829 65.4985 636.237 65.4985ZM652.537 104.587C656.889 100.789 659.659 95.0129 659.659 89.0784C659.659 83.1438 657.285 76.9719 652.854 73.0947C648.423 69.2966 642.093 67.7141 636.237 67.7141C630.461 67.7141 624.131 69.2966 619.7 73.1738C615.268 76.9719 612.816 83.1438 612.895 89.0784C612.816 95.0129 615.664 100.789 620.016 104.587C624.447 108.465 630.461 110.364 636.237 110.364C642.093 110.364 648.106 108.465 652.537 104.587Z" fill="white"/>
<path d="M2326.57 308.445C2345.02 329.697 2380.58 336.677 2407.25 308.445C2412.3 300.637 2413.74 298.114 2425.99 285.384C2447.98 276.129 2455.99 253.078 2460.56 237.509C2469.67 232.371 2476.62 217.075 2478.95 210.069C2492.27 201.661 2493.45 175.622 2492.38 163.654C2506.63 102.001 2495.79 78.9976 2488.59 75.2027C2456.59 73.8015 2417.07 130.667 2401.3 159.275C2377.02 153.67 2355.18 156.94 2347.3 159.275C2307.13 83.1428 2276.27 69.9481 2265.85 72.8673C2245.07 83.1428 2254.08 139.425 2261.18 166.281C2252.78 186.599 2264.69 203.938 2271.69 210.069C2271.4 219.118 2281.33 230.211 2281.33 231.671C2279.93 256.659 2300.01 277.891 2310.23 285.384C2318.87 290.988 2324.72 303.093 2326.57 308.445Z" fill="#1D2E4A" stroke="#1D2E4A" stroke-width="7.20811"/>
<path d="M2266.8 151.864C2255.11 100.419 2263.55 86.6495 2269.23 86.1953C2304.1 105.705 2314.7 134.834 2316.23 153.771C2316.34 155.194 2316.41 156.559 2316.43 157.858C2316.46 160.521 2316.31 162.906 2316.03 164.943C2315.39 166.053 2314.28 168.194 2313.39 170.392C2312.9 171.611 2312.48 172.847 2312.25 173.935C2312.02 174.982 2311.68 176.664 2311.18 178.567C2309.87 183.597 2307.51 190.161 2303.59 190.556C2302.52 190.663 2301.16 191.52 2299.66 192.846C2295.05 196.91 2289.06 205.381 2286 210.175C2281.24 204.289 2280.95 189.557 2281.4 182.927C2284 168.758 2272.75 156.314 2266.8 151.864Z" fill="#0F1A2C" stroke="#1D2E4A" stroke-width="2.88324" stroke-linecap="round"/>
<path d="M2482.12 151.864C2493.81 100.419 2485.36 86.6495 2479.68 86.1953C2444.82 105.705 2434.21 134.834 2432.68 153.771C2432.57 155.194 2432.51 156.559 2432.49 157.858C2432.45 160.521 2432.6 162.906 2432.88 164.943C2433.52 166.053 2434.64 168.194 2435.52 170.392C2436.02 171.611 2436.44 172.847 2436.67 173.935C2436.89 174.982 2437.24 176.664 2437.73 178.567C2439.04 183.597 2441.4 190.161 2445.33 190.556C2446.39 190.663 2447.75 191.52 2449.25 192.846C2453.87 196.91 2459.85 205.381 2462.91 210.175C2467.67 204.289 2467.96 189.557 2467.51 182.927C2464.91 168.758 2476.17 156.314 2482.12 151.864Z" fill="#0F1A2C" stroke="#1D2E4A" stroke-width="2.88324" stroke-linecap="round"/>
<path fill-rule="evenodd" clip-rule="evenodd" d="M2384.91 264.238C2388.92 245.583 2405.48 210.505 2439.61 219.436C2441.79 219.774 2447.16 219.117 2451.22 213.781C2450.69 216.536 2448.17 222.597 2442.37 224.801C2441.01 237.85 2431.17 262.237 2402.61 255.394C2400.09 254.572 2393.03 255.191 2384.91 264.238ZM2403.92 249.449C2393.7 243.417 2403.43 233.21 2409.57 228.86C2411.22 227.766 2412.82 226.844 2414.36 226.071C2418 224.25 2421.31 223.265 2424.23 222.837C2430.17 221.966 2434.46 223.407 2436.42 224.801C2439.32 233.616 2431.53 243.649 2427.28 247.564C2423.75 250.706 2414.13 255.481 2403.92 249.449Z" fill="#0F1A2C"/>
<path d="M2409.57 228.86C2403.43 233.21 2393.7 243.417 2403.92 249.449C2414.13 255.481 2423.75 250.706 2427.28 247.564C2431.53 243.649 2439.32 233.616 2436.42 224.801C2434.46 223.407 2430.17 221.966 2424.23 222.837C2421.67 223.213 2417.31 224.593 2414.36 226.071C2412.82 226.844 2411.22 227.766 2409.57 228.86Z" fill="#D2CFCA"/>
<path d="M2424.11 222.019C2424.19 222.564 2424.27 223.11 2424.35 223.655C2425.87 223.432 2427.41 223.347 2428.93 223.431C2431.41 223.577 2434 224.153 2435.94 225.475L2435.63 225.059C2438 233.015 2432.51 241.298 2426.72 246.955L2426.73 246.946C2420.66 252.112 2411.2 253.065 2404.34 248.737C2400.49 246.812 2399.22 242.373 2401.44 238.714C2403.4 235.059 2406.63 232.014 2410.05 229.535L2410.03 229.549C2410.25 229.406 2410.46 229.265 2410.68 229.125C2411.99 228.284 2413.35 227.507 2414.73 226.811C2414.49 226.318 2414.24 225.825 2413.99 225.332C2412.55 226.057 2411.15 226.863 2409.79 227.733C2409.56 227.877 2409.34 228.023 2409.12 228.171L2409.1 228.185C2405.5 230.803 2402.17 233.895 2399.97 237.953C2398.93 239.964 2398.22 242.45 2398.92 244.867C2399.61 247.292 2401.52 249.002 2403.5 250.161C2410.91 254.822 2421.17 253.865 2427.83 248.182L2427.84 248.173C2433.87 242.186 2439.81 233.778 2437.21 224.542L2437.11 224.272L2436.9 224.126C2434.48 222.503 2431.73 221.954 2429.02 221.78C2427.37 221.689 2425.73 221.782 2424.11 222.019ZM2424.35 223.655C2424.27 223.11 2424.19 222.564 2424.11 222.019C2423.93 222.045 2423.76 222.073 2423.58 222.102C2420.4 222.633 2417.34 223.705 2414.47 225.097C2414.31 225.175 2414.15 225.252 2413.99 225.332C2414.24 225.825 2414.49 226.318 2414.73 226.811C2414.89 226.734 2415.04 226.66 2415.19 226.585C2417.95 225.249 2420.86 224.233 2423.85 223.733C2424.02 223.706 2424.18 223.68 2424.35 223.655ZM2413.99 225.332C2414.24 225.825 2414.49 226.318 2414.73 226.811C2414.88 226.737 2415.03 226.662 2415.19 226.59C2417.93 225.318 2420.91 224.311 2423.86 223.735C2424.03 223.706 2424.19 223.679 2424.35 223.655C2424.27 223.11 2424.19 222.564 2424.11 222.019C2423.93 222.045 2423.75 222.075 2423.57 222.108C2420.39 222.733 2417.4 223.747 2414.48 225.097C2414.31 225.173 2414.15 225.252 2413.99 225.332ZM2437.85 246.686C2437.38 246.401 2436.91 246.117 2436.44 245.832C2436.24 246.157 2436.02 246.497 2435.8 246.818C2431.74 252.579 2425.72 257.654 2418.69 258.41C2418.31 258.448 2417.93 258.472 2417.54 258.482C2417.55 259.033 2417.56 259.584 2417.58 260.135C2418.01 260.124 2418.43 260.098 2418.86 260.056C2426.65 259.176 2432.87 253.81 2437.17 247.749C2437.4 247.406 2437.64 247.042 2437.85 246.686ZM2384.1 264.064C2384.64 264.18 2385.18 264.296 2385.71 264.412C2386.36 261.432 2387.22 258.463 2388.23 255.56C2394.94 234.054 2415.69 212.52 2439.4 220.236L2439.49 220.253C2444.49 220.755 2449.06 218.024 2451.88 214.282L2450.41 213.624C2449.41 218.07 2446.38 222.418 2442.08 224.027L2441.6 224.202L2441.55 224.715C2440.42 243.699 2422.1 261.204 2402.8 254.589L2402.87 254.607C2398.57 253.602 2394.76 255.424 2391.47 257.436C2388.76 259.17 2386.41 261.332 2384.29 263.685C2384.7 264.054 2385.11 264.422 2385.52 264.791C2387.56 262.52 2389.82 260.457 2392.36 258.829C2395.38 256.912 2399.17 255.389 2402.35 256.18L2402.42 256.198C2411.83 258.623 2422.9 257.578 2430.49 250.855C2438.05 244.298 2442.04 234.589 2443.19 224.886L2442.66 225.574C2447.65 223.661 2450.88 218.955 2452.03 213.938L2450.56 213.28C2448.04 216.682 2443.79 219.042 2439.74 218.619L2439.82 218.636C2415.09 210.573 2393.37 233.218 2386.67 255.013C2385.64 257.976 2384.76 261.005 2384.1 264.064Z" fill="#0F1A2C"/>
<path fill-rule="evenodd" clip-rule="evenodd" d="M2355.35 264.238C2351.34 245.583 2334.78 210.505 2300.65 219.436C2298.47 219.774 2293.1 219.117 2289.04 213.781C2289.57 216.536 2292.08 222.597 2297.89 224.801C2299.24 237.85 2309.09 262.237 2337.65 255.394C2340.16 254.572 2347.23 255.191 2355.35 264.238ZM2336.34 249.449C2346.56 243.417 2336.83 233.21 2330.68 228.86C2329.03 227.766 2327.44 226.844 2325.89 226.071C2322.26 224.25 2318.94 223.265 2316.03 222.837C2310.09 221.966 2305.8 223.407 2303.84 224.801C2300.94 233.616 2308.72 243.649 2312.98 247.564C2316.51 250.706 2326.13 255.481 2336.34 249.449Z" fill="#0F1A2C"/>
<path d="M2330.68 228.86C2336.83 233.21 2346.56 243.417 2336.34 249.449C2326.13 255.481 2316.51 250.706 2312.98 247.564C2308.72 243.649 2300.94 233.616 2303.84 224.801C2305.8 223.407 2310.09 221.966 2316.03 222.837C2318.59 223.213 2322.95 224.593 2325.89 226.071C2327.44 226.844 2329.03 227.766 2330.68 228.86Z" fill="#D2CFCA"/>
<path d="M2316.15 222.019C2316.07 222.564 2315.99 223.11 2315.91 223.655C2314.39 223.432 2312.85 223.347 2311.33 223.431C2308.84 223.577 2306.26 224.153 2304.32 225.475L2304.62 225.059C2302.25 233.015 2307.75 241.298 2313.54 246.955L2313.53 246.946C2319.6 252.112 2329.06 253.065 2335.92 248.737C2339.77 246.812 2341.04 242.373 2338.82 238.714C2336.86 235.059 2333.63 232.014 2330.21 229.535L2330.23 229.549C2330.01 229.406 2329.79 229.265 2329.58 229.125C2328.26 228.284 2326.91 227.507 2325.52 226.811C2325.77 226.318 2326.02 225.825 2326.27 225.332C2327.71 226.057 2329.11 226.863 2330.47 227.733C2330.69 227.877 2330.92 228.023 2331.14 228.171L2331.16 228.185C2334.76 230.803 2338.09 233.895 2340.28 237.953C2341.33 239.964 2342.04 242.45 2341.34 244.867C2340.64 247.292 2338.73 249.002 2336.76 250.161C2329.35 254.822 2319.09 253.865 2312.43 248.182L2312.42 248.173C2306.39 242.186 2300.44 233.778 2303.05 224.542L2303.15 224.272L2303.36 224.126C2305.78 222.503 2308.53 221.954 2311.24 221.78C2312.88 221.689 2314.53 221.782 2316.15 222.019ZM2315.91 223.655C2315.99 223.11 2316.07 222.564 2316.15 222.019C2316.32 222.045 2316.5 222.073 2316.68 222.102C2319.86 222.633 2322.92 223.705 2325.79 225.097C2325.95 225.175 2326.11 225.252 2326.27 225.332C2326.02 225.825 2325.77 226.318 2325.52 226.811C2325.37 226.734 2325.22 226.66 2325.07 226.585C2322.31 225.249 2319.4 224.233 2316.41 223.733C2316.24 223.706 2316.07 223.68 2315.91 223.655ZM2326.27 225.332C2326.02 225.825 2325.77 226.318 2325.52 226.811C2325.38 226.737 2325.22 226.662 2325.07 226.59C2322.32 225.318 2319.34 224.311 2316.39 223.735C2316.23 223.706 2316.07 223.679 2315.91 223.655C2315.99 223.11 2316.07 222.564 2316.15 222.019C2316.33 222.045 2316.51 222.075 2316.69 222.108C2319.87 222.733 2322.86 223.747 2325.78 225.097C2325.94 225.173 2326.11 225.252 2326.27 225.332ZM2302.4 246.686C2302.88 246.401 2303.35 246.117 2303.82 245.832C2304.02 246.157 2304.24 246.497 2304.46 246.818C2308.52 252.579 2314.54 257.654 2321.56 258.41C2321.95 258.448 2322.33 258.472 2322.72 258.482C2322.71 259.033 2322.7 259.584 2322.68 260.135C2322.25 260.124 2321.83 260.098 2321.4 260.056C2313.61 259.176 2307.39 253.81 2303.09 247.749C2302.85 247.406 2302.62 247.042 2302.4 246.686ZM2356.16 264.064C2355.62 264.18 2355.08 264.296 2354.54 264.412C2353.9 261.432 2353.04 258.463 2352.02 255.56C2345.32 234.054 2324.56 212.52 2300.85 220.236L2300.77 220.253C2295.77 220.755 2291.2 218.024 2288.38 214.282L2289.85 213.624C2290.85 218.07 2293.88 222.418 2298.18 224.027L2298.65 224.202L2298.71 224.715C2299.83 243.699 2318.16 261.204 2337.46 254.589L2337.39 254.607C2341.69 253.602 2345.5 255.424 2348.79 257.436C2351.49 259.17 2353.85 261.332 2355.97 263.685C2355.56 264.054 2355.15 264.422 2354.74 264.791C2352.69 262.52 2350.44 260.457 2347.9 258.829C2344.88 256.912 2341.09 255.389 2337.91 256.18L2337.84 256.198C2328.43 258.623 2317.36 257.578 2309.77 250.855C2302.2 244.298 2298.22 234.589 2297.07 224.886L2297.6 225.574C2292.61 223.661 2289.37 218.955 2288.22 213.938L2289.69 213.28C2292.21 216.682 2296.47 219.042 2300.52 218.619L2300.44 218.636C2325.16 210.573 2346.89 233.218 2353.58 255.013C2354.62 257.976 2355.5 261.005 2356.16 264.064Z" fill="#0F1A2C"/>
<path d="M2420.32 228.16C2420.79 232.54 2422.12 242.054 2423.6 245.072C2425.45 248.844 2427.74 230.229 2427.62 227.325C2427.5 224.422 2426.11 220.117 2423.6 219.907C2421.59 219.738 2420.44 223.83 2420.32 228.16Z" fill="#0F1A2C" stroke="#0F1A2C" stroke-width="1.44162"/>
<path d="M2325.82 231.276C2326.3 235.656 2327.62 245.17 2329.1 248.188C2330.96 251.96 2333.24 233.345 2333.12 230.441C2333.01 227.538 2331.62 225.036 2329.1 224.825C2327.09 224.656 2325.94 226.946 2325.82 231.276Z" fill="#0F1A2C" stroke="#0F1A2C" stroke-width="1.44162"/>
<path d="M2650.21 308.445C2668.66 329.697 2704.22 336.677 2730.89 308.445C2735.94 300.637 2737.38 298.114 2749.64 285.384C2771.62 276.129 2779.63 253.078 2784.2 237.509C2793.31 232.371 2800.26 217.075 2802.6 210.069C2815.91 201.661 2817.09 175.622 2816.02 163.654C2830.27 102.001 2819.43 78.9976 2812.23 75.2027C2780.23 73.8015 2740.71 130.667 2724.95 159.275C2700.66 153.67 2678.82 156.94 2670.94 159.275C2630.77 83.1428 2599.91 69.9481 2589.5 72.8673C2568.71 83.1428 2577.72 139.425 2584.82 166.281C2576.42 186.599 2588.33 203.938 2595.33 210.069C2595.04 219.118 2604.97 230.211 2604.97 231.671C2603.57 256.659 2623.65 277.891 2633.87 285.384C2642.51 290.988 2648.37 303.093 2650.21 308.445Z" fill="#52667E" stroke="#52667E" stroke-width="7.20811"/>
<path d="M2590.44 151.864C2578.75 100.419 2587.19 86.6495 2592.87 86.1953C2627.74 105.705 2638.34 134.834 2639.87 153.771C2639.98 155.194 2640.05 156.559 2640.07 157.858C2640.11 160.521 2639.96 162.906 2639.67 164.943C2639.03 166.053 2637.92 168.194 2637.03 170.392C2636.54 171.611 2636.12 172.847 2635.89 173.935C2635.66 174.982 2635.32 176.664 2634.82 178.567C2633.51 183.597 2631.15 190.161 2627.23 190.556C2626.16 190.663 2624.8 191.52 2623.3 192.846C2618.69 196.91 2612.7 205.381 2609.64 210.175C2604.88 204.289 2604.59 189.557 2605.04 182.927C2607.64 168.758 2596.39 156.314 2590.44 151.864Z" fill="#1D2E4A" stroke="#52667E" stroke-width="2.88324" stroke-linecap="round"/>
<path d="M2805.76 151.864C2817.45 100.419 2809.01 86.6495 2803.32 86.1953C2768.46 105.705 2757.85 134.834 2756.33 153.771C2756.21 155.194 2756.15 156.559 2756.13 157.858C2756.09 160.521 2756.24 162.906 2756.52 164.943C2757.16 166.053 2758.28 168.194 2759.16 170.392C2759.66 171.611 2760.08 172.847 2760.31 173.935C2760.53 174.982 2760.88 176.664 2761.37 178.567C2762.68 183.597 2765.04 190.161 2768.97 190.556C2770.03 190.663 2771.39 191.52 2772.9 192.846C2777.51 196.91 2783.49 205.381 2786.55 210.175C2791.31 204.289 2791.6 189.557 2791.15 182.927C2788.55 168.758 2799.81 156.314 2805.76 151.864Z" fill="#1D2E4A" stroke="#52667E" stroke-width="2.88324" stroke-linecap="round"/>
<path fill-rule="evenodd" clip-rule="evenodd" d="M2708.55 264.238C2712.57 245.583 2729.13 210.505 2763.26 219.436C2765.44 219.774 2770.81 219.117 2774.87 213.781C2774.34 216.536 2771.82 222.597 2766.02 224.801C2764.66 237.85 2754.82 262.237 2726.26 255.394C2723.74 254.572 2716.68 255.191 2708.55 264.238ZM2727.56 249.449C2717.35 243.417 2727.08 233.21 2733.22 228.86C2734.87 227.766 2736.47 226.844 2738.01 226.071C2741.65 224.25 2744.96 223.265 2747.88 222.837C2753.82 221.966 2758.1 223.407 2760.07 224.801C2762.97 233.616 2755.18 243.649 2750.93 247.564C2747.4 250.706 2737.78 255.481 2727.56 249.449Z" fill="#1D2E4A"/>
<path d="M2733.22 228.86C2727.08 233.21 2717.35 243.417 2727.56 249.449C2737.78 255.481 2747.4 250.706 2750.93 247.564C2755.18 243.649 2762.97 233.616 2760.07 224.801C2758.1 223.407 2753.82 221.966 2747.88 222.837C2745.32 223.213 2740.96 224.593 2738.01 226.071C2736.47 226.844 2734.87 227.766 2733.22 228.86Z" fill="#D2CFCA"/>
<path d="M2747.76 222.019C2747.84 222.564 2747.92 223.11 2748 223.655C2749.52 223.432 2751.05 223.347 2752.58 223.431C2755.06 223.577 2757.64 224.153 2759.59 225.475L2759.28 225.059C2761.65 233.015 2756.16 241.298 2750.37 246.955L2750.38 246.946C2744.31 252.112 2734.85 253.065 2727.98 248.737C2724.14 246.812 2722.87 242.373 2725.09 238.714C2727.05 235.059 2730.28 232.014 2733.7 229.535L2733.68 229.549C2733.9 229.406 2734.11 229.265 2734.33 229.125C2735.64 228.284 2736.99 227.507 2738.38 226.811C2738.14 226.318 2737.89 225.825 2737.64 225.332C2736.2 226.057 2734.79 226.863 2733.44 227.733C2733.21 227.877 2732.99 228.023 2732.77 228.171L2732.75 228.185C2729.15 230.803 2725.81 233.895 2723.62 237.953C2722.57 239.964 2721.86 242.45 2722.57 244.867C2723.26 247.292 2725.17 249.002 2727.14 250.161C2734.56 254.822 2744.82 253.865 2751.48 248.182L2751.49 248.173C2757.52 242.186 2763.46 233.778 2760.85 224.542L2760.76 224.272L2760.55 224.126C2758.13 222.503 2755.38 221.954 2752.67 221.78C2751.02 221.689 2749.38 221.782 2747.76 222.019ZM2748 223.655C2747.92 223.11 2747.84 222.564 2747.76 222.019C2747.58 222.045 2747.41 222.073 2747.23 222.102C2744.05 222.633 2740.99 223.705 2738.12 225.097C2737.96 225.175 2737.8 225.252 2737.64 225.332C2737.89 225.825 2738.14 226.318 2738.38 226.811C2738.54 226.734 2738.69 226.66 2738.84 226.585C2741.6 225.249 2744.51 224.233 2747.5 223.733C2747.67 223.706 2747.83 223.68 2748 223.655ZM2737.64 225.332C2737.89 225.825 2738.14 226.318 2738.38 226.811C2738.53 226.737 2738.68 226.662 2738.83 226.59C2741.58 225.318 2744.56 224.311 2747.51 223.735C2747.68 223.706 2747.84 223.679 2748 223.655C2747.92 223.11 2747.84 222.564 2747.76 222.019C2747.58 222.045 2747.4 222.075 2747.22 222.108C2744.04 222.733 2741.05 223.747 2738.12 225.097C2737.96 225.173 2737.8 225.252 2737.64 225.332ZM2761.5 246.686C2761.03 246.401 2760.56 246.117 2760.09 245.832C2759.89 246.157 2759.67 246.497 2759.45 246.818C2755.39 252.579 2749.36 257.654 2742.34 258.41C2741.96 258.448 2741.57 258.472 2741.18 258.482C2741.2 259.033 2741.21 259.584 2741.22 260.135C2741.66 260.124 2742.08 260.098 2742.51 260.056C2750.3 259.176 2756.52 253.81 2760.82 247.749C2761.05 247.406 2761.29 247.042 2761.5 246.686ZM2707.75 264.064C2708.29 264.18 2708.82 264.296 2709.36 264.412C2710.01 261.432 2710.87 258.463 2711.88 255.56C2718.59 234.054 2739.34 212.52 2763.05 220.236L2763.13 220.253C2768.14 220.755 2772.71 218.024 2775.53 214.282L2774.06 213.624C2773.05 218.07 2770.03 222.418 2765.72 224.027L2765.25 224.202L2765.2 224.715C2764.07 243.699 2745.74 261.204 2726.45 254.589L2726.51 254.607C2722.21 253.602 2718.4 255.424 2715.12 257.436C2712.41 259.17 2710.06 261.332 2707.94 263.685C2708.35 264.054 2708.76 264.422 2709.17 264.791C2711.21 262.52 2713.47 260.457 2716.01 258.829C2719.03 256.912 2722.82 255.389 2726 256.18L2726.07 256.198C2735.48 258.623 2746.55 257.578 2754.13 250.855C2761.7 244.298 2765.69 234.589 2766.84 224.886L2766.31 225.574C2771.29 223.661 2774.53 218.955 2775.68 213.938L2774.21 213.28C2771.69 216.682 2767.44 219.042 2763.39 218.619L2763.47 218.636C2738.74 210.573 2717.01 233.218 2710.32 255.013C2709.29 257.976 2708.41 261.005 2707.75 264.064Z" fill="#1D2E4A"/>
<path fill-rule="evenodd" clip-rule="evenodd" d="M2679 264.238C2674.99 245.583 2658.42 210.505 2624.29 219.436C2622.12 219.774 2616.75 219.117 2612.69 213.781C2613.22 216.536 2615.73 222.597 2621.54 224.801C2622.89 237.85 2632.74 262.237 2661.3 255.394C2663.81 254.572 2670.87 255.191 2679 264.238ZM2659.99 249.449C2670.21 243.417 2660.47 233.21 2654.33 228.86C2652.68 227.766 2651.08 226.844 2649.54 226.071C2645.91 224.25 2642.59 223.265 2639.68 222.837C2633.74 221.966 2629.45 223.407 2627.49 224.801C2624.58 233.616 2632.37 243.649 2636.63 247.564C2640.16 250.706 2649.78 255.481 2659.99 249.449Z" fill="#1D2E4A"/>
<path d="M2654.33 228.86C2660.47 233.21 2670.21 243.417 2659.99 249.449C2649.78 255.481 2640.16 250.706 2636.63 247.564C2632.37 243.649 2624.58 233.616 2627.49 224.801C2629.45 223.407 2633.74 221.966 2639.68 222.837C2642.24 223.213 2646.59 224.593 2649.54 226.071C2651.08 226.844 2652.68 227.766 2654.33 228.86Z" fill="#D2CFCA"/>
<path d="M2639.8 222.019C2639.72 222.564 2639.64 223.11 2639.56 223.655C2638.04 223.432 2636.5 223.347 2634.98 223.431C2632.49 223.577 2629.91 224.153 2627.96 225.475L2628.27 225.059C2625.9 233.015 2631.4 241.298 2637.19 246.955L2637.18 246.946C2643.25 252.112 2652.71 253.065 2659.57 248.737C2663.42 246.812 2664.69 242.373 2662.46 238.714C2660.5 235.059 2657.28 232.014 2653.85 229.535L2653.87 229.549C2653.66 229.406 2653.44 229.265 2653.22 229.125C2651.91 228.284 2650.56 227.507 2649.17 226.811C2649.42 226.318 2649.67 225.825 2649.91 225.332C2651.36 226.057 2652.76 226.863 2654.12 227.733C2654.34 227.877 2654.57 228.023 2654.79 228.171L2654.81 228.185C2658.41 230.803 2661.74 233.895 2663.93 237.953C2664.98 239.964 2665.69 242.45 2664.99 244.867C2664.29 247.292 2662.38 249.002 2660.41 250.161C2652.99 254.822 2642.74 253.865 2636.08 248.182L2636.07 248.173C2630.04 242.186 2624.09 233.778 2626.7 224.542L2626.8 224.272L2627.01 224.126C2629.43 222.503 2632.18 221.954 2634.89 221.78C2636.53 221.689 2638.18 221.782 2639.8 222.019ZM2639.56 223.655C2639.64 223.11 2639.72 222.564 2639.8 222.019C2639.97 222.045 2640.15 222.073 2640.33 222.102C2643.51 222.633 2646.57 223.705 2649.44 225.097C2649.6 225.175 2649.75 225.252 2649.91 225.332C2649.67 225.825 2649.42 226.318 2649.17 226.811C2649.02 226.734 2648.87 226.66 2648.71 226.585C2645.96 225.249 2643.05 224.233 2640.05 223.733C2639.89 223.706 2639.72 223.68 2639.56 223.655ZM2649.91 225.332C2649.67 225.825 2649.42 226.318 2649.17 226.811C2649.02 226.737 2648.87 226.662 2648.72 226.59C2645.97 225.318 2642.99 224.311 2640.04 223.735C2639.88 223.706 2639.71 223.679 2639.56 223.655C2639.64 223.11 2639.72 222.564 2639.8 222.019C2639.97 222.045 2640.16 222.075 2640.34 222.108C2643.52 222.733 2646.51 223.747 2649.43 225.097C2649.59 225.173 2649.75 225.252 2649.91 225.332ZM2626.05 246.686C2626.52 246.401 2627 246.117 2627.47 245.832C2627.66 246.157 2627.88 246.497 2628.1 246.818C2632.17 252.579 2638.19 257.654 2645.21 258.41C2645.6 258.448 2645.98 258.472 2646.37 258.482C2646.36 259.033 2646.34 259.584 2646.33 260.135C2645.9 260.124 2645.48 260.098 2645.05 260.056C2637.26 259.176 2631.04 253.81 2626.74 247.749C2626.5 247.406 2626.27 247.042 2626.05 246.686ZM2679.81 264.064C2679.27 264.18 2678.73 264.296 2678.19 264.412C2677.55 261.432 2676.69 258.463 2675.67 255.56C2668.97 234.054 2648.21 212.52 2624.5 220.236L2624.42 220.253C2619.42 220.755 2614.85 218.024 2612.03 214.282L2613.5 213.624C2614.5 218.07 2617.52 222.418 2621.83 224.027L2622.3 224.202L2622.36 224.715C2623.48 243.699 2641.81 261.204 2661.1 254.589L2661.04 254.607C2665.34 253.602 2669.15 255.424 2672.44 257.436C2675.14 259.17 2677.5 261.332 2679.62 263.685C2679.21 264.054 2678.79 264.422 2678.38 264.791C2676.34 262.52 2674.09 260.457 2671.54 258.829C2668.53 256.912 2664.74 255.389 2661.55 256.18L2661.49 256.198C2652.08 258.623 2641.01 257.578 2633.42 250.855C2625.85 244.298 2621.87 234.589 2620.71 224.886L2621.24 225.574C2616.26 223.661 2613.02 218.955 2611.87 213.938L2613.34 213.28C2615.86 216.682 2620.12 219.042 2624.17 218.619L2624.08 218.636C2648.81 210.573 2670.54 233.218 2677.23 255.013C2678.27 257.976 2679.15 261.005 2679.81 264.064Z" fill="#1D2E4A"/>
<path d="M2733.56 233.057C2733.99 236.692 2735.17 244.589 2736.48 247.097C2738.1 250.233 2740.03 234.799 2739.92 232.39C2739.8 229.981 2738.58 226.406 2736.39 226.222C2734.64 226.075 2733.65 229.466 2733.56 233.057Z" fill="#1D2E4A" stroke="#1D2E4A" stroke-width="1.44162"/>
<path d="M2635.77 227.653C2636.24 232.021 2637.57 241.511 2639.05 244.521C2640.91 248.283 2643.19 229.718 2643.07 226.822C2642.95 223.926 2641.56 221.43 2639.05 221.22C2637.04 221.051 2635.89 223.334 2635.77 227.653Z" fill="#1D2E4A" stroke="#1D2E4A" stroke-width="1.44162"/>
<path d="M65.4296 179.5V171.977H57.768V170.278H65.4296V162.756H67.3016V170.278H74.9978V171.977H67.3016V179.5H65.4296ZM94.1901 155.545V157.521C91.3474 160.525 89.0709 163.9 87.3606 167.644C85.6504 171.388 84.645 175.34 84.3446 179.5H81.9872C82.1952 175.571 83.2121 171.654 85.0379 167.748C86.8637 163.842 89.2096 160.456 92.0754 157.59H78.5551V155.545H94.1901ZM114.089 186.122H112.355C110.691 183.186 109.455 180.552 108.646 178.217C107.86 175.86 107.467 173.26 107.467 170.417C107.467 167.759 107.906 164.963 108.785 162.028C109.663 159.092 110.853 156.619 112.355 154.609H114.089C111.131 159.323 109.651 164.604 109.651 170.452C109.651 176.068 111.131 181.291 114.089 186.122ZM115.864 173.711H117.979C118.187 175.074 118.765 176.16 119.712 176.969C120.66 177.755 121.839 178.148 123.248 178.148C127.062 178.148 129.177 175.201 129.593 169.308C129.639 168.776 129.662 168.175 129.662 167.505V166.846C128.437 169.828 126.218 171.318 123.006 171.318C120.741 171.318 118.88 170.567 117.424 169.065C115.968 167.563 115.24 165.645 115.24 163.31C115.24 160.907 116.003 158.931 117.528 157.382C119.054 155.81 120.983 155.025 123.318 155.025C126.253 155.025 128.483 156.18 130.009 158.491C131.21 160.34 131.811 163.148 131.811 166.916C131.811 169.412 131.58 171.526 131.118 173.26C130.54 175.432 129.558 177.108 128.171 178.287C126.808 179.442 125.155 180.02 123.214 180.02C121.157 180.02 119.458 179.454 118.118 178.321C116.777 177.166 116.026 175.629 115.864 173.711ZM123.248 156.931C121.584 156.931 120.198 157.532 119.088 158.734C118.002 159.913 117.459 161.404 117.459 163.206C117.459 165.032 118.002 166.523 119.088 167.678C120.174 168.811 121.573 169.377 123.283 169.377C125.016 169.377 126.426 168.811 127.512 167.678C128.622 166.523 129.177 165.044 129.177 163.241C129.177 161.415 128.61 159.913 127.478 158.734C126.368 157.532 124.959 156.931 123.248 156.931ZM135.058 163.033C135.081 160.537 135.786 158.595 137.173 157.209C138.56 155.822 140.478 155.129 142.928 155.129C145.1 155.129 146.857 155.706 148.197 156.862C149.538 157.995 150.208 159.485 150.208 161.334C150.208 162.652 149.838 163.784 149.099 164.732C148.382 165.679 147.388 166.303 146.117 166.604C147.712 166.927 148.937 167.609 149.792 168.649C150.647 169.666 151.075 170.96 151.075 172.532C151.075 174.774 150.301 176.588 148.752 177.975C147.227 179.361 145.216 180.055 142.72 180.055C140.201 180.055 138.19 179.361 136.688 177.975C135.209 176.565 134.469 174.681 134.469 172.324V171.769H136.584V171.873C136.584 173.838 137.127 175.375 138.213 176.484C139.322 177.593 140.848 178.148 142.789 178.148C144.569 178.148 146.025 177.651 147.157 176.657C148.29 175.64 148.856 174.346 148.856 172.774C148.856 170.949 148.255 169.643 147.053 168.857C145.875 168.071 144.349 167.678 142.477 167.678C142.038 167.678 141.645 167.69 141.299 167.713V165.876H142.2C143.402 165.876 144.372 165.749 145.112 165.494C147.03 164.778 147.989 163.426 147.989 161.438C147.989 160.075 147.516 158.988 146.568 158.179C145.644 157.371 144.396 156.966 142.824 156.966C141.067 156.966 139.692 157.498 138.698 158.561C137.705 159.601 137.173 161.092 137.104 163.033H135.058ZM169.992 155.545V157.521C167.149 160.525 164.872 163.9 163.162 167.644C161.452 171.388 160.447 175.34 160.146 179.5H157.789C157.997 175.571 159.014 171.654 160.839 167.748C162.665 163.842 165.011 160.456 167.877 157.59H154.357V155.545H169.992ZM178.508 170.417C178.508 173.26 178.104 175.86 177.295 178.217C176.509 180.552 175.284 183.186 173.62 186.122H171.887C174.845 181.291 176.324 176.068 176.324 170.452C176.324 164.604 174.845 159.323 171.887 154.609H173.62C175.122 156.619 176.313 159.092 177.191 162.028C178.069 164.963 178.508 167.759 178.508 170.417ZM207.093 177.559V179.5H191.111C191.157 178.853 191.227 178.252 191.319 177.697C191.435 177.119 191.619 176.576 191.874 176.068C192.151 175.559 192.382 175.12 192.567 174.751C192.775 174.381 193.11 173.965 193.572 173.503C194.058 173.04 194.416 172.694 194.647 172.462C194.878 172.231 195.306 171.896 195.93 171.457C196.577 170.995 197.016 170.694 197.247 170.556C197.478 170.394 197.975 170.059 198.738 169.55C199.57 168.996 200.148 168.614 200.471 168.406C200.795 168.175 201.303 167.782 201.997 167.228C202.69 166.65 203.187 166.141 203.487 165.702C203.788 165.263 204.077 164.72 204.354 164.073C204.631 163.403 204.77 162.709 204.77 161.993C204.77 160.491 204.273 159.289 203.279 158.387C202.309 157.463 201.014 157.001 199.397 157.001C197.432 157.001 196.011 157.613 195.132 158.838C194.277 160.063 193.85 161.669 193.85 163.657H191.7V163.345C191.7 160.779 192.394 158.769 193.78 157.313C195.167 155.834 197.074 155.094 199.501 155.094C201.766 155.094 203.58 155.718 204.943 156.966C206.307 158.214 206.989 159.878 206.989 161.958C206.989 162.628 206.885 163.287 206.677 163.934C206.492 164.558 206.295 165.101 206.087 165.564C205.879 166.026 205.51 166.546 204.978 167.124C204.446 167.678 204.03 168.106 203.73 168.406C203.453 168.684 202.944 169.088 202.205 169.62C201.465 170.128 200.968 170.463 200.714 170.625C200.46 170.787 199.928 171.134 199.119 171.665C198.218 172.243 197.594 172.647 197.247 172.878C196.924 173.11 196.415 173.514 195.722 174.092C195.052 174.647 194.555 175.201 194.231 175.756C193.908 176.311 193.688 176.923 193.572 177.593C193.665 177.593 193.769 177.593 193.884 177.593C194.023 177.57 194.116 177.559 194.162 177.559H207.093ZM226.53 155.545V157.521C223.687 160.525 221.41 163.9 219.7 167.644C217.99 171.388 216.984 175.34 216.684 179.5H214.327C214.535 175.571 215.552 171.654 217.377 167.748C219.203 163.842 221.549 160.456 224.415 157.59H210.895V155.545H226.53ZM246.313 171.665V173.468H242.638V179.5H240.628V173.468H229.43V171.422L240.801 155.233H242.638V171.665H246.313ZM240.628 171.665V162.097C240.628 160.548 240.639 159.219 240.662 158.11C238.12 162.062 234.965 166.581 231.198 171.665H240.628ZM263.542 166.396C262.294 166.049 261.324 165.425 260.63 164.524C259.937 163.599 259.59 162.49 259.59 161.196C259.59 159.323 260.261 157.821 261.601 156.689C262.942 155.556 264.721 154.99 266.94 154.99C269.159 154.99 270.927 155.545 272.244 156.654C273.584 157.763 274.255 159.231 274.255 161.057C274.255 163.784 272.949 165.564 270.337 166.396C271.863 166.719 273.064 167.424 273.943 168.51C274.821 169.574 275.26 170.891 275.26 172.462C275.26 174.774 274.509 176.599 273.007 177.94C271.528 179.28 269.494 179.951 266.905 179.951C264.386 179.951 262.375 179.292 260.873 177.975C259.371 176.657 258.62 174.889 258.62 172.67C258.62 171.053 259.047 169.701 259.902 168.614C260.757 167.505 261.971 166.765 263.542 166.396ZM266.94 156.931C265.345 156.931 264.074 157.324 263.126 158.11C262.202 158.896 261.74 159.959 261.74 161.3C261.74 162.617 262.214 163.668 263.161 164.454C264.109 165.217 265.368 165.598 266.94 165.598C268.535 165.598 269.794 165.217 270.719 164.454C271.643 163.668 272.105 162.605 272.105 161.265C272.105 159.901 271.643 158.838 270.719 158.075C269.817 157.313 268.558 156.931 266.94 156.931ZM266.871 167.332C265.045 167.332 263.577 167.817 262.468 168.788C261.381 169.758 260.838 171.03 260.838 172.601C260.838 174.265 261.393 175.606 262.502 176.623C263.612 177.616 265.091 178.113 266.94 178.113C268.789 178.113 270.256 177.616 271.343 176.623C272.452 175.629 273.007 174.288 273.007 172.601C273.007 171.006 272.452 169.735 271.343 168.788C270.233 167.817 268.743 167.332 266.871 167.332ZM292.998 155.545V157.486H282.494L280.761 165.876C282.032 164.258 283.869 163.449 286.273 163.449C288.584 163.449 290.479 164.212 291.958 165.737C293.46 167.262 294.212 169.215 294.212 171.596C294.212 173.999 293.426 176.01 291.854 177.628C290.283 179.223 288.283 180.02 285.857 180.02C283.453 180.02 281.523 179.35 280.067 178.009C278.611 176.646 277.86 174.831 277.814 172.566H279.963C280.056 174.277 280.622 175.64 281.662 176.657C282.725 177.674 284.123 178.183 285.857 178.183C287.613 178.183 289.069 177.57 290.225 176.345C291.404 175.12 291.993 173.583 291.993 171.734C291.993 169.839 291.415 168.302 290.259 167.124C289.104 165.922 287.625 165.321 285.822 165.321C283.488 165.321 281.697 166.257 280.449 168.129L278.507 168.06L280.899 155.545H292.998ZM306.611 168.926V171.041H297.909V168.926H306.611ZM326.098 161.404H323.914C323.706 160.017 323.151 158.931 322.25 158.145C321.372 157.336 320.228 156.931 318.818 156.931C317.709 156.931 316.738 157.186 315.906 157.694C315.074 158.203 314.438 158.815 313.999 159.531C313.56 160.248 313.19 161.161 312.89 162.27C312.613 163.356 312.428 164.316 312.335 165.148C312.266 165.957 312.208 166.904 312.162 167.99C312.809 166.627 313.71 165.587 314.866 164.87C316.045 164.131 317.397 163.761 318.922 163.761C321.187 163.761 323.047 164.512 324.503 166.014C325.96 167.517 326.688 169.423 326.688 171.734C326.688 174.138 325.925 176.126 324.399 177.697C322.874 179.269 320.933 180.055 318.575 180.055C317.119 180.055 315.802 179.731 314.623 179.084C313.445 178.437 312.485 177.524 311.746 176.345C310.636 174.543 310.082 171.804 310.082 168.129C310.082 163.923 310.833 160.699 312.335 158.457C313.861 156.192 316.045 155.059 318.887 155.059C320.921 155.059 322.562 155.614 323.81 156.723C325.081 157.81 325.844 159.37 326.098 161.404ZM318.506 165.598C316.819 165.598 315.421 166.188 314.311 167.366C313.202 168.522 312.647 169.99 312.647 171.769C312.647 173.618 313.202 175.143 314.311 176.345C315.444 177.547 316.865 178.148 318.575 178.148C320.286 178.148 321.684 177.559 322.77 176.38C323.879 175.201 324.434 173.699 324.434 171.873C324.434 170.024 323.879 168.522 322.77 167.366C321.684 166.188 320.262 165.598 318.506 165.598ZM345.327 155.545V157.521C342.484 160.525 340.208 163.9 338.498 167.644C336.787 171.388 335.782 175.34 335.481 179.5H333.124C333.332 175.571 334.349 171.654 336.175 167.748C338.001 163.842 340.347 160.456 343.212 157.59H329.692V155.545H345.327Z" fill="white"/>
<path d="M65.4296 228.59V221.067H57.768V219.368H65.4296V211.845H67.3016V219.368H74.9978V221.067H67.3016V228.59H65.4296ZM94.1901 204.635V206.611C91.3474 209.615 89.0709 212.989 87.3606 216.734C85.6504 220.478 84.645 224.43 84.3446 228.59H81.9872C82.1952 224.661 83.2121 220.743 85.0379 216.838C86.8637 212.932 89.2096 209.546 92.0754 206.68H78.5551V204.635H94.1901ZM114.089 235.211H112.355C110.691 232.276 109.455 229.641 108.646 227.307C107.86 224.95 107.467 222.35 107.467 219.507C107.467 216.849 107.906 214.053 108.785 211.117C109.663 208.182 110.853 205.709 112.355 203.699H114.089C111.131 208.413 109.651 213.694 109.651 219.542C109.651 225.158 111.131 230.381 114.089 235.211ZM115.864 222.8H117.979C118.187 224.164 118.765 225.25 119.712 226.059C120.66 226.845 121.839 227.238 123.248 227.238C127.062 227.238 129.177 224.291 129.593 218.398C129.639 217.866 129.662 217.265 129.662 216.595V215.936C128.437 218.918 126.218 220.408 123.006 220.408C120.741 220.408 118.88 219.657 117.424 218.155C115.968 216.653 115.24 214.734 115.24 212.4C115.24 209.996 116.003 208.02 117.528 206.472C119.054 204.9 120.983 204.115 123.318 204.115C126.253 204.115 128.483 205.27 130.009 207.581C131.21 209.43 131.811 212.238 131.811 216.006C131.811 218.502 131.58 220.616 131.118 222.35C130.54 224.522 129.558 226.198 128.171 227.376C126.808 228.532 125.155 229.11 123.214 229.11C121.157 229.11 119.458 228.544 118.118 227.411C116.777 226.256 116.026 224.719 115.864 222.8ZM123.248 206.021C121.584 206.021 120.198 206.622 119.088 207.824C118.002 209.003 117.459 210.493 117.459 212.296C117.459 214.122 118.002 215.613 119.088 216.768C120.174 217.901 121.573 218.467 123.283 218.467C125.016 218.467 126.426 217.901 127.512 216.768C128.622 215.613 129.177 214.133 129.177 212.331C129.177 210.505 128.61 209.003 127.478 207.824C126.368 206.622 124.959 206.021 123.248 206.021ZM150.555 226.648V228.59H134.573C134.619 227.943 134.689 227.342 134.781 226.787C134.897 226.209 135.081 225.666 135.336 225.158C135.613 224.649 135.844 224.21 136.029 223.84C136.237 223.471 136.572 223.055 137.034 222.592C137.52 222.13 137.878 221.783 138.109 221.552C138.34 221.321 138.768 220.986 139.392 220.547C140.039 220.085 140.478 219.784 140.709 219.646C140.94 219.484 141.437 219.149 142.2 218.64C143.032 218.086 143.61 217.704 143.933 217.496C144.257 217.265 144.765 216.872 145.459 216.318C146.152 215.74 146.649 215.231 146.949 214.792C147.25 214.353 147.539 213.81 147.816 213.163C148.093 212.493 148.232 211.799 148.232 211.083C148.232 209.58 147.735 208.379 146.741 207.477C145.771 206.553 144.476 206.091 142.859 206.091C140.894 206.091 139.473 206.703 138.594 207.928C137.739 209.153 137.312 210.759 137.312 212.747H135.162V212.435C135.162 209.869 135.856 207.859 137.242 206.403C138.629 204.923 140.536 204.184 142.963 204.184C145.228 204.184 147.042 204.808 148.405 206.056C149.769 207.304 150.451 208.968 150.451 211.048C150.451 211.718 150.347 212.377 150.139 213.024C149.954 213.648 149.757 214.191 149.549 214.653C149.341 215.116 148.972 215.636 148.44 216.214C147.908 216.768 147.492 217.196 147.192 217.496C146.915 217.774 146.406 218.178 145.667 218.71C144.927 219.218 144.43 219.553 144.176 219.715C143.922 219.877 143.39 220.223 142.581 220.755C141.68 221.333 141.056 221.737 140.709 221.968C140.386 222.199 139.877 222.604 139.184 223.182C138.514 223.736 138.017 224.291 137.693 224.846C137.37 225.4 137.15 226.013 137.034 226.683C137.127 226.683 137.231 226.683 137.346 226.683C137.485 226.66 137.578 226.648 137.624 226.648H150.555ZM169.992 204.635V206.611C167.149 209.615 164.872 212.989 163.162 216.734C161.452 220.478 160.447 224.43 160.146 228.59H157.789C157.997 224.661 159.014 220.743 160.839 216.838C162.665 212.932 165.011 209.546 167.877 206.68H154.357V204.635H169.992ZM178.508 219.507C178.508 222.35 178.104 224.95 177.295 227.307C176.509 229.641 175.284 232.276 173.62 235.211H171.887C174.845 230.381 176.324 225.158 176.324 219.542C176.324 213.694 174.845 208.413 171.887 203.699H173.62C175.122 205.709 176.313 208.182 177.191 211.117C178.069 214.053 178.508 216.849 178.508 219.507ZM191.596 212.123C191.619 209.627 192.324 207.685 193.711 206.299C195.098 204.912 197.016 204.219 199.466 204.219C201.638 204.219 203.395 204.796 204.735 205.952C206.076 207.084 206.746 208.575 206.746 210.424C206.746 211.741 206.376 212.874 205.637 213.821C204.92 214.769 203.926 215.393 202.655 215.693C204.25 216.017 205.475 216.699 206.33 217.739C207.185 218.756 207.613 220.05 207.613 221.622C207.613 223.863 206.839 225.678 205.29 227.064C203.765 228.451 201.754 229.145 199.258 229.145C196.739 229.145 194.728 228.451 193.226 227.064C191.747 225.655 191.007 223.771 191.007 221.414V220.859H193.122V220.963C193.122 222.927 193.665 224.464 194.751 225.574C195.86 226.683 197.386 227.238 199.327 227.238C201.107 227.238 202.563 226.741 203.695 225.747C204.828 224.73 205.394 223.436 205.394 221.864C205.394 220.039 204.793 218.733 203.591 217.947C202.413 217.161 200.887 216.768 199.015 216.768C198.576 216.768 198.183 216.78 197.837 216.803V214.965H198.738C199.94 214.965 200.91 214.838 201.65 214.584C203.568 213.868 204.527 212.516 204.527 210.528C204.527 209.164 204.054 208.078 203.106 207.269C202.182 206.46 200.933 206.056 199.362 206.056C197.605 206.056 196.23 206.587 195.236 207.651C194.243 208.691 193.711 210.181 193.642 212.123H191.596ZM227.05 220.755V222.558H223.375V228.59H221.364V222.558H210.167V220.512L221.537 204.323H223.375V220.755H227.05ZM221.364 220.755V211.187C221.364 209.638 221.376 208.309 221.399 207.2C218.857 211.152 215.702 215.67 211.935 220.755H221.364ZM240.35 204.392V228.59H238.062V210.563H231.787V208.899C232.666 208.876 233.301 208.852 233.694 208.829C234.087 208.783 234.572 208.714 235.15 208.621C235.728 208.529 236.144 208.39 236.398 208.205C236.676 208.02 236.976 207.766 237.3 207.443C237.623 207.119 237.877 206.715 238.062 206.229C238.247 205.721 238.421 205.108 238.582 204.392H240.35ZM274.532 226.648V228.59H258.55C258.597 227.943 258.666 227.342 258.758 226.787C258.874 226.209 259.059 225.666 259.313 225.158C259.59 224.649 259.821 224.21 260.006 223.84C260.214 223.471 260.549 223.055 261.012 222.592C261.497 222.13 261.855 221.783 262.086 221.552C262.318 221.321 262.745 220.986 263.369 220.547C264.016 220.085 264.455 219.784 264.686 219.646C264.918 219.484 265.414 219.149 266.177 218.64C267.009 218.086 267.587 217.704 267.911 217.496C268.234 217.265 268.743 216.872 269.436 216.318C270.129 215.74 270.626 215.231 270.927 214.792C271.227 214.353 271.516 213.81 271.793 213.163C272.071 212.493 272.209 211.799 272.209 211.083C272.209 209.58 271.712 208.379 270.719 207.477C269.748 206.553 268.454 206.091 266.836 206.091C264.871 206.091 263.45 206.703 262.572 207.928C261.717 209.153 261.289 210.759 261.289 212.747H259.14V212.435C259.14 209.869 259.833 207.859 261.22 206.403C262.606 204.923 264.513 204.184 266.94 204.184C269.205 204.184 271.019 204.808 272.383 206.056C273.746 207.304 274.428 208.968 274.428 211.048C274.428 211.718 274.324 212.377 274.116 213.024C273.931 213.648 273.735 214.191 273.527 214.653C273.319 215.116 272.949 215.636 272.417 216.214C271.886 216.768 271.47 217.196 271.169 217.496C270.892 217.774 270.384 218.178 269.644 218.71C268.904 219.218 268.407 219.553 268.153 219.715C267.899 219.877 267.367 220.223 266.559 220.755C265.657 221.333 265.033 221.737 264.686 221.968C264.363 222.199 263.854 222.604 263.161 223.182C262.491 223.736 261.994 224.291 261.67 224.846C261.347 225.4 261.127 226.013 261.012 226.683C261.104 226.683 261.208 226.683 261.324 226.683C261.462 226.66 261.555 226.648 261.601 226.648H274.532ZM288.526 204.392V228.59H286.238V210.563H279.963V208.899C280.841 208.876 281.477 208.852 281.87 208.829C282.263 208.783 282.748 208.714 283.326 208.621C283.904 208.529 284.32 208.39 284.574 208.205C284.851 208.02 285.152 207.766 285.475 207.443C285.799 207.119 286.053 206.715 286.238 206.229C286.423 205.721 286.596 205.108 286.758 204.392H288.526ZM306.611 218.016V220.131H297.909V218.016H306.611ZM326.584 220.755V222.558H322.909V228.59H320.898V222.558H309.7V220.512L321.071 204.323H322.909V220.755H326.584ZM320.898 220.755V211.187C320.898 209.638 320.91 208.309 320.933 207.2C318.39 211.152 315.236 215.67 311.468 220.755H320.898ZM334.164 215.485C332.916 215.139 331.945 214.515 331.252 213.613C330.559 212.689 330.212 211.58 330.212 210.285C330.212 208.413 330.882 206.911 332.223 205.779C333.563 204.646 335.343 204.08 337.562 204.08C339.78 204.08 341.548 204.635 342.866 205.744C344.206 206.853 344.876 208.321 344.876 210.147C344.876 212.874 343.571 214.653 340.959 215.485C342.484 215.809 343.686 216.514 344.564 217.6C345.443 218.663 345.882 219.981 345.882 221.552C345.882 223.863 345.131 225.689 343.628 227.03C342.149 228.37 340.115 229.041 337.527 229.041C335.008 229.041 332.997 228.382 331.495 227.064C329.992 225.747 329.241 223.979 329.241 221.76C329.241 220.143 329.669 218.79 330.524 217.704C331.379 216.595 332.593 215.855 334.164 215.485ZM337.562 206.021C335.967 206.021 334.696 206.414 333.748 207.2C332.824 207.986 332.361 209.049 332.361 210.389C332.361 211.707 332.835 212.758 333.783 213.544C334.73 214.307 335.99 214.688 337.562 214.688C339.156 214.688 340.416 214.307 341.34 213.544C342.265 212.758 342.727 211.695 342.727 210.355C342.727 208.991 342.265 207.928 341.34 207.165C340.439 206.403 339.179 206.021 337.562 206.021ZM337.492 216.422C335.666 216.422 334.199 216.907 333.089 217.878C332.003 218.848 331.46 220.119 331.46 221.691C331.46 223.355 332.015 224.696 333.124 225.712C334.233 226.706 335.713 227.203 337.562 227.203C339.41 227.203 340.878 226.706 341.964 225.712C343.074 224.719 343.628 223.378 343.628 221.691C343.628 220.096 343.074 218.825 341.964 217.878C340.855 216.907 339.364 216.422 337.492 216.422Z" fill="white"/>
<path d="M72.8831 284.831V287.5H56.8667C56.936 286.136 57.144 284.946 57.4907 283.929C57.8374 282.912 58.369 281.999 59.0854 281.19C59.825 280.358 60.5415 279.677 61.2348 279.145C61.9282 278.614 62.9104 277.955 64.1816 277.169C66.1692 275.921 67.475 274.985 68.099 274.361C69.3932 273.09 70.0404 271.68 70.0404 270.132C70.0404 268.768 69.6013 267.659 68.723 266.803C67.8448 265.925 66.7007 265.486 65.2909 265.486C63.6038 265.486 62.3904 266.075 61.6508 267.254C60.9344 268.41 60.553 269.877 60.5068 271.657H57.5254V270.998C57.5254 268.571 58.2418 266.619 59.6748 265.139C61.1308 263.66 63.0491 262.921 65.4296 262.921C67.7639 262.921 69.6244 263.568 71.0111 264.862C72.3978 266.156 73.0911 267.89 73.0911 270.062C73.0911 270.987 72.9293 271.865 72.6058 272.697C72.3053 273.506 71.9587 274.188 71.5658 274.742C71.196 275.297 70.6182 275.886 69.8324 276.51C69.0697 277.134 68.4341 277.62 67.9257 277.966C67.4172 278.29 66.6892 278.741 65.7416 279.318C63.8464 280.451 62.5868 281.329 61.9628 281.953C61.0846 282.831 60.5183 283.791 60.2641 284.831H72.8831ZM84.8665 262.921C86.3456 262.921 87.6052 263.198 88.6452 263.753C89.7084 264.284 90.5173 264.943 91.072 265.729C91.6266 266.515 92.0658 267.543 92.3893 268.814C92.7129 270.062 92.9093 271.195 92.9787 272.212C93.048 273.205 93.0827 274.407 93.0827 275.817C93.0827 277.111 93.0249 278.278 92.9093 279.318C92.8169 280.358 92.5973 281.445 92.2507 282.577C91.9271 283.71 91.4764 284.657 90.8986 285.42C90.3208 286.16 89.535 286.772 88.5412 287.257C87.5474 287.743 86.3687 287.985 85.0051 287.985C83.5722 287.985 82.3242 287.743 81.261 287.257C80.221 286.749 79.4121 286.125 78.8343 285.385C78.2565 284.646 77.7943 283.71 77.4476 282.577C77.124 281.422 76.916 280.335 76.8236 279.318C76.7311 278.278 76.6849 277.088 76.6849 275.748C76.6849 274.592 76.708 273.587 76.7542 272.732C76.8236 271.876 76.9391 270.917 77.1009 269.854C77.2858 268.768 77.5632 267.855 77.9329 267.115C78.3027 266.353 78.7765 265.636 79.3543 264.966C79.9321 264.296 80.6832 263.787 81.6077 263.441C82.5553 263.094 83.6415 262.921 84.8665 262.921ZM86.7732 265.971C86.2185 265.694 85.5829 265.555 84.8665 265.555C84.15 265.555 83.5144 265.694 82.9597 265.971C82.4051 266.226 81.9544 266.526 81.6077 266.873C81.261 267.219 80.9606 267.739 80.7063 268.433C80.4521 269.103 80.2672 269.669 80.1517 270.132C80.0592 270.594 79.9783 271.264 79.909 272.142C79.8397 272.997 79.805 273.61 79.805 273.98C79.805 274.326 79.805 274.916 79.805 275.748C79.805 276.557 79.8165 277.227 79.8397 277.758C79.8628 278.29 79.9206 278.983 80.013 279.838C80.1054 280.694 80.2672 281.41 80.4983 281.988C80.7295 282.543 81.0184 283.109 81.365 283.687C81.7117 284.241 82.1855 284.669 82.7864 284.969C83.4104 285.247 84.1269 285.385 84.9358 285.385C85.6291 285.385 86.2416 285.258 86.7732 285.004C87.3279 284.75 87.7785 284.449 88.1252 284.103C88.4719 283.756 88.7608 283.271 88.9919 282.647C89.2461 281.999 89.431 281.445 89.5466 280.982C89.6621 280.497 89.743 279.862 89.7893 279.076C89.8586 278.267 89.8933 277.678 89.8933 277.308C89.9164 276.915 89.9279 276.349 89.9279 275.609C89.9279 274.8 89.9279 274.222 89.9279 273.876C89.9279 273.529 89.8933 272.928 89.8239 272.073C89.7546 271.218 89.6621 270.559 89.5466 270.097C89.4541 269.635 89.2808 269.068 89.0266 268.398C88.7723 267.728 88.4719 267.219 88.1252 266.873C87.7785 266.526 87.3279 266.226 86.7732 265.971ZM111.41 284.831V287.5H95.3938C95.4631 286.136 95.6711 284.946 96.0178 283.929C96.3645 282.912 96.896 281.999 97.6125 281.19C98.3521 280.358 99.0685 279.677 99.7619 279.145C100.455 278.614 101.437 277.955 102.709 277.169C104.696 275.921 106.002 274.985 106.626 274.361C107.92 273.09 108.567 271.68 108.567 270.132C108.567 268.768 108.128 267.659 107.25 266.803C106.372 265.925 105.228 265.486 103.818 265.486C102.131 265.486 100.917 266.075 100.178 267.254C99.4614 268.41 99.0801 269.877 99.0339 271.657H96.0524V270.998C96.0524 268.571 96.7689 266.619 98.2018 265.139C99.6579 263.66 101.576 262.921 103.957 262.921C106.291 262.921 108.151 263.568 109.538 264.862C110.925 266.156 111.618 267.89 111.618 270.062C111.618 270.987 111.456 271.865 111.133 272.697C110.832 273.506 110.486 274.188 110.093 274.742C109.723 275.297 109.145 275.886 108.359 276.51C107.597 277.134 106.961 277.62 106.453 277.966C105.944 278.29 105.216 278.741 104.269 279.318C102.374 280.451 101.114 281.329 100.49 281.953C99.6117 282.831 99.0454 283.791 98.7912 284.831H111.41ZM131.124 269.3H128.108C127.947 268.121 127.507 267.196 126.791 266.526C126.098 265.833 125.15 265.486 123.948 265.486C123.116 265.486 122.365 265.636 121.695 265.937C121.048 266.237 120.516 266.676 120.1 267.254C119.707 267.809 119.372 268.375 119.095 268.953C118.817 269.531 118.609 270.236 118.471 271.068C118.332 271.9 118.24 272.581 118.193 273.113C118.147 273.621 118.101 274.245 118.055 274.985C119.395 272.836 121.429 271.761 124.156 271.761C126.444 271.761 128.282 272.489 129.668 273.945C131.078 275.378 131.783 277.273 131.783 279.63C131.783 282.057 131.044 284.056 129.564 285.628C128.108 287.2 126.155 287.985 123.706 287.985C117.997 287.985 115.143 283.918 115.143 275.782C115.143 274.511 115.212 273.309 115.351 272.177C115.512 271.044 115.79 269.9 116.183 268.745C116.599 267.566 117.13 266.561 117.777 265.729C118.425 264.897 119.28 264.226 120.343 263.718C121.429 263.186 122.666 262.921 124.052 262.921C126.109 262.921 127.762 263.487 129.01 264.619C130.258 265.729 130.963 267.289 131.124 269.3ZM123.636 274.326C122.134 274.326 120.921 274.835 119.996 275.852C119.072 276.845 118.609 278.151 118.609 279.769C118.609 281.456 119.072 282.808 119.996 283.825C120.944 284.842 122.18 285.351 123.706 285.351C125.185 285.351 126.375 284.865 127.276 283.895C128.201 282.901 128.663 281.572 128.663 279.908C128.663 278.198 128.212 276.845 127.311 275.852C126.41 274.835 125.185 274.326 123.636 274.326Z" fill="white"/>
</svg>
