<svg width="3670" height="47" viewBox="0 0 3670 47" fill="none" xmlns="http://www.w3.org/2000/svg">
<path d="M23.9896 7.70277V13.0382H15.4047V36.2656H9.10642V13.0382H0.521513V7.70277H23.9896ZM38.5161 7.66266L49.3876 36.2656H42.8085L40.562 29.8871H29.9312L27.6044 36.2656H21.1858L32.0574 7.66266H38.5161ZM39.0376 25.3139L35.2667 14.683L31.4556 25.3139H39.0376ZM70.0215 7.70277V13.0382H61.4366V36.2656H55.1384V13.0382H46.5535V7.70277H70.0215ZM74.6481 36.1453V30.8499C75.6644 31.2778 76.6673 31.4918 77.6568 31.4918C78.5661 31.4918 79.2748 31.2645 79.783 30.8098C80.2911 30.3284 80.5452 29.74 80.5452 29.0447C80.5452 28.804 80.5185 28.5633 80.465 28.3226C80.4115 28.0819 80.3312 27.8144 80.2243 27.5203C80.1173 27.2261 80.0237 26.9987 79.9435 26.8383C79.8632 26.6511 79.7295 26.3836 79.5423 26.036C79.3818 25.6883 79.2748 25.461 79.2214 25.354L70.837 7.70277H77.7772L84.2359 22.7464L90.5743 7.70277H97.2737L87.6458 28.7237C86.2818 31.7191 84.9179 33.8185 83.5539 35.022C82.19 36.1988 80.3847 36.7871 78.1382 36.7871C76.8812 36.7871 75.7179 36.5732 74.6481 36.1453ZM108.812 22.7865V27.8813H96.7365V22.7865H108.812ZM139.229 25.2336C138.908 28.8174 137.651 31.6656 135.458 33.7784C133.265 35.8912 130.256 36.9476 126.432 36.9476C122.286 36.9476 118.943 35.5836 116.403 32.8557C113.889 30.1011 112.632 26.4639 112.632 21.9441C112.632 17.665 113.902 14.108 116.443 11.2731C119.01 8.43824 122.42 7.02079 126.672 7.02079C130.069 7.02079 132.917 7.98359 135.217 9.90917C137.517 11.8348 138.788 14.2819 139.028 17.2505H132.89C132.57 15.6726 131.847 14.4557 130.724 13.5999C129.628 12.7173 128.237 12.276 126.552 12.276C124.814 12.276 123.343 12.7708 122.139 13.7603C120.963 14.7231 120.133 15.9133 119.652 17.3307C119.171 18.7481 118.93 20.2993 118.93 21.9842C118.93 24.9261 119.612 27.2796 120.976 29.0447C122.34 30.7831 124.172 31.6522 126.472 31.6522C130.296 31.6522 132.476 29.5127 133.011 25.2336H139.229ZM157.651 7.66266L168.522 36.2656H161.943L159.697 29.8871H149.066L146.739 36.2656H140.32L151.192 7.66266H157.651ZM158.172 25.3139L154.401 14.683L150.59 25.3139H158.172ZM194.46 7.70277V36.2656H188.202V13.0382H180.54L180.139 25.1534C179.871 32.936 177.224 36.8273 172.196 36.8273C170.805 36.8273 169.628 36.6668 168.665 36.3459V31.2912C169.307 31.6121 170.043 31.7726 170.872 31.7726C171.861 31.7726 172.624 31.3313 173.159 30.4488C173.693 29.5394 174.001 27.7476 174.081 25.0732L174.563 7.70277H194.46ZM212.781 7.02079C216.953 7.02079 220.323 8.4115 222.89 11.1929C225.484 13.9476 226.781 17.558 226.781 22.0243C226.781 26.4906 225.484 30.1011 222.89 32.8557C220.323 35.5836 216.939 36.9476 212.741 36.9476C208.515 36.9476 205.105 35.5836 202.511 32.8557C199.917 30.1011 198.62 26.4906 198.62 22.0243C198.62 17.5045 199.903 13.8807 202.471 11.1528C205.065 8.39812 208.502 7.02079 212.781 7.02079ZM212.7 12.1557C210.347 12.1557 208.461 13.0382 207.044 14.8034C205.653 16.5685 204.958 18.9354 204.958 21.904C204.958 24.9796 205.653 27.3865 207.044 29.1249C208.435 30.8633 210.347 31.7458 212.781 31.7726C215.161 31.7726 217.033 30.89 218.397 29.1249C219.761 27.3598 220.443 24.9528 220.443 21.904C220.443 18.9086 219.748 16.5417 218.357 14.8034C216.966 13.0382 215.081 12.1557 212.7 12.1557ZM255.277 7.70277V36.2656H249.019V23.9499H237.345V36.2656H231.087V7.70277H237.345V18.454H249.019V7.70277H255.277ZM299.787 43.6069H293.73V36.2656H275.597V43.6069H269.539V30.9301H271.706C273.337 28.7371 274.5 26.1296 275.196 23.1075C275.918 20.0586 276.279 16.3679 276.279 12.0353V7.70277H296.618V30.9301H299.787V43.6069ZM290.36 30.9301V12.7976H282.497V13.2789C282.497 20.4197 281.227 26.3034 278.686 30.9301H290.36ZM326.758 7.70277V36.2656H320.5V13.0382H312.838L312.437 25.1534C312.169 32.936 309.521 36.8273 304.494 36.8273C303.103 36.8273 301.926 36.6668 300.963 36.3459V31.2912C301.605 31.6121 302.341 31.7726 303.17 31.7726C304.159 31.7726 304.921 31.3313 305.456 30.4488C305.991 29.5394 306.299 27.7476 306.379 25.0732L306.86 7.70277H326.758ZM345.72 25.0732L337.376 36.2656H329.513L338.379 24.7121C336.4 24.204 334.809 23.2546 333.605 21.8638C332.428 20.4464 331.84 18.6412 331.84 16.4481C331.84 13.5598 332.763 11.3801 334.608 9.90917C336.48 8.43824 338.834 7.70277 341.669 7.70277H355.669V36.2656H349.451V25.0732H345.72ZM349.451 20.54V12.6371H343.233C341.628 12.6371 340.345 12.9045 339.382 13.4394C338.446 13.9743 337.978 14.9906 337.978 16.4883C337.978 18.0929 338.459 19.1761 339.422 19.7377C340.412 20.2726 341.776 20.54 343.514 20.54H349.451ZM393.499 7.70277V13.0382H384.914V36.2656H378.616V13.0382H370.031V7.70277H393.499ZM396.761 7.70277H410.281C412.955 7.70277 415.135 8.30452 416.82 9.50801C418.531 10.6848 419.387 12.4766 419.387 14.8836C419.387 16.2208 419.039 17.4109 418.344 18.454C417.649 19.4702 416.699 20.2458 415.496 20.7807C418.973 21.7702 420.711 24.097 420.711 27.761C420.711 30.4621 419.802 32.5615 417.983 34.0592C416.164 35.5302 413.851 36.2656 411.043 36.2656H396.761V7.70277ZM402.859 12.5569V19.2563H408.556C411.712 19.2563 413.289 18.1464 413.289 15.9266C413.289 14.6162 412.862 13.7336 412.006 13.2789C411.15 12.7976 410 12.5569 408.556 12.5569H402.859ZM402.859 23.5086V31.2912H409.157C410.789 31.2912 412.073 31.0238 413.009 30.4889C413.971 29.954 414.453 28.9243 414.453 27.3999C414.453 25.8487 413.945 24.8191 412.928 24.3109C411.939 23.7761 410.575 23.5086 408.837 23.5086H402.859ZM437.965 7.02079C442.137 7.02079 445.507 8.4115 448.074 11.1929C450.669 13.9476 451.966 17.558 451.966 22.0243C451.966 26.4906 450.669 30.1011 448.074 32.8557C445.507 35.5836 442.124 36.9476 437.925 36.9476C433.699 36.9476 430.289 35.5836 427.695 32.8557C425.101 30.1011 423.804 26.4906 423.804 22.0243C423.804 17.5045 425.088 13.8807 427.655 11.1528C430.249 8.39812 433.686 7.02079 437.965 7.02079ZM437.885 12.1557C435.531 12.1557 433.646 13.0382 432.228 14.8034C430.838 16.5685 430.142 18.9354 430.142 21.904C430.142 24.9796 430.838 27.3865 432.228 29.1249C433.619 30.8633 435.531 31.7458 437.965 31.7726C440.345 31.7726 442.217 30.89 443.581 29.1249C444.945 27.3598 445.627 24.9528 445.627 21.904C445.627 18.9086 444.932 16.5417 443.541 14.8034C442.151 13.0382 440.265 12.1557 437.885 12.1557ZM456.311 7.70277H468.627C471.836 7.70277 474.377 8.47836 476.249 10.0295C478.148 11.5539 479.097 13.8406 479.097 16.8894C479.097 19.8848 478.161 22.158 476.289 23.7092C474.417 25.2336 471.97 25.9958 468.948 25.9958H462.529V36.2656H456.311V7.70277ZM462.529 12.8377V21.0615H468.105C471.368 21.0615 473 19.6976 473 16.9697C473 14.215 471.381 12.8377 468.145 12.8377H462.529ZM492.054 25.2737C488.711 25.2737 486.171 24.4982 484.432 22.947C482.694 21.3691 481.825 18.815 481.825 15.2848V7.70277H488.083V15.365C488.083 17.0766 488.417 18.2935 489.086 19.0156C489.781 19.7109 490.931 20.0586 492.536 20.0586C493.846 20.0586 495.732 19.8447 498.192 19.4168V7.70277H504.45V36.2656H498.192V24.4714C495.598 25.0063 493.552 25.2737 492.054 25.2737ZM531.208 7.70277V12.8377H516.004V19.0557H529.964V23.99H516.004V31.0104H531.489V36.2656H509.786V7.70277H531.208ZM561.313 25.2336C560.992 28.8174 559.735 31.6656 557.542 33.7784C555.349 35.8912 552.34 36.9476 548.515 36.9476C544.37 36.9476 541.027 35.5836 538.486 32.8557C535.972 30.1011 534.715 26.4639 534.715 21.9441C534.715 17.665 535.986 14.108 538.526 11.2731C541.094 8.43824 544.504 7.02079 548.756 7.02079C552.153 7.02079 555.001 7.98359 557.301 9.90917C559.601 11.8348 560.871 14.2819 561.112 17.2505H554.974C554.653 15.6726 553.931 14.4557 552.808 13.5999C551.711 12.7173 550.321 12.276 548.636 12.276C546.897 12.276 545.426 12.7708 544.223 13.7603C543.046 14.7231 542.217 15.9133 541.736 17.3307C541.254 18.7481 541.014 20.2993 541.014 21.9842C541.014 24.9261 541.696 27.2796 543.06 29.0447C544.424 30.7831 546.256 31.6522 548.556 31.6522C552.38 31.6522 554.56 29.5127 555.095 25.2336H561.313ZM590.927 7.70277L579.734 18.9755L591.97 36.2656H584.107L575.442 23.4284L571.791 27.0389V36.2656H565.613V7.70277H571.791V19.5772L583.024 7.70277H590.927ZM618.675 7.70277V36.2656H612.416V16.4481H612.296L601.545 36.2656H594.484V7.70277H600.743V27.4801H600.863L611.614 7.70277H618.675ZM647.567 7.70277L638.38 21.3423L648.409 36.2656H640.907L634.649 26.3569L628.311 36.2656H621.17L631.239 21.3423L621.932 7.70277H629.234L634.93 16.8894L640.667 7.70277H647.567ZM687.535 7.70277L676.343 18.9755L688.578 36.2656H680.715L672.05 23.4284L668.4 27.0389V36.2656H662.222V7.70277H668.4V19.5772L679.632 7.70277H687.535ZM703.305 7.02079C707.477 7.02079 710.847 8.4115 713.414 11.1929C716.009 13.9476 717.306 17.558 717.306 22.0243C717.306 26.4906 716.009 30.1011 713.414 32.8557C710.847 35.5836 707.464 36.9476 703.265 36.9476C699.039 36.9476 695.629 35.5836 693.035 32.8557C690.441 30.1011 689.144 26.4906 689.144 22.0243C689.144 17.5045 690.428 13.8807 692.995 11.1528C695.589 8.39812 699.026 7.02079 703.305 7.02079ZM703.225 12.1557C700.871 12.1557 698.986 13.0382 697.568 14.8034C696.178 16.5685 695.482 18.9354 695.482 21.904C695.482 24.9796 696.178 27.3865 697.568 29.1249C698.959 30.8633 700.871 31.7458 703.305 31.7726C705.685 31.7726 707.557 30.89 708.921 29.1249C710.285 27.3598 710.967 24.9528 710.967 21.904C710.967 18.9086 710.272 16.5417 708.881 14.8034C707.491 13.0382 705.605 12.1557 703.225 12.1557ZM721.531 36.2656V7.70277H727.789V30.9301H737.296V7.70277H743.555V30.9301H753.062V7.70277H759.32V36.2656H721.531ZM786.166 7.70277V12.8377H770.962V19.0557H784.922V23.99H770.962V31.0104H786.447V36.2656H764.744V7.70277H786.166ZM816.151 7.70277L804.958 18.9755L817.194 36.2656H809.331L800.666 23.4284L797.015 27.0389V36.2656H790.837V7.70277H797.015V19.5772L808.248 7.70277H816.151ZM855.063 7.70277V36.2656H848.805V16.4481H848.685L837.934 36.2656H830.873V7.70277H837.131V27.4801H837.252L848.003 7.70277H855.063ZM897.287 25.2336C896.966 28.8174 895.709 31.6656 893.516 33.7784C891.323 35.8912 888.314 36.9476 884.49 36.9476C880.345 36.9476 877.002 35.5836 874.461 32.8557C871.947 30.1011 870.69 26.4639 870.69 21.9441C870.69 17.665 871.96 14.108 874.501 11.2731C877.068 8.43824 880.478 7.02079 884.731 7.02079C888.127 7.02079 890.975 7.98359 893.275 9.90917C895.575 11.8348 896.846 14.2819 897.087 17.2505H890.949C890.628 15.6726 889.906 14.4557 888.782 13.5999C887.686 12.7173 886.295 12.276 884.61 12.276C882.872 12.276 881.401 12.7708 880.198 13.7603C879.021 14.7231 878.192 15.9133 877.71 17.3307C877.229 18.7481 876.988 20.2993 876.988 21.9842C876.988 24.9261 877.67 27.2796 879.034 29.0447C880.398 30.7831 882.23 31.6522 884.53 31.6522C888.355 31.6522 890.534 29.5127 891.069 25.2336H897.287ZM901.508 36.2656V7.70277H910.454L917.113 27.3197L923.612 7.70277H932.357V36.2656H926.46V15.9667L919.44 36.2656H914.586L907.485 16.1673V36.2656H901.508ZM959.325 7.70277V12.8377H944.12V19.0557H958.081V23.99H944.12V31.0104H959.605V36.2656H937.902V7.70277H959.325ZM987.464 7.70277V36.2656H981.206V13.0382H973.543L973.142 25.1534C972.875 32.936 970.227 36.8273 965.199 36.8273C963.808 36.8273 962.632 36.6668 961.669 36.3459V31.2912C962.311 31.6121 963.046 31.7726 963.875 31.7726C964.865 31.7726 965.627 31.3313 966.162 30.4488C966.697 29.5394 967.004 27.7476 967.085 25.0732L967.566 7.70277H987.464ZM1014.45 27.079C1014.45 30.1278 1013.5 32.4278 1011.6 33.979C1009.73 35.5034 1007.19 36.2656 1003.98 36.2656H992.867V7.70277H999.085V17.9726H1004.3C1007.32 17.9726 1009.77 18.7481 1011.64 20.2993C1013.51 21.8237 1014.45 24.0836 1014.45 27.079ZM1008.35 26.9987C1008.35 24.2708 1006.72 22.9069 1003.46 22.9069H999.085V31.1307H1003.5C1006.73 31.1307 1008.35 29.7534 1008.35 26.9987ZM1017.5 7.70277H1023.76V36.2656H1017.5V7.70277ZM1052.61 7.70277L1043.42 21.3423L1053.45 36.2656H1045.95L1039.69 26.3569L1033.35 36.2656H1026.21L1036.28 21.3423L1026.97 7.70277H1034.28L1039.97 16.8894L1045.71 7.70277H1052.61ZM1091.37 7.70277V36.2656H1085.12V16.4481H1085L1074.24 36.2656H1067.18V7.70277H1073.44V27.4801H1073.56L1084.31 7.70277H1091.37ZM1124.72 43.6069H1118.66V36.2656H1100.53V43.6069H1094.47V30.9301H1096.64C1098.27 28.7371 1099.43 26.1296 1100.13 23.1075C1100.85 20.0586 1101.21 16.3679 1101.21 12.0353V7.70277H1121.55V30.9301H1124.72V43.6069ZM1115.29 30.9301V12.7976H1107.43V13.2789C1107.43 20.4197 1106.16 26.3034 1103.62 30.9301H1115.29ZM1149.56 7.70277V12.8377H1134.36V19.0557H1148.32V23.99H1134.36V31.0104H1149.84V36.2656H1128.14V7.70277H1149.56ZM1178.34 7.70277V36.2656H1172.09V16.4481H1171.97L1161.22 36.2656H1154.15V7.70277H1160.41V27.4801H1160.53L1171.28 7.70277H1178.34ZM1170.56 0.000430613H1172.81C1172.81 3.8516 1170.63 5.77719 1166.27 5.77719C1161.91 5.77719 1159.73 3.8516 1159.73 0.000430613H1161.98C1162.32 1.76555 1163.76 2.64811 1166.27 2.64811C1168.78 2.64811 1170.21 1.76555 1170.56 0.000430613Z" fill="white"/>
<path d="M1267.99 7.70277V13.0382H1259.4V36.2656H1253.11V13.0382H1244.52V7.70277H1267.99ZM1282.52 7.66266L1293.39 36.2656H1286.81L1284.56 29.8871H1273.93L1271.6 36.2656H1265.19L1276.06 7.66266H1282.52ZM1283.04 25.3139L1279.27 14.683L1275.46 25.3139H1283.04ZM1314.02 7.70277V13.0382H1305.44V36.2656H1299.14V13.0382H1290.55V7.70277H1314.02ZM1318.65 36.1453V30.8499C1319.66 31.2778 1320.67 31.4918 1321.66 31.4918C1322.57 31.4918 1323.27 31.2645 1323.78 30.8098C1324.29 30.3284 1324.55 29.74 1324.55 29.0447C1324.55 28.804 1324.52 28.5633 1324.46 28.3226C1324.41 28.0819 1324.33 27.8144 1324.22 27.5203C1324.12 27.2261 1324.02 26.9987 1323.94 26.8383C1323.86 26.6511 1323.73 26.3836 1323.54 26.036C1323.38 25.6883 1323.27 25.461 1323.22 25.354L1314.84 7.70277H1321.78L1328.24 22.7464L1334.57 7.70277H1341.27L1331.65 28.7237C1330.28 31.7191 1328.92 33.8185 1327.55 35.022C1326.19 36.1988 1324.38 36.7871 1322.14 36.7871C1320.88 36.7871 1319.72 36.5732 1318.65 36.1453ZM1352.81 22.7865V27.8813H1340.74V22.7865H1352.81ZM1383.23 25.2336C1382.91 28.8174 1381.65 31.6656 1379.46 33.7784C1377.26 35.8912 1374.26 36.9476 1370.43 36.9476C1366.29 36.9476 1362.94 35.5836 1360.4 32.8557C1357.89 30.1011 1356.63 26.4639 1356.63 21.9441C1356.63 17.665 1357.9 14.108 1360.44 11.2731C1363.01 8.43824 1366.42 7.02079 1370.67 7.02079C1374.07 7.02079 1376.92 7.98359 1379.22 9.90917C1381.52 11.8348 1382.79 14.2819 1383.03 17.2505H1376.89C1376.57 15.6726 1375.85 14.4557 1374.72 13.5999C1373.63 12.7173 1372.24 12.276 1370.55 12.276C1368.81 12.276 1367.34 12.7708 1366.14 13.7603C1364.96 14.7231 1364.13 15.9133 1363.65 17.3307C1363.17 18.7481 1362.93 20.2993 1362.93 21.9842C1362.93 24.9261 1363.61 27.2796 1364.98 29.0447C1366.34 30.7831 1368.17 31.6522 1370.47 31.6522C1374.3 31.6522 1376.48 29.5127 1377.01 25.2336H1383.23ZM1401.65 7.66266L1412.52 36.2656H1405.94L1403.7 29.8871H1393.07L1390.74 36.2656H1384.32L1395.19 7.66266H1401.65ZM1402.17 25.3139L1398.4 14.683L1394.59 25.3139H1402.17ZM1438.46 7.70277V36.2656H1432.2V13.0382H1424.54L1424.14 25.1534C1423.87 32.936 1421.22 36.8273 1416.2 36.8273C1414.81 36.8273 1413.63 36.6668 1412.67 36.3459V31.2912C1413.31 31.6121 1414.04 31.7726 1414.87 31.7726C1415.86 31.7726 1416.62 31.3313 1417.16 30.4488C1417.69 29.5394 1418 27.7476 1418.08 25.0732L1418.56 7.70277H1438.46ZM1456.78 7.02079C1460.95 7.02079 1464.32 8.4115 1466.89 11.1929C1469.48 13.9476 1470.78 17.558 1470.78 22.0243C1470.78 26.4906 1469.48 30.1011 1466.89 32.8557C1464.32 35.5836 1460.94 36.9476 1456.74 36.9476C1452.51 36.9476 1449.11 35.5836 1446.51 32.8557C1443.92 30.1011 1442.62 26.4906 1442.62 22.0243C1442.62 17.5045 1443.9 13.8807 1446.47 11.1528C1449.06 8.39812 1452.5 7.02079 1456.78 7.02079ZM1456.7 12.1557C1454.35 12.1557 1452.46 13.0382 1451.04 14.8034C1449.65 16.5685 1448.96 18.9354 1448.96 21.904C1448.96 24.9796 1449.65 27.3865 1451.04 29.1249C1452.43 30.8633 1454.35 31.7458 1456.78 31.7726C1459.16 31.7726 1461.03 30.89 1462.4 29.1249C1463.76 27.3598 1464.44 24.9528 1464.44 21.904C1464.44 18.9086 1463.75 16.5417 1462.36 14.8034C1460.97 13.0382 1459.08 12.1557 1456.7 12.1557ZM1499.28 7.70277V36.2656H1493.02V23.9499H1481.34V36.2656H1475.09V7.70277H1481.34V18.454H1493.02V7.70277H1499.28ZM1543.79 43.6069H1537.73V36.2656H1519.6V43.6069H1513.54V30.9301H1515.71C1517.34 28.7371 1518.5 26.1296 1519.2 23.1075C1519.92 20.0586 1520.28 16.3679 1520.28 12.0353V7.70277H1540.62V30.9301H1543.79V43.6069ZM1534.36 30.9301V12.7976H1526.5V13.2789C1526.5 20.4197 1525.23 26.3034 1522.69 30.9301H1534.36ZM1570.76 7.70277V36.2656H1564.5V13.0382H1556.84L1556.44 25.1534C1556.17 32.936 1553.52 36.8273 1548.49 36.8273C1547.1 36.8273 1545.93 36.6668 1544.96 36.3459V31.2912C1545.61 31.6121 1546.34 31.7726 1547.17 31.7726C1548.16 31.7726 1548.92 31.3313 1549.46 30.4488C1549.99 29.5394 1550.3 27.7476 1550.38 25.0732L1550.86 7.70277H1570.76ZM1589.72 25.0732L1581.38 36.2656H1573.51L1582.38 24.7121C1580.4 24.204 1578.81 23.2546 1577.61 21.8638C1576.43 20.4464 1575.84 18.6412 1575.84 16.4481C1575.84 13.5598 1576.76 11.3801 1578.61 9.90917C1580.48 8.43824 1582.83 7.70277 1585.67 7.70277H1599.67V36.2656H1593.45V25.0732H1589.72ZM1593.45 20.54V12.6371H1587.23C1585.63 12.6371 1584.34 12.9045 1583.38 13.4394C1582.45 13.9743 1581.98 14.9906 1581.98 16.4883C1581.98 18.0929 1582.46 19.1761 1583.42 19.7377C1584.41 20.2726 1585.78 20.54 1587.51 20.54H1593.45ZM1637.5 7.70277V13.0382H1628.91V36.2656H1622.62V13.0382H1614.03V7.70277H1637.5ZM1640.76 7.70277H1654.28C1656.96 7.70277 1659.13 8.30452 1660.82 9.50801C1662.53 10.6848 1663.39 12.4766 1663.39 14.8836C1663.39 16.2208 1663.04 17.4109 1662.34 18.454C1661.65 19.4702 1660.7 20.2458 1659.5 20.7807C1662.97 21.7702 1664.71 24.097 1664.71 27.761C1664.71 30.4621 1663.8 32.5615 1661.98 34.0592C1660.16 35.5302 1657.85 36.2656 1655.04 36.2656H1640.76V7.70277ZM1646.86 12.5569V19.2563H1652.56C1655.71 19.2563 1657.29 18.1464 1657.29 15.9266C1657.29 14.6162 1656.86 13.7336 1656.01 13.2789C1655.15 12.7976 1654 12.5569 1652.56 12.5569H1646.86ZM1646.86 23.5086V31.2912H1653.16C1654.79 31.2912 1656.07 31.0238 1657.01 30.4889C1657.97 29.954 1658.45 28.9243 1658.45 27.3999C1658.45 25.8487 1657.94 24.8191 1656.93 24.3109C1655.94 23.7761 1654.57 23.5086 1652.84 23.5086H1646.86ZM1681.97 7.02079C1686.14 7.02079 1689.51 8.4115 1692.07 11.1929C1694.67 13.9476 1695.97 17.558 1695.97 22.0243C1695.97 26.4906 1694.67 30.1011 1692.07 32.8557C1689.51 35.5836 1686.12 36.9476 1681.92 36.9476C1677.7 36.9476 1674.29 35.5836 1671.7 32.8557C1669.1 30.1011 1667.8 26.4906 1667.8 22.0243C1667.8 17.5045 1669.09 13.8807 1671.66 11.1528C1674.25 8.39812 1677.69 7.02079 1681.97 7.02079ZM1681.88 12.1557C1679.53 12.1557 1677.65 13.0382 1676.23 14.8034C1674.84 16.5685 1674.14 18.9354 1674.14 21.904C1674.14 24.9796 1674.84 27.3865 1676.23 29.1249C1677.62 30.8633 1679.53 31.7458 1681.97 31.7726C1684.35 31.7726 1686.22 30.89 1687.58 29.1249C1688.95 27.3598 1689.63 24.9528 1689.63 21.904C1689.63 18.9086 1688.93 16.5417 1687.54 14.8034C1686.15 13.0382 1684.27 12.1557 1681.88 12.1557ZM1700.31 7.70277H1712.63C1715.84 7.70277 1718.38 8.47836 1720.25 10.0295C1722.15 11.5539 1723.1 13.8406 1723.1 16.8894C1723.1 19.8848 1722.16 22.158 1720.29 23.7092C1718.42 25.2336 1715.97 25.9958 1712.95 25.9958H1706.53V36.2656H1700.31V7.70277ZM1706.53 12.8377V21.0615H1712.11C1715.37 21.0615 1717 19.6976 1717 16.9697C1717 14.215 1715.38 12.8377 1712.15 12.8377H1706.53ZM1736.05 25.2737C1732.71 25.2737 1730.17 24.4982 1728.43 22.947C1726.69 21.3691 1725.82 18.815 1725.82 15.2848V7.70277H1732.08V15.365C1732.08 17.0766 1732.42 18.2935 1733.09 19.0156C1733.78 19.7109 1734.93 20.0586 1736.54 20.0586C1737.85 20.0586 1739.73 19.8447 1742.19 19.4168V7.70277H1748.45V36.2656H1742.19V24.4714C1739.6 25.0063 1737.55 25.2737 1736.05 25.2737ZM1775.21 7.70277V12.8377H1760V19.0557H1773.96V23.99H1760V31.0104H1775.49V36.2656H1753.79V7.70277H1775.21ZM1805.31 25.2336C1804.99 28.8174 1803.73 31.6656 1801.54 33.7784C1799.35 35.8912 1796.34 36.9476 1792.52 36.9476C1788.37 36.9476 1785.03 35.5836 1782.49 32.8557C1779.97 30.1011 1778.72 26.4639 1778.72 21.9441C1778.72 17.665 1779.99 14.108 1782.53 11.2731C1785.09 8.43824 1788.5 7.02079 1792.76 7.02079C1796.15 7.02079 1799 7.98359 1801.3 9.90917C1803.6 11.8348 1804.87 14.2819 1805.11 17.2505H1798.97C1798.65 15.6726 1797.93 14.4557 1796.81 13.5999C1795.71 12.7173 1794.32 12.276 1792.64 12.276C1790.9 12.276 1789.43 12.7708 1788.22 13.7603C1787.05 14.7231 1786.22 15.9133 1785.74 17.3307C1785.25 18.7481 1785.01 20.2993 1785.01 21.9842C1785.01 24.9261 1785.7 27.2796 1787.06 29.0447C1788.42 30.7831 1790.26 31.6522 1792.56 31.6522C1796.38 31.6522 1798.56 29.5127 1799.09 25.2336H1805.31ZM1834.93 7.70277L1823.73 18.9755L1835.97 36.2656H1828.11L1819.44 23.4284L1815.79 27.0389V36.2656H1809.61V7.70277H1815.79V19.5772L1827.02 7.70277H1834.93ZM1862.67 7.70277V36.2656H1856.42V16.4481H1856.3L1845.54 36.2656H1838.48V7.70277H1844.74V27.4801H1844.86L1855.61 7.70277H1862.67ZM1891.57 7.70277L1882.38 21.3423L1892.41 36.2656H1884.91L1878.65 26.3569L1872.31 36.2656H1865.17L1875.24 21.3423L1865.93 7.70277H1873.23L1878.93 16.8894L1884.67 7.70277H1891.57ZM1931.54 7.70277L1920.34 18.9755L1932.58 36.2656H1924.72L1916.05 23.4284L1912.4 27.0389V36.2656H1906.22V7.70277H1912.4V19.5772L1923.63 7.70277H1931.54ZM1947.31 7.02079C1951.48 7.02079 1954.85 8.4115 1957.41 11.1929C1960.01 13.9476 1961.31 17.558 1961.31 22.0243C1961.31 26.4906 1960.01 30.1011 1957.41 32.8557C1954.85 35.5836 1951.46 36.9476 1947.26 36.9476C1943.04 36.9476 1939.63 35.5836 1937.04 32.8557C1934.44 30.1011 1933.14 26.4906 1933.14 22.0243C1933.14 17.5045 1934.43 13.8807 1937 11.1528C1939.59 8.39812 1943.03 7.02079 1947.31 7.02079ZM1947.22 12.1557C1944.87 12.1557 1942.99 13.0382 1941.57 14.8034C1940.18 16.5685 1939.48 18.9354 1939.48 21.904C1939.48 24.9796 1940.18 27.3865 1941.57 29.1249C1942.96 30.8633 1944.87 31.7458 1947.31 31.7726C1949.69 31.7726 1951.56 30.89 1952.92 29.1249C1954.29 27.3598 1954.97 24.9528 1954.97 21.904C1954.97 18.9086 1954.27 16.5417 1952.88 14.8034C1951.49 13.0382 1949.61 12.1557 1947.22 12.1557ZM1965.53 36.2656V7.70277H1971.79V30.9301H1981.3V7.70277H1987.55V30.9301H1997.06V7.70277H2003.32V36.2656H1965.53ZM2030.17 7.70277V12.8377H2014.96V19.0557H2028.92V23.99H2014.96V31.0104H2030.45V36.2656H2008.74V7.70277H2030.17ZM2060.15 7.70277L2048.96 18.9755L2061.19 36.2656H2053.33L2044.67 23.4284L2041.02 27.0389V36.2656H2034.84V7.70277H2041.02V19.5772L2052.25 7.70277H2060.15ZM2099.06 7.70277V36.2656H2092.81V16.4481H2092.68L2081.93 36.2656H2074.87V7.70277H2081.13V27.4801H2081.25L2092 7.70277H2099.06ZM2141.29 25.2336C2140.97 28.8174 2139.71 31.6656 2137.52 33.7784C2135.32 35.8912 2132.31 36.9476 2128.49 36.9476C2124.34 36.9476 2121 35.5836 2118.46 32.8557C2115.95 30.1011 2114.69 26.4639 2114.69 21.9441C2114.69 17.665 2115.96 14.108 2118.5 11.2731C2121.07 8.43824 2124.48 7.02079 2128.73 7.02079C2132.13 7.02079 2134.98 7.98359 2137.28 9.90917C2139.58 11.8348 2140.85 14.2819 2141.09 17.2505H2134.95C2134.63 15.6726 2133.91 14.4557 2132.78 13.5999C2131.69 12.7173 2130.3 12.276 2128.61 12.276C2126.87 12.276 2125.4 12.7708 2124.2 13.7603C2123.02 14.7231 2122.19 15.9133 2121.71 17.3307C2121.23 18.7481 2120.99 20.2993 2120.99 21.9842C2120.99 24.9261 2121.67 27.2796 2123.03 29.0447C2124.4 30.7831 2126.23 31.6522 2128.53 31.6522C2132.35 31.6522 2134.53 29.5127 2135.07 25.2336H2141.29ZM2145.51 36.2656V7.70277H2154.45L2161.11 27.3197L2167.61 7.70277H2176.36V36.2656H2170.46V15.9667L2163.44 36.2656H2158.59L2151.49 16.1673V36.2656H2145.51ZM2203.32 7.70277V12.8377H2188.12V19.0557H2202.08V23.99H2188.12V31.0104H2203.61V36.2656H2181.9V7.70277H2203.32ZM2231.46 7.70277V36.2656H2225.21V13.0382H2217.54L2217.14 25.1534C2216.87 32.936 2214.23 36.8273 2209.2 36.8273C2207.81 36.8273 2206.63 36.6668 2205.67 36.3459V31.2912C2206.31 31.6121 2207.05 31.7726 2207.88 31.7726C2208.86 31.7726 2209.63 31.3313 2210.16 30.4488C2210.7 29.5394 2211 27.7476 2211.08 25.0732L2211.57 7.70277H2231.46ZM2258.45 27.079C2258.45 30.1278 2257.5 32.4278 2255.6 33.979C2253.73 35.5034 2251.19 36.2656 2247.98 36.2656H2236.87V7.70277H2243.08V17.9726H2248.3C2251.32 17.9726 2253.77 18.7481 2255.64 20.2993C2257.51 21.8237 2258.45 24.0836 2258.45 27.079ZM2252.35 26.9987C2252.35 24.2708 2250.72 22.9069 2247.46 22.9069H2243.08V31.1307H2247.5C2250.73 31.1307 2252.35 29.7534 2252.35 26.9987ZM2261.5 7.70277H2267.76V36.2656H2261.5V7.70277ZM2296.61 7.70277L2287.42 21.3423L2297.45 36.2656H2289.95L2283.69 26.3569L2277.35 36.2656H2270.21L2280.28 21.3423L2270.97 7.70277H2278.28L2283.97 16.8894L2289.71 7.70277H2296.61ZM2335.37 7.70277V36.2656H2329.12V16.4481H2329L2318.24 36.2656H2311.18V7.70277H2317.44V27.4801H2317.56L2328.31 7.70277H2335.37ZM2368.72 43.6069H2362.66V36.2656H2344.53V43.6069H2338.47V30.9301H2340.64C2342.27 28.7371 2343.43 26.1296 2344.13 23.1075C2344.85 20.0586 2345.21 16.3679 2345.21 12.0353V7.70277H2365.55V30.9301H2368.72V43.6069ZM2359.29 30.9301V12.7976H2351.43V13.2789C2351.43 20.4197 2350.16 26.3034 2347.62 30.9301H2359.29ZM2393.56 7.70277V12.8377H2378.36V19.0557H2392.32V23.99H2378.36V31.0104H2393.84V36.2656H2372.14V7.70277H2393.56ZM2422.34 7.70277V36.2656H2416.09V16.4481H2415.97L2405.22 36.2656H2398.15V7.70277H2404.41V27.4801H2404.53L2415.28 7.70277H2422.34ZM2414.56 0.000430613H2416.81C2416.81 3.8516 2414.63 5.77719 2410.27 5.77719C2405.91 5.77719 2403.73 3.8516 2403.73 0.000430613H2405.98C2406.32 1.76555 2407.76 2.64811 2410.27 2.64811C2412.78 2.64811 2414.21 1.76555 2414.56 0.000430613Z" fill="white"/>
<path d="M2511.99 7.70277V13.0382H2503.4V36.2656H2497.11V13.0382H2488.52V7.70277H2511.99ZM2526.52 7.66266L2537.39 36.2656H2530.81L2528.56 29.8871H2517.93L2515.6 36.2656H2509.19L2520.06 7.66266H2526.52ZM2527.04 25.3139L2523.27 14.683L2519.46 25.3139H2527.04ZM2558.02 7.70277V13.0382H2549.44V36.2656H2543.14V13.0382H2534.55V7.70277H2558.02ZM2562.65 36.1453V30.8499C2563.66 31.2778 2564.67 31.4918 2565.66 31.4918C2566.57 31.4918 2567.27 31.2645 2567.78 30.8098C2568.29 30.3284 2568.55 29.74 2568.55 29.0447C2568.55 28.804 2568.52 28.5633 2568.46 28.3226C2568.41 28.0819 2568.33 27.8144 2568.22 27.5203C2568.12 27.2261 2568.02 26.9987 2567.94 26.8383C2567.86 26.6511 2567.73 26.3836 2567.54 26.036C2567.38 25.6883 2567.27 25.461 2567.22 25.354L2558.84 7.70277H2565.78L2572.24 22.7464L2578.57 7.70277H2585.27L2575.65 28.7237C2574.28 31.7191 2572.92 33.8185 2571.55 35.022C2570.19 36.1988 2568.38 36.7871 2566.14 36.7871C2564.88 36.7871 2563.72 36.5732 2562.65 36.1453ZM2596.81 22.7865V27.8813H2584.74V22.7865H2596.81ZM2627.23 25.2336C2626.91 28.8174 2625.65 31.6656 2623.46 33.7784C2621.26 35.8912 2618.26 36.9476 2614.43 36.9476C2610.29 36.9476 2606.94 35.5836 2604.4 32.8557C2601.89 30.1011 2600.63 26.4639 2600.63 21.9441C2600.63 17.665 2601.9 14.108 2604.44 11.2731C2607.01 8.43824 2610.42 7.02079 2614.67 7.02079C2618.07 7.02079 2620.92 7.98359 2623.22 9.90917C2625.52 11.8348 2626.79 14.2819 2627.03 17.2505H2620.89C2620.57 15.6726 2619.85 14.4557 2618.72 13.5999C2617.63 12.7173 2616.24 12.276 2614.55 12.276C2612.81 12.276 2611.34 12.7708 2610.14 13.7603C2608.96 14.7231 2608.13 15.9133 2607.65 17.3307C2607.17 18.7481 2606.93 20.2993 2606.93 21.9842C2606.93 24.9261 2607.61 27.2796 2608.98 29.0447C2610.34 30.7831 2612.17 31.6522 2614.47 31.6522C2618.3 31.6522 2620.48 29.5127 2621.01 25.2336H2627.23ZM2645.65 7.66266L2656.52 36.2656H2649.94L2647.7 29.8871H2637.07L2634.74 36.2656H2628.32L2639.19 7.66266H2645.65ZM2646.17 25.3139L2642.4 14.683L2638.59 25.3139H2646.17ZM2682.46 7.70277V36.2656H2676.2V13.0382H2668.54L2668.14 25.1534C2667.87 32.936 2665.22 36.8273 2660.2 36.8273C2658.81 36.8273 2657.63 36.6668 2656.67 36.3459V31.2912C2657.31 31.6121 2658.04 31.7726 2658.87 31.7726C2659.86 31.7726 2660.62 31.3313 2661.16 30.4488C2661.69 29.5394 2662 27.7476 2662.08 25.0732L2662.56 7.70277H2682.46ZM2700.78 7.02079C2704.95 7.02079 2708.32 8.4115 2710.89 11.1929C2713.48 13.9476 2714.78 17.558 2714.78 22.0243C2714.78 26.4906 2713.48 30.1011 2710.89 32.8557C2708.32 35.5836 2704.94 36.9476 2700.74 36.9476C2696.51 36.9476 2693.11 35.5836 2690.51 32.8557C2687.92 30.1011 2686.62 26.4906 2686.62 22.0243C2686.62 17.5045 2687.9 13.8807 2690.47 11.1528C2693.06 8.39812 2696.5 7.02079 2700.78 7.02079ZM2700.7 12.1557C2698.35 12.1557 2696.46 13.0382 2695.04 14.8034C2693.65 16.5685 2692.96 18.9354 2692.96 21.904C2692.96 24.9796 2693.65 27.3865 2695.04 29.1249C2696.43 30.8633 2698.35 31.7458 2700.78 31.7726C2703.16 31.7726 2705.03 30.89 2706.4 29.1249C2707.76 27.3598 2708.44 24.9528 2708.44 21.904C2708.44 18.9086 2707.75 16.5417 2706.36 14.8034C2704.97 13.0382 2703.08 12.1557 2700.7 12.1557ZM2743.28 7.70277V36.2656H2737.02V23.9499H2725.34V36.2656H2719.09V7.70277H2725.34V18.454H2737.02V7.70277H2743.28ZM2787.79 43.6069H2781.73V36.2656H2763.6V43.6069H2757.54V30.9301H2759.71C2761.34 28.7371 2762.5 26.1296 2763.2 23.1075C2763.92 20.0586 2764.28 16.3679 2764.28 12.0353V7.70277H2784.62V30.9301H2787.79V43.6069ZM2778.36 30.9301V12.7976H2770.5V13.2789C2770.5 20.4197 2769.23 26.3034 2766.69 30.9301H2778.36ZM2814.76 7.70277V36.2656H2808.5V13.0382H2800.84L2800.44 25.1534C2800.17 32.936 2797.52 36.8273 2792.49 36.8273C2791.1 36.8273 2789.93 36.6668 2788.96 36.3459V31.2912C2789.61 31.6121 2790.34 31.7726 2791.17 31.7726C2792.16 31.7726 2792.92 31.3313 2793.46 30.4488C2793.99 29.5394 2794.3 27.7476 2794.38 25.0732L2794.86 7.70277H2814.76ZM2833.72 25.0732L2825.38 36.2656H2817.51L2826.38 24.7121C2824.4 24.204 2822.81 23.2546 2821.61 21.8638C2820.43 20.4464 2819.84 18.6412 2819.84 16.4481C2819.84 13.5598 2820.76 11.3801 2822.61 9.90917C2824.48 8.43824 2826.83 7.70277 2829.67 7.70277H2843.67V36.2656H2837.45V25.0732H2833.72ZM2837.45 20.54V12.6371H2831.23C2829.63 12.6371 2828.34 12.9045 2827.38 13.4394C2826.45 13.9743 2825.98 14.9906 2825.98 16.4883C2825.98 18.0929 2826.46 19.1761 2827.42 19.7377C2828.41 20.2726 2829.78 20.54 2831.51 20.54H2837.45ZM2881.5 7.70277V13.0382H2872.91V36.2656H2866.62V13.0382H2858.03V7.70277H2881.5ZM2884.76 7.70277H2898.28C2900.96 7.70277 2903.13 8.30452 2904.82 9.50801C2906.53 10.6848 2907.39 12.4766 2907.39 14.8836C2907.39 16.2208 2907.04 17.4109 2906.34 18.454C2905.65 19.4702 2904.7 20.2458 2903.5 20.7807C2906.97 21.7702 2908.71 24.097 2908.71 27.761C2908.71 30.4621 2907.8 32.5615 2905.98 34.0592C2904.16 35.5302 2901.85 36.2656 2899.04 36.2656H2884.76V7.70277ZM2890.86 12.5569V19.2563H2896.56C2899.71 19.2563 2901.29 18.1464 2901.29 15.9266C2901.29 14.6162 2900.86 13.7336 2900.01 13.2789C2899.15 12.7976 2898 12.5569 2896.56 12.5569H2890.86ZM2890.86 23.5086V31.2912H2897.16C2898.79 31.2912 2900.07 31.0238 2901.01 30.4889C2901.97 29.954 2902.45 28.9243 2902.45 27.3999C2902.45 25.8487 2901.94 24.8191 2900.93 24.3109C2899.94 23.7761 2898.57 23.5086 2896.84 23.5086H2890.86ZM2925.97 7.02079C2930.14 7.02079 2933.51 8.4115 2936.07 11.1929C2938.67 13.9476 2939.97 17.558 2939.97 22.0243C2939.97 26.4906 2938.67 30.1011 2936.07 32.8557C2933.51 35.5836 2930.12 36.9476 2925.92 36.9476C2921.7 36.9476 2918.29 35.5836 2915.7 32.8557C2913.1 30.1011 2911.8 26.4906 2911.8 22.0243C2911.8 17.5045 2913.09 13.8807 2915.66 11.1528C2918.25 8.39812 2921.69 7.02079 2925.97 7.02079ZM2925.88 12.1557C2923.53 12.1557 2921.65 13.0382 2920.23 14.8034C2918.84 16.5685 2918.14 18.9354 2918.14 21.904C2918.14 24.9796 2918.84 27.3865 2920.23 29.1249C2921.62 30.8633 2923.53 31.7458 2925.97 31.7726C2928.35 31.7726 2930.22 30.89 2931.58 29.1249C2932.95 27.3598 2933.63 24.9528 2933.63 21.904C2933.63 18.9086 2932.93 16.5417 2931.54 14.8034C2930.15 13.0382 2928.27 12.1557 2925.88 12.1557ZM2944.31 7.70277H2956.63C2959.84 7.70277 2962.38 8.47836 2964.25 10.0295C2966.15 11.5539 2967.1 13.8406 2967.1 16.8894C2967.1 19.8848 2966.16 22.158 2964.29 23.7092C2962.42 25.2336 2959.97 25.9958 2956.95 25.9958H2950.53V36.2656H2944.31V7.70277ZM2950.53 12.8377V21.0615H2956.11C2959.37 21.0615 2961 19.6976 2961 16.9697C2961 14.215 2959.38 12.8377 2956.15 12.8377H2950.53ZM2980.05 25.2737C2976.71 25.2737 2974.17 24.4982 2972.43 22.947C2970.69 21.3691 2969.82 18.815 2969.82 15.2848V7.70277H2976.08V15.365C2976.08 17.0766 2976.42 18.2935 2977.09 19.0156C2977.78 19.7109 2978.93 20.0586 2980.54 20.0586C2981.85 20.0586 2983.73 19.8447 2986.19 19.4168V7.70277H2992.45V36.2656H2986.19V24.4714C2983.6 25.0063 2981.55 25.2737 2980.05 25.2737ZM3019.21 7.70277V12.8377H3004V19.0557H3017.96V23.99H3004V31.0104H3019.49V36.2656H2997.79V7.70277H3019.21ZM3049.31 25.2336C3048.99 28.8174 3047.73 31.6656 3045.54 33.7784C3043.35 35.8912 3040.34 36.9476 3036.52 36.9476C3032.37 36.9476 3029.03 35.5836 3026.49 32.8557C3023.97 30.1011 3022.72 26.4639 3022.72 21.9441C3022.72 17.665 3023.99 14.108 3026.53 11.2731C3029.09 8.43824 3032.5 7.02079 3036.76 7.02079C3040.15 7.02079 3043 7.98359 3045.3 9.90917C3047.6 11.8348 3048.87 14.2819 3049.11 17.2505H3042.97C3042.65 15.6726 3041.93 14.4557 3040.81 13.5999C3039.71 12.7173 3038.32 12.276 3036.64 12.276C3034.9 12.276 3033.43 12.7708 3032.22 13.7603C3031.05 14.7231 3030.22 15.9133 3029.74 17.3307C3029.25 18.7481 3029.01 20.2993 3029.01 21.9842C3029.01 24.9261 3029.7 27.2796 3031.06 29.0447C3032.42 30.7831 3034.26 31.6522 3036.56 31.6522C3040.38 31.6522 3042.56 29.5127 3043.09 25.2336H3049.31ZM3078.93 7.70277L3067.73 18.9755L3079.97 36.2656H3072.11L3063.44 23.4284L3059.79 27.0389V36.2656H3053.61V7.70277H3059.79V19.5772L3071.02 7.70277H3078.93ZM3106.67 7.70277V36.2656H3100.42V16.4481H3100.3L3089.54 36.2656H3082.48V7.70277H3088.74V27.4801H3088.86L3099.61 7.70277H3106.67ZM3135.57 7.70277L3126.38 21.3423L3136.41 36.2656H3128.91L3122.65 26.3569L3116.31 36.2656H3109.17L3119.24 21.3423L3109.93 7.70277H3117.23L3122.93 16.8894L3128.67 7.70277H3135.57ZM3175.54 7.70277L3164.34 18.9755L3176.58 36.2656H3168.72L3160.05 23.4284L3156.4 27.0389V36.2656H3150.22V7.70277H3156.4V19.5772L3167.63 7.70277H3175.54ZM3191.31 7.02079C3195.48 7.02079 3198.85 8.4115 3201.41 11.1929C3204.01 13.9476 3205.31 17.558 3205.31 22.0243C3205.31 26.4906 3204.01 30.1011 3201.41 32.8557C3198.85 35.5836 3195.46 36.9476 3191.26 36.9476C3187.04 36.9476 3183.63 35.5836 3181.04 32.8557C3178.44 30.1011 3177.14 26.4906 3177.14 22.0243C3177.14 17.5045 3178.43 13.8807 3181 11.1528C3183.59 8.39812 3187.03 7.02079 3191.31 7.02079ZM3191.22 12.1557C3188.87 12.1557 3186.99 13.0382 3185.57 14.8034C3184.18 16.5685 3183.48 18.9354 3183.48 21.904C3183.48 24.9796 3184.18 27.3865 3185.57 29.1249C3186.96 30.8633 3188.87 31.7458 3191.31 31.7726C3193.69 31.7726 3195.56 30.89 3196.92 29.1249C3198.29 27.3598 3198.97 24.9528 3198.97 21.904C3198.97 18.9086 3198.27 16.5417 3196.88 14.8034C3195.49 13.0382 3193.61 12.1557 3191.22 12.1557ZM3209.53 36.2656V7.70277H3215.79V30.9301H3225.3V7.70277H3231.55V30.9301H3241.06V7.70277H3247.32V36.2656H3209.53ZM3274.17 7.70277V12.8377H3258.96V19.0557H3272.92V23.99H3258.96V31.0104H3274.45V36.2656H3252.74V7.70277H3274.17ZM3304.15 7.70277L3292.96 18.9755L3305.19 36.2656H3297.33L3288.67 23.4284L3285.02 27.0389V36.2656H3278.84V7.70277H3285.02V19.5772L3296.25 7.70277H3304.15ZM3343.06 7.70277V36.2656H3336.81V16.4481H3336.68L3325.93 36.2656H3318.87V7.70277H3325.13V27.4801H3325.25L3336 7.70277H3343.06ZM3385.29 25.2336C3384.97 28.8174 3383.71 31.6656 3381.52 33.7784C3379.32 35.8912 3376.31 36.9476 3372.49 36.9476C3368.34 36.9476 3365 35.5836 3362.46 32.8557C3359.95 30.1011 3358.69 26.4639 3358.69 21.9441C3358.69 17.665 3359.96 14.108 3362.5 11.2731C3365.07 8.43824 3368.48 7.02079 3372.73 7.02079C3376.13 7.02079 3378.98 7.98359 3381.28 9.90917C3383.58 11.8348 3384.85 14.2819 3385.09 17.2505H3378.95C3378.63 15.6726 3377.91 14.4557 3376.78 13.5999C3375.69 12.7173 3374.3 12.276 3372.61 12.276C3370.87 12.276 3369.4 12.7708 3368.2 13.7603C3367.02 14.7231 3366.19 15.9133 3365.71 17.3307C3365.23 18.7481 3364.99 20.2993 3364.99 21.9842C3364.99 24.9261 3365.67 27.2796 3367.03 29.0447C3368.4 30.7831 3370.23 31.6522 3372.53 31.6522C3376.35 31.6522 3378.53 29.5127 3379.07 25.2336H3385.29ZM3389.51 36.2656V7.70277H3398.45L3405.11 27.3197L3411.61 7.70277H3420.36V36.2656H3414.46V15.9667L3407.44 36.2656H3402.59L3395.49 16.1673V36.2656H3389.51ZM3447.32 7.70277V12.8377H3432.12V19.0557H3446.08V23.99H3432.12V31.0104H3447.61V36.2656H3425.9V7.70277H3447.32ZM3475.46 7.70277V36.2656H3469.21V13.0382H3461.54L3461.14 25.1534C3460.87 32.936 3458.23 36.8273 3453.2 36.8273C3451.81 36.8273 3450.63 36.6668 3449.67 36.3459V31.2912C3450.31 31.6121 3451.05 31.7726 3451.88 31.7726C3452.86 31.7726 3453.63 31.3313 3454.16 30.4488C3454.7 29.5394 3455 27.7476 3455.08 25.0732L3455.57 7.70277H3475.46ZM3502.45 27.079C3502.45 30.1278 3501.5 32.4278 3499.6 33.979C3497.73 35.5034 3495.19 36.2656 3491.98 36.2656H3480.87V7.70277H3487.08V17.9726H3492.3C3495.32 17.9726 3497.77 18.7481 3499.64 20.2993C3501.51 21.8237 3502.45 24.0836 3502.45 27.079ZM3496.35 26.9987C3496.35 24.2708 3494.72 22.9069 3491.46 22.9069H3487.08V31.1307H3491.5C3494.73 31.1307 3496.35 29.7534 3496.35 26.9987ZM3505.5 7.70277H3511.76V36.2656H3505.5V7.70277ZM3540.61 7.70277L3531.42 21.3423L3541.45 36.2656H3533.95L3527.69 26.3569L3521.35 36.2656H3514.21L3524.28 21.3423L3514.97 7.70277H3522.28L3527.97 16.8894L3533.71 7.70277H3540.61ZM3579.37 7.70277V36.2656H3573.12V16.4481H3573L3562.24 36.2656H3555.18V7.70277H3561.44V27.4801H3561.56L3572.31 7.70277H3579.37ZM3612.72 43.6069H3606.66V36.2656H3588.53V43.6069H3582.47V30.9301H3584.64C3586.27 28.7371 3587.43 26.1296 3588.13 23.1075C3588.85 20.0586 3589.21 16.3679 3589.21 12.0353V7.70277H3609.55V30.9301H3612.72V43.6069ZM3603.29 30.9301V12.7976H3595.43V13.2789C3595.43 20.4197 3594.16 26.3034 3591.62 30.9301H3603.29ZM3637.56 7.70277V12.8377H3622.36V19.0557H3636.32V23.99H3622.36V31.0104H3637.84V36.2656H3616.14V7.70277H3637.56ZM3666.34 7.70277V36.2656H3660.09V16.4481H3659.97L3649.22 36.2656H3642.15V7.70277H3648.41V27.4801H3648.53L3659.28 7.70277H3666.34ZM3658.56 0.000430613H3660.81C3660.81 3.8516 3658.63 5.77719 3654.27 5.77719C3649.91 5.77719 3647.73 3.8516 3647.73 0.000430613H3649.98C3650.32 1.76555 3651.76 2.64811 3654.27 2.64811C3656.78 2.64811 3658.21 1.76555 3658.56 0.000430613Z" fill="white"/>
<circle cx="1213" cy="22.2656" r="14" fill="black"/>
<path d="M1200.45 10.8684C1203.29 7.62654 1207.89 5.34972 1212.26 5.34268C1212.79 5.33761 1212.75 5.54555 1212.9 5.56964C1212.93 5.57576 1212.97 5.57968 1213 5.58174C1213.34 5.60422 1213.57 5.41452 1213.84 5.44322C1215.27 5.59983 1216.59 5.8702 1217.9 6.35178C1219.25 6.87756 1218.38 7.25774 1218.78 7.56489C1219.52 8.19099 1219.1 7.13609 1219.52 7.11181C1220.52 7.59496 1221.45 8.21784 1222.3 8.91681C1222.03 8.82649 1221.77 8.74274 1221.51 8.66116C1221.9 8.92615 1222.37 9.40772 1221.61 9.15102C1221.72 9.2936 1221.81 9.43938 1221.92 9.58577C1222.13 9.36449 1222.81 9.83731 1222.97 9.75174C1223.14 9.66072 1222.75 9.40214 1222.76 9.39299C1222.94 9.21848 1224.22 10.7137 1224.27 10.8434C1224.48 11.1474 1224 11.1814 1224.23 11.3819C1224.61 11.7282 1224.94 10.9765 1224.67 12.166C1225.09 12.166 1224.98 12.2961 1225.19 12.585C1225.21 12.6232 1225.34 12.4783 1225.35 12.4914C1225.8 12.8347 1225.27 12.7176 1225.25 12.7328C1225.03 12.9671 1225.48 13.3319 1225.53 13.4503C1226.06 14.9007 1226.31 15.9481 1226.75 17.3906C1226.85 17.6975 1227.25 18.6185 1227.26 18.9418C1227.28 19.2575 1227.01 19.1445 1226.94 19.3239C1227.53 19.4569 1227.65 19.7167 1227.37 20.3425C1227.8 20.5064 1227.47 20.5217 1227.59 20.9274C1227.69 21.2599 1228.21 21.8693 1227.79 22.2656C1227.83 21.8194 1227.63 21.8681 1227.49 21.3849C1227.46 21.2207 1227.23 19.5349 1226.82 19.7416C1226.62 19.8416 1226.9 20.3449 1226.86 20.3729C1226.65 20.522 1226.33 20.2695 1226.38 19.997C1226.44 20.0535 1226.5 20.1241 1226.56 20.1871C1226.75 19.548 1225.72 20.155 1226.59 19.5317C1226.7 19.4529 1226.83 19.4503 1226.93 19.3309C1226.88 19.3228 1226.77 19.4624 1226.73 19.3699C1226.69 19.2767 1226.89 19.0332 1226.68 19.0524C1226.37 19.0805 1226.58 19.4559 1226.57 19.4911C1226.57 19.4911 1226.57 19.491 1226.57 19.491C1226.47 19.7895 1226.34 19.2365 1226.3 19.2178C1226.08 19.0913 1225.96 19.2374 1225.75 19.0295C1225.63 18.9116 1225.58 18.5458 1225.51 18.4257C1225.45 18.3071 1225.37 18.5467 1225.31 18.4706C1225.26 18.3954 1225.33 18.2562 1225.26 18.168C1225.23 18.1305 1225.08 18.184 1225.07 18.1656C1224.94 17.9696 1225.3 18.0019 1225.21 17.8099C1225.15 17.6812 1224.7 17.3771 1224.72 17.6986C1224.64 17.5726 1224.56 17.4496 1224.48 17.3252C1224.48 17.4288 1224.48 17.5282 1224.46 17.6315C1224.43 17.3503 1224.13 17.3463 1224.04 17.2042C1223.95 17.0628 1224.18 16.7811 1223.95 16.6859C1223.47 16.4917 1224.05 17.2849 1224.04 17.4247C1224.03 17.4762 1223.72 17.4184 1223.71 17.3981C1223.63 17.3032 1223.73 17.0964 1223.68 17.0154C1223.51 16.7281 1223.2 16.6654 1223 16.4232C1222.33 15.5888 1221.41 14.6771 1220.66 14.0607C1220.38 13.8303 1220.39 13.4829 1220.26 13.3823C1219.94 13.1523 1219.76 13.3145 1219.49 13.1318C1219.08 12.8612 1218.59 12.3258 1218.23 12.0959C1217.99 11.9342 1217.65 12.0355 1217.58 12.0111C1216.62 11.6562 1215.42 11.333 1214.58 11.227C1214.18 11.1742 1214.02 10.9044 1213.93 10.9043C1213.57 10.9103 1213.65 11.1379 1213.37 11.1039C1213.21 11.0874 1213.18 10.8754 1213.16 10.8667C1213.09 10.839 1213.04 10.8626 1213 10.9026C1212.93 10.9679 1212.88 11.0766 1212.8 11.0838C1211.98 11.1514 1211.17 11.0702 1210.36 11.2353C1210.3 11.2472 1210.27 11.1267 1210.24 11.1421C1210.08 11.2122 1210.21 11.3801 1210.04 11.4381C1209.71 11.5608 1209.35 11.6425 1208.99 11.7552C1208.95 11.7664 1208.88 11.625 1208.8 11.6571C1208.72 11.6896 1208.71 11.8526 1208.58 11.8977C1208.25 12.0161 1207.85 12.0081 1207.51 12.1831C1207.46 12.2125 1207.48 12.4164 1207.4 12.4607C1207.14 12.598 1206.68 12.6877 1206.47 12.8306C1205.76 13.2975 1205.24 13.8935 1204.71 14.4653C1204.58 14.5993 1204.34 14.6054 1204.27 14.677C1204.12 14.8382 1204.36 14.8202 1204.21 14.9895C1203.07 16.373 1202.18 18.0071 1201.8 19.7986C1201.65 20.5044 1201.72 21.3858 1201.67 22.0692C1201.66 22.1503 1201.64 22.2128 1201.61 22.2656C1201.53 22.3993 1201.41 22.4709 1201.42 22.6194C1201.43 22.9877 1201.73 23.0392 1201.79 23.409C1201.84 23.7046 1201.6 24.0905 1201.68 24.4055C1201.76 24.7169 1202.07 24.7991 1202.19 25.1331C1202.29 25.4087 1202.29 25.8404 1202.42 26.1364C1203.63 28.8473 1205.73 30.9589 1208.29 32.4038C1209.21 32.92 1210.32 33.216 1211.37 33.6455C1211.47 33.6857 1211.27 33.9401 1211.61 33.9246C1211.8 33.9143 1212.07 33.7054 1212.49 33.7124C1212.66 33.715 1212.83 33.7167 1213 33.717C1215.28 33.7431 1217.88 33.3902 1219.81 31.8988C1223.08 29.2077 1222.69 25.5451 1225.56 22.3632C1225.7 22.1884 1226.39 22.28 1226.59 22.3978C1226.44 22.5019 1226.28 22.5943 1226.11 22.6953C1226.97 22.8593 1226.76 22.8345 1226.64 23.3438C1226.57 23.6565 1226.96 23.4345 1227.05 23.6164C1227.17 23.8479 1227.43 24.9959 1226.89 24.6913C1226.98 24.7732 1227.06 24.8507 1227.15 24.9329C1227.09 25.7211 1227.02 26.5016 1226.91 27.3009C1226.89 27.4385 1227.05 27.5077 1227.03 27.652C1226.96 28.0402 1226.73 28.2771 1226.58 28.6417C1226.5 28.839 1226.67 28.9586 1226.53 29.2074C1226.39 29.4556 1226.15 29.3126 1226.22 29.7999C1226.66 29.7539 1225.86 30.6154 1225.64 30.9502C1225.61 30.9992 1225.59 31.581 1225.4 31.7673C1225.21 31.9554 1224.81 32.1327 1224.63 32.5079C1224.54 32.6842 1224.65 32.9359 1224.52 33.0973C1224.42 33.2108 1224.15 33.184 1224.01 33.3054C1223.88 33.4276 1223.71 33.8298 1223.66 33.8813C1223.47 34.0673 1223.58 33.7586 1223.45 33.8729C1222.78 34.4273 1221.94 34.9581 1221.28 35.493C1221.19 35.5591 1221.41 35.636 1221.41 35.6483C1220.91 36.2148 1221.11 35.8112 1220.86 35.77C1220.63 35.7421 1219.48 36.4254 1219.59 36.7072C1219.39 36.3661 1219.23 36.7633 1219.16 36.805C1218.89 36.9656 1218.82 36.6259 1218.59 36.8314C1218.5 36.9064 1218.78 37.0455 1218.67 37.0816C1218.38 37.1712 1218.02 36.9092 1217.65 36.9881C1217.56 37.0068 1217.58 37.1738 1217.42 37.2154C1217.26 37.2609 1216.54 37.2361 1216.93 37.4945C1216.46 37.3256 1216.42 37.4942 1215.94 37.5813C1215.81 37.602 1215.61 37.3688 1215.37 37.4901C1215.29 37.531 1215.33 37.7847 1215.19 37.8056C1214.89 37.8535 1214.57 37.6229 1214.19 37.6419C1213.8 37.6607 1213.41 37.7261 1213 37.7635C1212.65 37.7951 1212.31 37.8066 1211.96 37.7532C1211.76 37.7205 1211.83 37.4682 1211.54 37.437C1211.5 37.4339 1211.12 37.6186 1210.92 37.5692C1210.8 37.5437 1210.2 37.286 1210.08 37.2463C1209.88 37.1863 1209.79 37.4216 1209.68 37.3492C1209.38 37.1372 1209.73 36.843 1209.22 37.2358C1209.16 36.934 1208.93 36.8996 1208.95 36.5494C1208.72 36.8741 1208.66 36.4797 1208.37 36.5201C1208.09 36.5614 1207.64 37.1702 1207.84 36.4123C1207.7 36.4629 1207.15 36.4207 1207.06 36.3946C1206.81 36.3223 1207.02 36.1789 1206.83 36.1266C1206.8 36.1167 1206.77 36.2679 1206.57 36.1611C1206.44 36.0997 1205.49 35.5947 1205.45 35.5374C1204.93 34.9714 1205.86 35.6112 1206.08 35.5319C1206.08 35.5819 1206.09 35.6319 1206.09 35.6824C1206.35 35.8898 1206.33 35.5079 1206.24 35.3748C1206.15 35.242 1205.85 35.2473 1205.8 35.0931C1205.78 35.0162 1206.01 34.6856 1206.13 34.8104C1206.03 34.6138 1206.31 34.6198 1206.31 34.4832C1206.3 34.3383 1205.64 33.8994 1205.51 34.0782C1205.64 34.1657 1205.8 34.2572 1205.93 34.342C1205.92 34.7824 1204.68 35.5845 1204.46 34.7946C1204.32 34.233 1205.06 34.4045 1204.07 34.0673C1204.18 34.1733 1204.26 34.2799 1204.37 34.3754C1204.21 34.6187 1204.21 34.2266 1204.06 34.2293C1203.99 34.2304 1204.16 34.6074 1203.87 34.4764C1203.9 33.9868 1203.49 34.1943 1203.14 33.905C1203.28 33.9299 1203.42 33.9529 1203.56 33.9732C1203.18 33.2752 1204.56 34.2736 1203.57 33.2463C1203.71 33.3463 1203.84 33.4564 1203.98 33.5465C1204.01 33.3778 1204.39 33.1119 1204.4 32.9943C1204.41 32.6885 1204.11 32.6315 1203.96 32.4665C1203.89 32.395 1204.01 32.3458 1204.01 32.3398C1203.92 32.2419 1203.82 32.3916 1203.73 32.3205C1203.61 32.2311 1203.42 31.8126 1203.36 31.7774C1203.2 31.6852 1203.17 32.1407 1203.14 32.1476C1202.94 32.1841 1202.87 31.9143 1202.72 32.0749C1203.21 32.3969 1204.36 33.6536 1202.97 32.8931C1203.04 33.4439 1202.62 33.7377 1202.12 33.3047C1201.72 32.9438 1202.1 33.0528 1202.06 32.7046C1202.05 32.6618 1201.66 32.0719 1201.52 32.1412C1201.8 31.9318 1201.9 31.5628 1202.27 31.4394C1202.32 31.4215 1202.48 31.6384 1202.64 31.3753C1202.72 31.2433 1202.88 30.9372 1203.03 30.8319C1202.9 30.8769 1202.75 30.9292 1202.61 30.9743C1202.33 30.6977 1202.41 30.5627 1202.48 30.2511C1202.4 30.3185 1202.18 30.7346 1202.1 30.4162C1202.1 30.3992 1202.21 30.2973 1202.19 30.1317C1202.13 29.796 1202.14 29.7243 1202.63 29.6486C1202.08 29.2977 1202.42 28.9173 1202 28.4698C1201.56 28.8565 1201.79 28.992 1202.2 29.4084C1202.1 29.5045 1201.99 29.5892 1201.89 29.6878C1201.72 28.8627 1201.91 29.2133 1201.44 28.9734C1201.33 28.9151 1201.11 28.3663 1200.87 28.7198C1200.81 28.8043 1201 29.1261 1200.85 29.1594C1200.82 29.1671 1200.54 28.796 1200.56 28.7417C1200.74 28.0842 1201.4 28.7408 1200.69 27.5954C1200.67 27.5634 1200.51 27.6175 1200.46 27.5589C1200.36 27.4485 1200.54 27.3733 1200.46 27.2772C1200.37 27.1821 1200.06 27.1112 1200.23 26.8546C1200.53 26.4002 1201.02 27.0326 1200.94 27.4305C1201.47 27.3305 1200.74 25.1256 1200.72 24.9779C1200.38 24.3968 1200.72 25.4118 1200.59 25.503C1200.53 25.5404 1199.7 25.7515 1200.31 25.8776C1200.49 25.9105 1200.61 25.5266 1200.75 25.6964C1200.89 25.8633 1200.63 25.8571 1200.61 25.8759C1200.57 25.9416 1200.72 26.12 1200.7 26.1573C1200.32 26.7402 1199.53 26.955 1200.5 26.0295C1200.16 25.8606 1199.92 26.5581 1199.65 26.2994C1199.32 25.9717 1199.62 25.5805 1199.63 25.5312C1199.7 24.898 1199.29 25.7045 1199.32 24.9363C1199.34 24.5155 1199.8 25.4611 1199.59 24.558C1199.44 23.7979 1199.31 24.2358 1198.86 24.2435C1198.75 24.2452 1198.56 23.8147 1198.69 24.4164C1198.81 24.4163 1198.97 24.4251 1199.08 24.4462C1199.02 24.6019 1198.49 24.9517 1198.48 25.038C1198.46 25.4498 1198.76 25.3647 1198.46 25.6749C1198.81 25.4224 1198.64 25.7424 1198.74 25.8218C1199.13 26.1131 1199.11 25.6006 1198.96 26.5212C1199.11 26.3623 1199.25 26.2177 1199.4 26.0691C1199.43 26.1619 1199.47 26.2543 1199.5 26.3461C1199.15 26.6005 1199.38 27.1066 1198.84 26.762C1198.91 27.3683 1199.09 27.5675 1199.43 27.5723C1199.49 27.5732 1199.54 27.6459 1199.59 27.7388C1199.66 27.6872 1199.91 27.5621 1199.94 27.5642C1200.27 27.5809 1199.89 27.9795 1199.68 27.9883C1199.7 28.0582 1199.71 28.1148 1199.72 28.1351C1199.74 28.2649 1199.48 28.1049 1199.46 28.2249C1199.46 28.2654 1199.65 28.5822 1199.59 28.6187C1199.2 28.8556 1199.21 28.1587 1199.53 29.3879C1199.91 29.2186 1199.58 28.758 1200.04 28.6903C1200.53 28.611 1200.11 29.1765 1200.65 28.9585C1200.58 29.0258 1200.51 29.0736 1200.43 29.1449C1200.88 29.4333 1200.47 29.6782 1200.45 29.8628C1200.42 30.2283 1201.19 31.3058 1200.88 30.0901C1201.01 30.2109 1201.12 30.3444 1201.25 30.462C1200.56 30.9912 1200.77 30.714 1201.18 31.4694C1201.27 31.6336 1201.01 31.9257 1201.48 31.7796C1201.12 32.0455 1201.69 32.3017 1201.69 32.3731C1201.66 32.8761 1200.42 32.204 1200.96 31.5819C1200.58 31.6003 1200.91 31.3546 1200.73 31.1981C1200.47 30.9689 1200.37 30.9683 1200.4 30.4689C1199.81 30.3683 1201.14 31.8685 1199.99 31.1973C1198.7 30.7522 1196.05 24.8471 1196.29 22.2656C1196.28 22.0163 1196.27 21.8069 1196.27 21.6459C1196.32 18.4399 1196.77 16.6674 1198.13 14.0898C1198.24 13.8176 1199.43 11.9832 1199.57 12.6484C1199.59 12.7431 1199.24 13.5825 1199.98 13.172C1199.71 13.1696 1199.85 12.7173 1199.85 12.6725C1199.96 11.6512 1199.52 11.9473 1200.45 10.8684ZM1206.06 11.7447C1204.86 12.4505 1205.88 12.129 1206.09 12.8863C1206.22 12.79 1206.36 12.6969 1206.49 12.6064C1206.43 12.5923 1206.37 12.5786 1206.31 12.5655C1206.31 12.5656 1206.31 12.5657 1206.31 12.5658C1206.22 12.2947 1206.14 12.0207 1206.06 11.7447ZM1224.37 18.0837C1224.26 18.0683 1224.15 18.0548 1224.04 18.0373C1224.01 17.8658 1223.97 17.6962 1223.93 17.5249C1224 17.5177 1224.07 17.5098 1224.14 17.5033C1224.22 17.6959 1224.29 17.8894 1224.37 18.0837ZM1201.12 27.5721C1200.99 27.9299 1201.41 27.7033 1201.37 28.1172C1201.67 27.9184 1201.96 27.722 1202.26 27.5292C1202.1 27.3285 1201.95 27.3315 1201.92 27.0459C1201.83 27.1204 1201.74 27.1966 1201.65 27.2722C1201.69 27.3051 1201.73 27.3389 1201.77 27.3708C1201.51 27.5723 1201.28 27.1681 1201.12 27.5716C1201.12 27.5717 1201.12 27.5719 1201.12 27.5721ZM1202.62 29.858C1202.66 30.0005 1202.88 30.5588 1203.04 30.5233C1203.58 30.4062 1202.38 29.3853 1203.43 30.0071C1203.48 29.9591 1203.54 29.92 1203.59 29.8764C1203.48 29.7043 1203.38 29.5322 1203.27 29.3576C1203.06 29.5291 1202.83 29.6838 1202.62 29.858ZM1202.55 15.2821C1202.38 15.4376 1202.08 16.4318 1202.52 16.3027C1202.64 16.2694 1202.48 15.6579 1202.59 15.5222C1202.66 15.4366 1202.8 15.675 1202.85 15.4457C1202.75 15.3927 1202.65 15.3301 1202.55 15.283C1202.55 15.2827 1202.55 15.2824 1202.55 15.2821ZM1201.6 14.1127C1201.5 14.3391 1201.4 14.5767 1201.31 14.8091C1201.64 14.8106 1201.69 14.4229 1202.02 14.6334C1202.01 14.7039 1202 14.7735 1201.99 14.8438C1201.89 14.8361 1201.79 14.8286 1201.69 14.8221C1201.76 15.1127 1201.92 15.0635 1201.66 15.3505C1202.3 15.4685 1202.57 15.6282 1202.42 14.7697C1202.62 15.0514 1203.54 15.5803 1203.13 14.8706C1203.05 14.7354 1202.82 14.8906 1202.8 14.8807C1202.55 14.7512 1202.5 14.5243 1202.26 14.405C1202.15 14.3512 1202.05 14.4917 1201.9 14.4178C1201.83 14.3817 1201.74 14.1106 1201.6 14.1127ZM1203.02 14.5802C1203.11 14.7358 1203.56 14.7997 1203.62 14.5994C1203.72 14.281 1203.12 14.4152 1203.02 14.5802ZM1224.37 18.0847C1224.37 18.0843 1224.37 18.084 1224.37 18.0837C1224.37 18.0837 1224.37 18.0838 1224.37 18.0839C1224.37 18.0841 1224.37 18.0844 1224.37 18.0847ZM1202.36 29.1465C1202.57 29.2073 1202.69 29.4175 1202.87 29.2727C1202.88 29.3626 1202.89 29.453 1202.9 29.5433C1202.95 29.5026 1203.01 29.4612 1203.06 29.4209C1202.96 29.206 1202.86 28.9897 1202.78 28.7711C1202.64 28.8942 1202.5 29.0168 1202.36 29.1465ZM1203.9 31.3092C1204.11 31.5429 1204.14 31.1404 1204.29 31.0813C1204.45 31.021 1204.55 31.2904 1204.68 31.1125C1204.56 30.9885 1204.44 30.8569 1204.32 30.7271C1204.18 30.9231 1204.04 31.1137 1203.9 31.3097C1203.9 31.3095 1203.9 31.3094 1203.9 31.3092ZM1211.35 10.0168C1211.15 9.97832 1211.19 9.72938 1210.84 10.0694C1210.84 10.0693 1210.84 10.0693 1210.84 10.0692C1211.25 10.193 1211.73 10.3061 1212.13 10.0912C1211.85 9.86083 1211.68 10.0802 1211.35 10.0168ZM1201.49 26.6392C1201.29 26.6244 1201.29 27.0586 1201.48 27.0728C1201.8 27.0913 1201.8 26.6579 1201.49 26.6392ZM1220.03 10.132C1220.63 9.81967 1220.36 8.88959 1219.56 8.8114C1219.49 8.80493 1219.83 9.18081 1219.65 9.21821C1219.64 9.22137 1219.41 9.09458 1219.32 9.14012C1219.23 9.18557 1219.21 9.38195 1219.08 9.40946C1218.87 9.45748 1218.61 9.06427 1218.41 9.18075C1218.39 9.19635 1218.52 9.52132 1218.53 9.53617C1218.69 9.77222 1219.04 9.57863 1219.08 9.59432C1219.26 9.67152 1219.12 9.88831 1219.14 9.96408C1219.17 10.1065 1219.37 10.0809 1219.38 10.094C1219.53 10.4289 1218.97 10.0615 1218.84 10.1095C1218.52 10.2333 1218.62 10.5281 1218.06 10.4337C1218 10.4237 1217.44 10.1729 1218.04 10.7388C1216.44 10.7213 1218.59 11.3232 1218.85 11.3652C1218.98 11.3653 1218.95 11.0688 1219.06 11.005C1219.32 10.8595 1219.59 10.9625 1219.75 10.6442C1220.07 9.97133 1219.49 10.2006 1219.31 9.97085C1219.41 9.84003 1219.49 9.70483 1219.61 9.58955C1219.44 9.73842 1219.98 10.1539 1220.02 10.1333C1220.03 10.1329 1220.03 10.1325 1220.03 10.132ZM1215.86 9.40949C1215.55 9.11398 1215.49 9.58129 1215.22 9.26C1214.87 9.62918 1215.42 9.69381 1215.48 9.73217C1215.75 9.89513 1215.64 10.3411 1215.95 10.2707C1215.92 9.9833 1215.9 9.69698 1215.86 9.40949ZM1218.7 10.6085C1218.39 10.72 1218.76 10.8992 1218.76 10.9483C1218.7 11.4534 1217.65 10.8458 1218.7 10.6085ZM1201.03 15.9836C1200.96 16.0865 1201.2 16.122 1201.21 16.2486C1201.22 16.3735 1200.88 16.622 1201.01 16.6746C1201.15 16.7197 1201.76 16.2991 1201.55 16.9185C1201.63 16.9325 1201.68 16.9645 1201.75 16.9857C1201.83 16.8288 1201.91 16.6717 1201.99 16.518C1201.75 16.4965 1201.49 16.4772 1201.24 16.4664C1201.13 16.2916 1201.36 16.3446 1201.36 16.3402C1201.36 16.34 1201.36 16.3399 1201.36 16.3398C1201.43 16.1627 1201.19 15.754 1201.03 15.9836ZM1208.47 10.2872C1208.3 9.74076 1208.27 10.4377 1208.19 10.5453C1208.12 10.6526 1207.89 10.5204 1208.04 10.7228C1208.27 10.8064 1208.49 10.3484 1208.47 10.2865C1208.47 10.2867 1208.47 10.287 1208.47 10.2872ZM1213.94 9.13202C1213.63 9.25113 1213.68 9.40065 1213.32 9.22031C1213.33 9.35849 1213.34 9.49969 1213.35 9.63579C1213.63 9.64794 1213.63 9.24638 1213.95 9.42904C1214 9.4598 1213.87 9.76895 1214.11 9.68617C1214.06 9.51015 1214 9.31568 1213.94 9.13202ZM1212.48 9.62078C1212.8 9.58873 1213.07 8.46655 1212.43 8.98845C1212.34 9.06781 1212.23 9.64814 1212.48 9.62078ZM1202.86 13.2908C1202.44 13.7249 1203.02 13.3219 1203.25 13.3294C1202.45 14.4499 1203.32 13.1669 1203.83 13.479C1203.82 13.2527 1203.78 12.7663 1203.46 12.9449C1203.33 13.0212 1203.49 13.1008 1203.48 13.1066C1203.27 13.2706 1203.09 13.0572 1202.86 13.2908ZM1216.47 9.53161C1216.45 9.53397 1216.43 9.72868 1216.35 9.74791C1216.28 9.76676 1216.16 9.59766 1216.12 9.70883C1216.07 9.82014 1216.35 9.98599 1216.46 9.92922C1216.58 9.87097 1216.69 9.51362 1216.47 9.53161ZM1214.31 8.65718C1214 8.76812 1214.41 9.5184 1214.47 9.52347C1215.02 9.5527 1214.28 8.87574 1214.31 8.65718ZM1203.02 11.4061C1202.69 12.2106 1203.55 12.2464 1204.13 12.2366C1204.12 12.1402 1204.12 12.0422 1204.12 11.9461C1204.21 12.479 1204.17 13.1115 1204.69 12.1433C1204.18 12.4228 1204.46 12.0235 1204.45 12C1203.96 11.2983 1203.54 12.1863 1203.02 11.4056C1203.02 11.4058 1203.02 11.4059 1203.02 11.4061ZM1217.31 10.0062C1217.6 10.096 1218.39 10.2709 1218.19 9.78422C1217.89 9.84827 1217.6 9.92225 1217.31 10.0062ZM1198.32 22.9937C1198.12 23.2856 1198.14 23.55 1198.19 23.8957C1198.47 23.5515 1198.52 23.7546 1198.61 23.8485C1198.74 23.9914 1198.69 23.6166 1198.71 23.6143C1199.01 23.5944 1199.07 23.8226 1199.02 23.2926C1199.13 23.4168 1199.24 23.5359 1199.36 23.6535C1199.33 23.2577 1199.52 23.147 1199.74 22.8918C1199.18 23.1585 1199.52 22.8296 1199.23 22.544C1199.09 22.3956 1198.42 22.841 1198.32 22.9948C1198.32 22.9944 1198.32 22.9941 1198.32 22.9937ZM1202.35 11.8951C1202.37 12.0256 1202.42 12.1754 1202.45 12.3123C1202.4 12.3813 1202.35 12.4499 1202.3 12.5196C1202.23 12.466 1202.15 12.4085 1202.08 12.3589C1201.98 12.4249 1202.11 12.477 1202.09 12.5097C1202.09 12.5094 1202.09 12.5091 1202.09 12.5087C1201.9 12.9779 1201.77 13.1081 1201.32 13.2327C1201.54 13.4033 1201.76 13.5739 1201.98 13.7445C1202.01 13.6649 1202.04 13.5851 1202.07 13.5061C1201.98 13.379 1201.89 13.2508 1201.8 13.1218C1201.92 13.0997 1202.05 13.0795 1202.17 13.0611C1202.18 12.9685 1202.2 12.8622 1202.2 12.7777C1203.03 13.0123 1202.08 13.3011 1202.32 13.5173C1202.48 13.6475 1203.01 13.021 1202.99 12.8386C1202.99 12.8111 1202.44 12.5473 1202.88 12.5283C1202.95 12.5234 1203.85 13.394 1203.36 12.4465C1203.3 12.3099 1202.63 11.8699 1202.35 11.8951ZM1199.99 14.2628C1200.94 14.2408 1199.26 15.4346 1200.24 15.0585C1200.45 15.4375 1200.47 15.3913 1200.86 15.3626C1200.89 15.3606 1200.91 15.5411 1200.93 15.5361C1201.18 15.4483 1201.22 15.1943 1201.5 15.3624C1201.52 15.308 1201.53 15.2572 1201.54 15.2027C1201.16 15.232 1201.17 14.8189 1201.03 14.5547C1200.97 14.435 1200.86 14.5433 1200.8 14.4404C1200.78 14.402 1200.96 14.2641 1200.87 14.1969C1200.68 14.0456 1200.33 13.9748 1200.05 14.083C1200.05 14.0829 1200.04 14.0827 1200.04 14.0826C1200.03 14.1424 1200.01 14.2026 1199.99 14.2628ZM1208.83 8.26641C1209.04 8.66774 1209.38 8.69786 1208.85 9.08464C1208.91 9.1588 1208.96 9.23233 1209.02 9.3071C1209.11 9.26981 1209.21 9.23446 1209.3 9.19943C1209.27 7.84785 1210.22 9.14424 1209.63 8.33048C1209.56 8.24196 1209.34 8.41434 1209.52 8.08684C1209.52 8.08668 1209.52 8.08653 1209.52 8.08637C1209.19 8.25551 1209.19 8.41886 1208.83 8.26641ZM1206.72 9.42065C1206.43 10.5996 1207.93 9.4326 1207.56 9.34075C1207.52 9.32716 1206.87 9.84831 1206.72 9.42065ZM1213.04 7.16021C1213.02 7.15967 1213.01 7.15967 1213 7.16019C1212.65 7.17734 1212.64 7.65873 1212.68 7.83277C1212.72 8.00762 1212.95 7.83808 1213 7.85387C1213 7.85437 1213 7.85506 1213 7.85597C1213.06 7.90407 1213.03 7.94375 1213 7.98822C1212.98 8.02552 1212.96 8.06617 1213 8.11778C1213.01 8.1257 1213.01 8.13389 1213.02 8.14237C1213.07 8.18106 1213.69 8.37731 1213.71 8.36028C1213.88 8.24828 1213.67 7.82098 1213.71 7.77586C1213.88 7.62716 1214.07 7.85761 1214.13 7.64083C1214.26 7.17743 1213.83 7.64291 1213.77 7.64916C1213.57 7.66191 1213.6 7.39779 1213.45 7.33963C1213.3 7.28222 1213.2 7.37169 1213.06 7.35219C1213.02 7.34576 1213.06 7.16195 1213.04 7.16021ZM1211.85 8.27055C1212.2 7.8583 1211.23 7.52467 1211.12 7.63632C1210.83 7.93993 1211.7 8.4592 1211.85 8.27055ZM1201.7 13.9032C1201.69 13.4573 1201.02 13.982 1200.98 14.2463C1201.1 14.2694 1201.7 14.0502 1201.7 13.9032ZM1203.18 11.2601C1203 11.5439 1203.73 11.7136 1203.92 11.5418C1203.78 11.1289 1203.72 11.2843 1203.57 11.3871C1203.43 11.4904 1203.33 11.0391 1203.18 11.2601ZM1217.04 8.17933C1216.97 8.14202 1215.8 8.20903 1216.39 8.49519C1216.43 8.51139 1217.2 8.66165 1217.27 8.62449C1217.42 8.53901 1217.21 8.24674 1217.04 8.17933ZM1204.07 9.77814C1204.12 10.1719 1203.99 10.2691 1204.36 10.5082C1204.36 10.5081 1204.36 10.5079 1204.36 10.5078C1204.09 10.8683 1203.55 10.2157 1203.49 10.2914C1203.26 10.5569 1203.89 10.8248 1203.85 11.1101C1204.11 10.6645 1204.26 11.0698 1204.55 10.8765C1204.62 10.8334 1204.74 10.4484 1204.69 10.2959C1204.65 10.1431 1204.25 9.86679 1204.07 9.77814ZM1218.6 8.62665C1218.28 8.35203 1217.76 8.7721 1218.21 9.04242C1218.43 9.17592 1218.78 8.79388 1218.6 8.62665ZM1201.33 31.5008C1201.41 31.3606 1201.49 31.2205 1201.57 31.0801C1201.69 31.1687 1201.8 31.2549 1201.92 31.3388C1201.81 31.284 1201.71 31.2271 1201.6 31.1679C1201.72 31.406 1201.59 31.6768 1201.33 31.5014C1201.33 31.5012 1201.33 31.501 1201.33 31.5008ZM1209.25 36.7889C1209.33 36.9608 1209.67 36.5799 1209.65 36.5384C1209.49 36.2347 1209.14 36.5521 1209.25 36.7889ZM1200.28 13.5439C1199.97 13.8969 1200.75 14.0301 1200.95 13.8396C1200.74 13.899 1200.46 13.3474 1200.28 13.5439ZM1206.08 35.5319C1206.07 35.4575 1206.06 35.383 1206.05 35.3064C1206.14 35.4498 1206.13 35.5132 1206.08 35.5319ZM1217.03 7.50895C1216.98 7.43403 1216.48 7.2618 1216.4 7.31593C1216.22 7.42634 1216.52 7.90575 1216.78 7.84553C1216.8 7.83858 1217.09 7.58118 1217.03 7.50866C1217.03 7.50876 1217.03 7.50886 1217.03 7.50895ZM1201.51 32.1533C1201.51 32.1481 1201.52 32.1441 1201.52 32.1412C1201.52 32.145 1201.51 32.1495 1201.51 32.1533ZM1219.6 36.7357C1219.6 36.7267 1219.59 36.7171 1219.59 36.7072C1219.59 36.7163 1219.6 36.7255 1219.6 36.7357ZM1213.41 6.35705C1213.24 5.65637 1212.8 6.02602 1213.14 6.37084C1213.16 6.38873 1213.36 6.35421 1213.41 6.35705Z" fill="white"/>
<circle cx="2457" cy="20.2656" r="14" fill="black"/>
<path d="M2444.45 8.86843C2447.29 5.62654 2451.89 3.34972 2456.26 3.34268C2456.79 3.33761 2456.75 3.54555 2456.9 3.56964C2456.93 3.57576 2456.97 3.57968 2457 3.58174C2457.34 3.60422 2457.57 3.41452 2457.84 3.44322C2459.27 3.59983 2460.59 3.8702 2461.9 4.35178C2463.25 4.87756 2462.38 5.25774 2462.78 5.56489C2463.52 6.19099 2463.1 5.13609 2463.52 5.11181C2464.52 5.59496 2465.45 6.21784 2466.3 6.91681C2466.03 6.82649 2465.77 6.74274 2465.51 6.66116C2465.9 6.92615 2466.37 7.40772 2465.61 7.15102C2465.72 7.2936 2465.81 7.43938 2465.92 7.58577C2466.13 7.36449 2466.81 7.83731 2466.97 7.75174C2467.14 7.66072 2466.75 7.40214 2466.76 7.39299C2466.94 7.21848 2468.22 8.71369 2468.27 8.84337C2468.48 9.14745 2468 9.18145 2468.23 9.38191C2468.61 9.72818 2468.94 8.97648 2468.67 10.166C2469.09 10.166 2468.98 10.2961 2469.19 10.585C2469.21 10.6232 2469.34 10.4783 2469.35 10.4914C2469.8 10.8347 2469.27 10.7176 2469.25 10.7328C2469.03 10.9671 2469.48 11.3319 2469.53 11.4503C2470.06 12.9007 2470.31 13.9481 2470.75 15.3906C2470.85 15.6975 2471.25 16.6185 2471.26 16.9418C2471.28 17.2575 2471.01 17.1445 2470.94 17.3239C2471.53 17.4569 2471.65 17.7167 2471.37 18.3425C2471.8 18.5064 2471.47 18.5217 2471.59 18.9274C2471.69 19.2599 2472.21 19.8693 2471.79 20.2656C2471.83 19.8194 2471.63 19.8681 2471.49 19.3849C2471.46 19.2207 2471.23 17.5349 2470.82 17.7416C2470.62 17.8416 2470.9 18.3449 2470.86 18.3729C2470.65 18.522 2470.33 18.2695 2470.38 17.997C2470.44 18.0535 2470.5 18.1241 2470.56 18.1871C2470.75 17.548 2469.72 18.155 2470.59 17.5317C2470.7 17.4529 2470.83 17.4503 2470.93 17.3309C2470.88 17.3228 2470.77 17.4624 2470.73 17.3699C2470.69 17.2767 2470.89 17.0332 2470.68 17.0524C2470.37 17.0805 2470.58 17.4559 2470.57 17.4911C2470.57 17.4911 2470.57 17.491 2470.57 17.491C2470.47 17.7895 2470.34 17.2365 2470.3 17.2178C2470.08 17.0913 2469.96 17.2374 2469.75 17.0295C2469.63 16.9116 2469.58 16.5458 2469.51 16.4257C2469.45 16.3071 2469.37 16.5467 2469.31 16.4706C2469.26 16.3954 2469.33 16.2562 2469.26 16.168C2469.23 16.1305 2469.08 16.184 2469.07 16.1656C2468.94 15.9696 2469.3 16.0019 2469.21 15.8099C2469.15 15.6812 2468.7 15.3771 2468.72 15.6986C2468.64 15.5726 2468.56 15.4496 2468.48 15.3252C2468.48 15.4288 2468.48 15.5282 2468.46 15.6315C2468.43 15.3503 2468.13 15.3463 2468.04 15.2042C2467.95 15.0628 2468.18 14.7811 2467.95 14.6859C2467.47 14.4917 2468.05 15.2849 2468.04 15.4247C2468.03 15.4762 2467.72 15.4184 2467.71 15.3981C2467.63 15.3032 2467.73 15.0964 2467.68 15.0154C2467.51 14.7281 2467.2 14.6654 2467 14.4232C2466.33 13.5888 2465.41 12.6771 2464.66 12.0607C2464.38 11.8303 2464.39 11.4829 2464.26 11.3823C2463.94 11.1523 2463.76 11.3145 2463.49 11.1318C2463.08 10.8612 2462.59 10.3258 2462.23 10.0959C2461.99 9.93423 2461.65 10.0355 2461.58 10.0111C2460.62 9.65625 2459.42 9.33297 2458.58 9.227C2458.18 9.17415 2458.02 8.90444 2457.93 8.90433C2457.57 8.91026 2457.65 9.13785 2457.37 9.10391C2457.21 9.08738 2457.18 8.87542 2457.16 8.86665C2457.09 8.83902 2457.04 8.86257 2457 8.90263C2456.93 8.96787 2456.88 9.07662 2456.8 9.08376C2455.98 9.15137 2455.17 9.07017 2454.36 9.23535C2454.3 9.24719 2454.27 9.12666 2454.24 9.1421C2454.08 9.21223 2454.21 9.38012 2454.04 9.43809C2453.71 9.56082 2453.35 9.64252 2452.99 9.75519C2452.95 9.76639 2452.88 9.62499 2452.8 9.65708C2452.72 9.68956 2452.71 9.85256 2452.58 9.89767C2452.25 10.0161 2451.85 10.0081 2451.51 10.1831C2451.46 10.2125 2451.48 10.4164 2451.4 10.4607C2451.14 10.598 2450.68 10.6877 2450.47 10.8306C2449.76 11.2975 2449.24 11.8935 2448.71 12.4653C2448.58 12.5993 2448.34 12.6054 2448.27 12.677C2448.12 12.8382 2448.36 12.8202 2448.21 12.9895C2447.07 14.373 2446.18 16.0071 2445.8 17.7986C2445.65 18.5044 2445.72 19.3858 2445.67 20.0692C2445.66 20.1503 2445.64 20.2128 2445.61 20.2656C2445.53 20.3993 2445.41 20.4709 2445.42 20.6194C2445.43 20.9877 2445.73 21.0392 2445.79 21.409C2445.84 21.7046 2445.6 22.0905 2445.68 22.4055C2445.76 22.7169 2446.07 22.7991 2446.19 23.1331C2446.29 23.4087 2446.29 23.8404 2446.42 24.1364C2447.63 26.8473 2449.73 28.9589 2452.29 30.4038C2453.21 30.92 2454.32 31.216 2455.37 31.6455C2455.47 31.6857 2455.27 31.9401 2455.61 31.9246C2455.8 31.9143 2456.07 31.7054 2456.49 31.7124C2456.66 31.715 2456.83 31.7167 2457 31.717C2459.28 31.7431 2461.88 31.3902 2463.81 29.8988C2467.08 27.2077 2466.69 23.5451 2469.56 20.3632C2469.7 20.1884 2470.39 20.28 2470.59 20.3978C2470.44 20.5019 2470.28 20.5943 2470.11 20.6953C2470.97 20.8593 2470.76 20.8345 2470.64 21.3438C2470.57 21.6565 2470.96 21.4345 2471.05 21.6164C2471.17 21.8479 2471.43 22.9959 2470.89 22.6913C2470.98 22.7732 2471.06 22.8507 2471.15 22.9329C2471.09 23.7211 2471.02 24.5016 2470.91 25.3009C2470.89 25.4385 2471.05 25.5077 2471.03 25.652C2470.96 26.0402 2470.73 26.2771 2470.58 26.6417C2470.5 26.839 2470.67 26.9586 2470.53 27.2074C2470.39 27.4556 2470.15 27.3126 2470.22 27.7999C2470.66 27.7539 2469.86 28.6154 2469.64 28.9502C2469.61 28.9992 2469.59 29.581 2469.4 29.7673C2469.21 29.9554 2468.81 30.1327 2468.63 30.5079C2468.54 30.6842 2468.65 30.9359 2468.52 31.0973C2468.42 31.2108 2468.15 31.184 2468.01 31.3054C2467.88 31.4276 2467.71 31.8298 2467.66 31.8813C2467.47 32.0673 2467.58 31.7586 2467.45 31.8729C2466.78 32.4273 2465.94 32.9581 2465.28 33.493C2465.19 33.5591 2465.41 33.636 2465.41 33.6483C2464.91 34.2148 2465.11 33.8112 2464.86 33.77C2464.63 33.7421 2463.48 34.4254 2463.59 34.7072C2463.39 34.3661 2463.23 34.7633 2463.16 34.805C2462.89 34.9656 2462.82 34.6259 2462.59 34.8314C2462.5 34.9064 2462.78 35.0455 2462.67 35.0816C2462.38 35.1712 2462.02 34.9092 2461.65 34.9881C2461.56 35.0068 2461.58 35.1738 2461.42 35.2154C2461.26 35.2609 2460.54 35.2361 2460.93 35.4945C2460.46 35.3256 2460.42 35.4942 2459.94 35.5813C2459.81 35.602 2459.61 35.3688 2459.37 35.4901C2459.29 35.531 2459.33 35.7847 2459.19 35.8056C2458.89 35.8535 2458.57 35.6229 2458.19 35.6419C2457.8 35.6607 2457.41 35.7261 2457 35.7635C2456.65 35.7951 2456.31 35.8066 2455.96 35.7532C2455.76 35.7205 2455.83 35.4682 2455.54 35.437C2455.5 35.4339 2455.12 35.6186 2454.92 35.5692C2454.8 35.5437 2454.2 35.286 2454.08 35.2463C2453.88 35.1863 2453.79 35.4216 2453.68 35.3492C2453.38 35.1372 2453.73 34.843 2453.22 35.2358C2453.16 34.934 2452.93 34.8996 2452.95 34.5494C2452.72 34.8741 2452.66 34.4797 2452.37 34.5201C2452.09 34.5614 2451.64 35.1702 2451.84 34.4123C2451.7 34.4629 2451.15 34.4207 2451.06 34.3946C2450.81 34.3223 2451.02 34.1789 2450.83 34.1266C2450.8 34.1167 2450.77 34.2679 2450.57 34.1611C2450.44 34.0997 2449.49 33.5947 2449.45 33.5374C2448.93 32.9714 2449.86 33.6112 2450.08 33.5319C2450.08 33.5819 2450.09 33.6319 2450.09 33.6824C2450.35 33.8898 2450.33 33.5079 2450.24 33.3748C2450.15 33.242 2449.85 33.2473 2449.8 33.0931C2449.78 33.0162 2450.01 32.6856 2450.13 32.8104C2450.03 32.6138 2450.31 32.6198 2450.31 32.4832C2450.3 32.3383 2449.64 31.8994 2449.51 32.0782C2449.64 32.1657 2449.8 32.2572 2449.93 32.342C2449.92 32.7824 2448.68 33.5845 2448.46 32.7946C2448.32 32.233 2449.06 32.4045 2448.07 32.0673C2448.18 32.1733 2448.26 32.2799 2448.37 32.3754C2448.21 32.6187 2448.21 32.2266 2448.06 32.2293C2447.99 32.2304 2448.16 32.6074 2447.87 32.4764C2447.9 31.9868 2447.49 32.1943 2447.14 31.905C2447.28 31.9299 2447.42 31.9529 2447.56 31.9732C2447.18 31.2752 2448.56 32.2736 2447.57 31.2463C2447.71 31.3463 2447.84 31.4564 2447.98 31.5465C2448.01 31.3778 2448.39 31.1119 2448.4 30.9943C2448.41 30.6885 2448.11 30.6315 2447.96 30.4665C2447.89 30.395 2448.01 30.3458 2448.01 30.3398C2447.92 30.2419 2447.82 30.3916 2447.73 30.3205C2447.61 30.2311 2447.42 29.8126 2447.36 29.7774C2447.2 29.6852 2447.17 30.1407 2447.14 30.1476C2446.94 30.1841 2446.87 29.9143 2446.72 30.0749C2447.21 30.3969 2448.36 31.6536 2446.97 30.8931C2447.04 31.4439 2446.62 31.7377 2446.12 31.3047C2445.72 30.9438 2446.1 31.0528 2446.06 30.7046C2446.05 30.6618 2445.66 30.0719 2445.52 30.1412C2445.8 29.9318 2445.9 29.5628 2446.27 29.4394C2446.32 29.4215 2446.48 29.6384 2446.64 29.3753C2446.72 29.2433 2446.88 28.9372 2447.03 28.8319C2446.9 28.8769 2446.75 28.9292 2446.61 28.9743C2446.33 28.6977 2446.41 28.5627 2446.48 28.2511C2446.4 28.3185 2446.18 28.7346 2446.1 28.4162C2446.1 28.3992 2446.21 28.2973 2446.19 28.1317C2446.13 27.796 2446.14 27.7243 2446.63 27.6486C2446.08 27.2977 2446.42 26.9173 2446 26.4698C2445.56 26.8565 2445.79 26.992 2446.2 27.4084C2446.1 27.5045 2445.99 27.5892 2445.89 27.6878C2445.72 26.8627 2445.91 27.2133 2445.44 26.9734C2445.33 26.9151 2445.11 26.3663 2444.87 26.7198C2444.81 26.8043 2445 27.1261 2444.85 27.1594C2444.82 27.1671 2444.54 26.796 2444.56 26.7417C2444.74 26.0842 2445.4 26.7408 2444.69 25.5954C2444.67 25.5634 2444.51 25.6175 2444.46 25.5589C2444.36 25.4485 2444.54 25.3733 2444.46 25.2772C2444.37 25.1821 2444.06 25.1112 2444.23 24.8546C2444.53 24.4002 2445.02 25.0326 2444.94 25.4305C2445.47 25.3305 2444.74 23.1256 2444.72 22.9779C2444.38 22.3968 2444.72 23.4118 2444.59 23.503C2444.53 23.5404 2443.7 23.7515 2444.31 23.8776C2444.49 23.9105 2444.61 23.5266 2444.75 23.6964C2444.89 23.8633 2444.63 23.8571 2444.61 23.8759C2444.57 23.9416 2444.72 24.12 2444.7 24.1573C2444.32 24.7402 2443.53 24.955 2444.5 24.0295C2444.16 23.8606 2443.92 24.5581 2443.65 24.2994C2443.32 23.9717 2443.62 23.5805 2443.63 23.5312C2443.7 22.898 2443.29 23.7045 2443.32 22.9363C2443.34 22.5155 2443.8 23.4611 2443.59 22.558C2443.44 21.7979 2443.31 22.2358 2442.86 22.2435C2442.75 22.2452 2442.56 21.8147 2442.69 22.4164C2442.81 22.4163 2442.97 22.4251 2443.08 22.4462C2443.02 22.6019 2442.49 22.9517 2442.48 23.038C2442.46 23.4498 2442.76 23.3647 2442.46 23.6749C2442.81 23.4224 2442.64 23.7424 2442.74 23.8218C2443.13 24.1131 2443.11 23.6006 2442.96 24.5212C2443.11 24.3623 2443.25 24.2177 2443.4 24.0691C2443.43 24.1619 2443.47 24.2543 2443.5 24.3461C2443.15 24.6005 2443.38 25.1066 2442.84 24.762C2442.91 25.3683 2443.09 25.5675 2443.43 25.5723C2443.49 25.5732 2443.54 25.6459 2443.59 25.7388C2443.66 25.6872 2443.91 25.5621 2443.94 25.5642C2444.27 25.5809 2443.89 25.9795 2443.68 25.9883C2443.7 26.0582 2443.71 26.1148 2443.72 26.1351C2443.74 26.2649 2443.48 26.1049 2443.46 26.2249C2443.46 26.2654 2443.65 26.5822 2443.59 26.6187C2443.2 26.8556 2443.21 26.1587 2443.53 27.3879C2443.91 27.2186 2443.58 26.758 2444.04 26.6903C2444.53 26.611 2444.11 27.1765 2444.65 26.9585C2444.58 27.0258 2444.51 27.0736 2444.43 27.1449C2444.88 27.4333 2444.47 27.6782 2444.45 27.8628C2444.42 28.2283 2445.19 29.3058 2444.88 28.0901C2445.01 28.2109 2445.12 28.3444 2445.25 28.462C2444.56 28.9912 2444.77 28.714 2445.18 29.4694C2445.27 29.6336 2445.01 29.9257 2445.48 29.7796C2445.12 30.0455 2445.69 30.3017 2445.69 30.3731C2445.66 30.8761 2444.42 30.204 2444.96 29.5819C2444.58 29.6003 2444.91 29.3546 2444.73 29.1981C2444.47 28.9689 2444.37 28.9683 2444.4 28.4689C2443.81 28.3683 2445.14 29.8685 2443.99 29.1973C2442.7 28.7522 2440.05 22.8471 2440.29 20.2656C2440.28 20.0163 2440.27 19.8069 2440.27 19.6459C2440.32 16.4399 2440.77 14.6674 2442.13 12.0898C2442.24 11.8176 2443.43 9.98323 2443.57 10.6484C2443.59 10.7431 2443.24 11.5825 2443.98 11.172C2443.71 11.1696 2443.85 10.7173 2443.85 10.6725C2443.96 9.65123 2443.52 9.94728 2444.45 8.86843ZM2450.06 9.74473C2448.86 10.4505 2449.88 10.129 2450.09 10.8863C2450.22 10.79 2450.36 10.6969 2450.49 10.6064C2450.43 10.5923 2450.37 10.5786 2450.31 10.5655C2450.31 10.5656 2450.31 10.5657 2450.31 10.5658C2450.22 10.2947 2450.14 10.0207 2450.06 9.74473ZM2468.37 16.0837C2468.26 16.0683 2468.15 16.0548 2468.04 16.0373C2468.01 15.8658 2467.97 15.6962 2467.93 15.5249C2468 15.5177 2468.07 15.5098 2468.14 15.5033C2468.22 15.6959 2468.29 15.8894 2468.37 16.0837ZM2445.12 25.5721C2444.99 25.9299 2445.41 25.7033 2445.37 26.1172C2445.67 25.9184 2445.96 25.722 2446.26 25.5292C2446.1 25.3285 2445.95 25.3315 2445.92 25.0459C2445.83 25.1204 2445.74 25.1966 2445.65 25.2722C2445.69 25.3051 2445.73 25.3389 2445.77 25.3708C2445.51 25.5723 2445.28 25.1681 2445.12 25.5716C2445.12 25.5717 2445.12 25.5719 2445.12 25.5721ZM2446.62 27.858C2446.66 28.0005 2446.88 28.5588 2447.04 28.5233C2447.58 28.4062 2446.38 27.3853 2447.43 28.0071C2447.48 27.9591 2447.54 27.92 2447.59 27.8764C2447.48 27.7043 2447.38 27.5322 2447.27 27.3576C2447.06 27.5291 2446.83 27.6838 2446.62 27.858ZM2446.55 13.2821C2446.38 13.4376 2446.08 14.4318 2446.52 14.3027C2446.64 14.2694 2446.48 13.6579 2446.59 13.5222C2446.66 13.4366 2446.8 13.675 2446.85 13.4457C2446.75 13.3927 2446.65 13.3301 2446.55 13.283C2446.55 13.2827 2446.55 13.2824 2446.55 13.2821ZM2445.6 12.1127C2445.5 12.3391 2445.4 12.5767 2445.31 12.8091C2445.64 12.8106 2445.69 12.4229 2446.02 12.6334C2446.01 12.7039 2446 12.7735 2445.99 12.8438C2445.89 12.8361 2445.79 12.8286 2445.69 12.8221C2445.76 13.1127 2445.92 13.0635 2445.66 13.3505C2446.3 13.4685 2446.57 13.6282 2446.42 12.7697C2446.62 13.0514 2447.54 13.5803 2447.13 12.8706C2447.05 12.7354 2446.82 12.8906 2446.8 12.8807C2446.55 12.7512 2446.5 12.5243 2446.26 12.405C2446.15 12.3512 2446.05 12.4917 2445.9 12.4178C2445.83 12.3817 2445.74 12.1106 2445.6 12.1127ZM2447.02 12.5802C2447.11 12.7358 2447.56 12.7997 2447.62 12.5994C2447.72 12.281 2447.12 12.4152 2447.02 12.5802ZM2468.37 16.0847C2468.37 16.0843 2468.37 16.084 2468.37 16.0837C2468.37 16.0837 2468.37 16.0838 2468.37 16.0839C2468.37 16.0841 2468.37 16.0844 2468.37 16.0847ZM2446.36 27.1465C2446.57 27.2073 2446.69 27.4175 2446.87 27.2727C2446.88 27.3626 2446.89 27.453 2446.9 27.5433C2446.95 27.5026 2447.01 27.4612 2447.06 27.4209C2446.96 27.206 2446.86 26.9897 2446.78 26.7711C2446.64 26.8942 2446.5 27.0168 2446.36 27.1465ZM2447.9 29.3092C2448.11 29.5429 2448.14 29.1404 2448.29 29.0813C2448.45 29.021 2448.55 29.2904 2448.68 29.1125C2448.56 28.9885 2448.44 28.8569 2448.32 28.7271C2448.18 28.9231 2448.04 29.1137 2447.9 29.3097C2447.9 29.3095 2447.9 29.3094 2447.9 29.3092ZM2455.35 8.01685C2455.15 7.97832 2455.19 7.72938 2454.84 8.06936C2454.84 8.0693 2454.84 8.06925 2454.84 8.0692C2455.25 8.19297 2455.73 8.3061 2456.13 8.09123C2455.85 7.86083 2455.68 8.08018 2455.35 8.01685ZM2445.49 24.6392C2445.29 24.6244 2445.29 25.0586 2445.48 25.0728C2445.8 25.0913 2445.8 24.6579 2445.49 24.6392ZM2464.03 8.13204C2464.63 7.81967 2464.36 6.88959 2463.56 6.8114C2463.49 6.80493 2463.83 7.18081 2463.65 7.21821C2463.64 7.22137 2463.41 7.09458 2463.32 7.14012C2463.23 7.18557 2463.21 7.38195 2463.08 7.40946C2462.87 7.45748 2462.61 7.06427 2462.41 7.18075C2462.39 7.19635 2462.52 7.52132 2462.53 7.53617C2462.69 7.77222 2463.04 7.57863 2463.08 7.59432C2463.26 7.67152 2463.12 7.88831 2463.14 7.96408C2463.17 8.10652 2463.37 8.08087 2463.38 8.09401C2463.53 8.42892 2462.97 8.06145 2462.84 8.10949C2462.52 8.23329 2462.62 8.52809 2462.06 8.43373C2462 8.42368 2461.44 8.17294 2462.04 8.73883C2460.44 8.72131 2462.59 9.32321 2462.85 9.36524C2462.98 9.36528 2462.95 9.06879 2463.06 9.00498C2463.32 8.85945 2463.59 8.96245 2463.75 8.64421C2464.07 7.97133 2463.49 8.20062 2463.31 7.97085C2463.41 7.84003 2463.49 7.70483 2463.61 7.58955C2463.44 7.73842 2463.98 8.15393 2464.02 8.13331C2464.03 8.13289 2464.03 8.13246 2464.03 8.13204ZM2459.86 7.40949C2459.55 7.11398 2459.49 7.58129 2459.22 7.26C2458.87 7.62918 2459.42 7.69381 2459.48 7.73217C2459.75 7.89513 2459.64 8.34106 2459.95 8.27072C2459.92 7.9833 2459.9 7.69698 2459.86 7.40949ZM2462.7 8.60852C2462.39 8.72002 2462.76 8.89924 2462.76 8.94831C2462.7 9.45338 2461.65 8.84577 2462.7 8.60852ZM2445.03 13.9836C2444.96 14.0865 2445.2 14.122 2445.21 14.2486C2445.22 14.3735 2444.88 14.622 2445.01 14.6746C2445.15 14.7197 2445.76 14.2991 2445.55 14.9185C2445.63 14.9325 2445.68 14.9645 2445.75 14.9857C2445.83 14.8288 2445.91 14.6717 2445.99 14.518C2445.75 14.4965 2445.49 14.4772 2445.24 14.4664C2445.13 14.2916 2445.36 14.3446 2445.36 14.3402C2445.36 14.34 2445.36 14.3399 2445.36 14.3398C2445.43 14.1627 2445.19 13.754 2445.03 13.9836ZM2452.47 8.2872C2452.3 7.74076 2452.27 8.43769 2452.19 8.54526C2452.12 8.65264 2451.89 8.52043 2452.04 8.72279C2452.27 8.80639 2452.49 8.34842 2452.47 8.28651C2452.47 8.28674 2452.47 8.28697 2452.47 8.2872ZM2457.94 7.13202C2457.63 7.25113 2457.68 7.40065 2457.32 7.22031C2457.33 7.35849 2457.34 7.49969 2457.35 7.63579C2457.63 7.64794 2457.63 7.24638 2457.95 7.42904C2458 7.4598 2457.87 7.76895 2458.11 7.68617C2458.06 7.51015 2458 7.31568 2457.94 7.13202ZM2456.48 7.62078C2456.8 7.58873 2457.07 6.46655 2456.43 6.98845C2456.34 7.06781 2456.23 7.64814 2456.48 7.62078ZM2446.86 11.2908C2446.44 11.7249 2447.02 11.3219 2447.25 11.3294C2446.45 12.4499 2447.32 11.1669 2447.83 11.479C2447.82 11.2527 2447.78 10.7663 2447.46 10.9449C2447.33 11.0212 2447.49 11.1008 2447.48 11.1066C2447.27 11.2706 2447.09 11.0572 2446.86 11.2908ZM2460.47 7.53161C2460.45 7.53397 2460.43 7.72868 2460.35 7.74791C2460.28 7.76676 2460.16 7.59766 2460.12 7.70883C2460.07 7.82014 2460.35 7.98599 2460.46 7.92922C2460.58 7.87097 2460.69 7.51362 2460.47 7.53161ZM2458.31 6.65718C2458 6.76812 2458.41 7.5184 2458.47 7.52347C2459.02 7.5527 2458.28 6.87574 2458.31 6.65718ZM2447.02 9.4061C2446.69 10.2106 2447.55 10.2464 2448.13 10.2366C2448.12 10.1402 2448.12 10.0422 2448.12 9.94614C2448.21 10.479 2448.17 11.1115 2448.69 10.1433C2448.18 10.4228 2448.46 10.0235 2448.45 9.99999C2447.96 9.29828 2447.54 10.1863 2447.02 9.40562C2447.02 9.40578 2447.02 9.40594 2447.02 9.4061ZM2461.31 8.00618C2461.6 8.09604 2462.39 8.27093 2462.19 7.78422C2461.89 7.84827 2461.6 7.92225 2461.31 8.00618ZM2442.32 20.9937C2442.12 21.2856 2442.14 21.55 2442.19 21.8957C2442.47 21.5515 2442.52 21.7546 2442.61 21.8485C2442.74 21.9914 2442.69 21.6166 2442.71 21.6143C2443.01 21.5944 2443.07 21.8226 2443.02 21.2926C2443.13 21.4168 2443.24 21.5359 2443.36 21.6535C2443.33 21.2577 2443.52 21.147 2443.74 20.8918C2443.18 21.1585 2443.52 20.8296 2443.23 20.544C2443.09 20.3956 2442.42 20.841 2442.32 20.9948C2442.32 20.9944 2442.32 20.9941 2442.32 20.9937ZM2446.35 9.89506C2446.37 10.0256 2446.42 10.1754 2446.45 10.3123C2446.4 10.3813 2446.35 10.4499 2446.3 10.5196C2446.23 10.466 2446.15 10.4085 2446.08 10.3589C2445.98 10.4249 2446.11 10.477 2446.09 10.5097C2446.09 10.5094 2446.09 10.5091 2446.09 10.5087C2445.9 10.9779 2445.77 11.1081 2445.32 11.2327C2445.54 11.4033 2445.76 11.5739 2445.98 11.7445C2446.01 11.6649 2446.04 11.5851 2446.07 11.5061C2445.98 11.379 2445.89 11.2508 2445.8 11.1218C2445.92 11.0997 2446.05 11.0795 2446.17 11.0611C2446.18 10.9685 2446.2 10.8622 2446.2 10.7777C2447.03 11.0123 2446.08 11.3011 2446.32 11.5173C2446.48 11.6475 2447.01 11.021 2446.99 10.8386C2446.99 10.8111 2446.44 10.5473 2446.88 10.5283C2446.95 10.5234 2447.85 11.394 2447.36 10.4465C2447.3 10.3099 2446.63 9.86992 2446.35 9.89506ZM2443.99 12.2628C2444.94 12.2408 2443.26 13.4346 2444.24 13.0585C2444.45 13.4375 2444.47 13.3913 2444.86 13.3626C2444.89 13.3606 2444.91 13.5411 2444.93 13.5361C2445.18 13.4483 2445.22 13.1943 2445.5 13.3624C2445.52 13.308 2445.53 13.2572 2445.54 13.2027C2445.16 13.232 2445.17 12.8189 2445.03 12.5547C2444.97 12.435 2444.86 12.5433 2444.8 12.4404C2444.78 12.402 2444.96 12.2641 2444.87 12.1969C2444.68 12.0456 2444.33 11.9748 2444.05 12.083C2444.05 12.0829 2444.04 12.0827 2444.04 12.0826C2444.03 12.1424 2444.01 12.2026 2443.99 12.2628ZM2452.83 6.26641C2453.04 6.66774 2453.38 6.69786 2452.85 7.08464C2452.91 7.1588 2452.96 7.23233 2453.02 7.3071C2453.11 7.26981 2453.21 7.23446 2453.3 7.19943C2453.27 5.84785 2454.22 7.14424 2453.63 6.33048C2453.56 6.24196 2453.34 6.41434 2453.52 6.08684C2453.52 6.08668 2453.52 6.08653 2453.52 6.08637C2453.19 6.25551 2453.19 6.41886 2452.83 6.26641ZM2450.72 7.42065C2450.43 8.59959 2451.93 7.4326 2451.56 7.34075C2451.52 7.32716 2450.87 7.84831 2450.72 7.42065ZM2457.04 5.16021C2457.02 5.15967 2457.01 5.15967 2457 5.16019C2456.65 5.17734 2456.64 5.65873 2456.68 5.83277C2456.72 6.00762 2456.95 5.83808 2457 5.85387C2457 5.85437 2457 5.85506 2457 5.85597C2457.06 5.90407 2457.03 5.94375 2457 5.98822C2456.98 6.02552 2456.96 6.06617 2457 6.11778C2457.01 6.1257 2457.01 6.13389 2457.02 6.14237C2457.07 6.18106 2457.69 6.37731 2457.71 6.36028C2457.88 6.24828 2457.67 5.82098 2457.71 5.77586C2457.88 5.62716 2458.07 5.85761 2458.13 5.64083C2458.26 5.17743 2457.83 5.64291 2457.77 5.64916C2457.57 5.66191 2457.6 5.39779 2457.45 5.33963C2457.3 5.28222 2457.2 5.37169 2457.06 5.35219C2457.02 5.34576 2457.06 5.16195 2457.04 5.16021ZM2455.85 6.27055C2456.2 5.8583 2455.23 5.52467 2455.12 5.63632C2454.83 5.93993 2455.7 6.4592 2455.85 6.27055ZM2445.7 11.9032C2445.69 11.4573 2445.02 11.982 2444.98 12.2463C2445.1 12.2694 2445.7 12.0502 2445.7 11.9032ZM2447.18 9.26006C2447 9.54391 2447.73 9.71356 2447.92 9.5418C2447.78 9.12895 2447.72 9.2843 2447.57 9.38705C2447.43 9.49039 2447.33 9.03911 2447.18 9.26006ZM2461.04 6.17933C2460.97 6.14202 2459.8 6.20903 2460.39 6.49519C2460.43 6.51139 2461.2 6.66165 2461.27 6.62449C2461.42 6.53901 2461.21 6.24674 2461.04 6.17933ZM2448.07 7.77814C2448.12 8.17188 2447.99 8.26909 2448.36 8.50822C2448.36 8.50808 2448.36 8.50794 2448.36 8.50781C2448.09 8.86828 2447.55 8.21575 2447.49 8.29138C2447.26 8.55691 2447.89 8.82485 2447.85 9.11007C2448.11 8.66454 2448.26 9.06982 2448.55 8.87654C2448.62 8.83342 2448.74 8.44836 2448.69 8.29594C2448.65 8.14313 2448.25 7.86679 2448.07 7.77814ZM2462.6 6.62665C2462.28 6.35203 2461.76 6.7721 2462.21 7.04242C2462.43 7.17592 2462.78 6.79388 2462.6 6.62665ZM2445.33 29.5008C2445.41 29.3606 2445.49 29.2205 2445.57 29.0801C2445.69 29.1687 2445.8 29.2549 2445.92 29.3388C2445.81 29.284 2445.71 29.2271 2445.6 29.1679C2445.72 29.406 2445.59 29.6768 2445.33 29.5014C2445.33 29.5012 2445.33 29.501 2445.33 29.5008ZM2453.25 34.7889C2453.33 34.9608 2453.67 34.5799 2453.65 34.5384C2453.49 34.2347 2453.14 34.5521 2453.25 34.7889ZM2444.28 11.5439C2443.97 11.8969 2444.75 12.0301 2444.95 11.8396C2444.74 11.899 2444.46 11.3474 2444.28 11.5439ZM2450.08 33.5319C2450.07 33.4575 2450.06 33.383 2450.05 33.3064C2450.14 33.4498 2450.13 33.5132 2450.08 33.5319ZM2461.03 5.50895C2460.98 5.43403 2460.48 5.2618 2460.4 5.31593C2460.22 5.42634 2460.52 5.90575 2460.78 5.84553C2460.8 5.83858 2461.09 5.58118 2461.03 5.50866C2461.03 5.50876 2461.03 5.50886 2461.03 5.50895ZM2445.51 30.1533C2445.51 30.1481 2445.52 30.1441 2445.52 30.1412C2445.52 30.145 2445.51 30.1495 2445.51 30.1533ZM2463.6 34.7357C2463.6 34.7267 2463.59 34.7171 2463.59 34.7072C2463.59 34.7163 2463.6 34.7255 2463.6 34.7357ZM2457.41 4.35705C2457.24 3.65637 2456.8 4.02602 2457.14 4.37084C2457.16 4.38873 2457.36 4.35421 2457.41 4.35705Z" fill="white"/>
</svg>
